%TF.GenerationSoftware,KiCad,Pcbnew,10.0.3*%
%TF.CreationDate,2026-09-07T16:49:22-07:00*%
%TF.ProjectId,stm32breakout,73746d33-3262-4726-9561-6b6f75742e6b,rev?*%
%TF.SameCoordinates,Original*%
%TF.FileFunction,Paste,Top*%
%TF.FilePolarity,Positive*%
%FSLAX46Y46*%
G04 Gerber Fmt 4.6, Leading zero omitted, Abs format (unit mm)*
G04 Created by KiCad (PCBNEW 10.0.3) date 2026-09-07 16:49:22*
%MOMM*%
%LPD*%
G01*
G04 APERTURE LIST*
G04 Aperture macros list*
%AMRoundRect*
0 Rectangle with rounded corners*
0 $1 Rounding radius*
0 $2 $3 $4 $5 $6 $7 $8 $9 X,Y pos of 4 corners*
0 Add a 4 corners polygon primitive as box body*
4,1,4,$2,$3,$4,$5,$6,$7,$8,$9,$2,$3,0*
0 Add four circle primitives for the rounded corners*
1,1,$1+$1,$2,$3*
1,1,$1+$1,$4,$5*
1,1,$1+$1,$6,$7*
1,1,$1+$1,$8,$9*
0 Add four rect primitives between the rounded corners*
20,1,$1+$1,$2,$3,$4,$5,0*
20,1,$1+$1,$4,$5,$6,$7,0*
20,1,$1+$1,$6,$7,$8,$9,0*
20,1,$1+$1,$8,$9,$2,$3,0*%
G04 Aperture macros list end*
%ADD10RoundRect,0.200000X-0.200000X-0.275000X0.200000X-0.275000X0.200000X0.275000X-0.200000X0.275000X0*%
%ADD11RoundRect,0.200000X0.275000X-0.200000X0.275000X0.200000X-0.275000X0.200000X-0.275000X-0.200000X0*%
%ADD12R,1.700000X1.000000*%
%ADD13RoundRect,0.150000X0.150000X-0.512500X0.150000X0.512500X-0.150000X0.512500X-0.150000X-0.512500X0*%
%ADD14RoundRect,0.075000X-0.662500X-0.075000X0.662500X-0.075000X0.662500X0.075000X-0.662500X0.075000X0*%
%ADD15RoundRect,0.075000X-0.075000X-0.662500X0.075000X-0.662500X0.075000X0.662500X-0.075000X0.662500X0*%
%ADD16RoundRect,0.225000X-0.225000X-0.250000X0.225000X-0.250000X0.225000X0.250000X-0.225000X0.250000X0*%
%ADD17RoundRect,0.250000X-0.250000X-0.475000X0.250000X-0.475000X0.250000X0.475000X-0.250000X0.475000X0*%
%ADD18RoundRect,0.250000X0.350000X-0.450000X0.350000X0.450000X-0.350000X0.450000X-0.350000X-0.450000X0*%
%ADD19RoundRect,0.218750X-0.218750X-0.256250X0.218750X-0.256250X0.218750X0.256250X-0.218750X0.256250X0*%
%ADD20R,1.800000X1.000000*%
%ADD21RoundRect,0.150000X-0.150000X-0.575000X0.150000X-0.575000X0.150000X0.575000X-0.150000X0.575000X0*%
%ADD22RoundRect,0.075000X-0.075000X-0.650000X0.075000X-0.650000X0.075000X0.650000X-0.075000X0.650000X0*%
%ADD23RoundRect,0.225000X0.250000X-0.225000X0.250000X0.225000X-0.250000X0.225000X-0.250000X-0.225000X0*%
G04 APERTURE END LIST*
D10*
%TO.C,R5*%
X37175000Y-53000000D03*
X38825000Y-53000000D03*
%TD*%
D11*
%TO.C,R1*%
X22000000Y-72325000D03*
X22000000Y-70675000D03*
%TD*%
D10*
%TO.C,R6*%
X41675000Y-53000000D03*
X43325000Y-53000000D03*
%TD*%
D12*
%TO.C,SW1*%
X14850000Y-16100000D03*
X21150000Y-16100000D03*
X14850000Y-19900000D03*
X21150000Y-19900000D03*
%TD*%
D13*
%TO.C,U2*%
X13050000Y-64137500D03*
X14000000Y-64137500D03*
X14950000Y-64137500D03*
X14950000Y-61862500D03*
X13050000Y-61862500D03*
%TD*%
D14*
%TO.C,U1*%
X25837500Y-35250000D03*
X25837500Y-35750000D03*
X25837500Y-36250000D03*
X25837500Y-36750000D03*
X25837500Y-37250000D03*
X25837500Y-37750000D03*
X25837500Y-38250000D03*
X25837500Y-38750000D03*
X25837500Y-39250000D03*
X25837500Y-39750000D03*
X25837500Y-40250000D03*
X25837500Y-40750000D03*
D15*
X27250000Y-42162500D03*
X27750000Y-42162500D03*
X28250000Y-42162500D03*
X28750000Y-42162500D03*
X29250000Y-42162500D03*
X29750000Y-42162500D03*
X30250000Y-42162500D03*
X30750000Y-42162500D03*
X31250000Y-42162500D03*
X31750000Y-42162500D03*
X32250000Y-42162500D03*
X32750000Y-42162500D03*
D14*
X34162500Y-40750000D03*
X34162500Y-40250000D03*
X34162500Y-39750000D03*
X34162500Y-39250000D03*
X34162500Y-38750000D03*
X34162500Y-38250000D03*
X34162500Y-37750000D03*
X34162500Y-37250000D03*
X34162500Y-36750000D03*
X34162500Y-36250000D03*
X34162500Y-35750000D03*
X34162500Y-35250000D03*
D15*
X32750000Y-33837500D03*
X32250000Y-33837500D03*
X31750000Y-33837500D03*
X31250000Y-33837500D03*
X30750000Y-33837500D03*
X30250000Y-33837500D03*
X29750000Y-33837500D03*
X29250000Y-33837500D03*
X28750000Y-33837500D03*
X28250000Y-33837500D03*
X27750000Y-33837500D03*
X27250000Y-33837500D03*
%TD*%
D16*
%TO.C,C2*%
X9225000Y-68000000D03*
X10775000Y-68000000D03*
%TD*%
%TO.C,C15*%
X37225000Y-50000000D03*
X38775000Y-50000000D03*
%TD*%
D17*
%TO.C,C4*%
X21550000Y-60000000D03*
X23450000Y-60000000D03*
%TD*%
D16*
%TO.C,C10*%
X25225000Y-44500000D03*
X26775000Y-44500000D03*
%TD*%
D18*
%TO.C,Y1*%
X19850000Y-39100000D03*
X19850000Y-36900000D03*
X18150000Y-36900000D03*
X18150000Y-39100000D03*
%TD*%
D10*
%TO.C,R9*%
X37175000Y-19000000D03*
X38825000Y-19000000D03*
%TD*%
D16*
%TO.C,C14*%
X18225000Y-51500000D03*
X19775000Y-51500000D03*
%TD*%
%TO.C,C11*%
X18225000Y-34000000D03*
X19775000Y-34000000D03*
%TD*%
D19*
%TO.C,D2*%
X42212500Y-19000000D03*
X43787500Y-19000000D03*
%TD*%
D20*
%TO.C,Y2*%
X19000000Y-44250000D03*
X19000000Y-46750000D03*
%TD*%
D16*
%TO.C,C12*%
X18225000Y-41500000D03*
X19775000Y-41500000D03*
%TD*%
%TO.C,C13*%
X18225000Y-49000000D03*
X19775000Y-49000000D03*
%TD*%
%TO.C,C8*%
X33225000Y-46500000D03*
X34775000Y-46500000D03*
%TD*%
D21*
%TO.C,J1*%
X26750000Y-72955000D03*
X27550000Y-72955000D03*
D22*
X28750000Y-72955000D03*
X29750000Y-72955000D03*
X30250000Y-72955000D03*
X31250000Y-72955000D03*
D21*
X32450000Y-72955000D03*
X33250000Y-72955000D03*
X33250000Y-72955000D03*
X32450000Y-72955000D03*
D22*
X31750000Y-72955000D03*
X30750000Y-72955000D03*
X29250000Y-72955000D03*
X28250000Y-72955000D03*
D21*
X27550000Y-72955000D03*
X26750000Y-72955000D03*
%TD*%
D19*
%TO.C,D1*%
X42212500Y-16000000D03*
X43787500Y-16000000D03*
%TD*%
D16*
%TO.C,C7*%
X29225000Y-44500000D03*
X30775000Y-44500000D03*
%TD*%
%TO.C,C5*%
X29225000Y-31500000D03*
X30775000Y-31500000D03*
%TD*%
D23*
%TO.C,C6*%
X37000000Y-38775000D03*
X37000000Y-37225000D03*
%TD*%
D11*
%TO.C,R4*%
X36000000Y-68825000D03*
X36000000Y-67175000D03*
%TD*%
D19*
%TO.C,FB1*%
X29212500Y-46500000D03*
X30787500Y-46500000D03*
%TD*%
D17*
%TO.C,C1*%
X19050000Y-68000000D03*
X20950000Y-68000000D03*
%TD*%
D11*
%TO.C,R3*%
X24000000Y-68825000D03*
X24000000Y-67175000D03*
%TD*%
D10*
%TO.C,R8*%
X37175000Y-16000000D03*
X38825000Y-16000000D03*
%TD*%
D16*
%TO.C,C3*%
X17225000Y-60000000D03*
X18775000Y-60000000D03*
%TD*%
%TO.C,C9*%
X25225000Y-46500000D03*
X26775000Y-46500000D03*
%TD*%
D11*
%TO.C,R2*%
X38000000Y-72325000D03*
X38000000Y-70675000D03*
%TD*%
%TO.C,R10*%
X15500000Y-38825000D03*
X15500000Y-37175000D03*
%TD*%
D12*
%TO.C,SW2*%
X14850000Y-24100000D03*
X21150000Y-24100000D03*
X14850000Y-27900000D03*
X21150000Y-27900000D03*
%TD*%
D10*
%TO.C,R7*%
X21175000Y-30000000D03*
X22825000Y-30000000D03*
%TD*%
M02*
