M48
; DRILL file KiCad 10.0.3 date 2026-09-07T20:48:43
; FORMAT={-:-/ absolute / metric / decimal}
; #@! TF.CreationDate,2026-09-07T20:48:43-07:00
; #@! TF.GenerationSoftware,Kicad,Pcbnew,10.0.3
; #@! TF.FileFunction,Plated,1,2,PTH
FMAT,2
METRIC
; #@! TA.AperFunction,Plated,PTH,ViaDrill
T1C0.300
; #@! TA.AperFunction,Plated,PTH,ComponentDrill
T2C0.600
; #@! TA.AperFunction,Plated,PTH,ComponentDrill
T3C1.000
%
G90
G05
T1
X6.0Y-60.38
X6.0Y-64.0
X6.4Y-59.3
X8.0Y-22.28
X11.0Y-62.0
X11.2Y-56.5
X12.6Y-22.28
X12.6Y-43.25
X12.6Y-50.22
X12.6Y-55.8
X12.6Y-68.0
X12.6Y-77.0
X13.175Y-16.0
X13.175Y-18.2
X13.18Y-19.74
X13.18Y-43.75
X13.18Y-45.14
X13.18Y-57.2
X13.45Y-11.9
X13.76Y-47.25
X13.76Y-55.3
X14.34Y-42.6
X14.34Y-57.9
X14.92Y-46.75
X14.92Y-62.0
X15.175Y-19.5
X15.175Y-26.0
X15.225Y-77.0
X15.225Y-80.0
X15.5Y-40.06
X15.5Y-58.6
X16.08Y-34.98
X16.08Y-60.0
X16.66Y-24.82
X16.66Y-42.75
X17.05Y-75.138
X17.05Y-77.0
X17.24Y-29.9
X17.24Y-60.7
X17.375Y-80.0
X17.82Y-27.36
X17.82Y-61.4
X18.4Y-32.44
X18.4Y-62.1
X19.15Y-8.1
X19.15Y-45.25
X19.15Y-45.25
X19.15Y-74.0
X19.55Y-77.0
X19.75Y-11.9
X20.14Y-42.25
X20.14Y-65.46
X20.812Y-16.0
X21.0Y-72.0
X21.05Y-71.0
X21.05Y-72.862
X21.225Y-48.0
X21.225Y-70.0
X21.787Y-11.9
X21.787Y-19.5
X21.787Y-37.2
X22.0Y-74.537
X22.0Y-75.138
X22.625Y-51.0
X22.95Y-75.138
X22.95Y-81.555
X23.625Y-29.5
X23.625Y-44.25
X24.775Y-48.0
X24.775Y-51.0
X24.775Y-70.0
X25.2Y-26.0
X25.2Y-42.75
X25.225Y-71.0
X25.225Y-73.0
X25.775Y-29.5
X25.94Y-47.75
X25.94Y-52.76
X26.0Y-16.5
X26.0Y-26.325
X26.55Y-30.6
X27.15Y-24.675
X27.15Y-28.4
X27.15Y-29.5
X27.15Y-44.75
X27.375Y-71.0
X28.0Y-24.675
X28.0Y-44.75
X28.05Y-70.0
X28.05Y-71.0
X28.287Y-51.0
X28.287Y-52.8
X28.85Y-26.325
X28.85Y-30.6
X28.85Y-44.25
X29.4Y-12.6
X29.4Y-19.5
X29.4Y-20.0
X29.4Y-37.2
X29.4Y-51.0
X29.4Y-52.8
X30.0Y-46.25
X30.0Y-49.0
X30.05Y-52.8
X30.05Y-70.0
X30.05Y-71.0
X30.05Y-73.0
X30.237Y-14.2
X30.237Y-43.75
X30.825Y-29.5
X30.825Y-44.75
X31.438Y-16.5
X31.438Y-44.25
X31.438Y-45.25
X31.438Y-64.0
X32.55Y-71.0
X32.575Y-37.2
X32.6Y-82.675
X32.625Y-34.2
X32.637Y-42.75
X32.637Y-43.75
X32.637Y-44.75
X32.637Y-46.75
X32.637Y-47.75
X32.975Y-29.5
X33.775Y-52.8
X33.837Y-20.0
X33.837Y-35.2
X33.837Y-42.25
X33.837Y-43.25
X33.837Y-44.25
X33.837Y-45.25
X33.837Y-46.25
X33.837Y-47.25
X34.0Y-64.0
X34.0Y-80.825
X34.7Y-8.1
X34.7Y-20.0
X34.7Y-22.28
X34.7Y-22.75
X34.7Y-30.0
X34.7Y-43.25
X34.7Y-45.25
X34.7Y-74.0
X35.675Y-52.8
X36.75Y-82.355
X37.25Y-8.0
X37.25Y-11.9
X37.25Y-12.6
X37.25Y-18.2
X37.25Y-35.2
X37.25Y-37.637
X37.25Y-51.162
X37.25Y-55.8
X37.75Y-52.362
X37.75Y-56.5
X38.25Y-18.2
X38.25Y-37.637
X38.25Y-51.162
X38.25Y-57.2
X38.75Y-23.5
X38.75Y-38.837
X38.75Y-52.362
X38.75Y-57.9
X39.25Y-20.0
X39.25Y-32.0
X39.25Y-37.637
X39.25Y-51.162
X39.25Y-58.6
X39.25Y-79.175
X39.25Y-81.555
X39.75Y-26.0
X39.75Y-38.837
X39.75Y-52.362
X39.75Y-59.3
X40.25Y-21.0
X40.25Y-37.637
X40.25Y-51.162
X40.25Y-60.0
X40.25Y-79.175
X40.25Y-81.555
X40.75Y-16.5
X40.75Y-38.837
X40.75Y-52.362
X40.75Y-55.8
X40.75Y-62.1
X41.25Y-12.6
X41.25Y-37.637
X41.25Y-51.162
X41.25Y-60.7
X41.75Y-28.4
X41.75Y-38.837
X41.75Y-52.362
X41.75Y-61.4
X42.25Y-37.637
X42.25Y-56.5
X42.45Y-75.138
X42.45Y-75.138
X42.45Y-81.555
X42.54Y-35.2
X42.75Y-38.837
X42.75Y-52.362
X42.75Y-53.575
X42.75Y-70.0
X43.25Y-82.355
X45.08Y-38.837
X45.3Y-43.75
X45.3Y-60.0
X46.0Y-60.0
X46.0Y-80.825
X46.163Y-43.75
X46.163Y-44.75
X46.163Y-45.75
X46.163Y-46.75
X46.163Y-47.75
X46.775Y-38.4
X46.775Y-53.575
X47.362Y-38.4
X47.362Y-42.25
X47.362Y-43.25
X47.362Y-44.25
X47.362Y-45.25
X47.362Y-46.25
X47.362Y-47.25
X47.6Y-52.625
X47.825Y-55.8
X48.425Y-38.4
X48.425Y-74.0
X48.6Y-82.675
X49.0Y-35.2
X49.0Y-43.25
X49.0Y-44.25
X49.0Y-64.0
X50.0Y-14.2
X50.0Y-25.25
X50.025Y-38.6
X50.025Y-74.0
X50.6Y-38.4
X50.6Y-74.0
X52.0Y-22.75
X52.0Y-30.0
X52.175Y-38.6
X52.825Y-14.2
X52.825Y-27.0
X52.9Y-45.25
X52.9Y-65.46
X53.225Y-14.2
X53.225Y-27.0
X53.48Y-44.75
X53.48Y-62.92
X54.06Y-21.0
X54.06Y-45.14
X55.225Y-21.0
X55.225Y-22.75
X55.225Y-30.0
X57.375Y-21.0
X57.375Y-27.0
X63.34Y-22.28
X63.34Y-42.25
X63.34Y-44.25
X63.34Y-60.38
X63.92Y-24.82
X63.92Y-32.0
X63.92Y-43.75
X63.92Y-57.84
X64.5Y-27.36
X64.5Y-46.25
X65.08Y-29.9
X65.08Y-46.75
X65.66Y-32.44
X65.66Y-47.25
X66.24Y-28.4
X66.24Y-52.76
X66.82Y-34.98
X66.82Y-47.75
X67.4Y-26.0
X67.4Y-42.6
X67.4Y-45.75
X67.4Y-50.8
X67.4Y-55.3
X67.4Y-56.5
X68.3Y-50.8
X68.8Y-23.5
X73.6Y-18.2
X74.3Y-16.5
X75.0Y-12.6
T3
X8.0Y-19.74
X8.0Y-22.28
X8.0Y-24.82
X8.0Y-27.36
X8.0Y-29.9
X8.0Y-32.44
X8.0Y-34.98
X8.0Y-37.52
X8.0Y-40.06
X8.0Y-42.6
X8.0Y-45.14
X8.0Y-47.68
X8.0Y-50.22
X8.0Y-52.76
X8.0Y-55.3
X8.0Y-57.84
X8.0Y-60.38
X8.0Y-62.92
X8.0Y-65.46
X8.0Y-68.0
X40.0Y-8.0
X42.54Y-8.0
X45.08Y-8.0
X47.62Y-8.0
X50.16Y-8.0
X72.0Y-19.74
X72.0Y-22.28
X72.0Y-24.82
X72.0Y-27.36
X72.0Y-29.9
X72.0Y-32.44
X72.0Y-34.98
X72.0Y-37.52
X72.0Y-40.06
X72.0Y-42.6
X72.0Y-45.14
X72.0Y-47.68
X72.0Y-50.22
X72.0Y-52.76
X72.0Y-55.3
X72.0Y-57.84
X72.0Y-60.38
X72.0Y-62.92
X72.0Y-65.46
X72.0Y-68.0
T2
X35.68Y-83.32G85X35.68Y-84.42
G05
X35.68Y-87.75G85X35.68Y-88.35
G05
X44.32Y-83.32G85X44.32Y-84.42
G05
X44.32Y-87.75G85X44.32Y-88.35
G05
M30
