%TF.GenerationSoftware,KiCad,Pcbnew,10.0.3*%
%TF.CreationDate,2026-09-07T20:48:42-07:00*%
%TF.ProjectId,stm32breakout,73746d33-3262-4726-9561-6b6f75742e6b,rev?*%
%TF.SameCoordinates,Original*%
%TF.FileFunction,Paste,Top*%
%TF.FilePolarity,Positive*%
%FSLAX46Y46*%
G04 Gerber Fmt 4.6, Leading zero omitted, Abs format (unit mm)*
G04 Created by KiCad (PCBNEW 10.0.3) date 2026-09-07 20:48:42*
%MOMM*%
%LPD*%
G01*
G04 APERTURE LIST*
G04 Aperture macros list*
%AMRoundRect*
0 Rectangle with rounded corners*
0 $1 Rounding radius*
0 $2 $3 $4 $5 $6 $7 $8 $9 X,Y pos of 4 corners*
0 Add a 4 corners polygon primitive as box body*
4,1,4,$2,$3,$4,$5,$6,$7,$8,$9,$2,$3,0*
0 Add four circle primitives for the rounded corners*
1,1,$1+$1,$2,$3*
1,1,$1+$1,$4,$5*
1,1,$1+$1,$6,$7*
1,1,$1+$1,$8,$9*
0 Add four rect primitives between the rounded corners*
20,1,$1+$1,$2,$3,$4,$5,0*
20,1,$1+$1,$4,$5,$6,$7,0*
20,1,$1+$1,$6,$7,$8,$9,0*
20,1,$1+$1,$8,$9,$2,$3,0*%
G04 Aperture macros list end*
%ADD10RoundRect,0.225000X-0.225000X-0.250000X0.225000X-0.250000X0.225000X0.250000X-0.225000X0.250000X0*%
%ADD11RoundRect,0.218750X-0.218750X-0.256250X0.218750X-0.256250X0.218750X0.256250X-0.218750X0.256250X0*%
%ADD12RoundRect,0.250000X0.350000X-0.450000X0.350000X0.450000X-0.350000X0.450000X-0.350000X-0.450000X0*%
%ADD13RoundRect,0.225000X0.250000X-0.225000X0.250000X0.225000X-0.250000X0.225000X-0.250000X-0.225000X0*%
%ADD14RoundRect,0.250000X-0.250000X-0.475000X0.250000X-0.475000X0.250000X0.475000X-0.250000X0.475000X0*%
%ADD15RoundRect,0.200000X-0.200000X-0.275000X0.200000X-0.275000X0.200000X0.275000X-0.200000X0.275000X0*%
%ADD16RoundRect,0.225000X0.225000X0.250000X-0.225000X0.250000X-0.225000X-0.250000X0.225000X-0.250000X0*%
%ADD17RoundRect,0.200000X0.275000X-0.200000X0.275000X0.200000X-0.275000X0.200000X-0.275000X-0.200000X0*%
%ADD18RoundRect,0.218750X0.218750X0.256250X-0.218750X0.256250X-0.218750X-0.256250X0.218750X-0.256250X0*%
%ADD19RoundRect,0.150000X0.150000X-0.512500X0.150000X0.512500X-0.150000X0.512500X-0.150000X-0.512500X0*%
%ADD20RoundRect,0.150000X-0.150000X-0.575000X0.150000X-0.575000X0.150000X0.575000X-0.150000X0.575000X0*%
%ADD21RoundRect,0.075000X-0.075000X-0.650000X0.075000X-0.650000X0.075000X0.650000X-0.075000X0.650000X0*%
%ADD22R,1.700000X1.000000*%
%ADD23RoundRect,0.075000X-0.662500X-0.075000X0.662500X-0.075000X0.662500X0.075000X-0.662500X0.075000X0*%
%ADD24RoundRect,0.075000X-0.075000X-0.662500X0.075000X-0.662500X0.075000X0.662500X-0.075000X0.662500X0*%
%ADD25R,1.800000X1.000000*%
G04 APERTURE END LIST*
D10*
%TO.C,C2*%
X15225000Y-80000000D03*
X16775000Y-80000000D03*
%TD*%
D11*
%TO.C,D2*%
X20212500Y-19500000D03*
X21787500Y-19500000D03*
%TD*%
D12*
%TO.C,Y1*%
X28850000Y-30600000D03*
X28850000Y-28400000D03*
X27150000Y-28400000D03*
X27150000Y-30600000D03*
%TD*%
D13*
%TO.C,C6*%
X47600000Y-53575000D03*
X47600000Y-52025000D03*
%TD*%
D14*
%TO.C,C4*%
X30050000Y-71000000D03*
X31950000Y-71000000D03*
%TD*%
D10*
%TO.C,C15*%
X50025000Y-38600000D03*
X51575000Y-38600000D03*
%TD*%
D15*
%TO.C,R8*%
X15175000Y-16000000D03*
X16825000Y-16000000D03*
%TD*%
D10*
%TO.C,C10*%
X34725000Y-52800000D03*
X36275000Y-52800000D03*
%TD*%
D15*
%TO.C,R9*%
X15175000Y-19500000D03*
X16825000Y-19500000D03*
%TD*%
D16*
%TO.C,C8*%
X24775000Y-51000000D03*
X23225000Y-51000000D03*
%TD*%
D10*
%TO.C,C12*%
X30825000Y-29500000D03*
X32375000Y-29500000D03*
%TD*%
D15*
%TO.C,R6*%
X31575000Y-34200000D03*
X33225000Y-34200000D03*
%TD*%
D17*
%TO.C,R3*%
X34000000Y-80825000D03*
X34000000Y-79175000D03*
%TD*%
%TO.C,R1*%
X32000000Y-84325000D03*
X32000000Y-82675000D03*
%TD*%
D10*
%TO.C,C5*%
X31625000Y-37200000D03*
X33175000Y-37200000D03*
%TD*%
%TO.C,C7*%
X31625000Y-52800000D03*
X33175000Y-52800000D03*
%TD*%
%TO.C,C14*%
X55225000Y-27000000D03*
X56775000Y-27000000D03*
%TD*%
D18*
%TO.C,FB1*%
X28287500Y-51000000D03*
X26712500Y-51000000D03*
%TD*%
D15*
%TO.C,R5*%
X46775000Y-38400000D03*
X48425000Y-38400000D03*
%TD*%
D19*
%TO.C,U2*%
X21050000Y-75137500D03*
X22000000Y-75137500D03*
X22950000Y-75137500D03*
X22950000Y-72862500D03*
X21050000Y-72862500D03*
%TD*%
D17*
%TO.C,R4*%
X46000000Y-80825000D03*
X46000000Y-79175000D03*
%TD*%
%TO.C,R10*%
X28000000Y-26325000D03*
X28000000Y-24675000D03*
%TD*%
D20*
%TO.C,J1*%
X36750000Y-82955000D03*
X37550000Y-82955000D03*
D21*
X38750000Y-82955000D03*
X39750000Y-82955000D03*
X40250000Y-82955000D03*
X41250000Y-82955000D03*
D20*
X42450000Y-82955000D03*
X43250000Y-82955000D03*
X43250000Y-82955000D03*
X42450000Y-82955000D03*
D21*
X41750000Y-82955000D03*
X40750000Y-82955000D03*
X39250000Y-82955000D03*
X38250000Y-82955000D03*
D20*
X37550000Y-82955000D03*
X36750000Y-82955000D03*
%TD*%
D10*
%TO.C,C3*%
X25225000Y-71000000D03*
X26775000Y-71000000D03*
%TD*%
%TO.C,C9*%
X23225000Y-48000000D03*
X24775000Y-48000000D03*
%TD*%
%TO.C,C11*%
X23625000Y-29500000D03*
X25175000Y-29500000D03*
%TD*%
D22*
%TO.C,SW2*%
X24850000Y-8100000D03*
X31150000Y-8100000D03*
X24850000Y-11900000D03*
X31150000Y-11900000D03*
%TD*%
D15*
%TO.C,R7*%
X46775000Y-55800000D03*
X48425000Y-55800000D03*
%TD*%
D10*
%TO.C,C13*%
X55225000Y-21000000D03*
X56775000Y-21000000D03*
%TD*%
D23*
%TO.C,U1*%
X35837500Y-42250000D03*
X35837500Y-42750000D03*
X35837500Y-43250000D03*
X35837500Y-43750000D03*
X35837500Y-44250000D03*
X35837500Y-44750000D03*
X35837500Y-45250000D03*
X35837500Y-45750000D03*
X35837500Y-46250000D03*
X35837500Y-46750000D03*
X35837500Y-47250000D03*
X35837500Y-47750000D03*
D24*
X37250000Y-49162500D03*
X37750000Y-49162500D03*
X38250000Y-49162500D03*
X38750000Y-49162500D03*
X39250000Y-49162500D03*
X39750000Y-49162500D03*
X40250000Y-49162500D03*
X40750000Y-49162500D03*
X41250000Y-49162500D03*
X41750000Y-49162500D03*
X42250000Y-49162500D03*
X42750000Y-49162500D03*
D23*
X44162500Y-47750000D03*
X44162500Y-47250000D03*
X44162500Y-46750000D03*
X44162500Y-46250000D03*
X44162500Y-45750000D03*
X44162500Y-45250000D03*
X44162500Y-44750000D03*
X44162500Y-44250000D03*
X44162500Y-43750000D03*
X44162500Y-43250000D03*
X44162500Y-42750000D03*
X44162500Y-42250000D03*
D24*
X42750000Y-40837500D03*
X42250000Y-40837500D03*
X41750000Y-40837500D03*
X41250000Y-40837500D03*
X40750000Y-40837500D03*
X40250000Y-40837500D03*
X39750000Y-40837500D03*
X39250000Y-40837500D03*
X38750000Y-40837500D03*
X38250000Y-40837500D03*
X37750000Y-40837500D03*
X37250000Y-40837500D03*
%TD*%
D14*
%TO.C,C1*%
X17050000Y-77000000D03*
X18950000Y-77000000D03*
%TD*%
D25*
%TO.C,Y2*%
X52000000Y-22750000D03*
X52000000Y-25250000D03*
%TD*%
D22*
%TO.C,SW1*%
X12850000Y-8100000D03*
X19150000Y-8100000D03*
X12850000Y-11900000D03*
X19150000Y-11900000D03*
%TD*%
D17*
%TO.C,R2*%
X48000000Y-84325000D03*
X48000000Y-82675000D03*
%TD*%
D11*
%TO.C,D1*%
X20212500Y-16000000D03*
X21787500Y-16000000D03*
%TD*%
M02*
