%TF.GenerationSoftware,KiCad,Pcbnew,10.0.3*%
%TF.CreationDate,2026-09-07T20:48:42-07:00*%
%TF.ProjectId,stm32breakout,73746d33-3262-4726-9561-6b6f75742e6b,rev?*%
%TF.SameCoordinates,Original*%
%TF.FileFunction,Legend,Bot*%
%TF.FilePolarity,Positive*%
%FSLAX46Y46*%
G04 Gerber Fmt 4.6, Leading zero omitted, Abs format (unit mm)*
G04 Created by KiCad (PCBNEW 10.0.3) date 2026-09-07 20:48:42*
%MOMM*%
%LPD*%
G01*
G04 APERTURE LIST*
%ADD10C,2.700000*%
%ADD11R,1.700000X1.700000*%
%ADD12C,1.700000*%
%ADD13C,0.650000*%
%ADD14O,1.000000X2.100000*%
%ADD15O,1.000000X1.600000*%
G04 APERTURE END LIST*
%LPC*%
D10*
%TO.C,H3*%
X4000000Y-86000000D03*
%TD*%
%TO.C,H1*%
X4000000Y-4000000D03*
%TD*%
D11*
%TO.C,J3*%
X72000000Y-68000000D03*
D12*
X72000000Y-65460000D03*
X72000000Y-62920000D03*
X72000000Y-60380000D03*
X72000000Y-57840000D03*
X72000000Y-55300000D03*
X72000000Y-52760000D03*
X72000000Y-50220000D03*
X72000000Y-47680000D03*
X72000000Y-45140000D03*
X72000000Y-42600000D03*
X72000000Y-40060000D03*
X72000000Y-37520000D03*
X72000000Y-34980000D03*
X72000000Y-32440000D03*
X72000000Y-29900000D03*
X72000000Y-27360000D03*
X72000000Y-24820000D03*
X72000000Y-22280000D03*
X72000000Y-19740000D03*
%TD*%
D10*
%TO.C,H4*%
X76000000Y-86000000D03*
%TD*%
%TO.C,H2*%
X76000000Y-4000000D03*
%TD*%
D13*
%TO.C,J1*%
X37110000Y-84400000D03*
X42890000Y-84400000D03*
D14*
X35680000Y-83870000D03*
D15*
X35680000Y-88050000D03*
D14*
X44320000Y-83870000D03*
D15*
X44320000Y-88050000D03*
%TD*%
D11*
%TO.C,J2*%
X8000000Y-68000000D03*
D12*
X8000000Y-65460000D03*
X8000000Y-62920000D03*
X8000000Y-60380000D03*
X8000000Y-57840000D03*
X8000000Y-55300000D03*
X8000000Y-52760000D03*
X8000000Y-50220000D03*
X8000000Y-47680000D03*
X8000000Y-45140000D03*
X8000000Y-42600000D03*
X8000000Y-40060000D03*
X8000000Y-37520000D03*
X8000000Y-34980000D03*
X8000000Y-32440000D03*
X8000000Y-29900000D03*
X8000000Y-27360000D03*
X8000000Y-24820000D03*
X8000000Y-22280000D03*
X8000000Y-19740000D03*
%TD*%
D11*
%TO.C,J4*%
X40000000Y-8000000D03*
D12*
X42540000Y-8000000D03*
X45080000Y-8000000D03*
X47620000Y-8000000D03*
X50160000Y-8000000D03*
%TD*%
%LPD*%
M02*
