%TF.GenerationSoftware,KiCad,Pcbnew,10.0.3*%
%TF.CreationDate,2026-09-07T16:49:22-07:00*%
%TF.ProjectId,stm32breakout,73746d33-3262-4726-9561-6b6f75742e6b,rev?*%
%TF.SameCoordinates,Original*%
%TF.FileFunction,Legend,Bot*%
%TF.FilePolarity,Positive*%
%FSLAX46Y46*%
G04 Gerber Fmt 4.6, Leading zero omitted, Abs format (unit mm)*
G04 Created by KiCad (PCBNEW 10.0.3) date 2026-09-07 16:49:22*
%MOMM*%
%LPD*%
G01*
G04 APERTURE LIST*
%ADD10C,2.700000*%
%ADD11R,1.700000X1.700000*%
%ADD12C,1.700000*%
%ADD13C,0.650000*%
%ADD14O,1.000000X2.100000*%
%ADD15O,1.000000X1.600000*%
G04 APERTURE END LIST*
%LPC*%
D10*
%TO.C,H2*%
X40000000Y-4000000D03*
%TD*%
D11*
%TO.C,J4*%
X24000000Y-12000000D03*
D12*
X26540000Y-12000000D03*
X29080000Y-12000000D03*
X31620000Y-12000000D03*
X34160000Y-12000000D03*
%TD*%
D10*
%TO.C,H3*%
X12000000Y-76000000D03*
%TD*%
D13*
%TO.C,J1*%
X27110000Y-74400000D03*
X32890000Y-74400000D03*
D14*
X25680000Y-73870000D03*
D15*
X25680000Y-78050000D03*
D14*
X34320000Y-73870000D03*
D15*
X34320000Y-78050000D03*
%TD*%
D11*
%TO.C,J2*%
X8000000Y-54000000D03*
D12*
X8000000Y-51460000D03*
X8000000Y-48920000D03*
X8000000Y-46380000D03*
X8000000Y-43840000D03*
X8000000Y-41300000D03*
X8000000Y-38760000D03*
X8000000Y-36220000D03*
X8000000Y-33680000D03*
X8000000Y-31140000D03*
X8000000Y-28600000D03*
X8000000Y-26060000D03*
X8000000Y-23520000D03*
X8000000Y-20980000D03*
X8000000Y-18440000D03*
X8000000Y-15900000D03*
X8000000Y-13360000D03*
X8000000Y-10820000D03*
X8000000Y-8280000D03*
X8000000Y-5740000D03*
%TD*%
D10*
%TO.C,H1*%
X20000000Y-4000000D03*
%TD*%
%TO.C,H4*%
X48000000Y-76000000D03*
%TD*%
D11*
%TO.C,J3*%
X52000000Y-54000000D03*
D12*
X52000000Y-51460000D03*
X52000000Y-48920000D03*
X52000000Y-46380000D03*
X52000000Y-43840000D03*
X52000000Y-41300000D03*
X52000000Y-38760000D03*
X52000000Y-36220000D03*
X52000000Y-33680000D03*
X52000000Y-31140000D03*
X52000000Y-28600000D03*
X52000000Y-26060000D03*
X52000000Y-23520000D03*
X52000000Y-20980000D03*
X52000000Y-18440000D03*
X52000000Y-15900000D03*
X52000000Y-13360000D03*
X52000000Y-10820000D03*
X52000000Y-8280000D03*
X52000000Y-5740000D03*
%TD*%
%LPD*%
M02*
