%TF.GenerationSoftware,KiCad,Pcbnew,10.0.3*%
%TF.CreationDate,2026-09-07T16:49:22-07:00*%
%TF.ProjectId,stm32breakout,73746d33-3262-4726-9561-6b6f75742e6b,rev?*%
%TF.SameCoordinates,Original*%
%TF.FileFunction,Legend,Top*%
%TF.FilePolarity,Positive*%
%FSLAX46Y46*%
G04 Gerber Fmt 4.6, Leading zero omitted, Abs format (unit mm)*
G04 Created by KiCad (PCBNEW 10.0.3) date 2026-09-07 16:49:22*
%MOMM*%
%LPD*%
G01*
G04 APERTURE LIST*
G04 Aperture macros list*
%AMRoundRect*
0 Rectangle with rounded corners*
0 $1 Rounding radius*
0 $2 $3 $4 $5 $6 $7 $8 $9 X,Y pos of 4 corners*
0 Add a 4 corners polygon primitive as box body*
4,1,4,$2,$3,$4,$5,$6,$7,$8,$9,$2,$3,0*
0 Add four circle primitives for the rounded corners*
1,1,$1+$1,$2,$3*
1,1,$1+$1,$4,$5*
1,1,$1+$1,$6,$7*
1,1,$1+$1,$8,$9*
0 Add four rect primitives between the rounded corners*
20,1,$1+$1,$2,$3,$4,$5,0*
20,1,$1+$1,$4,$5,$6,$7,0*
20,1,$1+$1,$6,$7,$8,$9,0*
20,1,$1+$1,$8,$9,$2,$3,0*%
G04 Aperture macros list end*
%ADD10C,0.090000*%
%ADD11C,0.105000*%
%ADD12C,0.120000*%
%ADD13C,0.150000*%
%ADD14C,0.180000*%
%ADD15RoundRect,0.200000X-0.200000X-0.275000X0.200000X-0.275000X0.200000X0.275000X-0.200000X0.275000X0*%
%ADD16RoundRect,0.200000X0.275000X-0.200000X0.275000X0.200000X-0.275000X0.200000X-0.275000X-0.200000X0*%
%ADD17R,1.700000X1.000000*%
%ADD18RoundRect,0.150000X0.150000X-0.512500X0.150000X0.512500X-0.150000X0.512500X-0.150000X-0.512500X0*%
%ADD19RoundRect,0.075000X-0.662500X-0.075000X0.662500X-0.075000X0.662500X0.075000X-0.662500X0.075000X0*%
%ADD20RoundRect,0.075000X-0.075000X-0.662500X0.075000X-0.662500X0.075000X0.662500X-0.075000X0.662500X0*%
%ADD21RoundRect,0.225000X-0.225000X-0.250000X0.225000X-0.250000X0.225000X0.250000X-0.225000X0.250000X0*%
%ADD22RoundRect,0.250000X-0.250000X-0.475000X0.250000X-0.475000X0.250000X0.475000X-0.250000X0.475000X0*%
%ADD23C,2.700000*%
%ADD24RoundRect,0.250000X0.350000X-0.450000X0.350000X0.450000X-0.350000X0.450000X-0.350000X-0.450000X0*%
%ADD25R,1.700000X1.700000*%
%ADD26C,1.700000*%
%ADD27RoundRect,0.218750X-0.218750X-0.256250X0.218750X-0.256250X0.218750X0.256250X-0.218750X0.256250X0*%
%ADD28R,1.800000X1.000000*%
%ADD29C,0.650000*%
%ADD30RoundRect,0.150000X-0.150000X-0.575000X0.150000X-0.575000X0.150000X0.575000X-0.150000X0.575000X0*%
%ADD31RoundRect,0.075000X-0.075000X-0.650000X0.075000X-0.650000X0.075000X0.650000X-0.075000X0.650000X0*%
%ADD32O,1.000000X2.100000*%
%ADD33O,1.000000X1.600000*%
%ADD34RoundRect,0.225000X0.250000X-0.225000X0.250000X0.225000X-0.250000X0.225000X-0.250000X-0.225000X0*%
G04 APERTURE END LIST*
D10*
X10371428Y-6012891D02*
X10371428Y-5412891D01*
X10371428Y-5412891D02*
X10599999Y-5412891D01*
X10599999Y-5412891D02*
X10657142Y-5441462D01*
X10657142Y-5441462D02*
X10685713Y-5470034D01*
X10685713Y-5470034D02*
X10714285Y-5527177D01*
X10714285Y-5527177D02*
X10714285Y-5612891D01*
X10714285Y-5612891D02*
X10685713Y-5670034D01*
X10685713Y-5670034D02*
X10657142Y-5698605D01*
X10657142Y-5698605D02*
X10599999Y-5727177D01*
X10599999Y-5727177D02*
X10371428Y-5727177D01*
X11314285Y-5955748D02*
X11285713Y-5984320D01*
X11285713Y-5984320D02*
X11199999Y-6012891D01*
X11199999Y-6012891D02*
X11142856Y-6012891D01*
X11142856Y-6012891D02*
X11057142Y-5984320D01*
X11057142Y-5984320D02*
X10999999Y-5927177D01*
X10999999Y-5927177D02*
X10971428Y-5870034D01*
X10971428Y-5870034D02*
X10942856Y-5755748D01*
X10942856Y-5755748D02*
X10942856Y-5670034D01*
X10942856Y-5670034D02*
X10971428Y-5555748D01*
X10971428Y-5555748D02*
X10999999Y-5498605D01*
X10999999Y-5498605D02*
X11057142Y-5441462D01*
X11057142Y-5441462D02*
X11142856Y-5412891D01*
X11142856Y-5412891D02*
X11199999Y-5412891D01*
X11199999Y-5412891D02*
X11285713Y-5441462D01*
X11285713Y-5441462D02*
X11314285Y-5470034D01*
X11885713Y-6012891D02*
X11542856Y-6012891D01*
X11714285Y-6012891D02*
X11714285Y-5412891D01*
X11714285Y-5412891D02*
X11657142Y-5498605D01*
X11657142Y-5498605D02*
X11599999Y-5555748D01*
X11599999Y-5555748D02*
X11542856Y-5584320D01*
X12428571Y-5412891D02*
X12142857Y-5412891D01*
X12142857Y-5412891D02*
X12114285Y-5698605D01*
X12114285Y-5698605D02*
X12142857Y-5670034D01*
X12142857Y-5670034D02*
X12200000Y-5641462D01*
X12200000Y-5641462D02*
X12342857Y-5641462D01*
X12342857Y-5641462D02*
X12400000Y-5670034D01*
X12400000Y-5670034D02*
X12428571Y-5698605D01*
X12428571Y-5698605D02*
X12457142Y-5755748D01*
X12457142Y-5755748D02*
X12457142Y-5898605D01*
X12457142Y-5898605D02*
X12428571Y-5955748D01*
X12428571Y-5955748D02*
X12400000Y-5984320D01*
X12400000Y-5984320D02*
X12342857Y-6012891D01*
X12342857Y-6012891D02*
X12200000Y-6012891D01*
X12200000Y-6012891D02*
X12142857Y-5984320D01*
X12142857Y-5984320D02*
X12114285Y-5955748D01*
X10371428Y-8552890D02*
X10371428Y-7952890D01*
X10371428Y-7952890D02*
X10599999Y-7952890D01*
X10599999Y-7952890D02*
X10657142Y-7981461D01*
X10657142Y-7981461D02*
X10685713Y-8010033D01*
X10685713Y-8010033D02*
X10714285Y-8067176D01*
X10714285Y-8067176D02*
X10714285Y-8152890D01*
X10714285Y-8152890D02*
X10685713Y-8210033D01*
X10685713Y-8210033D02*
X10657142Y-8238604D01*
X10657142Y-8238604D02*
X10599999Y-8267176D01*
X10599999Y-8267176D02*
X10371428Y-8267176D01*
X11314285Y-8495747D02*
X11285713Y-8524319D01*
X11285713Y-8524319D02*
X11199999Y-8552890D01*
X11199999Y-8552890D02*
X11142856Y-8552890D01*
X11142856Y-8552890D02*
X11057142Y-8524319D01*
X11057142Y-8524319D02*
X10999999Y-8467176D01*
X10999999Y-8467176D02*
X10971428Y-8410033D01*
X10971428Y-8410033D02*
X10942856Y-8295747D01*
X10942856Y-8295747D02*
X10942856Y-8210033D01*
X10942856Y-8210033D02*
X10971428Y-8095747D01*
X10971428Y-8095747D02*
X10999999Y-8038604D01*
X10999999Y-8038604D02*
X11057142Y-7981461D01*
X11057142Y-7981461D02*
X11142856Y-7952890D01*
X11142856Y-7952890D02*
X11199999Y-7952890D01*
X11199999Y-7952890D02*
X11285713Y-7981461D01*
X11285713Y-7981461D02*
X11314285Y-8010033D01*
X11885713Y-8552890D02*
X11542856Y-8552890D01*
X11714285Y-8552890D02*
X11714285Y-7952890D01*
X11714285Y-7952890D02*
X11657142Y-8038604D01*
X11657142Y-8038604D02*
X11599999Y-8095747D01*
X11599999Y-8095747D02*
X11542856Y-8124319D01*
X12400000Y-8152890D02*
X12400000Y-8552890D01*
X12257142Y-7924319D02*
X12114285Y-8352890D01*
X12114285Y-8352890D02*
X12485714Y-8352890D01*
X10371428Y-11092891D02*
X10371428Y-10492891D01*
X10371428Y-10492891D02*
X10599999Y-10492891D01*
X10599999Y-10492891D02*
X10657142Y-10521462D01*
X10657142Y-10521462D02*
X10685713Y-10550034D01*
X10685713Y-10550034D02*
X10714285Y-10607177D01*
X10714285Y-10607177D02*
X10714285Y-10692891D01*
X10714285Y-10692891D02*
X10685713Y-10750034D01*
X10685713Y-10750034D02*
X10657142Y-10778605D01*
X10657142Y-10778605D02*
X10599999Y-10807177D01*
X10599999Y-10807177D02*
X10371428Y-10807177D01*
X11314285Y-11035748D02*
X11285713Y-11064320D01*
X11285713Y-11064320D02*
X11199999Y-11092891D01*
X11199999Y-11092891D02*
X11142856Y-11092891D01*
X11142856Y-11092891D02*
X11057142Y-11064320D01*
X11057142Y-11064320D02*
X10999999Y-11007177D01*
X10999999Y-11007177D02*
X10971428Y-10950034D01*
X10971428Y-10950034D02*
X10942856Y-10835748D01*
X10942856Y-10835748D02*
X10942856Y-10750034D01*
X10942856Y-10750034D02*
X10971428Y-10635748D01*
X10971428Y-10635748D02*
X10999999Y-10578605D01*
X10999999Y-10578605D02*
X11057142Y-10521462D01*
X11057142Y-10521462D02*
X11142856Y-10492891D01*
X11142856Y-10492891D02*
X11199999Y-10492891D01*
X11199999Y-10492891D02*
X11285713Y-10521462D01*
X11285713Y-10521462D02*
X11314285Y-10550034D01*
X11885713Y-11092891D02*
X11542856Y-11092891D01*
X11714285Y-11092891D02*
X11714285Y-10492891D01*
X11714285Y-10492891D02*
X11657142Y-10578605D01*
X11657142Y-10578605D02*
X11599999Y-10635748D01*
X11599999Y-10635748D02*
X11542856Y-10664320D01*
X12085714Y-10492891D02*
X12457142Y-10492891D01*
X12457142Y-10492891D02*
X12257142Y-10721462D01*
X12257142Y-10721462D02*
X12342857Y-10721462D01*
X12342857Y-10721462D02*
X12400000Y-10750034D01*
X12400000Y-10750034D02*
X12428571Y-10778605D01*
X12428571Y-10778605D02*
X12457142Y-10835748D01*
X12457142Y-10835748D02*
X12457142Y-10978605D01*
X12457142Y-10978605D02*
X12428571Y-11035748D01*
X12428571Y-11035748D02*
X12400000Y-11064320D01*
X12400000Y-11064320D02*
X12342857Y-11092891D01*
X12342857Y-11092891D02*
X12171428Y-11092891D01*
X12171428Y-11092891D02*
X12114285Y-11064320D01*
X12114285Y-11064320D02*
X12085714Y-11035748D01*
X10371428Y-13632891D02*
X10371428Y-13032891D01*
X10371428Y-13032891D02*
X10599999Y-13032891D01*
X10599999Y-13032891D02*
X10657142Y-13061462D01*
X10657142Y-13061462D02*
X10685713Y-13090034D01*
X10685713Y-13090034D02*
X10714285Y-13147177D01*
X10714285Y-13147177D02*
X10714285Y-13232891D01*
X10714285Y-13232891D02*
X10685713Y-13290034D01*
X10685713Y-13290034D02*
X10657142Y-13318605D01*
X10657142Y-13318605D02*
X10599999Y-13347177D01*
X10599999Y-13347177D02*
X10371428Y-13347177D01*
X11171428Y-13318605D02*
X11257142Y-13347177D01*
X11257142Y-13347177D02*
X11285713Y-13375748D01*
X11285713Y-13375748D02*
X11314285Y-13432891D01*
X11314285Y-13432891D02*
X11314285Y-13518605D01*
X11314285Y-13518605D02*
X11285713Y-13575748D01*
X11285713Y-13575748D02*
X11257142Y-13604320D01*
X11257142Y-13604320D02*
X11199999Y-13632891D01*
X11199999Y-13632891D02*
X10971428Y-13632891D01*
X10971428Y-13632891D02*
X10971428Y-13032891D01*
X10971428Y-13032891D02*
X11171428Y-13032891D01*
X11171428Y-13032891D02*
X11228571Y-13061462D01*
X11228571Y-13061462D02*
X11257142Y-13090034D01*
X11257142Y-13090034D02*
X11285713Y-13147177D01*
X11285713Y-13147177D02*
X11285713Y-13204320D01*
X11285713Y-13204320D02*
X11257142Y-13261462D01*
X11257142Y-13261462D02*
X11228571Y-13290034D01*
X11228571Y-13290034D02*
X11171428Y-13318605D01*
X11171428Y-13318605D02*
X10971428Y-13318605D01*
X11885713Y-13632891D02*
X11542856Y-13632891D01*
X11714285Y-13632891D02*
X11714285Y-13032891D01*
X11714285Y-13032891D02*
X11657142Y-13118605D01*
X11657142Y-13118605D02*
X11599999Y-13175748D01*
X11599999Y-13175748D02*
X11542856Y-13204320D01*
X12457142Y-13632891D02*
X12114285Y-13632891D01*
X12285714Y-13632891D02*
X12285714Y-13032891D01*
X12285714Y-13032891D02*
X12228571Y-13118605D01*
X12228571Y-13118605D02*
X12171428Y-13175748D01*
X12171428Y-13175748D02*
X12114285Y-13204320D01*
X10371428Y-16172891D02*
X10371428Y-15572891D01*
X10371428Y-15572891D02*
X10599999Y-15572891D01*
X10599999Y-15572891D02*
X10657142Y-15601462D01*
X10657142Y-15601462D02*
X10685713Y-15630034D01*
X10685713Y-15630034D02*
X10714285Y-15687177D01*
X10714285Y-15687177D02*
X10714285Y-15772891D01*
X10714285Y-15772891D02*
X10685713Y-15830034D01*
X10685713Y-15830034D02*
X10657142Y-15858605D01*
X10657142Y-15858605D02*
X10599999Y-15887177D01*
X10599999Y-15887177D02*
X10371428Y-15887177D01*
X11171428Y-15858605D02*
X11257142Y-15887177D01*
X11257142Y-15887177D02*
X11285713Y-15915748D01*
X11285713Y-15915748D02*
X11314285Y-15972891D01*
X11314285Y-15972891D02*
X11314285Y-16058605D01*
X11314285Y-16058605D02*
X11285713Y-16115748D01*
X11285713Y-16115748D02*
X11257142Y-16144320D01*
X11257142Y-16144320D02*
X11199999Y-16172891D01*
X11199999Y-16172891D02*
X10971428Y-16172891D01*
X10971428Y-16172891D02*
X10971428Y-15572891D01*
X10971428Y-15572891D02*
X11171428Y-15572891D01*
X11171428Y-15572891D02*
X11228571Y-15601462D01*
X11228571Y-15601462D02*
X11257142Y-15630034D01*
X11257142Y-15630034D02*
X11285713Y-15687177D01*
X11285713Y-15687177D02*
X11285713Y-15744320D01*
X11285713Y-15744320D02*
X11257142Y-15801462D01*
X11257142Y-15801462D02*
X11228571Y-15830034D01*
X11228571Y-15830034D02*
X11171428Y-15858605D01*
X11171428Y-15858605D02*
X10971428Y-15858605D01*
X11885713Y-16172891D02*
X11542856Y-16172891D01*
X11714285Y-16172891D02*
X11714285Y-15572891D01*
X11714285Y-15572891D02*
X11657142Y-15658605D01*
X11657142Y-15658605D02*
X11599999Y-15715748D01*
X11599999Y-15715748D02*
X11542856Y-15744320D01*
X12257142Y-15572891D02*
X12314285Y-15572891D01*
X12314285Y-15572891D02*
X12371428Y-15601462D01*
X12371428Y-15601462D02*
X12400000Y-15630034D01*
X12400000Y-15630034D02*
X12428571Y-15687177D01*
X12428571Y-15687177D02*
X12457142Y-15801462D01*
X12457142Y-15801462D02*
X12457142Y-15944320D01*
X12457142Y-15944320D02*
X12428571Y-16058605D01*
X12428571Y-16058605D02*
X12400000Y-16115748D01*
X12400000Y-16115748D02*
X12371428Y-16144320D01*
X12371428Y-16144320D02*
X12314285Y-16172891D01*
X12314285Y-16172891D02*
X12257142Y-16172891D01*
X12257142Y-16172891D02*
X12200000Y-16144320D01*
X12200000Y-16144320D02*
X12171428Y-16115748D01*
X12171428Y-16115748D02*
X12142857Y-16058605D01*
X12142857Y-16058605D02*
X12114285Y-15944320D01*
X12114285Y-15944320D02*
X12114285Y-15801462D01*
X12114285Y-15801462D02*
X12142857Y-15687177D01*
X12142857Y-15687177D02*
X12171428Y-15630034D01*
X12171428Y-15630034D02*
X12200000Y-15601462D01*
X12200000Y-15601462D02*
X12257142Y-15572891D01*
X10657143Y-18712891D02*
X10657143Y-18112891D01*
X10657143Y-18112891D02*
X10885714Y-18112891D01*
X10885714Y-18112891D02*
X10942857Y-18141462D01*
X10942857Y-18141462D02*
X10971428Y-18170034D01*
X10971428Y-18170034D02*
X11000000Y-18227177D01*
X11000000Y-18227177D02*
X11000000Y-18312891D01*
X11000000Y-18312891D02*
X10971428Y-18370034D01*
X10971428Y-18370034D02*
X10942857Y-18398605D01*
X10942857Y-18398605D02*
X10885714Y-18427177D01*
X10885714Y-18427177D02*
X10657143Y-18427177D01*
X11457143Y-18398605D02*
X11542857Y-18427177D01*
X11542857Y-18427177D02*
X11571428Y-18455748D01*
X11571428Y-18455748D02*
X11600000Y-18512891D01*
X11600000Y-18512891D02*
X11600000Y-18598605D01*
X11600000Y-18598605D02*
X11571428Y-18655748D01*
X11571428Y-18655748D02*
X11542857Y-18684320D01*
X11542857Y-18684320D02*
X11485714Y-18712891D01*
X11485714Y-18712891D02*
X11257143Y-18712891D01*
X11257143Y-18712891D02*
X11257143Y-18112891D01*
X11257143Y-18112891D02*
X11457143Y-18112891D01*
X11457143Y-18112891D02*
X11514286Y-18141462D01*
X11514286Y-18141462D02*
X11542857Y-18170034D01*
X11542857Y-18170034D02*
X11571428Y-18227177D01*
X11571428Y-18227177D02*
X11571428Y-18284320D01*
X11571428Y-18284320D02*
X11542857Y-18341462D01*
X11542857Y-18341462D02*
X11514286Y-18370034D01*
X11514286Y-18370034D02*
X11457143Y-18398605D01*
X11457143Y-18398605D02*
X11257143Y-18398605D01*
X11828571Y-18170034D02*
X11857143Y-18141462D01*
X11857143Y-18141462D02*
X11914286Y-18112891D01*
X11914286Y-18112891D02*
X12057143Y-18112891D01*
X12057143Y-18112891D02*
X12114286Y-18141462D01*
X12114286Y-18141462D02*
X12142857Y-18170034D01*
X12142857Y-18170034D02*
X12171428Y-18227177D01*
X12171428Y-18227177D02*
X12171428Y-18284320D01*
X12171428Y-18284320D02*
X12142857Y-18370034D01*
X12142857Y-18370034D02*
X11800000Y-18712891D01*
X11800000Y-18712891D02*
X12171428Y-18712891D01*
X10657143Y-21252891D02*
X10657143Y-20652891D01*
X10657143Y-20652891D02*
X10885714Y-20652891D01*
X10885714Y-20652891D02*
X10942857Y-20681462D01*
X10942857Y-20681462D02*
X10971428Y-20710034D01*
X10971428Y-20710034D02*
X11000000Y-20767177D01*
X11000000Y-20767177D02*
X11000000Y-20852891D01*
X11000000Y-20852891D02*
X10971428Y-20910034D01*
X10971428Y-20910034D02*
X10942857Y-20938605D01*
X10942857Y-20938605D02*
X10885714Y-20967177D01*
X10885714Y-20967177D02*
X10657143Y-20967177D01*
X11457143Y-20938605D02*
X11542857Y-20967177D01*
X11542857Y-20967177D02*
X11571428Y-20995748D01*
X11571428Y-20995748D02*
X11600000Y-21052891D01*
X11600000Y-21052891D02*
X11600000Y-21138605D01*
X11600000Y-21138605D02*
X11571428Y-21195748D01*
X11571428Y-21195748D02*
X11542857Y-21224320D01*
X11542857Y-21224320D02*
X11485714Y-21252891D01*
X11485714Y-21252891D02*
X11257143Y-21252891D01*
X11257143Y-21252891D02*
X11257143Y-20652891D01*
X11257143Y-20652891D02*
X11457143Y-20652891D01*
X11457143Y-20652891D02*
X11514286Y-20681462D01*
X11514286Y-20681462D02*
X11542857Y-20710034D01*
X11542857Y-20710034D02*
X11571428Y-20767177D01*
X11571428Y-20767177D02*
X11571428Y-20824320D01*
X11571428Y-20824320D02*
X11542857Y-20881462D01*
X11542857Y-20881462D02*
X11514286Y-20910034D01*
X11514286Y-20910034D02*
X11457143Y-20938605D01*
X11457143Y-20938605D02*
X11257143Y-20938605D01*
X12171428Y-21252891D02*
X11828571Y-21252891D01*
X12000000Y-21252891D02*
X12000000Y-20652891D01*
X12000000Y-20652891D02*
X11942857Y-20738605D01*
X11942857Y-20738605D02*
X11885714Y-20795748D01*
X11885714Y-20795748D02*
X11828571Y-20824320D01*
X10657143Y-23792891D02*
X10657143Y-23192891D01*
X10657143Y-23192891D02*
X10885714Y-23192891D01*
X10885714Y-23192891D02*
X10942857Y-23221462D01*
X10942857Y-23221462D02*
X10971428Y-23250034D01*
X10971428Y-23250034D02*
X11000000Y-23307177D01*
X11000000Y-23307177D02*
X11000000Y-23392891D01*
X11000000Y-23392891D02*
X10971428Y-23450034D01*
X10971428Y-23450034D02*
X10942857Y-23478605D01*
X10942857Y-23478605D02*
X10885714Y-23507177D01*
X10885714Y-23507177D02*
X10657143Y-23507177D01*
X11457143Y-23478605D02*
X11542857Y-23507177D01*
X11542857Y-23507177D02*
X11571428Y-23535748D01*
X11571428Y-23535748D02*
X11600000Y-23592891D01*
X11600000Y-23592891D02*
X11600000Y-23678605D01*
X11600000Y-23678605D02*
X11571428Y-23735748D01*
X11571428Y-23735748D02*
X11542857Y-23764320D01*
X11542857Y-23764320D02*
X11485714Y-23792891D01*
X11485714Y-23792891D02*
X11257143Y-23792891D01*
X11257143Y-23792891D02*
X11257143Y-23192891D01*
X11257143Y-23192891D02*
X11457143Y-23192891D01*
X11457143Y-23192891D02*
X11514286Y-23221462D01*
X11514286Y-23221462D02*
X11542857Y-23250034D01*
X11542857Y-23250034D02*
X11571428Y-23307177D01*
X11571428Y-23307177D02*
X11571428Y-23364320D01*
X11571428Y-23364320D02*
X11542857Y-23421462D01*
X11542857Y-23421462D02*
X11514286Y-23450034D01*
X11514286Y-23450034D02*
X11457143Y-23478605D01*
X11457143Y-23478605D02*
X11257143Y-23478605D01*
X11971428Y-23192891D02*
X12028571Y-23192891D01*
X12028571Y-23192891D02*
X12085714Y-23221462D01*
X12085714Y-23221462D02*
X12114286Y-23250034D01*
X12114286Y-23250034D02*
X12142857Y-23307177D01*
X12142857Y-23307177D02*
X12171428Y-23421462D01*
X12171428Y-23421462D02*
X12171428Y-23564320D01*
X12171428Y-23564320D02*
X12142857Y-23678605D01*
X12142857Y-23678605D02*
X12114286Y-23735748D01*
X12114286Y-23735748D02*
X12085714Y-23764320D01*
X12085714Y-23764320D02*
X12028571Y-23792891D01*
X12028571Y-23792891D02*
X11971428Y-23792891D01*
X11971428Y-23792891D02*
X11914286Y-23764320D01*
X11914286Y-23764320D02*
X11885714Y-23735748D01*
X11885714Y-23735748D02*
X11857143Y-23678605D01*
X11857143Y-23678605D02*
X11828571Y-23564320D01*
X11828571Y-23564320D02*
X11828571Y-23421462D01*
X11828571Y-23421462D02*
X11857143Y-23307177D01*
X11857143Y-23307177D02*
X11885714Y-23250034D01*
X11885714Y-23250034D02*
X11914286Y-23221462D01*
X11914286Y-23221462D02*
X11971428Y-23192891D01*
X10700000Y-26332891D02*
X10700000Y-25732891D01*
X10700000Y-25732891D02*
X10928571Y-25732891D01*
X10928571Y-25732891D02*
X10985714Y-25761462D01*
X10985714Y-25761462D02*
X11014285Y-25790034D01*
X11014285Y-25790034D02*
X11042857Y-25847177D01*
X11042857Y-25847177D02*
X11042857Y-25932891D01*
X11042857Y-25932891D02*
X11014285Y-25990034D01*
X11014285Y-25990034D02*
X10985714Y-26018605D01*
X10985714Y-26018605D02*
X10928571Y-26047177D01*
X10928571Y-26047177D02*
X10700000Y-26047177D01*
X11271428Y-26161462D02*
X11557143Y-26161462D01*
X11214285Y-26332891D02*
X11414285Y-25732891D01*
X11414285Y-25732891D02*
X11614285Y-26332891D01*
X11757143Y-25732891D02*
X12157143Y-25732891D01*
X12157143Y-25732891D02*
X11900000Y-26332891D01*
X10700000Y-28872891D02*
X10700000Y-28272891D01*
X10700000Y-28272891D02*
X10928571Y-28272891D01*
X10928571Y-28272891D02*
X10985714Y-28301462D01*
X10985714Y-28301462D02*
X11014285Y-28330034D01*
X11014285Y-28330034D02*
X11042857Y-28387177D01*
X11042857Y-28387177D02*
X11042857Y-28472891D01*
X11042857Y-28472891D02*
X11014285Y-28530034D01*
X11014285Y-28530034D02*
X10985714Y-28558605D01*
X10985714Y-28558605D02*
X10928571Y-28587177D01*
X10928571Y-28587177D02*
X10700000Y-28587177D01*
X11271428Y-28701462D02*
X11557143Y-28701462D01*
X11214285Y-28872891D02*
X11414285Y-28272891D01*
X11414285Y-28272891D02*
X11614285Y-28872891D01*
X12071429Y-28272891D02*
X11957143Y-28272891D01*
X11957143Y-28272891D02*
X11900000Y-28301462D01*
X11900000Y-28301462D02*
X11871429Y-28330034D01*
X11871429Y-28330034D02*
X11814286Y-28415748D01*
X11814286Y-28415748D02*
X11785714Y-28530034D01*
X11785714Y-28530034D02*
X11785714Y-28758605D01*
X11785714Y-28758605D02*
X11814286Y-28815748D01*
X11814286Y-28815748D02*
X11842857Y-28844320D01*
X11842857Y-28844320D02*
X11900000Y-28872891D01*
X11900000Y-28872891D02*
X12014286Y-28872891D01*
X12014286Y-28872891D02*
X12071429Y-28844320D01*
X12071429Y-28844320D02*
X12100000Y-28815748D01*
X12100000Y-28815748D02*
X12128571Y-28758605D01*
X12128571Y-28758605D02*
X12128571Y-28615748D01*
X12128571Y-28615748D02*
X12100000Y-28558605D01*
X12100000Y-28558605D02*
X12071429Y-28530034D01*
X12071429Y-28530034D02*
X12014286Y-28501462D01*
X12014286Y-28501462D02*
X11900000Y-28501462D01*
X11900000Y-28501462D02*
X11842857Y-28530034D01*
X11842857Y-28530034D02*
X11814286Y-28558605D01*
X11814286Y-28558605D02*
X11785714Y-28615748D01*
X10700000Y-31412891D02*
X10700000Y-30812891D01*
X10700000Y-30812891D02*
X10928571Y-30812891D01*
X10928571Y-30812891D02*
X10985714Y-30841462D01*
X10985714Y-30841462D02*
X11014285Y-30870034D01*
X11014285Y-30870034D02*
X11042857Y-30927177D01*
X11042857Y-30927177D02*
X11042857Y-31012891D01*
X11042857Y-31012891D02*
X11014285Y-31070034D01*
X11014285Y-31070034D02*
X10985714Y-31098605D01*
X10985714Y-31098605D02*
X10928571Y-31127177D01*
X10928571Y-31127177D02*
X10700000Y-31127177D01*
X11271428Y-31241462D02*
X11557143Y-31241462D01*
X11214285Y-31412891D02*
X11414285Y-30812891D01*
X11414285Y-30812891D02*
X11614285Y-31412891D01*
X12100000Y-30812891D02*
X11814286Y-30812891D01*
X11814286Y-30812891D02*
X11785714Y-31098605D01*
X11785714Y-31098605D02*
X11814286Y-31070034D01*
X11814286Y-31070034D02*
X11871429Y-31041462D01*
X11871429Y-31041462D02*
X12014286Y-31041462D01*
X12014286Y-31041462D02*
X12071429Y-31070034D01*
X12071429Y-31070034D02*
X12100000Y-31098605D01*
X12100000Y-31098605D02*
X12128571Y-31155748D01*
X12128571Y-31155748D02*
X12128571Y-31298605D01*
X12128571Y-31298605D02*
X12100000Y-31355748D01*
X12100000Y-31355748D02*
X12071429Y-31384320D01*
X12071429Y-31384320D02*
X12014286Y-31412891D01*
X12014286Y-31412891D02*
X11871429Y-31412891D01*
X11871429Y-31412891D02*
X11814286Y-31384320D01*
X11814286Y-31384320D02*
X11785714Y-31355748D01*
X10700000Y-33952891D02*
X10700000Y-33352891D01*
X10700000Y-33352891D02*
X10928571Y-33352891D01*
X10928571Y-33352891D02*
X10985714Y-33381462D01*
X10985714Y-33381462D02*
X11014285Y-33410034D01*
X11014285Y-33410034D02*
X11042857Y-33467177D01*
X11042857Y-33467177D02*
X11042857Y-33552891D01*
X11042857Y-33552891D02*
X11014285Y-33610034D01*
X11014285Y-33610034D02*
X10985714Y-33638605D01*
X10985714Y-33638605D02*
X10928571Y-33667177D01*
X10928571Y-33667177D02*
X10700000Y-33667177D01*
X11271428Y-33781462D02*
X11557143Y-33781462D01*
X11214285Y-33952891D02*
X11414285Y-33352891D01*
X11414285Y-33352891D02*
X11614285Y-33952891D01*
X12071429Y-33552891D02*
X12071429Y-33952891D01*
X11928571Y-33324320D02*
X11785714Y-33752891D01*
X11785714Y-33752891D02*
X12157143Y-33752891D01*
X10700000Y-36492891D02*
X10700000Y-35892891D01*
X10700000Y-35892891D02*
X10928571Y-35892891D01*
X10928571Y-35892891D02*
X10985714Y-35921462D01*
X10985714Y-35921462D02*
X11014285Y-35950034D01*
X11014285Y-35950034D02*
X11042857Y-36007177D01*
X11042857Y-36007177D02*
X11042857Y-36092891D01*
X11042857Y-36092891D02*
X11014285Y-36150034D01*
X11014285Y-36150034D02*
X10985714Y-36178605D01*
X10985714Y-36178605D02*
X10928571Y-36207177D01*
X10928571Y-36207177D02*
X10700000Y-36207177D01*
X11271428Y-36321462D02*
X11557143Y-36321462D01*
X11214285Y-36492891D02*
X11414285Y-35892891D01*
X11414285Y-35892891D02*
X11614285Y-36492891D01*
X11757143Y-35892891D02*
X12128571Y-35892891D01*
X12128571Y-35892891D02*
X11928571Y-36121462D01*
X11928571Y-36121462D02*
X12014286Y-36121462D01*
X12014286Y-36121462D02*
X12071429Y-36150034D01*
X12071429Y-36150034D02*
X12100000Y-36178605D01*
X12100000Y-36178605D02*
X12128571Y-36235748D01*
X12128571Y-36235748D02*
X12128571Y-36378605D01*
X12128571Y-36378605D02*
X12100000Y-36435748D01*
X12100000Y-36435748D02*
X12071429Y-36464320D01*
X12071429Y-36464320D02*
X12014286Y-36492891D01*
X12014286Y-36492891D02*
X11842857Y-36492891D01*
X11842857Y-36492891D02*
X11785714Y-36464320D01*
X11785714Y-36464320D02*
X11757143Y-36435748D01*
X10700000Y-39032891D02*
X10700000Y-38432891D01*
X10700000Y-38432891D02*
X10928571Y-38432891D01*
X10928571Y-38432891D02*
X10985714Y-38461462D01*
X10985714Y-38461462D02*
X11014285Y-38490034D01*
X11014285Y-38490034D02*
X11042857Y-38547177D01*
X11042857Y-38547177D02*
X11042857Y-38632891D01*
X11042857Y-38632891D02*
X11014285Y-38690034D01*
X11014285Y-38690034D02*
X10985714Y-38718605D01*
X10985714Y-38718605D02*
X10928571Y-38747177D01*
X10928571Y-38747177D02*
X10700000Y-38747177D01*
X11271428Y-38861462D02*
X11557143Y-38861462D01*
X11214285Y-39032891D02*
X11414285Y-38432891D01*
X11414285Y-38432891D02*
X11614285Y-39032891D01*
X11785714Y-38490034D02*
X11814286Y-38461462D01*
X11814286Y-38461462D02*
X11871429Y-38432891D01*
X11871429Y-38432891D02*
X12014286Y-38432891D01*
X12014286Y-38432891D02*
X12071429Y-38461462D01*
X12071429Y-38461462D02*
X12100000Y-38490034D01*
X12100000Y-38490034D02*
X12128571Y-38547177D01*
X12128571Y-38547177D02*
X12128571Y-38604320D01*
X12128571Y-38604320D02*
X12100000Y-38690034D01*
X12100000Y-38690034D02*
X11757143Y-39032891D01*
X11757143Y-39032891D02*
X12128571Y-39032891D01*
X10700000Y-41572891D02*
X10700000Y-40972891D01*
X10700000Y-40972891D02*
X10928571Y-40972891D01*
X10928571Y-40972891D02*
X10985714Y-41001462D01*
X10985714Y-41001462D02*
X11014285Y-41030034D01*
X11014285Y-41030034D02*
X11042857Y-41087177D01*
X11042857Y-41087177D02*
X11042857Y-41172891D01*
X11042857Y-41172891D02*
X11014285Y-41230034D01*
X11014285Y-41230034D02*
X10985714Y-41258605D01*
X10985714Y-41258605D02*
X10928571Y-41287177D01*
X10928571Y-41287177D02*
X10700000Y-41287177D01*
X11271428Y-41401462D02*
X11557143Y-41401462D01*
X11214285Y-41572891D02*
X11414285Y-40972891D01*
X11414285Y-40972891D02*
X11614285Y-41572891D01*
X12128571Y-41572891D02*
X11785714Y-41572891D01*
X11957143Y-41572891D02*
X11957143Y-40972891D01*
X11957143Y-40972891D02*
X11900000Y-41058605D01*
X11900000Y-41058605D02*
X11842857Y-41115748D01*
X11842857Y-41115748D02*
X11785714Y-41144320D01*
X10700000Y-44112891D02*
X10700000Y-43512891D01*
X10700000Y-43512891D02*
X10928571Y-43512891D01*
X10928571Y-43512891D02*
X10985714Y-43541462D01*
X10985714Y-43541462D02*
X11014285Y-43570034D01*
X11014285Y-43570034D02*
X11042857Y-43627177D01*
X11042857Y-43627177D02*
X11042857Y-43712891D01*
X11042857Y-43712891D02*
X11014285Y-43770034D01*
X11014285Y-43770034D02*
X10985714Y-43798605D01*
X10985714Y-43798605D02*
X10928571Y-43827177D01*
X10928571Y-43827177D02*
X10700000Y-43827177D01*
X11271428Y-43941462D02*
X11557143Y-43941462D01*
X11214285Y-44112891D02*
X11414285Y-43512891D01*
X11414285Y-43512891D02*
X11614285Y-44112891D01*
X11928571Y-43512891D02*
X11985714Y-43512891D01*
X11985714Y-43512891D02*
X12042857Y-43541462D01*
X12042857Y-43541462D02*
X12071429Y-43570034D01*
X12071429Y-43570034D02*
X12100000Y-43627177D01*
X12100000Y-43627177D02*
X12128571Y-43741462D01*
X12128571Y-43741462D02*
X12128571Y-43884320D01*
X12128571Y-43884320D02*
X12100000Y-43998605D01*
X12100000Y-43998605D02*
X12071429Y-44055748D01*
X12071429Y-44055748D02*
X12042857Y-44084320D01*
X12042857Y-44084320D02*
X11985714Y-44112891D01*
X11985714Y-44112891D02*
X11928571Y-44112891D01*
X11928571Y-44112891D02*
X11871429Y-44084320D01*
X11871429Y-44084320D02*
X11842857Y-44055748D01*
X11842857Y-44055748D02*
X11814286Y-43998605D01*
X11814286Y-43998605D02*
X11785714Y-43884320D01*
X11785714Y-43884320D02*
X11785714Y-43741462D01*
X11785714Y-43741462D02*
X11814286Y-43627177D01*
X11814286Y-43627177D02*
X11842857Y-43570034D01*
X11842857Y-43570034D02*
X11871429Y-43541462D01*
X11871429Y-43541462D02*
X11928571Y-43512891D01*
X10414286Y-46652891D02*
X10414286Y-46052891D01*
X10414286Y-46052891D02*
X10757143Y-46652891D01*
X10757143Y-46652891D02*
X10757143Y-46052891D01*
X11385714Y-46652891D02*
X11185714Y-46367177D01*
X11042857Y-46652891D02*
X11042857Y-46052891D01*
X11042857Y-46052891D02*
X11271428Y-46052891D01*
X11271428Y-46052891D02*
X11328571Y-46081462D01*
X11328571Y-46081462D02*
X11357142Y-46110034D01*
X11357142Y-46110034D02*
X11385714Y-46167177D01*
X11385714Y-46167177D02*
X11385714Y-46252891D01*
X11385714Y-46252891D02*
X11357142Y-46310034D01*
X11357142Y-46310034D02*
X11328571Y-46338605D01*
X11328571Y-46338605D02*
X11271428Y-46367177D01*
X11271428Y-46367177D02*
X11042857Y-46367177D01*
X11614285Y-46624320D02*
X11700000Y-46652891D01*
X11700000Y-46652891D02*
X11842857Y-46652891D01*
X11842857Y-46652891D02*
X11900000Y-46624320D01*
X11900000Y-46624320D02*
X11928571Y-46595748D01*
X11928571Y-46595748D02*
X11957142Y-46538605D01*
X11957142Y-46538605D02*
X11957142Y-46481462D01*
X11957142Y-46481462D02*
X11928571Y-46424320D01*
X11928571Y-46424320D02*
X11900000Y-46395748D01*
X11900000Y-46395748D02*
X11842857Y-46367177D01*
X11842857Y-46367177D02*
X11728571Y-46338605D01*
X11728571Y-46338605D02*
X11671428Y-46310034D01*
X11671428Y-46310034D02*
X11642857Y-46281462D01*
X11642857Y-46281462D02*
X11614285Y-46224320D01*
X11614285Y-46224320D02*
X11614285Y-46167177D01*
X11614285Y-46167177D02*
X11642857Y-46110034D01*
X11642857Y-46110034D02*
X11671428Y-46081462D01*
X11671428Y-46081462D02*
X11728571Y-46052891D01*
X11728571Y-46052891D02*
X11871428Y-46052891D01*
X11871428Y-46052891D02*
X11957142Y-46081462D01*
X12128571Y-46052891D02*
X12471429Y-46052891D01*
X12300000Y-46652891D02*
X12300000Y-46052891D01*
X10942857Y-48621462D02*
X10885715Y-48592891D01*
X10885715Y-48592891D02*
X10800000Y-48592891D01*
X10800000Y-48592891D02*
X10714286Y-48621462D01*
X10714286Y-48621462D02*
X10657143Y-48678605D01*
X10657143Y-48678605D02*
X10628572Y-48735748D01*
X10628572Y-48735748D02*
X10600000Y-48850034D01*
X10600000Y-48850034D02*
X10600000Y-48935748D01*
X10600000Y-48935748D02*
X10628572Y-49050034D01*
X10628572Y-49050034D02*
X10657143Y-49107177D01*
X10657143Y-49107177D02*
X10714286Y-49164320D01*
X10714286Y-49164320D02*
X10800000Y-49192891D01*
X10800000Y-49192891D02*
X10857143Y-49192891D01*
X10857143Y-49192891D02*
X10942857Y-49164320D01*
X10942857Y-49164320D02*
X10971429Y-49135748D01*
X10971429Y-49135748D02*
X10971429Y-48935748D01*
X10971429Y-48935748D02*
X10857143Y-48935748D01*
X11228572Y-49192891D02*
X11228572Y-48592891D01*
X11228572Y-48592891D02*
X11571429Y-49192891D01*
X11571429Y-49192891D02*
X11571429Y-48592891D01*
X11857143Y-49192891D02*
X11857143Y-48592891D01*
X11857143Y-48592891D02*
X12000000Y-48592891D01*
X12000000Y-48592891D02*
X12085714Y-48621462D01*
X12085714Y-48621462D02*
X12142857Y-48678605D01*
X12142857Y-48678605D02*
X12171428Y-48735748D01*
X12171428Y-48735748D02*
X12200000Y-48850034D01*
X12200000Y-48850034D02*
X12200000Y-48935748D01*
X12200000Y-48935748D02*
X12171428Y-49050034D01*
X12171428Y-49050034D02*
X12142857Y-49107177D01*
X12142857Y-49107177D02*
X12085714Y-49164320D01*
X12085714Y-49164320D02*
X12000000Y-49192891D01*
X12000000Y-49192891D02*
X11857143Y-49192891D01*
X10657142Y-51132891D02*
X11028570Y-51132891D01*
X11028570Y-51132891D02*
X10828570Y-51361462D01*
X10828570Y-51361462D02*
X10914285Y-51361462D01*
X10914285Y-51361462D02*
X10971428Y-51390034D01*
X10971428Y-51390034D02*
X10999999Y-51418605D01*
X10999999Y-51418605D02*
X11028570Y-51475748D01*
X11028570Y-51475748D02*
X11028570Y-51618605D01*
X11028570Y-51618605D02*
X10999999Y-51675748D01*
X10999999Y-51675748D02*
X10971428Y-51704320D01*
X10971428Y-51704320D02*
X10914285Y-51732891D01*
X10914285Y-51732891D02*
X10742856Y-51732891D01*
X10742856Y-51732891D02*
X10685713Y-51704320D01*
X10685713Y-51704320D02*
X10657142Y-51675748D01*
X11199999Y-51132891D02*
X11399999Y-51732891D01*
X11399999Y-51732891D02*
X11599999Y-51132891D01*
X11742857Y-51132891D02*
X12114285Y-51132891D01*
X12114285Y-51132891D02*
X11914285Y-51361462D01*
X11914285Y-51361462D02*
X12000000Y-51361462D01*
X12000000Y-51361462D02*
X12057143Y-51390034D01*
X12057143Y-51390034D02*
X12085714Y-51418605D01*
X12085714Y-51418605D02*
X12114285Y-51475748D01*
X12114285Y-51475748D02*
X12114285Y-51618605D01*
X12114285Y-51618605D02*
X12085714Y-51675748D01*
X12085714Y-51675748D02*
X12057143Y-51704320D01*
X12057143Y-51704320D02*
X12000000Y-51732891D01*
X12000000Y-51732891D02*
X11828571Y-51732891D01*
X11828571Y-51732891D02*
X11771428Y-51704320D01*
X11771428Y-51704320D02*
X11742857Y-51675748D01*
X11285714Y-53672891D02*
X11000000Y-53672891D01*
X11000000Y-53672891D02*
X10971428Y-53958605D01*
X10971428Y-53958605D02*
X11000000Y-53930034D01*
X11000000Y-53930034D02*
X11057143Y-53901462D01*
X11057143Y-53901462D02*
X11200000Y-53901462D01*
X11200000Y-53901462D02*
X11257143Y-53930034D01*
X11257143Y-53930034D02*
X11285714Y-53958605D01*
X11285714Y-53958605D02*
X11314285Y-54015748D01*
X11314285Y-54015748D02*
X11314285Y-54158605D01*
X11314285Y-54158605D02*
X11285714Y-54215748D01*
X11285714Y-54215748D02*
X11257143Y-54244320D01*
X11257143Y-54244320D02*
X11200000Y-54272891D01*
X11200000Y-54272891D02*
X11057143Y-54272891D01*
X11057143Y-54272891D02*
X11000000Y-54244320D01*
X11000000Y-54244320D02*
X10971428Y-54215748D01*
X11485714Y-53672891D02*
X11685714Y-54272891D01*
X11685714Y-54272891D02*
X11885714Y-53672891D01*
X48142857Y-5441462D02*
X48085715Y-5412891D01*
X48085715Y-5412891D02*
X48000000Y-5412891D01*
X48000000Y-5412891D02*
X47914286Y-5441462D01*
X47914286Y-5441462D02*
X47857143Y-5498605D01*
X47857143Y-5498605D02*
X47828572Y-5555748D01*
X47828572Y-5555748D02*
X47800000Y-5670034D01*
X47800000Y-5670034D02*
X47800000Y-5755748D01*
X47800000Y-5755748D02*
X47828572Y-5870034D01*
X47828572Y-5870034D02*
X47857143Y-5927177D01*
X47857143Y-5927177D02*
X47914286Y-5984320D01*
X47914286Y-5984320D02*
X48000000Y-6012891D01*
X48000000Y-6012891D02*
X48057143Y-6012891D01*
X48057143Y-6012891D02*
X48142857Y-5984320D01*
X48142857Y-5984320D02*
X48171429Y-5955748D01*
X48171429Y-5955748D02*
X48171429Y-5755748D01*
X48171429Y-5755748D02*
X48057143Y-5755748D01*
X48428572Y-6012891D02*
X48428572Y-5412891D01*
X48428572Y-5412891D02*
X48771429Y-6012891D01*
X48771429Y-6012891D02*
X48771429Y-5412891D01*
X49057143Y-6012891D02*
X49057143Y-5412891D01*
X49057143Y-5412891D02*
X49200000Y-5412891D01*
X49200000Y-5412891D02*
X49285714Y-5441462D01*
X49285714Y-5441462D02*
X49342857Y-5498605D01*
X49342857Y-5498605D02*
X49371428Y-5555748D01*
X49371428Y-5555748D02*
X49400000Y-5670034D01*
X49400000Y-5670034D02*
X49400000Y-5755748D01*
X49400000Y-5755748D02*
X49371428Y-5870034D01*
X49371428Y-5870034D02*
X49342857Y-5927177D01*
X49342857Y-5927177D02*
X49285714Y-5984320D01*
X49285714Y-5984320D02*
X49200000Y-6012891D01*
X49200000Y-6012891D02*
X49057143Y-6012891D01*
X47857142Y-7952890D02*
X48228570Y-7952890D01*
X48228570Y-7952890D02*
X48028570Y-8181461D01*
X48028570Y-8181461D02*
X48114285Y-8181461D01*
X48114285Y-8181461D02*
X48171428Y-8210033D01*
X48171428Y-8210033D02*
X48199999Y-8238604D01*
X48199999Y-8238604D02*
X48228570Y-8295747D01*
X48228570Y-8295747D02*
X48228570Y-8438604D01*
X48228570Y-8438604D02*
X48199999Y-8495747D01*
X48199999Y-8495747D02*
X48171428Y-8524319D01*
X48171428Y-8524319D02*
X48114285Y-8552890D01*
X48114285Y-8552890D02*
X47942856Y-8552890D01*
X47942856Y-8552890D02*
X47885713Y-8524319D01*
X47885713Y-8524319D02*
X47857142Y-8495747D01*
X48399999Y-7952890D02*
X48599999Y-8552890D01*
X48599999Y-8552890D02*
X48799999Y-7952890D01*
X48942857Y-7952890D02*
X49314285Y-7952890D01*
X49314285Y-7952890D02*
X49114285Y-8181461D01*
X49114285Y-8181461D02*
X49200000Y-8181461D01*
X49200000Y-8181461D02*
X49257143Y-8210033D01*
X49257143Y-8210033D02*
X49285714Y-8238604D01*
X49285714Y-8238604D02*
X49314285Y-8295747D01*
X49314285Y-8295747D02*
X49314285Y-8438604D01*
X49314285Y-8438604D02*
X49285714Y-8495747D01*
X49285714Y-8495747D02*
X49257143Y-8524319D01*
X49257143Y-8524319D02*
X49200000Y-8552890D01*
X49200000Y-8552890D02*
X49028571Y-8552890D01*
X49028571Y-8552890D02*
X48971428Y-8524319D01*
X48971428Y-8524319D02*
X48942857Y-8495747D01*
X47500000Y-10778605D02*
X47585714Y-10807177D01*
X47585714Y-10807177D02*
X47614285Y-10835748D01*
X47614285Y-10835748D02*
X47642857Y-10892891D01*
X47642857Y-10892891D02*
X47642857Y-10978605D01*
X47642857Y-10978605D02*
X47614285Y-11035748D01*
X47614285Y-11035748D02*
X47585714Y-11064320D01*
X47585714Y-11064320D02*
X47528571Y-11092891D01*
X47528571Y-11092891D02*
X47300000Y-11092891D01*
X47300000Y-11092891D02*
X47300000Y-10492891D01*
X47300000Y-10492891D02*
X47500000Y-10492891D01*
X47500000Y-10492891D02*
X47557143Y-10521462D01*
X47557143Y-10521462D02*
X47585714Y-10550034D01*
X47585714Y-10550034D02*
X47614285Y-10607177D01*
X47614285Y-10607177D02*
X47614285Y-10664320D01*
X47614285Y-10664320D02*
X47585714Y-10721462D01*
X47585714Y-10721462D02*
X47557143Y-10750034D01*
X47557143Y-10750034D02*
X47500000Y-10778605D01*
X47500000Y-10778605D02*
X47300000Y-10778605D01*
X48014285Y-10492891D02*
X48128571Y-10492891D01*
X48128571Y-10492891D02*
X48185714Y-10521462D01*
X48185714Y-10521462D02*
X48242857Y-10578605D01*
X48242857Y-10578605D02*
X48271428Y-10692891D01*
X48271428Y-10692891D02*
X48271428Y-10892891D01*
X48271428Y-10892891D02*
X48242857Y-11007177D01*
X48242857Y-11007177D02*
X48185714Y-11064320D01*
X48185714Y-11064320D02*
X48128571Y-11092891D01*
X48128571Y-11092891D02*
X48014285Y-11092891D01*
X48014285Y-11092891D02*
X47957143Y-11064320D01*
X47957143Y-11064320D02*
X47900000Y-11007177D01*
X47900000Y-11007177D02*
X47871428Y-10892891D01*
X47871428Y-10892891D02*
X47871428Y-10692891D01*
X47871428Y-10692891D02*
X47900000Y-10578605D01*
X47900000Y-10578605D02*
X47957143Y-10521462D01*
X47957143Y-10521462D02*
X48014285Y-10492891D01*
X48642856Y-10492891D02*
X48757142Y-10492891D01*
X48757142Y-10492891D02*
X48814285Y-10521462D01*
X48814285Y-10521462D02*
X48871428Y-10578605D01*
X48871428Y-10578605D02*
X48899999Y-10692891D01*
X48899999Y-10692891D02*
X48899999Y-10892891D01*
X48899999Y-10892891D02*
X48871428Y-11007177D01*
X48871428Y-11007177D02*
X48814285Y-11064320D01*
X48814285Y-11064320D02*
X48757142Y-11092891D01*
X48757142Y-11092891D02*
X48642856Y-11092891D01*
X48642856Y-11092891D02*
X48585714Y-11064320D01*
X48585714Y-11064320D02*
X48528571Y-11007177D01*
X48528571Y-11007177D02*
X48499999Y-10892891D01*
X48499999Y-10892891D02*
X48499999Y-10692891D01*
X48499999Y-10692891D02*
X48528571Y-10578605D01*
X48528571Y-10578605D02*
X48585714Y-10521462D01*
X48585714Y-10521462D02*
X48642856Y-10492891D01*
X49071427Y-10492891D02*
X49414285Y-10492891D01*
X49242856Y-11092891D02*
X49242856Y-10492891D01*
X49728570Y-10492891D02*
X49785713Y-10492891D01*
X49785713Y-10492891D02*
X49842856Y-10521462D01*
X49842856Y-10521462D02*
X49871428Y-10550034D01*
X49871428Y-10550034D02*
X49899999Y-10607177D01*
X49899999Y-10607177D02*
X49928570Y-10721462D01*
X49928570Y-10721462D02*
X49928570Y-10864320D01*
X49928570Y-10864320D02*
X49899999Y-10978605D01*
X49899999Y-10978605D02*
X49871428Y-11035748D01*
X49871428Y-11035748D02*
X49842856Y-11064320D01*
X49842856Y-11064320D02*
X49785713Y-11092891D01*
X49785713Y-11092891D02*
X49728570Y-11092891D01*
X49728570Y-11092891D02*
X49671428Y-11064320D01*
X49671428Y-11064320D02*
X49642856Y-11035748D01*
X49642856Y-11035748D02*
X49614285Y-10978605D01*
X49614285Y-10978605D02*
X49585713Y-10864320D01*
X49585713Y-10864320D02*
X49585713Y-10721462D01*
X49585713Y-10721462D02*
X49614285Y-10607177D01*
X49614285Y-10607177D02*
X49642856Y-10550034D01*
X49642856Y-10550034D02*
X49671428Y-10521462D01*
X49671428Y-10521462D02*
X49728570Y-10492891D01*
X47571428Y-13632891D02*
X47571428Y-13032891D01*
X47571428Y-13032891D02*
X47799999Y-13032891D01*
X47799999Y-13032891D02*
X47857142Y-13061462D01*
X47857142Y-13061462D02*
X47885713Y-13090034D01*
X47885713Y-13090034D02*
X47914285Y-13147177D01*
X47914285Y-13147177D02*
X47914285Y-13232891D01*
X47914285Y-13232891D02*
X47885713Y-13290034D01*
X47885713Y-13290034D02*
X47857142Y-13318605D01*
X47857142Y-13318605D02*
X47799999Y-13347177D01*
X47799999Y-13347177D02*
X47571428Y-13347177D01*
X48371428Y-13318605D02*
X48457142Y-13347177D01*
X48457142Y-13347177D02*
X48485713Y-13375748D01*
X48485713Y-13375748D02*
X48514285Y-13432891D01*
X48514285Y-13432891D02*
X48514285Y-13518605D01*
X48514285Y-13518605D02*
X48485713Y-13575748D01*
X48485713Y-13575748D02*
X48457142Y-13604320D01*
X48457142Y-13604320D02*
X48399999Y-13632891D01*
X48399999Y-13632891D02*
X48171428Y-13632891D01*
X48171428Y-13632891D02*
X48171428Y-13032891D01*
X48171428Y-13032891D02*
X48371428Y-13032891D01*
X48371428Y-13032891D02*
X48428571Y-13061462D01*
X48428571Y-13061462D02*
X48457142Y-13090034D01*
X48457142Y-13090034D02*
X48485713Y-13147177D01*
X48485713Y-13147177D02*
X48485713Y-13204320D01*
X48485713Y-13204320D02*
X48457142Y-13261462D01*
X48457142Y-13261462D02*
X48428571Y-13290034D01*
X48428571Y-13290034D02*
X48371428Y-13318605D01*
X48371428Y-13318605D02*
X48171428Y-13318605D01*
X49085713Y-13632891D02*
X48742856Y-13632891D01*
X48914285Y-13632891D02*
X48914285Y-13032891D01*
X48914285Y-13032891D02*
X48857142Y-13118605D01*
X48857142Y-13118605D02*
X48799999Y-13175748D01*
X48799999Y-13175748D02*
X48742856Y-13204320D01*
X49628571Y-13032891D02*
X49342857Y-13032891D01*
X49342857Y-13032891D02*
X49314285Y-13318605D01*
X49314285Y-13318605D02*
X49342857Y-13290034D01*
X49342857Y-13290034D02*
X49400000Y-13261462D01*
X49400000Y-13261462D02*
X49542857Y-13261462D01*
X49542857Y-13261462D02*
X49600000Y-13290034D01*
X49600000Y-13290034D02*
X49628571Y-13318605D01*
X49628571Y-13318605D02*
X49657142Y-13375748D01*
X49657142Y-13375748D02*
X49657142Y-13518605D01*
X49657142Y-13518605D02*
X49628571Y-13575748D01*
X49628571Y-13575748D02*
X49600000Y-13604320D01*
X49600000Y-13604320D02*
X49542857Y-13632891D01*
X49542857Y-13632891D02*
X49400000Y-13632891D01*
X49400000Y-13632891D02*
X49342857Y-13604320D01*
X49342857Y-13604320D02*
X49314285Y-13575748D01*
X47571428Y-16172891D02*
X47571428Y-15572891D01*
X47571428Y-15572891D02*
X47799999Y-15572891D01*
X47799999Y-15572891D02*
X47857142Y-15601462D01*
X47857142Y-15601462D02*
X47885713Y-15630034D01*
X47885713Y-15630034D02*
X47914285Y-15687177D01*
X47914285Y-15687177D02*
X47914285Y-15772891D01*
X47914285Y-15772891D02*
X47885713Y-15830034D01*
X47885713Y-15830034D02*
X47857142Y-15858605D01*
X47857142Y-15858605D02*
X47799999Y-15887177D01*
X47799999Y-15887177D02*
X47571428Y-15887177D01*
X48371428Y-15858605D02*
X48457142Y-15887177D01*
X48457142Y-15887177D02*
X48485713Y-15915748D01*
X48485713Y-15915748D02*
X48514285Y-15972891D01*
X48514285Y-15972891D02*
X48514285Y-16058605D01*
X48514285Y-16058605D02*
X48485713Y-16115748D01*
X48485713Y-16115748D02*
X48457142Y-16144320D01*
X48457142Y-16144320D02*
X48399999Y-16172891D01*
X48399999Y-16172891D02*
X48171428Y-16172891D01*
X48171428Y-16172891D02*
X48171428Y-15572891D01*
X48171428Y-15572891D02*
X48371428Y-15572891D01*
X48371428Y-15572891D02*
X48428571Y-15601462D01*
X48428571Y-15601462D02*
X48457142Y-15630034D01*
X48457142Y-15630034D02*
X48485713Y-15687177D01*
X48485713Y-15687177D02*
X48485713Y-15744320D01*
X48485713Y-15744320D02*
X48457142Y-15801462D01*
X48457142Y-15801462D02*
X48428571Y-15830034D01*
X48428571Y-15830034D02*
X48371428Y-15858605D01*
X48371428Y-15858605D02*
X48171428Y-15858605D01*
X49085713Y-16172891D02*
X48742856Y-16172891D01*
X48914285Y-16172891D02*
X48914285Y-15572891D01*
X48914285Y-15572891D02*
X48857142Y-15658605D01*
X48857142Y-15658605D02*
X48799999Y-15715748D01*
X48799999Y-15715748D02*
X48742856Y-15744320D01*
X49600000Y-15772891D02*
X49600000Y-16172891D01*
X49457142Y-15544320D02*
X49314285Y-15972891D01*
X49314285Y-15972891D02*
X49685714Y-15972891D01*
X47571428Y-18712891D02*
X47571428Y-18112891D01*
X47571428Y-18112891D02*
X47799999Y-18112891D01*
X47799999Y-18112891D02*
X47857142Y-18141462D01*
X47857142Y-18141462D02*
X47885713Y-18170034D01*
X47885713Y-18170034D02*
X47914285Y-18227177D01*
X47914285Y-18227177D02*
X47914285Y-18312891D01*
X47914285Y-18312891D02*
X47885713Y-18370034D01*
X47885713Y-18370034D02*
X47857142Y-18398605D01*
X47857142Y-18398605D02*
X47799999Y-18427177D01*
X47799999Y-18427177D02*
X47571428Y-18427177D01*
X48371428Y-18398605D02*
X48457142Y-18427177D01*
X48457142Y-18427177D02*
X48485713Y-18455748D01*
X48485713Y-18455748D02*
X48514285Y-18512891D01*
X48514285Y-18512891D02*
X48514285Y-18598605D01*
X48514285Y-18598605D02*
X48485713Y-18655748D01*
X48485713Y-18655748D02*
X48457142Y-18684320D01*
X48457142Y-18684320D02*
X48399999Y-18712891D01*
X48399999Y-18712891D02*
X48171428Y-18712891D01*
X48171428Y-18712891D02*
X48171428Y-18112891D01*
X48171428Y-18112891D02*
X48371428Y-18112891D01*
X48371428Y-18112891D02*
X48428571Y-18141462D01*
X48428571Y-18141462D02*
X48457142Y-18170034D01*
X48457142Y-18170034D02*
X48485713Y-18227177D01*
X48485713Y-18227177D02*
X48485713Y-18284320D01*
X48485713Y-18284320D02*
X48457142Y-18341462D01*
X48457142Y-18341462D02*
X48428571Y-18370034D01*
X48428571Y-18370034D02*
X48371428Y-18398605D01*
X48371428Y-18398605D02*
X48171428Y-18398605D01*
X49085713Y-18712891D02*
X48742856Y-18712891D01*
X48914285Y-18712891D02*
X48914285Y-18112891D01*
X48914285Y-18112891D02*
X48857142Y-18198605D01*
X48857142Y-18198605D02*
X48799999Y-18255748D01*
X48799999Y-18255748D02*
X48742856Y-18284320D01*
X49285714Y-18112891D02*
X49657142Y-18112891D01*
X49657142Y-18112891D02*
X49457142Y-18341462D01*
X49457142Y-18341462D02*
X49542857Y-18341462D01*
X49542857Y-18341462D02*
X49600000Y-18370034D01*
X49600000Y-18370034D02*
X49628571Y-18398605D01*
X49628571Y-18398605D02*
X49657142Y-18455748D01*
X49657142Y-18455748D02*
X49657142Y-18598605D01*
X49657142Y-18598605D02*
X49628571Y-18655748D01*
X49628571Y-18655748D02*
X49600000Y-18684320D01*
X49600000Y-18684320D02*
X49542857Y-18712891D01*
X49542857Y-18712891D02*
X49371428Y-18712891D01*
X49371428Y-18712891D02*
X49314285Y-18684320D01*
X49314285Y-18684320D02*
X49285714Y-18655748D01*
X47571428Y-21252891D02*
X47571428Y-20652891D01*
X47571428Y-20652891D02*
X47799999Y-20652891D01*
X47799999Y-20652891D02*
X47857142Y-20681462D01*
X47857142Y-20681462D02*
X47885713Y-20710034D01*
X47885713Y-20710034D02*
X47914285Y-20767177D01*
X47914285Y-20767177D02*
X47914285Y-20852891D01*
X47914285Y-20852891D02*
X47885713Y-20910034D01*
X47885713Y-20910034D02*
X47857142Y-20938605D01*
X47857142Y-20938605D02*
X47799999Y-20967177D01*
X47799999Y-20967177D02*
X47571428Y-20967177D01*
X48371428Y-20938605D02*
X48457142Y-20967177D01*
X48457142Y-20967177D02*
X48485713Y-20995748D01*
X48485713Y-20995748D02*
X48514285Y-21052891D01*
X48514285Y-21052891D02*
X48514285Y-21138605D01*
X48514285Y-21138605D02*
X48485713Y-21195748D01*
X48485713Y-21195748D02*
X48457142Y-21224320D01*
X48457142Y-21224320D02*
X48399999Y-21252891D01*
X48399999Y-21252891D02*
X48171428Y-21252891D01*
X48171428Y-21252891D02*
X48171428Y-20652891D01*
X48171428Y-20652891D02*
X48371428Y-20652891D01*
X48371428Y-20652891D02*
X48428571Y-20681462D01*
X48428571Y-20681462D02*
X48457142Y-20710034D01*
X48457142Y-20710034D02*
X48485713Y-20767177D01*
X48485713Y-20767177D02*
X48485713Y-20824320D01*
X48485713Y-20824320D02*
X48457142Y-20881462D01*
X48457142Y-20881462D02*
X48428571Y-20910034D01*
X48428571Y-20910034D02*
X48371428Y-20938605D01*
X48371428Y-20938605D02*
X48171428Y-20938605D01*
X49085713Y-21252891D02*
X48742856Y-21252891D01*
X48914285Y-21252891D02*
X48914285Y-20652891D01*
X48914285Y-20652891D02*
X48857142Y-20738605D01*
X48857142Y-20738605D02*
X48799999Y-20795748D01*
X48799999Y-20795748D02*
X48742856Y-20824320D01*
X49314285Y-20710034D02*
X49342857Y-20681462D01*
X49342857Y-20681462D02*
X49400000Y-20652891D01*
X49400000Y-20652891D02*
X49542857Y-20652891D01*
X49542857Y-20652891D02*
X49600000Y-20681462D01*
X49600000Y-20681462D02*
X49628571Y-20710034D01*
X49628571Y-20710034D02*
X49657142Y-20767177D01*
X49657142Y-20767177D02*
X49657142Y-20824320D01*
X49657142Y-20824320D02*
X49628571Y-20910034D01*
X49628571Y-20910034D02*
X49285714Y-21252891D01*
X49285714Y-21252891D02*
X49657142Y-21252891D01*
X47857143Y-23792891D02*
X47857143Y-23192891D01*
X47857143Y-23192891D02*
X48085714Y-23192891D01*
X48085714Y-23192891D02*
X48142857Y-23221462D01*
X48142857Y-23221462D02*
X48171428Y-23250034D01*
X48171428Y-23250034D02*
X48200000Y-23307177D01*
X48200000Y-23307177D02*
X48200000Y-23392891D01*
X48200000Y-23392891D02*
X48171428Y-23450034D01*
X48171428Y-23450034D02*
X48142857Y-23478605D01*
X48142857Y-23478605D02*
X48085714Y-23507177D01*
X48085714Y-23507177D02*
X47857143Y-23507177D01*
X48657143Y-23478605D02*
X48742857Y-23507177D01*
X48742857Y-23507177D02*
X48771428Y-23535748D01*
X48771428Y-23535748D02*
X48800000Y-23592891D01*
X48800000Y-23592891D02*
X48800000Y-23678605D01*
X48800000Y-23678605D02*
X48771428Y-23735748D01*
X48771428Y-23735748D02*
X48742857Y-23764320D01*
X48742857Y-23764320D02*
X48685714Y-23792891D01*
X48685714Y-23792891D02*
X48457143Y-23792891D01*
X48457143Y-23792891D02*
X48457143Y-23192891D01*
X48457143Y-23192891D02*
X48657143Y-23192891D01*
X48657143Y-23192891D02*
X48714286Y-23221462D01*
X48714286Y-23221462D02*
X48742857Y-23250034D01*
X48742857Y-23250034D02*
X48771428Y-23307177D01*
X48771428Y-23307177D02*
X48771428Y-23364320D01*
X48771428Y-23364320D02*
X48742857Y-23421462D01*
X48742857Y-23421462D02*
X48714286Y-23450034D01*
X48714286Y-23450034D02*
X48657143Y-23478605D01*
X48657143Y-23478605D02*
X48457143Y-23478605D01*
X49085714Y-23792891D02*
X49200000Y-23792891D01*
X49200000Y-23792891D02*
X49257143Y-23764320D01*
X49257143Y-23764320D02*
X49285714Y-23735748D01*
X49285714Y-23735748D02*
X49342857Y-23650034D01*
X49342857Y-23650034D02*
X49371428Y-23535748D01*
X49371428Y-23535748D02*
X49371428Y-23307177D01*
X49371428Y-23307177D02*
X49342857Y-23250034D01*
X49342857Y-23250034D02*
X49314286Y-23221462D01*
X49314286Y-23221462D02*
X49257143Y-23192891D01*
X49257143Y-23192891D02*
X49142857Y-23192891D01*
X49142857Y-23192891D02*
X49085714Y-23221462D01*
X49085714Y-23221462D02*
X49057143Y-23250034D01*
X49057143Y-23250034D02*
X49028571Y-23307177D01*
X49028571Y-23307177D02*
X49028571Y-23450034D01*
X49028571Y-23450034D02*
X49057143Y-23507177D01*
X49057143Y-23507177D02*
X49085714Y-23535748D01*
X49085714Y-23535748D02*
X49142857Y-23564320D01*
X49142857Y-23564320D02*
X49257143Y-23564320D01*
X49257143Y-23564320D02*
X49314286Y-23535748D01*
X49314286Y-23535748D02*
X49342857Y-23507177D01*
X49342857Y-23507177D02*
X49371428Y-23450034D01*
X47857143Y-26332891D02*
X47857143Y-25732891D01*
X47857143Y-25732891D02*
X48085714Y-25732891D01*
X48085714Y-25732891D02*
X48142857Y-25761462D01*
X48142857Y-25761462D02*
X48171428Y-25790034D01*
X48171428Y-25790034D02*
X48200000Y-25847177D01*
X48200000Y-25847177D02*
X48200000Y-25932891D01*
X48200000Y-25932891D02*
X48171428Y-25990034D01*
X48171428Y-25990034D02*
X48142857Y-26018605D01*
X48142857Y-26018605D02*
X48085714Y-26047177D01*
X48085714Y-26047177D02*
X47857143Y-26047177D01*
X48657143Y-26018605D02*
X48742857Y-26047177D01*
X48742857Y-26047177D02*
X48771428Y-26075748D01*
X48771428Y-26075748D02*
X48800000Y-26132891D01*
X48800000Y-26132891D02*
X48800000Y-26218605D01*
X48800000Y-26218605D02*
X48771428Y-26275748D01*
X48771428Y-26275748D02*
X48742857Y-26304320D01*
X48742857Y-26304320D02*
X48685714Y-26332891D01*
X48685714Y-26332891D02*
X48457143Y-26332891D01*
X48457143Y-26332891D02*
X48457143Y-25732891D01*
X48457143Y-25732891D02*
X48657143Y-25732891D01*
X48657143Y-25732891D02*
X48714286Y-25761462D01*
X48714286Y-25761462D02*
X48742857Y-25790034D01*
X48742857Y-25790034D02*
X48771428Y-25847177D01*
X48771428Y-25847177D02*
X48771428Y-25904320D01*
X48771428Y-25904320D02*
X48742857Y-25961462D01*
X48742857Y-25961462D02*
X48714286Y-25990034D01*
X48714286Y-25990034D02*
X48657143Y-26018605D01*
X48657143Y-26018605D02*
X48457143Y-26018605D01*
X49142857Y-25990034D02*
X49085714Y-25961462D01*
X49085714Y-25961462D02*
X49057143Y-25932891D01*
X49057143Y-25932891D02*
X49028571Y-25875748D01*
X49028571Y-25875748D02*
X49028571Y-25847177D01*
X49028571Y-25847177D02*
X49057143Y-25790034D01*
X49057143Y-25790034D02*
X49085714Y-25761462D01*
X49085714Y-25761462D02*
X49142857Y-25732891D01*
X49142857Y-25732891D02*
X49257143Y-25732891D01*
X49257143Y-25732891D02*
X49314286Y-25761462D01*
X49314286Y-25761462D02*
X49342857Y-25790034D01*
X49342857Y-25790034D02*
X49371428Y-25847177D01*
X49371428Y-25847177D02*
X49371428Y-25875748D01*
X49371428Y-25875748D02*
X49342857Y-25932891D01*
X49342857Y-25932891D02*
X49314286Y-25961462D01*
X49314286Y-25961462D02*
X49257143Y-25990034D01*
X49257143Y-25990034D02*
X49142857Y-25990034D01*
X49142857Y-25990034D02*
X49085714Y-26018605D01*
X49085714Y-26018605D02*
X49057143Y-26047177D01*
X49057143Y-26047177D02*
X49028571Y-26104320D01*
X49028571Y-26104320D02*
X49028571Y-26218605D01*
X49028571Y-26218605D02*
X49057143Y-26275748D01*
X49057143Y-26275748D02*
X49085714Y-26304320D01*
X49085714Y-26304320D02*
X49142857Y-26332891D01*
X49142857Y-26332891D02*
X49257143Y-26332891D01*
X49257143Y-26332891D02*
X49314286Y-26304320D01*
X49314286Y-26304320D02*
X49342857Y-26275748D01*
X49342857Y-26275748D02*
X49371428Y-26218605D01*
X49371428Y-26218605D02*
X49371428Y-26104320D01*
X49371428Y-26104320D02*
X49342857Y-26047177D01*
X49342857Y-26047177D02*
X49314286Y-26018605D01*
X49314286Y-26018605D02*
X49257143Y-25990034D01*
X47857143Y-28872891D02*
X47857143Y-28272891D01*
X47857143Y-28272891D02*
X48085714Y-28272891D01*
X48085714Y-28272891D02*
X48142857Y-28301462D01*
X48142857Y-28301462D02*
X48171428Y-28330034D01*
X48171428Y-28330034D02*
X48200000Y-28387177D01*
X48200000Y-28387177D02*
X48200000Y-28472891D01*
X48200000Y-28472891D02*
X48171428Y-28530034D01*
X48171428Y-28530034D02*
X48142857Y-28558605D01*
X48142857Y-28558605D02*
X48085714Y-28587177D01*
X48085714Y-28587177D02*
X47857143Y-28587177D01*
X48657143Y-28558605D02*
X48742857Y-28587177D01*
X48742857Y-28587177D02*
X48771428Y-28615748D01*
X48771428Y-28615748D02*
X48800000Y-28672891D01*
X48800000Y-28672891D02*
X48800000Y-28758605D01*
X48800000Y-28758605D02*
X48771428Y-28815748D01*
X48771428Y-28815748D02*
X48742857Y-28844320D01*
X48742857Y-28844320D02*
X48685714Y-28872891D01*
X48685714Y-28872891D02*
X48457143Y-28872891D01*
X48457143Y-28872891D02*
X48457143Y-28272891D01*
X48457143Y-28272891D02*
X48657143Y-28272891D01*
X48657143Y-28272891D02*
X48714286Y-28301462D01*
X48714286Y-28301462D02*
X48742857Y-28330034D01*
X48742857Y-28330034D02*
X48771428Y-28387177D01*
X48771428Y-28387177D02*
X48771428Y-28444320D01*
X48771428Y-28444320D02*
X48742857Y-28501462D01*
X48742857Y-28501462D02*
X48714286Y-28530034D01*
X48714286Y-28530034D02*
X48657143Y-28558605D01*
X48657143Y-28558605D02*
X48457143Y-28558605D01*
X49000000Y-28272891D02*
X49400000Y-28272891D01*
X49400000Y-28272891D02*
X49142857Y-28872891D01*
X47857143Y-31412891D02*
X47857143Y-30812891D01*
X47857143Y-30812891D02*
X48085714Y-30812891D01*
X48085714Y-30812891D02*
X48142857Y-30841462D01*
X48142857Y-30841462D02*
X48171428Y-30870034D01*
X48171428Y-30870034D02*
X48200000Y-30927177D01*
X48200000Y-30927177D02*
X48200000Y-31012891D01*
X48200000Y-31012891D02*
X48171428Y-31070034D01*
X48171428Y-31070034D02*
X48142857Y-31098605D01*
X48142857Y-31098605D02*
X48085714Y-31127177D01*
X48085714Y-31127177D02*
X47857143Y-31127177D01*
X48657143Y-31098605D02*
X48742857Y-31127177D01*
X48742857Y-31127177D02*
X48771428Y-31155748D01*
X48771428Y-31155748D02*
X48800000Y-31212891D01*
X48800000Y-31212891D02*
X48800000Y-31298605D01*
X48800000Y-31298605D02*
X48771428Y-31355748D01*
X48771428Y-31355748D02*
X48742857Y-31384320D01*
X48742857Y-31384320D02*
X48685714Y-31412891D01*
X48685714Y-31412891D02*
X48457143Y-31412891D01*
X48457143Y-31412891D02*
X48457143Y-30812891D01*
X48457143Y-30812891D02*
X48657143Y-30812891D01*
X48657143Y-30812891D02*
X48714286Y-30841462D01*
X48714286Y-30841462D02*
X48742857Y-30870034D01*
X48742857Y-30870034D02*
X48771428Y-30927177D01*
X48771428Y-30927177D02*
X48771428Y-30984320D01*
X48771428Y-30984320D02*
X48742857Y-31041462D01*
X48742857Y-31041462D02*
X48714286Y-31070034D01*
X48714286Y-31070034D02*
X48657143Y-31098605D01*
X48657143Y-31098605D02*
X48457143Y-31098605D01*
X49314286Y-30812891D02*
X49200000Y-30812891D01*
X49200000Y-30812891D02*
X49142857Y-30841462D01*
X49142857Y-30841462D02*
X49114286Y-30870034D01*
X49114286Y-30870034D02*
X49057143Y-30955748D01*
X49057143Y-30955748D02*
X49028571Y-31070034D01*
X49028571Y-31070034D02*
X49028571Y-31298605D01*
X49028571Y-31298605D02*
X49057143Y-31355748D01*
X49057143Y-31355748D02*
X49085714Y-31384320D01*
X49085714Y-31384320D02*
X49142857Y-31412891D01*
X49142857Y-31412891D02*
X49257143Y-31412891D01*
X49257143Y-31412891D02*
X49314286Y-31384320D01*
X49314286Y-31384320D02*
X49342857Y-31355748D01*
X49342857Y-31355748D02*
X49371428Y-31298605D01*
X49371428Y-31298605D02*
X49371428Y-31155748D01*
X49371428Y-31155748D02*
X49342857Y-31098605D01*
X49342857Y-31098605D02*
X49314286Y-31070034D01*
X49314286Y-31070034D02*
X49257143Y-31041462D01*
X49257143Y-31041462D02*
X49142857Y-31041462D01*
X49142857Y-31041462D02*
X49085714Y-31070034D01*
X49085714Y-31070034D02*
X49057143Y-31098605D01*
X49057143Y-31098605D02*
X49028571Y-31155748D01*
X47857143Y-33952891D02*
X47857143Y-33352891D01*
X47857143Y-33352891D02*
X48085714Y-33352891D01*
X48085714Y-33352891D02*
X48142857Y-33381462D01*
X48142857Y-33381462D02*
X48171428Y-33410034D01*
X48171428Y-33410034D02*
X48200000Y-33467177D01*
X48200000Y-33467177D02*
X48200000Y-33552891D01*
X48200000Y-33552891D02*
X48171428Y-33610034D01*
X48171428Y-33610034D02*
X48142857Y-33638605D01*
X48142857Y-33638605D02*
X48085714Y-33667177D01*
X48085714Y-33667177D02*
X47857143Y-33667177D01*
X48657143Y-33638605D02*
X48742857Y-33667177D01*
X48742857Y-33667177D02*
X48771428Y-33695748D01*
X48771428Y-33695748D02*
X48800000Y-33752891D01*
X48800000Y-33752891D02*
X48800000Y-33838605D01*
X48800000Y-33838605D02*
X48771428Y-33895748D01*
X48771428Y-33895748D02*
X48742857Y-33924320D01*
X48742857Y-33924320D02*
X48685714Y-33952891D01*
X48685714Y-33952891D02*
X48457143Y-33952891D01*
X48457143Y-33952891D02*
X48457143Y-33352891D01*
X48457143Y-33352891D02*
X48657143Y-33352891D01*
X48657143Y-33352891D02*
X48714286Y-33381462D01*
X48714286Y-33381462D02*
X48742857Y-33410034D01*
X48742857Y-33410034D02*
X48771428Y-33467177D01*
X48771428Y-33467177D02*
X48771428Y-33524320D01*
X48771428Y-33524320D02*
X48742857Y-33581462D01*
X48742857Y-33581462D02*
X48714286Y-33610034D01*
X48714286Y-33610034D02*
X48657143Y-33638605D01*
X48657143Y-33638605D02*
X48457143Y-33638605D01*
X49342857Y-33352891D02*
X49057143Y-33352891D01*
X49057143Y-33352891D02*
X49028571Y-33638605D01*
X49028571Y-33638605D02*
X49057143Y-33610034D01*
X49057143Y-33610034D02*
X49114286Y-33581462D01*
X49114286Y-33581462D02*
X49257143Y-33581462D01*
X49257143Y-33581462D02*
X49314286Y-33610034D01*
X49314286Y-33610034D02*
X49342857Y-33638605D01*
X49342857Y-33638605D02*
X49371428Y-33695748D01*
X49371428Y-33695748D02*
X49371428Y-33838605D01*
X49371428Y-33838605D02*
X49342857Y-33895748D01*
X49342857Y-33895748D02*
X49314286Y-33924320D01*
X49314286Y-33924320D02*
X49257143Y-33952891D01*
X49257143Y-33952891D02*
X49114286Y-33952891D01*
X49114286Y-33952891D02*
X49057143Y-33924320D01*
X49057143Y-33924320D02*
X49028571Y-33895748D01*
X47857143Y-36492891D02*
X47857143Y-35892891D01*
X47857143Y-35892891D02*
X48085714Y-35892891D01*
X48085714Y-35892891D02*
X48142857Y-35921462D01*
X48142857Y-35921462D02*
X48171428Y-35950034D01*
X48171428Y-35950034D02*
X48200000Y-36007177D01*
X48200000Y-36007177D02*
X48200000Y-36092891D01*
X48200000Y-36092891D02*
X48171428Y-36150034D01*
X48171428Y-36150034D02*
X48142857Y-36178605D01*
X48142857Y-36178605D02*
X48085714Y-36207177D01*
X48085714Y-36207177D02*
X47857143Y-36207177D01*
X48657143Y-36178605D02*
X48742857Y-36207177D01*
X48742857Y-36207177D02*
X48771428Y-36235748D01*
X48771428Y-36235748D02*
X48800000Y-36292891D01*
X48800000Y-36292891D02*
X48800000Y-36378605D01*
X48800000Y-36378605D02*
X48771428Y-36435748D01*
X48771428Y-36435748D02*
X48742857Y-36464320D01*
X48742857Y-36464320D02*
X48685714Y-36492891D01*
X48685714Y-36492891D02*
X48457143Y-36492891D01*
X48457143Y-36492891D02*
X48457143Y-35892891D01*
X48457143Y-35892891D02*
X48657143Y-35892891D01*
X48657143Y-35892891D02*
X48714286Y-35921462D01*
X48714286Y-35921462D02*
X48742857Y-35950034D01*
X48742857Y-35950034D02*
X48771428Y-36007177D01*
X48771428Y-36007177D02*
X48771428Y-36064320D01*
X48771428Y-36064320D02*
X48742857Y-36121462D01*
X48742857Y-36121462D02*
X48714286Y-36150034D01*
X48714286Y-36150034D02*
X48657143Y-36178605D01*
X48657143Y-36178605D02*
X48457143Y-36178605D01*
X49314286Y-36092891D02*
X49314286Y-36492891D01*
X49171428Y-35864320D02*
X49028571Y-36292891D01*
X49028571Y-36292891D02*
X49400000Y-36292891D01*
X47857143Y-39032891D02*
X47857143Y-38432891D01*
X47857143Y-38432891D02*
X48085714Y-38432891D01*
X48085714Y-38432891D02*
X48142857Y-38461462D01*
X48142857Y-38461462D02*
X48171428Y-38490034D01*
X48171428Y-38490034D02*
X48200000Y-38547177D01*
X48200000Y-38547177D02*
X48200000Y-38632891D01*
X48200000Y-38632891D02*
X48171428Y-38690034D01*
X48171428Y-38690034D02*
X48142857Y-38718605D01*
X48142857Y-38718605D02*
X48085714Y-38747177D01*
X48085714Y-38747177D02*
X47857143Y-38747177D01*
X48657143Y-38718605D02*
X48742857Y-38747177D01*
X48742857Y-38747177D02*
X48771428Y-38775748D01*
X48771428Y-38775748D02*
X48800000Y-38832891D01*
X48800000Y-38832891D02*
X48800000Y-38918605D01*
X48800000Y-38918605D02*
X48771428Y-38975748D01*
X48771428Y-38975748D02*
X48742857Y-39004320D01*
X48742857Y-39004320D02*
X48685714Y-39032891D01*
X48685714Y-39032891D02*
X48457143Y-39032891D01*
X48457143Y-39032891D02*
X48457143Y-38432891D01*
X48457143Y-38432891D02*
X48657143Y-38432891D01*
X48657143Y-38432891D02*
X48714286Y-38461462D01*
X48714286Y-38461462D02*
X48742857Y-38490034D01*
X48742857Y-38490034D02*
X48771428Y-38547177D01*
X48771428Y-38547177D02*
X48771428Y-38604320D01*
X48771428Y-38604320D02*
X48742857Y-38661462D01*
X48742857Y-38661462D02*
X48714286Y-38690034D01*
X48714286Y-38690034D02*
X48657143Y-38718605D01*
X48657143Y-38718605D02*
X48457143Y-38718605D01*
X49000000Y-38432891D02*
X49371428Y-38432891D01*
X49371428Y-38432891D02*
X49171428Y-38661462D01*
X49171428Y-38661462D02*
X49257143Y-38661462D01*
X49257143Y-38661462D02*
X49314286Y-38690034D01*
X49314286Y-38690034D02*
X49342857Y-38718605D01*
X49342857Y-38718605D02*
X49371428Y-38775748D01*
X49371428Y-38775748D02*
X49371428Y-38918605D01*
X49371428Y-38918605D02*
X49342857Y-38975748D01*
X49342857Y-38975748D02*
X49314286Y-39004320D01*
X49314286Y-39004320D02*
X49257143Y-39032891D01*
X49257143Y-39032891D02*
X49085714Y-39032891D01*
X49085714Y-39032891D02*
X49028571Y-39004320D01*
X49028571Y-39004320D02*
X49000000Y-38975748D01*
X47614285Y-41572891D02*
X47614285Y-40972891D01*
X47614285Y-40972891D02*
X47842856Y-40972891D01*
X47842856Y-40972891D02*
X47899999Y-41001462D01*
X47899999Y-41001462D02*
X47928570Y-41030034D01*
X47928570Y-41030034D02*
X47957142Y-41087177D01*
X47957142Y-41087177D02*
X47957142Y-41172891D01*
X47957142Y-41172891D02*
X47928570Y-41230034D01*
X47928570Y-41230034D02*
X47899999Y-41258605D01*
X47899999Y-41258605D02*
X47842856Y-41287177D01*
X47842856Y-41287177D02*
X47614285Y-41287177D01*
X48185713Y-41401462D02*
X48471428Y-41401462D01*
X48128570Y-41572891D02*
X48328570Y-40972891D01*
X48328570Y-40972891D02*
X48528570Y-41572891D01*
X49042856Y-41572891D02*
X48699999Y-41572891D01*
X48871428Y-41572891D02*
X48871428Y-40972891D01*
X48871428Y-40972891D02*
X48814285Y-41058605D01*
X48814285Y-41058605D02*
X48757142Y-41115748D01*
X48757142Y-41115748D02*
X48699999Y-41144320D01*
X49585714Y-40972891D02*
X49300000Y-40972891D01*
X49300000Y-40972891D02*
X49271428Y-41258605D01*
X49271428Y-41258605D02*
X49300000Y-41230034D01*
X49300000Y-41230034D02*
X49357143Y-41201462D01*
X49357143Y-41201462D02*
X49500000Y-41201462D01*
X49500000Y-41201462D02*
X49557143Y-41230034D01*
X49557143Y-41230034D02*
X49585714Y-41258605D01*
X49585714Y-41258605D02*
X49614285Y-41315748D01*
X49614285Y-41315748D02*
X49614285Y-41458605D01*
X49614285Y-41458605D02*
X49585714Y-41515748D01*
X49585714Y-41515748D02*
X49557143Y-41544320D01*
X49557143Y-41544320D02*
X49500000Y-41572891D01*
X49500000Y-41572891D02*
X49357143Y-41572891D01*
X49357143Y-41572891D02*
X49300000Y-41544320D01*
X49300000Y-41544320D02*
X49271428Y-41515748D01*
X47614285Y-44112891D02*
X47614285Y-43512891D01*
X47614285Y-43512891D02*
X47842856Y-43512891D01*
X47842856Y-43512891D02*
X47899999Y-43541462D01*
X47899999Y-43541462D02*
X47928570Y-43570034D01*
X47928570Y-43570034D02*
X47957142Y-43627177D01*
X47957142Y-43627177D02*
X47957142Y-43712891D01*
X47957142Y-43712891D02*
X47928570Y-43770034D01*
X47928570Y-43770034D02*
X47899999Y-43798605D01*
X47899999Y-43798605D02*
X47842856Y-43827177D01*
X47842856Y-43827177D02*
X47614285Y-43827177D01*
X48185713Y-43941462D02*
X48471428Y-43941462D01*
X48128570Y-44112891D02*
X48328570Y-43512891D01*
X48328570Y-43512891D02*
X48528570Y-44112891D01*
X49042856Y-44112891D02*
X48699999Y-44112891D01*
X48871428Y-44112891D02*
X48871428Y-43512891D01*
X48871428Y-43512891D02*
X48814285Y-43598605D01*
X48814285Y-43598605D02*
X48757142Y-43655748D01*
X48757142Y-43655748D02*
X48699999Y-43684320D01*
X49271428Y-43570034D02*
X49300000Y-43541462D01*
X49300000Y-43541462D02*
X49357143Y-43512891D01*
X49357143Y-43512891D02*
X49500000Y-43512891D01*
X49500000Y-43512891D02*
X49557143Y-43541462D01*
X49557143Y-43541462D02*
X49585714Y-43570034D01*
X49585714Y-43570034D02*
X49614285Y-43627177D01*
X49614285Y-43627177D02*
X49614285Y-43684320D01*
X49614285Y-43684320D02*
X49585714Y-43770034D01*
X49585714Y-43770034D02*
X49242857Y-44112891D01*
X49242857Y-44112891D02*
X49614285Y-44112891D01*
X47614285Y-46652891D02*
X47614285Y-46052891D01*
X47614285Y-46052891D02*
X47842856Y-46052891D01*
X47842856Y-46052891D02*
X47899999Y-46081462D01*
X47899999Y-46081462D02*
X47928570Y-46110034D01*
X47928570Y-46110034D02*
X47957142Y-46167177D01*
X47957142Y-46167177D02*
X47957142Y-46252891D01*
X47957142Y-46252891D02*
X47928570Y-46310034D01*
X47928570Y-46310034D02*
X47899999Y-46338605D01*
X47899999Y-46338605D02*
X47842856Y-46367177D01*
X47842856Y-46367177D02*
X47614285Y-46367177D01*
X48185713Y-46481462D02*
X48471428Y-46481462D01*
X48128570Y-46652891D02*
X48328570Y-46052891D01*
X48328570Y-46052891D02*
X48528570Y-46652891D01*
X49042856Y-46652891D02*
X48699999Y-46652891D01*
X48871428Y-46652891D02*
X48871428Y-46052891D01*
X48871428Y-46052891D02*
X48814285Y-46138605D01*
X48814285Y-46138605D02*
X48757142Y-46195748D01*
X48757142Y-46195748D02*
X48699999Y-46224320D01*
X49614285Y-46652891D02*
X49271428Y-46652891D01*
X49442857Y-46652891D02*
X49442857Y-46052891D01*
X49442857Y-46052891D02*
X49385714Y-46138605D01*
X49385714Y-46138605D02*
X49328571Y-46195748D01*
X49328571Y-46195748D02*
X49271428Y-46224320D01*
X47614285Y-49192891D02*
X47614285Y-48592891D01*
X47614285Y-48592891D02*
X47842856Y-48592891D01*
X47842856Y-48592891D02*
X47899999Y-48621462D01*
X47899999Y-48621462D02*
X47928570Y-48650034D01*
X47928570Y-48650034D02*
X47957142Y-48707177D01*
X47957142Y-48707177D02*
X47957142Y-48792891D01*
X47957142Y-48792891D02*
X47928570Y-48850034D01*
X47928570Y-48850034D02*
X47899999Y-48878605D01*
X47899999Y-48878605D02*
X47842856Y-48907177D01*
X47842856Y-48907177D02*
X47614285Y-48907177D01*
X48185713Y-49021462D02*
X48471428Y-49021462D01*
X48128570Y-49192891D02*
X48328570Y-48592891D01*
X48328570Y-48592891D02*
X48528570Y-49192891D01*
X49042856Y-49192891D02*
X48699999Y-49192891D01*
X48871428Y-49192891D02*
X48871428Y-48592891D01*
X48871428Y-48592891D02*
X48814285Y-48678605D01*
X48814285Y-48678605D02*
X48757142Y-48735748D01*
X48757142Y-48735748D02*
X48699999Y-48764320D01*
X49414285Y-48592891D02*
X49471428Y-48592891D01*
X49471428Y-48592891D02*
X49528571Y-48621462D01*
X49528571Y-48621462D02*
X49557143Y-48650034D01*
X49557143Y-48650034D02*
X49585714Y-48707177D01*
X49585714Y-48707177D02*
X49614285Y-48821462D01*
X49614285Y-48821462D02*
X49614285Y-48964320D01*
X49614285Y-48964320D02*
X49585714Y-49078605D01*
X49585714Y-49078605D02*
X49557143Y-49135748D01*
X49557143Y-49135748D02*
X49528571Y-49164320D01*
X49528571Y-49164320D02*
X49471428Y-49192891D01*
X49471428Y-49192891D02*
X49414285Y-49192891D01*
X49414285Y-49192891D02*
X49357143Y-49164320D01*
X49357143Y-49164320D02*
X49328571Y-49135748D01*
X49328571Y-49135748D02*
X49300000Y-49078605D01*
X49300000Y-49078605D02*
X49271428Y-48964320D01*
X49271428Y-48964320D02*
X49271428Y-48821462D01*
X49271428Y-48821462D02*
X49300000Y-48707177D01*
X49300000Y-48707177D02*
X49328571Y-48650034D01*
X49328571Y-48650034D02*
X49357143Y-48621462D01*
X49357143Y-48621462D02*
X49414285Y-48592891D01*
X47900000Y-51732891D02*
X47900000Y-51132891D01*
X47900000Y-51132891D02*
X48128571Y-51132891D01*
X48128571Y-51132891D02*
X48185714Y-51161462D01*
X48185714Y-51161462D02*
X48214285Y-51190034D01*
X48214285Y-51190034D02*
X48242857Y-51247177D01*
X48242857Y-51247177D02*
X48242857Y-51332891D01*
X48242857Y-51332891D02*
X48214285Y-51390034D01*
X48214285Y-51390034D02*
X48185714Y-51418605D01*
X48185714Y-51418605D02*
X48128571Y-51447177D01*
X48128571Y-51447177D02*
X47900000Y-51447177D01*
X48471428Y-51561462D02*
X48757143Y-51561462D01*
X48414285Y-51732891D02*
X48614285Y-51132891D01*
X48614285Y-51132891D02*
X48814285Y-51732891D01*
X49042857Y-51732891D02*
X49157143Y-51732891D01*
X49157143Y-51732891D02*
X49214286Y-51704320D01*
X49214286Y-51704320D02*
X49242857Y-51675748D01*
X49242857Y-51675748D02*
X49300000Y-51590034D01*
X49300000Y-51590034D02*
X49328571Y-51475748D01*
X49328571Y-51475748D02*
X49328571Y-51247177D01*
X49328571Y-51247177D02*
X49300000Y-51190034D01*
X49300000Y-51190034D02*
X49271429Y-51161462D01*
X49271429Y-51161462D02*
X49214286Y-51132891D01*
X49214286Y-51132891D02*
X49100000Y-51132891D01*
X49100000Y-51132891D02*
X49042857Y-51161462D01*
X49042857Y-51161462D02*
X49014286Y-51190034D01*
X49014286Y-51190034D02*
X48985714Y-51247177D01*
X48985714Y-51247177D02*
X48985714Y-51390034D01*
X48985714Y-51390034D02*
X49014286Y-51447177D01*
X49014286Y-51447177D02*
X49042857Y-51475748D01*
X49042857Y-51475748D02*
X49100000Y-51504320D01*
X49100000Y-51504320D02*
X49214286Y-51504320D01*
X49214286Y-51504320D02*
X49271429Y-51475748D01*
X49271429Y-51475748D02*
X49300000Y-51447177D01*
X49300000Y-51447177D02*
X49328571Y-51390034D01*
X47900000Y-54272891D02*
X47900000Y-53672891D01*
X47900000Y-53672891D02*
X48128571Y-53672891D01*
X48128571Y-53672891D02*
X48185714Y-53701462D01*
X48185714Y-53701462D02*
X48214285Y-53730034D01*
X48214285Y-53730034D02*
X48242857Y-53787177D01*
X48242857Y-53787177D02*
X48242857Y-53872891D01*
X48242857Y-53872891D02*
X48214285Y-53930034D01*
X48214285Y-53930034D02*
X48185714Y-53958605D01*
X48185714Y-53958605D02*
X48128571Y-53987177D01*
X48128571Y-53987177D02*
X47900000Y-53987177D01*
X48471428Y-54101462D02*
X48757143Y-54101462D01*
X48414285Y-54272891D02*
X48614285Y-53672891D01*
X48614285Y-53672891D02*
X48814285Y-54272891D01*
X49100000Y-53930034D02*
X49042857Y-53901462D01*
X49042857Y-53901462D02*
X49014286Y-53872891D01*
X49014286Y-53872891D02*
X48985714Y-53815748D01*
X48985714Y-53815748D02*
X48985714Y-53787177D01*
X48985714Y-53787177D02*
X49014286Y-53730034D01*
X49014286Y-53730034D02*
X49042857Y-53701462D01*
X49042857Y-53701462D02*
X49100000Y-53672891D01*
X49100000Y-53672891D02*
X49214286Y-53672891D01*
X49214286Y-53672891D02*
X49271429Y-53701462D01*
X49271429Y-53701462D02*
X49300000Y-53730034D01*
X49300000Y-53730034D02*
X49328571Y-53787177D01*
X49328571Y-53787177D02*
X49328571Y-53815748D01*
X49328571Y-53815748D02*
X49300000Y-53872891D01*
X49300000Y-53872891D02*
X49271429Y-53901462D01*
X49271429Y-53901462D02*
X49214286Y-53930034D01*
X49214286Y-53930034D02*
X49100000Y-53930034D01*
X49100000Y-53930034D02*
X49042857Y-53958605D01*
X49042857Y-53958605D02*
X49014286Y-53987177D01*
X49014286Y-53987177D02*
X48985714Y-54044320D01*
X48985714Y-54044320D02*
X48985714Y-54158605D01*
X48985714Y-54158605D02*
X49014286Y-54215748D01*
X49014286Y-54215748D02*
X49042857Y-54244320D01*
X49042857Y-54244320D02*
X49100000Y-54272891D01*
X49100000Y-54272891D02*
X49214286Y-54272891D01*
X49214286Y-54272891D02*
X49271429Y-54244320D01*
X49271429Y-54244320D02*
X49300000Y-54215748D01*
X49300000Y-54215748D02*
X49328571Y-54158605D01*
X49328571Y-54158605D02*
X49328571Y-54044320D01*
X49328571Y-54044320D02*
X49300000Y-53987177D01*
X49300000Y-53987177D02*
X49271429Y-53958605D01*
X49271429Y-53958605D02*
X49214286Y-53930034D01*
D11*
X41616666Y-75118373D02*
X41383333Y-74785040D01*
X41216666Y-75118373D02*
X41216666Y-74418373D01*
X41216666Y-74418373D02*
X41483333Y-74418373D01*
X41483333Y-74418373D02*
X41550000Y-74451706D01*
X41550000Y-74451706D02*
X41583333Y-74485040D01*
X41583333Y-74485040D02*
X41616666Y-74551706D01*
X41616666Y-74551706D02*
X41616666Y-74651706D01*
X41616666Y-74651706D02*
X41583333Y-74718373D01*
X41583333Y-74718373D02*
X41550000Y-74751706D01*
X41550000Y-74751706D02*
X41483333Y-74785040D01*
X41483333Y-74785040D02*
X41216666Y-74785040D01*
X41883333Y-75085040D02*
X41983333Y-75118373D01*
X41983333Y-75118373D02*
X42150000Y-75118373D01*
X42150000Y-75118373D02*
X42216666Y-75085040D01*
X42216666Y-75085040D02*
X42250000Y-75051706D01*
X42250000Y-75051706D02*
X42283333Y-74985040D01*
X42283333Y-74985040D02*
X42283333Y-74918373D01*
X42283333Y-74918373D02*
X42250000Y-74851706D01*
X42250000Y-74851706D02*
X42216666Y-74818373D01*
X42216666Y-74818373D02*
X42150000Y-74785040D01*
X42150000Y-74785040D02*
X42016666Y-74751706D01*
X42016666Y-74751706D02*
X41950000Y-74718373D01*
X41950000Y-74718373D02*
X41916666Y-74685040D01*
X41916666Y-74685040D02*
X41883333Y-74618373D01*
X41883333Y-74618373D02*
X41883333Y-74551706D01*
X41883333Y-74551706D02*
X41916666Y-74485040D01*
X41916666Y-74485040D02*
X41950000Y-74451706D01*
X41950000Y-74451706D02*
X42016666Y-74418373D01*
X42016666Y-74418373D02*
X42183333Y-74418373D01*
X42183333Y-74418373D02*
X42283333Y-74451706D01*
X42483333Y-74418373D02*
X42883333Y-74418373D01*
X42683333Y-75118373D02*
X42683333Y-74418373D01*
X47050001Y-74751706D02*
X47150001Y-74785040D01*
X47150001Y-74785040D02*
X47183334Y-74818373D01*
X47183334Y-74818373D02*
X47216667Y-74885040D01*
X47216667Y-74885040D02*
X47216667Y-74985040D01*
X47216667Y-74985040D02*
X47183334Y-75051706D01*
X47183334Y-75051706D02*
X47150001Y-75085040D01*
X47150001Y-75085040D02*
X47083334Y-75118373D01*
X47083334Y-75118373D02*
X46816667Y-75118373D01*
X46816667Y-75118373D02*
X46816667Y-74418373D01*
X46816667Y-74418373D02*
X47050001Y-74418373D01*
X47050001Y-74418373D02*
X47116667Y-74451706D01*
X47116667Y-74451706D02*
X47150001Y-74485040D01*
X47150001Y-74485040D02*
X47183334Y-74551706D01*
X47183334Y-74551706D02*
X47183334Y-74618373D01*
X47183334Y-74618373D02*
X47150001Y-74685040D01*
X47150001Y-74685040D02*
X47116667Y-74718373D01*
X47116667Y-74718373D02*
X47050001Y-74751706D01*
X47050001Y-74751706D02*
X46816667Y-74751706D01*
X47650001Y-74418373D02*
X47783334Y-74418373D01*
X47783334Y-74418373D02*
X47850001Y-74451706D01*
X47850001Y-74451706D02*
X47916667Y-74518373D01*
X47916667Y-74518373D02*
X47950001Y-74651706D01*
X47950001Y-74651706D02*
X47950001Y-74885040D01*
X47950001Y-74885040D02*
X47916667Y-75018373D01*
X47916667Y-75018373D02*
X47850001Y-75085040D01*
X47850001Y-75085040D02*
X47783334Y-75118373D01*
X47783334Y-75118373D02*
X47650001Y-75118373D01*
X47650001Y-75118373D02*
X47583334Y-75085040D01*
X47583334Y-75085040D02*
X47516667Y-75018373D01*
X47516667Y-75018373D02*
X47483334Y-74885040D01*
X47483334Y-74885040D02*
X47483334Y-74651706D01*
X47483334Y-74651706D02*
X47516667Y-74518373D01*
X47516667Y-74518373D02*
X47583334Y-74451706D01*
X47583334Y-74451706D02*
X47650001Y-74418373D01*
X48383334Y-74418373D02*
X48516667Y-74418373D01*
X48516667Y-74418373D02*
X48583334Y-74451706D01*
X48583334Y-74451706D02*
X48650000Y-74518373D01*
X48650000Y-74518373D02*
X48683334Y-74651706D01*
X48683334Y-74651706D02*
X48683334Y-74885040D01*
X48683334Y-74885040D02*
X48650000Y-75018373D01*
X48650000Y-75018373D02*
X48583334Y-75085040D01*
X48583334Y-75085040D02*
X48516667Y-75118373D01*
X48516667Y-75118373D02*
X48383334Y-75118373D01*
X48383334Y-75118373D02*
X48316667Y-75085040D01*
X48316667Y-75085040D02*
X48250000Y-75018373D01*
X48250000Y-75018373D02*
X48216667Y-74885040D01*
X48216667Y-74885040D02*
X48216667Y-74651706D01*
X48216667Y-74651706D02*
X48250000Y-74518373D01*
X48250000Y-74518373D02*
X48316667Y-74451706D01*
X48316667Y-74451706D02*
X48383334Y-74418373D01*
X48883333Y-74418373D02*
X49283333Y-74418373D01*
X49083333Y-75118373D02*
X49083333Y-74418373D01*
D12*
X28914285Y-10825760D02*
X29028571Y-10863855D01*
X29028571Y-10863855D02*
X29219047Y-10863855D01*
X29219047Y-10863855D02*
X29295238Y-10825760D01*
X29295238Y-10825760D02*
X29333333Y-10787664D01*
X29333333Y-10787664D02*
X29371428Y-10711474D01*
X29371428Y-10711474D02*
X29371428Y-10635283D01*
X29371428Y-10635283D02*
X29333333Y-10559093D01*
X29333333Y-10559093D02*
X29295238Y-10520998D01*
X29295238Y-10520998D02*
X29219047Y-10482902D01*
X29219047Y-10482902D02*
X29066666Y-10444807D01*
X29066666Y-10444807D02*
X28990476Y-10406712D01*
X28990476Y-10406712D02*
X28952381Y-10368617D01*
X28952381Y-10368617D02*
X28914285Y-10292426D01*
X28914285Y-10292426D02*
X28914285Y-10216236D01*
X28914285Y-10216236D02*
X28952381Y-10140045D01*
X28952381Y-10140045D02*
X28990476Y-10101950D01*
X28990476Y-10101950D02*
X29066666Y-10063855D01*
X29066666Y-10063855D02*
X29257143Y-10063855D01*
X29257143Y-10063855D02*
X29371428Y-10101950D01*
X29638095Y-10063855D02*
X29828571Y-10863855D01*
X29828571Y-10863855D02*
X29980952Y-10292426D01*
X29980952Y-10292426D02*
X30133333Y-10863855D01*
X30133333Y-10863855D02*
X30323810Y-10063855D01*
X30628572Y-10863855D02*
X30628572Y-10063855D01*
X30628572Y-10063855D02*
X30819048Y-10063855D01*
X30819048Y-10063855D02*
X30933334Y-10101950D01*
X30933334Y-10101950D02*
X31009524Y-10178140D01*
X31009524Y-10178140D02*
X31047619Y-10254331D01*
X31047619Y-10254331D02*
X31085715Y-10406712D01*
X31085715Y-10406712D02*
X31085715Y-10520998D01*
X31085715Y-10520998D02*
X31047619Y-10673379D01*
X31047619Y-10673379D02*
X31009524Y-10749569D01*
X31009524Y-10749569D02*
X30933334Y-10825760D01*
X30933334Y-10825760D02*
X30819048Y-10863855D01*
X30819048Y-10863855D02*
X30628572Y-10863855D01*
X27066667Y-61063855D02*
X27066667Y-61711474D01*
X27066667Y-61711474D02*
X27104762Y-61787664D01*
X27104762Y-61787664D02*
X27142857Y-61825760D01*
X27142857Y-61825760D02*
X27219048Y-61863855D01*
X27219048Y-61863855D02*
X27371429Y-61863855D01*
X27371429Y-61863855D02*
X27447619Y-61825760D01*
X27447619Y-61825760D02*
X27485714Y-61787664D01*
X27485714Y-61787664D02*
X27523810Y-61711474D01*
X27523810Y-61711474D02*
X27523810Y-61063855D01*
X27866666Y-61825760D02*
X27980952Y-61863855D01*
X27980952Y-61863855D02*
X28171428Y-61863855D01*
X28171428Y-61863855D02*
X28247619Y-61825760D01*
X28247619Y-61825760D02*
X28285714Y-61787664D01*
X28285714Y-61787664D02*
X28323809Y-61711474D01*
X28323809Y-61711474D02*
X28323809Y-61635283D01*
X28323809Y-61635283D02*
X28285714Y-61559093D01*
X28285714Y-61559093D02*
X28247619Y-61520998D01*
X28247619Y-61520998D02*
X28171428Y-61482902D01*
X28171428Y-61482902D02*
X28019047Y-61444807D01*
X28019047Y-61444807D02*
X27942857Y-61406712D01*
X27942857Y-61406712D02*
X27904762Y-61368617D01*
X27904762Y-61368617D02*
X27866666Y-61292426D01*
X27866666Y-61292426D02*
X27866666Y-61216236D01*
X27866666Y-61216236D02*
X27904762Y-61140045D01*
X27904762Y-61140045D02*
X27942857Y-61101950D01*
X27942857Y-61101950D02*
X28019047Y-61063855D01*
X28019047Y-61063855D02*
X28209524Y-61063855D01*
X28209524Y-61063855D02*
X28323809Y-61101950D01*
X28933333Y-61444807D02*
X29047619Y-61482902D01*
X29047619Y-61482902D02*
X29085714Y-61520998D01*
X29085714Y-61520998D02*
X29123810Y-61597188D01*
X29123810Y-61597188D02*
X29123810Y-61711474D01*
X29123810Y-61711474D02*
X29085714Y-61787664D01*
X29085714Y-61787664D02*
X29047619Y-61825760D01*
X29047619Y-61825760D02*
X28971429Y-61863855D01*
X28971429Y-61863855D02*
X28666667Y-61863855D01*
X28666667Y-61863855D02*
X28666667Y-61063855D01*
X28666667Y-61063855D02*
X28933333Y-61063855D01*
X28933333Y-61063855D02*
X29009524Y-61101950D01*
X29009524Y-61101950D02*
X29047619Y-61140045D01*
X29047619Y-61140045D02*
X29085714Y-61216236D01*
X29085714Y-61216236D02*
X29085714Y-61292426D01*
X29085714Y-61292426D02*
X29047619Y-61368617D01*
X29047619Y-61368617D02*
X29009524Y-61406712D01*
X29009524Y-61406712D02*
X28933333Y-61444807D01*
X28933333Y-61444807D02*
X28666667Y-61444807D01*
X29466667Y-61559093D02*
X30076191Y-61559093D01*
X30914286Y-61787664D02*
X30876190Y-61825760D01*
X30876190Y-61825760D02*
X30761905Y-61863855D01*
X30761905Y-61863855D02*
X30685714Y-61863855D01*
X30685714Y-61863855D02*
X30571428Y-61825760D01*
X30571428Y-61825760D02*
X30495238Y-61749569D01*
X30495238Y-61749569D02*
X30457143Y-61673379D01*
X30457143Y-61673379D02*
X30419047Y-61520998D01*
X30419047Y-61520998D02*
X30419047Y-61406712D01*
X30419047Y-61406712D02*
X30457143Y-61254331D01*
X30457143Y-61254331D02*
X30495238Y-61178140D01*
X30495238Y-61178140D02*
X30571428Y-61101950D01*
X30571428Y-61101950D02*
X30685714Y-61063855D01*
X30685714Y-61063855D02*
X30761905Y-61063855D01*
X30761905Y-61063855D02*
X30876190Y-61101950D01*
X30876190Y-61101950D02*
X30914286Y-61140045D01*
X32247619Y-61063855D02*
X31866667Y-61063855D01*
X31866667Y-61063855D02*
X31828571Y-61444807D01*
X31828571Y-61444807D02*
X31866667Y-61406712D01*
X31866667Y-61406712D02*
X31942857Y-61368617D01*
X31942857Y-61368617D02*
X32133333Y-61368617D01*
X32133333Y-61368617D02*
X32209524Y-61406712D01*
X32209524Y-61406712D02*
X32247619Y-61444807D01*
X32247619Y-61444807D02*
X32285714Y-61520998D01*
X32285714Y-61520998D02*
X32285714Y-61711474D01*
X32285714Y-61711474D02*
X32247619Y-61787664D01*
X32247619Y-61787664D02*
X32209524Y-61825760D01*
X32209524Y-61825760D02*
X32133333Y-61863855D01*
X32133333Y-61863855D02*
X31942857Y-61863855D01*
X31942857Y-61863855D02*
X31866667Y-61825760D01*
X31866667Y-61825760D02*
X31828571Y-61787664D01*
X32514286Y-61063855D02*
X32780953Y-61863855D01*
X32780953Y-61863855D02*
X33047619Y-61063855D01*
D13*
X26761904Y-19931009D02*
X26904761Y-19978628D01*
X26904761Y-19978628D02*
X26952380Y-20026247D01*
X26952380Y-20026247D02*
X26999999Y-20121485D01*
X26999999Y-20121485D02*
X26999999Y-20264342D01*
X26999999Y-20264342D02*
X26952380Y-20359580D01*
X26952380Y-20359580D02*
X26904761Y-20407200D01*
X26904761Y-20407200D02*
X26809523Y-20454819D01*
X26809523Y-20454819D02*
X26428571Y-20454819D01*
X26428571Y-20454819D02*
X26428571Y-19454819D01*
X26428571Y-19454819D02*
X26761904Y-19454819D01*
X26761904Y-19454819D02*
X26857142Y-19502438D01*
X26857142Y-19502438D02*
X26904761Y-19550057D01*
X26904761Y-19550057D02*
X26952380Y-19645295D01*
X26952380Y-19645295D02*
X26952380Y-19740533D01*
X26952380Y-19740533D02*
X26904761Y-19835771D01*
X26904761Y-19835771D02*
X26857142Y-19883390D01*
X26857142Y-19883390D02*
X26761904Y-19931009D01*
X26761904Y-19931009D02*
X26428571Y-19931009D01*
X27999999Y-20454819D02*
X27666666Y-19978628D01*
X27428571Y-20454819D02*
X27428571Y-19454819D01*
X27428571Y-19454819D02*
X27809523Y-19454819D01*
X27809523Y-19454819D02*
X27904761Y-19502438D01*
X27904761Y-19502438D02*
X27952380Y-19550057D01*
X27952380Y-19550057D02*
X27999999Y-19645295D01*
X27999999Y-19645295D02*
X27999999Y-19788152D01*
X27999999Y-19788152D02*
X27952380Y-19883390D01*
X27952380Y-19883390D02*
X27904761Y-19931009D01*
X27904761Y-19931009D02*
X27809523Y-19978628D01*
X27809523Y-19978628D02*
X27428571Y-19978628D01*
X28428571Y-19931009D02*
X28761904Y-19931009D01*
X28904761Y-20454819D02*
X28428571Y-20454819D01*
X28428571Y-20454819D02*
X28428571Y-19454819D01*
X28428571Y-19454819D02*
X28904761Y-19454819D01*
X29285714Y-20169104D02*
X29761904Y-20169104D01*
X29190476Y-20454819D02*
X29523809Y-19454819D01*
X29523809Y-19454819D02*
X29857142Y-20454819D01*
X30190476Y-20454819D02*
X30190476Y-19454819D01*
X30761904Y-20454819D02*
X30333333Y-19883390D01*
X30761904Y-19454819D02*
X30190476Y-20026247D01*
X31380952Y-19454819D02*
X31571428Y-19454819D01*
X31571428Y-19454819D02*
X31666666Y-19502438D01*
X31666666Y-19502438D02*
X31761904Y-19597676D01*
X31761904Y-19597676D02*
X31809523Y-19788152D01*
X31809523Y-19788152D02*
X31809523Y-20121485D01*
X31809523Y-20121485D02*
X31761904Y-20311961D01*
X31761904Y-20311961D02*
X31666666Y-20407200D01*
X31666666Y-20407200D02*
X31571428Y-20454819D01*
X31571428Y-20454819D02*
X31380952Y-20454819D01*
X31380952Y-20454819D02*
X31285714Y-20407200D01*
X31285714Y-20407200D02*
X31190476Y-20311961D01*
X31190476Y-20311961D02*
X31142857Y-20121485D01*
X31142857Y-20121485D02*
X31142857Y-19788152D01*
X31142857Y-19788152D02*
X31190476Y-19597676D01*
X31190476Y-19597676D02*
X31285714Y-19502438D01*
X31285714Y-19502438D02*
X31380952Y-19454819D01*
X32238095Y-19454819D02*
X32238095Y-20264342D01*
X32238095Y-20264342D02*
X32285714Y-20359580D01*
X32285714Y-20359580D02*
X32333333Y-20407200D01*
X32333333Y-20407200D02*
X32428571Y-20454819D01*
X32428571Y-20454819D02*
X32619047Y-20454819D01*
X32619047Y-20454819D02*
X32714285Y-20407200D01*
X32714285Y-20407200D02*
X32761904Y-20359580D01*
X32761904Y-20359580D02*
X32809523Y-20264342D01*
X32809523Y-20264342D02*
X32809523Y-19454819D01*
X33142857Y-19454819D02*
X33714285Y-19454819D01*
X33428571Y-20454819D02*
X33428571Y-19454819D01*
D14*
X22942857Y-22488640D02*
X23114286Y-22545782D01*
X23114286Y-22545782D02*
X23400000Y-22545782D01*
X23400000Y-22545782D02*
X23514286Y-22488640D01*
X23514286Y-22488640D02*
X23571428Y-22431497D01*
X23571428Y-22431497D02*
X23628571Y-22317211D01*
X23628571Y-22317211D02*
X23628571Y-22202925D01*
X23628571Y-22202925D02*
X23571428Y-22088640D01*
X23571428Y-22088640D02*
X23514286Y-22031497D01*
X23514286Y-22031497D02*
X23400000Y-21974354D01*
X23400000Y-21974354D02*
X23171428Y-21917211D01*
X23171428Y-21917211D02*
X23057143Y-21860068D01*
X23057143Y-21860068D02*
X23000000Y-21802925D01*
X23000000Y-21802925D02*
X22942857Y-21688640D01*
X22942857Y-21688640D02*
X22942857Y-21574354D01*
X22942857Y-21574354D02*
X23000000Y-21460068D01*
X23000000Y-21460068D02*
X23057143Y-21402925D01*
X23057143Y-21402925D02*
X23171428Y-21345782D01*
X23171428Y-21345782D02*
X23457143Y-21345782D01*
X23457143Y-21345782D02*
X23628571Y-21402925D01*
X23971428Y-21345782D02*
X24657143Y-21345782D01*
X24314285Y-22545782D02*
X24314285Y-21345782D01*
X25057143Y-22545782D02*
X25057143Y-21345782D01*
X25057143Y-21345782D02*
X25457143Y-22202925D01*
X25457143Y-22202925D02*
X25857143Y-21345782D01*
X25857143Y-21345782D02*
X25857143Y-22545782D01*
X26314286Y-21345782D02*
X27057143Y-21345782D01*
X27057143Y-21345782D02*
X26657143Y-21802925D01*
X26657143Y-21802925D02*
X26828572Y-21802925D01*
X26828572Y-21802925D02*
X26942858Y-21860068D01*
X26942858Y-21860068D02*
X27000000Y-21917211D01*
X27000000Y-21917211D02*
X27057143Y-22031497D01*
X27057143Y-22031497D02*
X27057143Y-22317211D01*
X27057143Y-22317211D02*
X27000000Y-22431497D01*
X27000000Y-22431497D02*
X26942858Y-22488640D01*
X26942858Y-22488640D02*
X26828572Y-22545782D01*
X26828572Y-22545782D02*
X26485715Y-22545782D01*
X26485715Y-22545782D02*
X26371429Y-22488640D01*
X26371429Y-22488640D02*
X26314286Y-22431497D01*
X27514286Y-21460068D02*
X27571429Y-21402925D01*
X27571429Y-21402925D02*
X27685715Y-21345782D01*
X27685715Y-21345782D02*
X27971429Y-21345782D01*
X27971429Y-21345782D02*
X28085715Y-21402925D01*
X28085715Y-21402925D02*
X28142857Y-21460068D01*
X28142857Y-21460068D02*
X28200000Y-21574354D01*
X28200000Y-21574354D02*
X28200000Y-21688640D01*
X28200000Y-21688640D02*
X28142857Y-21860068D01*
X28142857Y-21860068D02*
X27457143Y-22545782D01*
X27457143Y-22545782D02*
X28200000Y-22545782D01*
X29114286Y-21917211D02*
X28714286Y-21917211D01*
X28714286Y-22545782D02*
X28714286Y-21345782D01*
X28714286Y-21345782D02*
X29285714Y-21345782D01*
X30371428Y-22545782D02*
X29685714Y-22545782D01*
X30028571Y-22545782D02*
X30028571Y-21345782D01*
X30028571Y-21345782D02*
X29914285Y-21517211D01*
X29914285Y-21517211D02*
X29800000Y-21631497D01*
X29800000Y-21631497D02*
X29685714Y-21688640D01*
X31114285Y-21345782D02*
X31228571Y-21345782D01*
X31228571Y-21345782D02*
X31342857Y-21402925D01*
X31342857Y-21402925D02*
X31400000Y-21460068D01*
X31400000Y-21460068D02*
X31457142Y-21574354D01*
X31457142Y-21574354D02*
X31514285Y-21802925D01*
X31514285Y-21802925D02*
X31514285Y-22088640D01*
X31514285Y-22088640D02*
X31457142Y-22317211D01*
X31457142Y-22317211D02*
X31400000Y-22431497D01*
X31400000Y-22431497D02*
X31342857Y-22488640D01*
X31342857Y-22488640D02*
X31228571Y-22545782D01*
X31228571Y-22545782D02*
X31114285Y-22545782D01*
X31114285Y-22545782D02*
X31000000Y-22488640D01*
X31000000Y-22488640D02*
X30942857Y-22431497D01*
X30942857Y-22431497D02*
X30885714Y-22317211D01*
X30885714Y-22317211D02*
X30828571Y-22088640D01*
X30828571Y-22088640D02*
X30828571Y-21802925D01*
X30828571Y-21802925D02*
X30885714Y-21574354D01*
X30885714Y-21574354D02*
X30942857Y-21460068D01*
X30942857Y-21460068D02*
X31000000Y-21402925D01*
X31000000Y-21402925D02*
X31114285Y-21345782D01*
X31914285Y-21345782D02*
X32657142Y-21345782D01*
X32657142Y-21345782D02*
X32257142Y-21802925D01*
X32257142Y-21802925D02*
X32428571Y-21802925D01*
X32428571Y-21802925D02*
X32542857Y-21860068D01*
X32542857Y-21860068D02*
X32599999Y-21917211D01*
X32599999Y-21917211D02*
X32657142Y-22031497D01*
X32657142Y-22031497D02*
X32657142Y-22317211D01*
X32657142Y-22317211D02*
X32599999Y-22431497D01*
X32599999Y-22431497D02*
X32542857Y-22488640D01*
X32542857Y-22488640D02*
X32428571Y-22545782D01*
X32428571Y-22545782D02*
X32085714Y-22545782D01*
X32085714Y-22545782D02*
X31971428Y-22488640D01*
X31971428Y-22488640D02*
X31914285Y-22431497D01*
X33857142Y-22431497D02*
X33799999Y-22488640D01*
X33799999Y-22488640D02*
X33628571Y-22545782D01*
X33628571Y-22545782D02*
X33514285Y-22545782D01*
X33514285Y-22545782D02*
X33342856Y-22488640D01*
X33342856Y-22488640D02*
X33228571Y-22374354D01*
X33228571Y-22374354D02*
X33171428Y-22260068D01*
X33171428Y-22260068D02*
X33114285Y-22031497D01*
X33114285Y-22031497D02*
X33114285Y-21860068D01*
X33114285Y-21860068D02*
X33171428Y-21631497D01*
X33171428Y-21631497D02*
X33228571Y-21517211D01*
X33228571Y-21517211D02*
X33342856Y-21402925D01*
X33342856Y-21402925D02*
X33514285Y-21345782D01*
X33514285Y-21345782D02*
X33628571Y-21345782D01*
X33628571Y-21345782D02*
X33799999Y-21402925D01*
X33799999Y-21402925D02*
X33857142Y-21460068D01*
X34542856Y-21860068D02*
X34428571Y-21802925D01*
X34428571Y-21802925D02*
X34371428Y-21745782D01*
X34371428Y-21745782D02*
X34314285Y-21631497D01*
X34314285Y-21631497D02*
X34314285Y-21574354D01*
X34314285Y-21574354D02*
X34371428Y-21460068D01*
X34371428Y-21460068D02*
X34428571Y-21402925D01*
X34428571Y-21402925D02*
X34542856Y-21345782D01*
X34542856Y-21345782D02*
X34771428Y-21345782D01*
X34771428Y-21345782D02*
X34885714Y-21402925D01*
X34885714Y-21402925D02*
X34942856Y-21460068D01*
X34942856Y-21460068D02*
X34999999Y-21574354D01*
X34999999Y-21574354D02*
X34999999Y-21631497D01*
X34999999Y-21631497D02*
X34942856Y-21745782D01*
X34942856Y-21745782D02*
X34885714Y-21802925D01*
X34885714Y-21802925D02*
X34771428Y-21860068D01*
X34771428Y-21860068D02*
X34542856Y-21860068D01*
X34542856Y-21860068D02*
X34428571Y-21917211D01*
X34428571Y-21917211D02*
X34371428Y-21974354D01*
X34371428Y-21974354D02*
X34314285Y-22088640D01*
X34314285Y-22088640D02*
X34314285Y-22317211D01*
X34314285Y-22317211D02*
X34371428Y-22431497D01*
X34371428Y-22431497D02*
X34428571Y-22488640D01*
X34428571Y-22488640D02*
X34542856Y-22545782D01*
X34542856Y-22545782D02*
X34771428Y-22545782D01*
X34771428Y-22545782D02*
X34885714Y-22488640D01*
X34885714Y-22488640D02*
X34942856Y-22431497D01*
X34942856Y-22431497D02*
X34999999Y-22317211D01*
X34999999Y-22317211D02*
X34999999Y-22088640D01*
X34999999Y-22088640D02*
X34942856Y-21974354D01*
X34942856Y-21974354D02*
X34885714Y-21917211D01*
X34885714Y-21917211D02*
X34771428Y-21860068D01*
X35342856Y-21345782D02*
X36028571Y-21345782D01*
X35685713Y-22545782D02*
X35685713Y-21345782D01*
X36942857Y-21345782D02*
X36714285Y-21345782D01*
X36714285Y-21345782D02*
X36599999Y-21402925D01*
X36599999Y-21402925D02*
X36542857Y-21460068D01*
X36542857Y-21460068D02*
X36428571Y-21631497D01*
X36428571Y-21631497D02*
X36371428Y-21860068D01*
X36371428Y-21860068D02*
X36371428Y-22317211D01*
X36371428Y-22317211D02*
X36428571Y-22431497D01*
X36428571Y-22431497D02*
X36485714Y-22488640D01*
X36485714Y-22488640D02*
X36599999Y-22545782D01*
X36599999Y-22545782D02*
X36828571Y-22545782D01*
X36828571Y-22545782D02*
X36942857Y-22488640D01*
X36942857Y-22488640D02*
X36999999Y-22431497D01*
X36999999Y-22431497D02*
X37057142Y-22317211D01*
X37057142Y-22317211D02*
X37057142Y-22031497D01*
X37057142Y-22031497D02*
X36999999Y-21917211D01*
X36999999Y-21917211D02*
X36942857Y-21860068D01*
X36942857Y-21860068D02*
X36828571Y-21802925D01*
X36828571Y-21802925D02*
X36599999Y-21802925D01*
X36599999Y-21802925D02*
X36485714Y-21860068D01*
X36485714Y-21860068D02*
X36428571Y-21917211D01*
X36428571Y-21917211D02*
X36371428Y-22031497D01*
D13*
X37833333Y-52024819D02*
X37500000Y-51548628D01*
X37261905Y-52024819D02*
X37261905Y-51024819D01*
X37261905Y-51024819D02*
X37642857Y-51024819D01*
X37642857Y-51024819D02*
X37738095Y-51072438D01*
X37738095Y-51072438D02*
X37785714Y-51120057D01*
X37785714Y-51120057D02*
X37833333Y-51215295D01*
X37833333Y-51215295D02*
X37833333Y-51358152D01*
X37833333Y-51358152D02*
X37785714Y-51453390D01*
X37785714Y-51453390D02*
X37738095Y-51501009D01*
X37738095Y-51501009D02*
X37642857Y-51548628D01*
X37642857Y-51548628D02*
X37261905Y-51548628D01*
X38738095Y-51024819D02*
X38261905Y-51024819D01*
X38261905Y-51024819D02*
X38214286Y-51501009D01*
X38214286Y-51501009D02*
X38261905Y-51453390D01*
X38261905Y-51453390D02*
X38357143Y-51405771D01*
X38357143Y-51405771D02*
X38595238Y-51405771D01*
X38595238Y-51405771D02*
X38690476Y-51453390D01*
X38690476Y-51453390D02*
X38738095Y-51501009D01*
X38738095Y-51501009D02*
X38785714Y-51596247D01*
X38785714Y-51596247D02*
X38785714Y-51834342D01*
X38785714Y-51834342D02*
X38738095Y-51929580D01*
X38738095Y-51929580D02*
X38690476Y-51977200D01*
X38690476Y-51977200D02*
X38595238Y-52024819D01*
X38595238Y-52024819D02*
X38357143Y-52024819D01*
X38357143Y-52024819D02*
X38261905Y-51977200D01*
X38261905Y-51977200D02*
X38214286Y-51929580D01*
X21024819Y-71666666D02*
X20548628Y-71999999D01*
X21024819Y-72238094D02*
X20024819Y-72238094D01*
X20024819Y-72238094D02*
X20024819Y-71857142D01*
X20024819Y-71857142D02*
X20072438Y-71761904D01*
X20072438Y-71761904D02*
X20120057Y-71714285D01*
X20120057Y-71714285D02*
X20215295Y-71666666D01*
X20215295Y-71666666D02*
X20358152Y-71666666D01*
X20358152Y-71666666D02*
X20453390Y-71714285D01*
X20453390Y-71714285D02*
X20501009Y-71761904D01*
X20501009Y-71761904D02*
X20548628Y-71857142D01*
X20548628Y-71857142D02*
X20548628Y-72238094D01*
X21024819Y-70714285D02*
X21024819Y-71285713D01*
X21024819Y-70999999D02*
X20024819Y-70999999D01*
X20024819Y-70999999D02*
X20167676Y-71095237D01*
X20167676Y-71095237D02*
X20262914Y-71190475D01*
X20262914Y-71190475D02*
X20310533Y-71285713D01*
X42333333Y-52024819D02*
X42000000Y-51548628D01*
X41761905Y-52024819D02*
X41761905Y-51024819D01*
X41761905Y-51024819D02*
X42142857Y-51024819D01*
X42142857Y-51024819D02*
X42238095Y-51072438D01*
X42238095Y-51072438D02*
X42285714Y-51120057D01*
X42285714Y-51120057D02*
X42333333Y-51215295D01*
X42333333Y-51215295D02*
X42333333Y-51358152D01*
X42333333Y-51358152D02*
X42285714Y-51453390D01*
X42285714Y-51453390D02*
X42238095Y-51501009D01*
X42238095Y-51501009D02*
X42142857Y-51548628D01*
X42142857Y-51548628D02*
X41761905Y-51548628D01*
X43190476Y-51024819D02*
X43000000Y-51024819D01*
X43000000Y-51024819D02*
X42904762Y-51072438D01*
X42904762Y-51072438D02*
X42857143Y-51120057D01*
X42857143Y-51120057D02*
X42761905Y-51262914D01*
X42761905Y-51262914D02*
X42714286Y-51453390D01*
X42714286Y-51453390D02*
X42714286Y-51834342D01*
X42714286Y-51834342D02*
X42761905Y-51929580D01*
X42761905Y-51929580D02*
X42809524Y-51977200D01*
X42809524Y-51977200D02*
X42904762Y-52024819D01*
X42904762Y-52024819D02*
X43095238Y-52024819D01*
X43095238Y-52024819D02*
X43190476Y-51977200D01*
X43190476Y-51977200D02*
X43238095Y-51929580D01*
X43238095Y-51929580D02*
X43285714Y-51834342D01*
X43285714Y-51834342D02*
X43285714Y-51596247D01*
X43285714Y-51596247D02*
X43238095Y-51501009D01*
X43238095Y-51501009D02*
X43190476Y-51453390D01*
X43190476Y-51453390D02*
X43095238Y-51405771D01*
X43095238Y-51405771D02*
X42904762Y-51405771D01*
X42904762Y-51405771D02*
X42809524Y-51453390D01*
X42809524Y-51453390D02*
X42761905Y-51501009D01*
X42761905Y-51501009D02*
X42714286Y-51596247D01*
X16666667Y-14657200D02*
X16809524Y-14704819D01*
X16809524Y-14704819D02*
X17047619Y-14704819D01*
X17047619Y-14704819D02*
X17142857Y-14657200D01*
X17142857Y-14657200D02*
X17190476Y-14609580D01*
X17190476Y-14609580D02*
X17238095Y-14514342D01*
X17238095Y-14514342D02*
X17238095Y-14419104D01*
X17238095Y-14419104D02*
X17190476Y-14323866D01*
X17190476Y-14323866D02*
X17142857Y-14276247D01*
X17142857Y-14276247D02*
X17047619Y-14228628D01*
X17047619Y-14228628D02*
X16857143Y-14181009D01*
X16857143Y-14181009D02*
X16761905Y-14133390D01*
X16761905Y-14133390D02*
X16714286Y-14085771D01*
X16714286Y-14085771D02*
X16666667Y-13990533D01*
X16666667Y-13990533D02*
X16666667Y-13895295D01*
X16666667Y-13895295D02*
X16714286Y-13800057D01*
X16714286Y-13800057D02*
X16761905Y-13752438D01*
X16761905Y-13752438D02*
X16857143Y-13704819D01*
X16857143Y-13704819D02*
X17095238Y-13704819D01*
X17095238Y-13704819D02*
X17238095Y-13752438D01*
X17571429Y-13704819D02*
X17809524Y-14704819D01*
X17809524Y-14704819D02*
X18000000Y-13990533D01*
X18000000Y-13990533D02*
X18190476Y-14704819D01*
X18190476Y-14704819D02*
X18428572Y-13704819D01*
X19333333Y-14704819D02*
X18761905Y-14704819D01*
X19047619Y-14704819D02*
X19047619Y-13704819D01*
X19047619Y-13704819D02*
X18952381Y-13847676D01*
X18952381Y-13847676D02*
X18857143Y-13942914D01*
X18857143Y-13942914D02*
X18761905Y-13990533D01*
X11054819Y-63761904D02*
X11864342Y-63761904D01*
X11864342Y-63761904D02*
X11959580Y-63714285D01*
X11959580Y-63714285D02*
X12007200Y-63666666D01*
X12007200Y-63666666D02*
X12054819Y-63571428D01*
X12054819Y-63571428D02*
X12054819Y-63380952D01*
X12054819Y-63380952D02*
X12007200Y-63285714D01*
X12007200Y-63285714D02*
X11959580Y-63238095D01*
X11959580Y-63238095D02*
X11864342Y-63190476D01*
X11864342Y-63190476D02*
X11054819Y-63190476D01*
X11150057Y-62761904D02*
X11102438Y-62714285D01*
X11102438Y-62714285D02*
X11054819Y-62619047D01*
X11054819Y-62619047D02*
X11054819Y-62380952D01*
X11054819Y-62380952D02*
X11102438Y-62285714D01*
X11102438Y-62285714D02*
X11150057Y-62238095D01*
X11150057Y-62238095D02*
X11245295Y-62190476D01*
X11245295Y-62190476D02*
X11340533Y-62190476D01*
X11340533Y-62190476D02*
X11483390Y-62238095D01*
X11483390Y-62238095D02*
X12054819Y-62809523D01*
X12054819Y-62809523D02*
X12054819Y-62190476D01*
X29238095Y-31604819D02*
X29238095Y-32414342D01*
X29238095Y-32414342D02*
X29285714Y-32509580D01*
X29285714Y-32509580D02*
X29333333Y-32557200D01*
X29333333Y-32557200D02*
X29428571Y-32604819D01*
X29428571Y-32604819D02*
X29619047Y-32604819D01*
X29619047Y-32604819D02*
X29714285Y-32557200D01*
X29714285Y-32557200D02*
X29761904Y-32509580D01*
X29761904Y-32509580D02*
X29809523Y-32414342D01*
X29809523Y-32414342D02*
X29809523Y-31604819D01*
X30809523Y-32604819D02*
X30238095Y-32604819D01*
X30523809Y-32604819D02*
X30523809Y-31604819D01*
X30523809Y-31604819D02*
X30428571Y-31747676D01*
X30428571Y-31747676D02*
X30333333Y-31842914D01*
X30333333Y-31842914D02*
X30238095Y-31890533D01*
X9833333Y-66929580D02*
X9785714Y-66977200D01*
X9785714Y-66977200D02*
X9642857Y-67024819D01*
X9642857Y-67024819D02*
X9547619Y-67024819D01*
X9547619Y-67024819D02*
X9404762Y-66977200D01*
X9404762Y-66977200D02*
X9309524Y-66881961D01*
X9309524Y-66881961D02*
X9261905Y-66786723D01*
X9261905Y-66786723D02*
X9214286Y-66596247D01*
X9214286Y-66596247D02*
X9214286Y-66453390D01*
X9214286Y-66453390D02*
X9261905Y-66262914D01*
X9261905Y-66262914D02*
X9309524Y-66167676D01*
X9309524Y-66167676D02*
X9404762Y-66072438D01*
X9404762Y-66072438D02*
X9547619Y-66024819D01*
X9547619Y-66024819D02*
X9642857Y-66024819D01*
X9642857Y-66024819D02*
X9785714Y-66072438D01*
X9785714Y-66072438D02*
X9833333Y-66120057D01*
X10214286Y-66120057D02*
X10261905Y-66072438D01*
X10261905Y-66072438D02*
X10357143Y-66024819D01*
X10357143Y-66024819D02*
X10595238Y-66024819D01*
X10595238Y-66024819D02*
X10690476Y-66072438D01*
X10690476Y-66072438D02*
X10738095Y-66120057D01*
X10738095Y-66120057D02*
X10785714Y-66215295D01*
X10785714Y-66215295D02*
X10785714Y-66310533D01*
X10785714Y-66310533D02*
X10738095Y-66453390D01*
X10738095Y-66453390D02*
X10166667Y-67024819D01*
X10166667Y-67024819D02*
X10785714Y-67024819D01*
X37357142Y-48929580D02*
X37309523Y-48977200D01*
X37309523Y-48977200D02*
X37166666Y-49024819D01*
X37166666Y-49024819D02*
X37071428Y-49024819D01*
X37071428Y-49024819D02*
X36928571Y-48977200D01*
X36928571Y-48977200D02*
X36833333Y-48881961D01*
X36833333Y-48881961D02*
X36785714Y-48786723D01*
X36785714Y-48786723D02*
X36738095Y-48596247D01*
X36738095Y-48596247D02*
X36738095Y-48453390D01*
X36738095Y-48453390D02*
X36785714Y-48262914D01*
X36785714Y-48262914D02*
X36833333Y-48167676D01*
X36833333Y-48167676D02*
X36928571Y-48072438D01*
X36928571Y-48072438D02*
X37071428Y-48024819D01*
X37071428Y-48024819D02*
X37166666Y-48024819D01*
X37166666Y-48024819D02*
X37309523Y-48072438D01*
X37309523Y-48072438D02*
X37357142Y-48120057D01*
X38309523Y-49024819D02*
X37738095Y-49024819D01*
X38023809Y-49024819D02*
X38023809Y-48024819D01*
X38023809Y-48024819D02*
X37928571Y-48167676D01*
X37928571Y-48167676D02*
X37833333Y-48262914D01*
X37833333Y-48262914D02*
X37738095Y-48310533D01*
X39214285Y-48024819D02*
X38738095Y-48024819D01*
X38738095Y-48024819D02*
X38690476Y-48501009D01*
X38690476Y-48501009D02*
X38738095Y-48453390D01*
X38738095Y-48453390D02*
X38833333Y-48405771D01*
X38833333Y-48405771D02*
X39071428Y-48405771D01*
X39071428Y-48405771D02*
X39166666Y-48453390D01*
X39166666Y-48453390D02*
X39214285Y-48501009D01*
X39214285Y-48501009D02*
X39261904Y-48596247D01*
X39261904Y-48596247D02*
X39261904Y-48834342D01*
X39261904Y-48834342D02*
X39214285Y-48929580D01*
X39214285Y-48929580D02*
X39166666Y-48977200D01*
X39166666Y-48977200D02*
X39071428Y-49024819D01*
X39071428Y-49024819D02*
X38833333Y-49024819D01*
X38833333Y-49024819D02*
X38738095Y-48977200D01*
X38738095Y-48977200D02*
X38690476Y-48929580D01*
X22333333Y-58679580D02*
X22285714Y-58727200D01*
X22285714Y-58727200D02*
X22142857Y-58774819D01*
X22142857Y-58774819D02*
X22047619Y-58774819D01*
X22047619Y-58774819D02*
X21904762Y-58727200D01*
X21904762Y-58727200D02*
X21809524Y-58631961D01*
X21809524Y-58631961D02*
X21761905Y-58536723D01*
X21761905Y-58536723D02*
X21714286Y-58346247D01*
X21714286Y-58346247D02*
X21714286Y-58203390D01*
X21714286Y-58203390D02*
X21761905Y-58012914D01*
X21761905Y-58012914D02*
X21809524Y-57917676D01*
X21809524Y-57917676D02*
X21904762Y-57822438D01*
X21904762Y-57822438D02*
X22047619Y-57774819D01*
X22047619Y-57774819D02*
X22142857Y-57774819D01*
X22142857Y-57774819D02*
X22285714Y-57822438D01*
X22285714Y-57822438D02*
X22333333Y-57870057D01*
X23190476Y-58108152D02*
X23190476Y-58774819D01*
X22952381Y-57727200D02*
X22714286Y-58441485D01*
X22714286Y-58441485D02*
X23333333Y-58441485D01*
X39238095Y-804819D02*
X39238095Y195180D01*
X39238095Y-281009D02*
X39809523Y-281009D01*
X39809523Y-804819D02*
X39809523Y195180D01*
X40238095Y99942D02*
X40285714Y147561D01*
X40285714Y147561D02*
X40380952Y195180D01*
X40380952Y195180D02*
X40619047Y195180D01*
X40619047Y195180D02*
X40714285Y147561D01*
X40714285Y147561D02*
X40761904Y99942D01*
X40761904Y99942D02*
X40809523Y4704D01*
X40809523Y4704D02*
X40809523Y-90533D01*
X40809523Y-90533D02*
X40761904Y-233390D01*
X40761904Y-233390D02*
X40190476Y-804819D01*
X40190476Y-804819D02*
X40809523Y-804819D01*
X25357142Y-43429580D02*
X25309523Y-43477200D01*
X25309523Y-43477200D02*
X25166666Y-43524819D01*
X25166666Y-43524819D02*
X25071428Y-43524819D01*
X25071428Y-43524819D02*
X24928571Y-43477200D01*
X24928571Y-43477200D02*
X24833333Y-43381961D01*
X24833333Y-43381961D02*
X24785714Y-43286723D01*
X24785714Y-43286723D02*
X24738095Y-43096247D01*
X24738095Y-43096247D02*
X24738095Y-42953390D01*
X24738095Y-42953390D02*
X24785714Y-42762914D01*
X24785714Y-42762914D02*
X24833333Y-42667676D01*
X24833333Y-42667676D02*
X24928571Y-42572438D01*
X24928571Y-42572438D02*
X25071428Y-42524819D01*
X25071428Y-42524819D02*
X25166666Y-42524819D01*
X25166666Y-42524819D02*
X25309523Y-42572438D01*
X25309523Y-42572438D02*
X25357142Y-42620057D01*
X26309523Y-43524819D02*
X25738095Y-43524819D01*
X26023809Y-43524819D02*
X26023809Y-42524819D01*
X26023809Y-42524819D02*
X25928571Y-42667676D01*
X25928571Y-42667676D02*
X25833333Y-42762914D01*
X25833333Y-42762914D02*
X25738095Y-42810533D01*
X26928571Y-42524819D02*
X27023809Y-42524819D01*
X27023809Y-42524819D02*
X27119047Y-42572438D01*
X27119047Y-42572438D02*
X27166666Y-42620057D01*
X27166666Y-42620057D02*
X27214285Y-42715295D01*
X27214285Y-42715295D02*
X27261904Y-42905771D01*
X27261904Y-42905771D02*
X27261904Y-43143866D01*
X27261904Y-43143866D02*
X27214285Y-43334342D01*
X27214285Y-43334342D02*
X27166666Y-43429580D01*
X27166666Y-43429580D02*
X27119047Y-43477200D01*
X27119047Y-43477200D02*
X27023809Y-43524819D01*
X27023809Y-43524819D02*
X26928571Y-43524819D01*
X26928571Y-43524819D02*
X26833333Y-43477200D01*
X26833333Y-43477200D02*
X26785714Y-43429580D01*
X26785714Y-43429580D02*
X26738095Y-43334342D01*
X26738095Y-43334342D02*
X26690476Y-43143866D01*
X26690476Y-43143866D02*
X26690476Y-42905771D01*
X26690476Y-42905771D02*
X26738095Y-42715295D01*
X26738095Y-42715295D02*
X26785714Y-42620057D01*
X26785714Y-42620057D02*
X26833333Y-42572438D01*
X26833333Y-42572438D02*
X26928571Y-42524819D01*
X16528628Y-38476190D02*
X17004819Y-38476190D01*
X16004819Y-38809523D02*
X16528628Y-38476190D01*
X16528628Y-38476190D02*
X16004819Y-38142857D01*
X17004819Y-37285714D02*
X17004819Y-37857142D01*
X17004819Y-37571428D02*
X16004819Y-37571428D01*
X16004819Y-37571428D02*
X16147676Y-37666666D01*
X16147676Y-37666666D02*
X16242914Y-37761904D01*
X16242914Y-37761904D02*
X16290533Y-37857142D01*
X37833333Y-18024819D02*
X37500000Y-17548628D01*
X37261905Y-18024819D02*
X37261905Y-17024819D01*
X37261905Y-17024819D02*
X37642857Y-17024819D01*
X37642857Y-17024819D02*
X37738095Y-17072438D01*
X37738095Y-17072438D02*
X37785714Y-17120057D01*
X37785714Y-17120057D02*
X37833333Y-17215295D01*
X37833333Y-17215295D02*
X37833333Y-17358152D01*
X37833333Y-17358152D02*
X37785714Y-17453390D01*
X37785714Y-17453390D02*
X37738095Y-17501009D01*
X37738095Y-17501009D02*
X37642857Y-17548628D01*
X37642857Y-17548628D02*
X37261905Y-17548628D01*
X38309524Y-18024819D02*
X38500000Y-18024819D01*
X38500000Y-18024819D02*
X38595238Y-17977200D01*
X38595238Y-17977200D02*
X38642857Y-17929580D01*
X38642857Y-17929580D02*
X38738095Y-17786723D01*
X38738095Y-17786723D02*
X38785714Y-17596247D01*
X38785714Y-17596247D02*
X38785714Y-17215295D01*
X38785714Y-17215295D02*
X38738095Y-17120057D01*
X38738095Y-17120057D02*
X38690476Y-17072438D01*
X38690476Y-17072438D02*
X38595238Y-17024819D01*
X38595238Y-17024819D02*
X38404762Y-17024819D01*
X38404762Y-17024819D02*
X38309524Y-17072438D01*
X38309524Y-17072438D02*
X38261905Y-17120057D01*
X38261905Y-17120057D02*
X38214286Y-17215295D01*
X38214286Y-17215295D02*
X38214286Y-17453390D01*
X38214286Y-17453390D02*
X38261905Y-17548628D01*
X38261905Y-17548628D02*
X38309524Y-17596247D01*
X38309524Y-17596247D02*
X38404762Y-17643866D01*
X38404762Y-17643866D02*
X38595238Y-17643866D01*
X38595238Y-17643866D02*
X38690476Y-17596247D01*
X38690476Y-17596247D02*
X38738095Y-17548628D01*
X38738095Y-17548628D02*
X38785714Y-17453390D01*
X21074819Y-12333333D02*
X21789104Y-12333333D01*
X21789104Y-12333333D02*
X21931961Y-12380952D01*
X21931961Y-12380952D02*
X22027200Y-12476190D01*
X22027200Y-12476190D02*
X22074819Y-12619047D01*
X22074819Y-12619047D02*
X22074819Y-12714285D01*
X21408152Y-11428571D02*
X22074819Y-11428571D01*
X21027200Y-11666666D02*
X21741485Y-11904761D01*
X21741485Y-11904761D02*
X21741485Y-11285714D01*
X18357142Y-50429580D02*
X18309523Y-50477200D01*
X18309523Y-50477200D02*
X18166666Y-50524819D01*
X18166666Y-50524819D02*
X18071428Y-50524819D01*
X18071428Y-50524819D02*
X17928571Y-50477200D01*
X17928571Y-50477200D02*
X17833333Y-50381961D01*
X17833333Y-50381961D02*
X17785714Y-50286723D01*
X17785714Y-50286723D02*
X17738095Y-50096247D01*
X17738095Y-50096247D02*
X17738095Y-49953390D01*
X17738095Y-49953390D02*
X17785714Y-49762914D01*
X17785714Y-49762914D02*
X17833333Y-49667676D01*
X17833333Y-49667676D02*
X17928571Y-49572438D01*
X17928571Y-49572438D02*
X18071428Y-49524819D01*
X18071428Y-49524819D02*
X18166666Y-49524819D01*
X18166666Y-49524819D02*
X18309523Y-49572438D01*
X18309523Y-49572438D02*
X18357142Y-49620057D01*
X19309523Y-50524819D02*
X18738095Y-50524819D01*
X19023809Y-50524819D02*
X19023809Y-49524819D01*
X19023809Y-49524819D02*
X18928571Y-49667676D01*
X18928571Y-49667676D02*
X18833333Y-49762914D01*
X18833333Y-49762914D02*
X18738095Y-49810533D01*
X20166666Y-49858152D02*
X20166666Y-50524819D01*
X19928571Y-49477200D02*
X19690476Y-50191485D01*
X19690476Y-50191485D02*
X20309523Y-50191485D01*
X18357142Y-32929580D02*
X18309523Y-32977200D01*
X18309523Y-32977200D02*
X18166666Y-33024819D01*
X18166666Y-33024819D02*
X18071428Y-33024819D01*
X18071428Y-33024819D02*
X17928571Y-32977200D01*
X17928571Y-32977200D02*
X17833333Y-32881961D01*
X17833333Y-32881961D02*
X17785714Y-32786723D01*
X17785714Y-32786723D02*
X17738095Y-32596247D01*
X17738095Y-32596247D02*
X17738095Y-32453390D01*
X17738095Y-32453390D02*
X17785714Y-32262914D01*
X17785714Y-32262914D02*
X17833333Y-32167676D01*
X17833333Y-32167676D02*
X17928571Y-32072438D01*
X17928571Y-32072438D02*
X18071428Y-32024819D01*
X18071428Y-32024819D02*
X18166666Y-32024819D01*
X18166666Y-32024819D02*
X18309523Y-32072438D01*
X18309523Y-32072438D02*
X18357142Y-32120057D01*
X19309523Y-33024819D02*
X18738095Y-33024819D01*
X19023809Y-33024819D02*
X19023809Y-32024819D01*
X19023809Y-32024819D02*
X18928571Y-32167676D01*
X18928571Y-32167676D02*
X18833333Y-32262914D01*
X18833333Y-32262914D02*
X18738095Y-32310533D01*
X20261904Y-33024819D02*
X19690476Y-33024819D01*
X19976190Y-33024819D02*
X19976190Y-32024819D01*
X19976190Y-32024819D02*
X19880952Y-32167676D01*
X19880952Y-32167676D02*
X19785714Y-32262914D01*
X19785714Y-32262914D02*
X19690476Y-32310533D01*
X42261905Y-18024819D02*
X42261905Y-17024819D01*
X42261905Y-17024819D02*
X42500000Y-17024819D01*
X42500000Y-17024819D02*
X42642857Y-17072438D01*
X42642857Y-17072438D02*
X42738095Y-17167676D01*
X42738095Y-17167676D02*
X42785714Y-17262914D01*
X42785714Y-17262914D02*
X42833333Y-17453390D01*
X42833333Y-17453390D02*
X42833333Y-17596247D01*
X42833333Y-17596247D02*
X42785714Y-17786723D01*
X42785714Y-17786723D02*
X42738095Y-17881961D01*
X42738095Y-17881961D02*
X42642857Y-17977200D01*
X42642857Y-17977200D02*
X42500000Y-18024819D01*
X42500000Y-18024819D02*
X42261905Y-18024819D01*
X43214286Y-17120057D02*
X43261905Y-17072438D01*
X43261905Y-17072438D02*
X43357143Y-17024819D01*
X43357143Y-17024819D02*
X43595238Y-17024819D01*
X43595238Y-17024819D02*
X43690476Y-17072438D01*
X43690476Y-17072438D02*
X43738095Y-17120057D01*
X43738095Y-17120057D02*
X43785714Y-17215295D01*
X43785714Y-17215295D02*
X43785714Y-17310533D01*
X43785714Y-17310533D02*
X43738095Y-17453390D01*
X43738095Y-17453390D02*
X43166667Y-18024819D01*
X43166667Y-18024819D02*
X43785714Y-18024819D01*
X11238095Y-72804819D02*
X11238095Y-71804819D01*
X11238095Y-72281009D02*
X11809523Y-72281009D01*
X11809523Y-72804819D02*
X11809523Y-71804819D01*
X12190476Y-71804819D02*
X12809523Y-71804819D01*
X12809523Y-71804819D02*
X12476190Y-72185771D01*
X12476190Y-72185771D02*
X12619047Y-72185771D01*
X12619047Y-72185771D02*
X12714285Y-72233390D01*
X12714285Y-72233390D02*
X12761904Y-72281009D01*
X12761904Y-72281009D02*
X12809523Y-72376247D01*
X12809523Y-72376247D02*
X12809523Y-72614342D01*
X12809523Y-72614342D02*
X12761904Y-72709580D01*
X12761904Y-72709580D02*
X12714285Y-72757200D01*
X12714285Y-72757200D02*
X12619047Y-72804819D01*
X12619047Y-72804819D02*
X12333333Y-72804819D01*
X12333333Y-72804819D02*
X12238095Y-72757200D01*
X12238095Y-72757200D02*
X12190476Y-72709580D01*
X16978628Y-45976190D02*
X17454819Y-45976190D01*
X16454819Y-46309523D02*
X16978628Y-45976190D01*
X16978628Y-45976190D02*
X16454819Y-45642857D01*
X16550057Y-45357142D02*
X16502438Y-45309523D01*
X16502438Y-45309523D02*
X16454819Y-45214285D01*
X16454819Y-45214285D02*
X16454819Y-44976190D01*
X16454819Y-44976190D02*
X16502438Y-44880952D01*
X16502438Y-44880952D02*
X16550057Y-44833333D01*
X16550057Y-44833333D02*
X16645295Y-44785714D01*
X16645295Y-44785714D02*
X16740533Y-44785714D01*
X16740533Y-44785714D02*
X16883390Y-44833333D01*
X16883390Y-44833333D02*
X17454819Y-45404761D01*
X17454819Y-45404761D02*
X17454819Y-44785714D01*
X18357142Y-40429580D02*
X18309523Y-40477200D01*
X18309523Y-40477200D02*
X18166666Y-40524819D01*
X18166666Y-40524819D02*
X18071428Y-40524819D01*
X18071428Y-40524819D02*
X17928571Y-40477200D01*
X17928571Y-40477200D02*
X17833333Y-40381961D01*
X17833333Y-40381961D02*
X17785714Y-40286723D01*
X17785714Y-40286723D02*
X17738095Y-40096247D01*
X17738095Y-40096247D02*
X17738095Y-39953390D01*
X17738095Y-39953390D02*
X17785714Y-39762914D01*
X17785714Y-39762914D02*
X17833333Y-39667676D01*
X17833333Y-39667676D02*
X17928571Y-39572438D01*
X17928571Y-39572438D02*
X18071428Y-39524819D01*
X18071428Y-39524819D02*
X18166666Y-39524819D01*
X18166666Y-39524819D02*
X18309523Y-39572438D01*
X18309523Y-39572438D02*
X18357142Y-39620057D01*
X19309523Y-40524819D02*
X18738095Y-40524819D01*
X19023809Y-40524819D02*
X19023809Y-39524819D01*
X19023809Y-39524819D02*
X18928571Y-39667676D01*
X18928571Y-39667676D02*
X18833333Y-39762914D01*
X18833333Y-39762914D02*
X18738095Y-39810533D01*
X19690476Y-39620057D02*
X19738095Y-39572438D01*
X19738095Y-39572438D02*
X19833333Y-39524819D01*
X19833333Y-39524819D02*
X20071428Y-39524819D01*
X20071428Y-39524819D02*
X20166666Y-39572438D01*
X20166666Y-39572438D02*
X20214285Y-39620057D01*
X20214285Y-39620057D02*
X20261904Y-39715295D01*
X20261904Y-39715295D02*
X20261904Y-39810533D01*
X20261904Y-39810533D02*
X20214285Y-39953390D01*
X20214285Y-39953390D02*
X19642857Y-40524819D01*
X19642857Y-40524819D02*
X20261904Y-40524819D01*
X18357142Y-47929580D02*
X18309523Y-47977200D01*
X18309523Y-47977200D02*
X18166666Y-48024819D01*
X18166666Y-48024819D02*
X18071428Y-48024819D01*
X18071428Y-48024819D02*
X17928571Y-47977200D01*
X17928571Y-47977200D02*
X17833333Y-47881961D01*
X17833333Y-47881961D02*
X17785714Y-47786723D01*
X17785714Y-47786723D02*
X17738095Y-47596247D01*
X17738095Y-47596247D02*
X17738095Y-47453390D01*
X17738095Y-47453390D02*
X17785714Y-47262914D01*
X17785714Y-47262914D02*
X17833333Y-47167676D01*
X17833333Y-47167676D02*
X17928571Y-47072438D01*
X17928571Y-47072438D02*
X18071428Y-47024819D01*
X18071428Y-47024819D02*
X18166666Y-47024819D01*
X18166666Y-47024819D02*
X18309523Y-47072438D01*
X18309523Y-47072438D02*
X18357142Y-47120057D01*
X19309523Y-48024819D02*
X18738095Y-48024819D01*
X19023809Y-48024819D02*
X19023809Y-47024819D01*
X19023809Y-47024819D02*
X18928571Y-47167676D01*
X18928571Y-47167676D02*
X18833333Y-47262914D01*
X18833333Y-47262914D02*
X18738095Y-47310533D01*
X19642857Y-47024819D02*
X20261904Y-47024819D01*
X20261904Y-47024819D02*
X19928571Y-47405771D01*
X19928571Y-47405771D02*
X20071428Y-47405771D01*
X20071428Y-47405771D02*
X20166666Y-47453390D01*
X20166666Y-47453390D02*
X20214285Y-47501009D01*
X20214285Y-47501009D02*
X20261904Y-47596247D01*
X20261904Y-47596247D02*
X20261904Y-47834342D01*
X20261904Y-47834342D02*
X20214285Y-47929580D01*
X20214285Y-47929580D02*
X20166666Y-47977200D01*
X20166666Y-47977200D02*
X20071428Y-48024819D01*
X20071428Y-48024819D02*
X19785714Y-48024819D01*
X19785714Y-48024819D02*
X19690476Y-47977200D01*
X19690476Y-47977200D02*
X19642857Y-47929580D01*
X33833333Y-45429580D02*
X33785714Y-45477200D01*
X33785714Y-45477200D02*
X33642857Y-45524819D01*
X33642857Y-45524819D02*
X33547619Y-45524819D01*
X33547619Y-45524819D02*
X33404762Y-45477200D01*
X33404762Y-45477200D02*
X33309524Y-45381961D01*
X33309524Y-45381961D02*
X33261905Y-45286723D01*
X33261905Y-45286723D02*
X33214286Y-45096247D01*
X33214286Y-45096247D02*
X33214286Y-44953390D01*
X33214286Y-44953390D02*
X33261905Y-44762914D01*
X33261905Y-44762914D02*
X33309524Y-44667676D01*
X33309524Y-44667676D02*
X33404762Y-44572438D01*
X33404762Y-44572438D02*
X33547619Y-44524819D01*
X33547619Y-44524819D02*
X33642857Y-44524819D01*
X33642857Y-44524819D02*
X33785714Y-44572438D01*
X33785714Y-44572438D02*
X33833333Y-44620057D01*
X34404762Y-44953390D02*
X34309524Y-44905771D01*
X34309524Y-44905771D02*
X34261905Y-44858152D01*
X34261905Y-44858152D02*
X34214286Y-44762914D01*
X34214286Y-44762914D02*
X34214286Y-44715295D01*
X34214286Y-44715295D02*
X34261905Y-44620057D01*
X34261905Y-44620057D02*
X34309524Y-44572438D01*
X34309524Y-44572438D02*
X34404762Y-44524819D01*
X34404762Y-44524819D02*
X34595238Y-44524819D01*
X34595238Y-44524819D02*
X34690476Y-44572438D01*
X34690476Y-44572438D02*
X34738095Y-44620057D01*
X34738095Y-44620057D02*
X34785714Y-44715295D01*
X34785714Y-44715295D02*
X34785714Y-44762914D01*
X34785714Y-44762914D02*
X34738095Y-44858152D01*
X34738095Y-44858152D02*
X34690476Y-44905771D01*
X34690476Y-44905771D02*
X34595238Y-44953390D01*
X34595238Y-44953390D02*
X34404762Y-44953390D01*
X34404762Y-44953390D02*
X34309524Y-45001009D01*
X34309524Y-45001009D02*
X34261905Y-45048628D01*
X34261905Y-45048628D02*
X34214286Y-45143866D01*
X34214286Y-45143866D02*
X34214286Y-45334342D01*
X34214286Y-45334342D02*
X34261905Y-45429580D01*
X34261905Y-45429580D02*
X34309524Y-45477200D01*
X34309524Y-45477200D02*
X34404762Y-45524819D01*
X34404762Y-45524819D02*
X34595238Y-45524819D01*
X34595238Y-45524819D02*
X34690476Y-45477200D01*
X34690476Y-45477200D02*
X34738095Y-45429580D01*
X34738095Y-45429580D02*
X34785714Y-45334342D01*
X34785714Y-45334342D02*
X34785714Y-45143866D01*
X34785714Y-45143866D02*
X34738095Y-45048628D01*
X34738095Y-45048628D02*
X34690476Y-45001009D01*
X34690476Y-45001009D02*
X34595238Y-44953390D01*
X29666666Y-70809819D02*
X29666666Y-71524104D01*
X29666666Y-71524104D02*
X29619047Y-71666961D01*
X29619047Y-71666961D02*
X29523809Y-71762200D01*
X29523809Y-71762200D02*
X29380952Y-71809819D01*
X29380952Y-71809819D02*
X29285714Y-71809819D01*
X30666666Y-71809819D02*
X30095238Y-71809819D01*
X30380952Y-71809819D02*
X30380952Y-70809819D01*
X30380952Y-70809819D02*
X30285714Y-70952676D01*
X30285714Y-70952676D02*
X30190476Y-71047914D01*
X30190476Y-71047914D02*
X30095238Y-71095533D01*
X42261905Y-15024819D02*
X42261905Y-14024819D01*
X42261905Y-14024819D02*
X42500000Y-14024819D01*
X42500000Y-14024819D02*
X42642857Y-14072438D01*
X42642857Y-14072438D02*
X42738095Y-14167676D01*
X42738095Y-14167676D02*
X42785714Y-14262914D01*
X42785714Y-14262914D02*
X42833333Y-14453390D01*
X42833333Y-14453390D02*
X42833333Y-14596247D01*
X42833333Y-14596247D02*
X42785714Y-14786723D01*
X42785714Y-14786723D02*
X42738095Y-14881961D01*
X42738095Y-14881961D02*
X42642857Y-14977200D01*
X42642857Y-14977200D02*
X42500000Y-15024819D01*
X42500000Y-15024819D02*
X42261905Y-15024819D01*
X43785714Y-15024819D02*
X43214286Y-15024819D01*
X43500000Y-15024819D02*
X43500000Y-14024819D01*
X43500000Y-14024819D02*
X43404762Y-14167676D01*
X43404762Y-14167676D02*
X43309524Y-14262914D01*
X43309524Y-14262914D02*
X43214286Y-14310533D01*
X29833333Y-43429580D02*
X29785714Y-43477200D01*
X29785714Y-43477200D02*
X29642857Y-43524819D01*
X29642857Y-43524819D02*
X29547619Y-43524819D01*
X29547619Y-43524819D02*
X29404762Y-43477200D01*
X29404762Y-43477200D02*
X29309524Y-43381961D01*
X29309524Y-43381961D02*
X29261905Y-43286723D01*
X29261905Y-43286723D02*
X29214286Y-43096247D01*
X29214286Y-43096247D02*
X29214286Y-42953390D01*
X29214286Y-42953390D02*
X29261905Y-42762914D01*
X29261905Y-42762914D02*
X29309524Y-42667676D01*
X29309524Y-42667676D02*
X29404762Y-42572438D01*
X29404762Y-42572438D02*
X29547619Y-42524819D01*
X29547619Y-42524819D02*
X29642857Y-42524819D01*
X29642857Y-42524819D02*
X29785714Y-42572438D01*
X29785714Y-42572438D02*
X29833333Y-42620057D01*
X30166667Y-42524819D02*
X30833333Y-42524819D01*
X30833333Y-42524819D02*
X30404762Y-43524819D01*
X7666666Y-55834819D02*
X7666666Y-56549104D01*
X7666666Y-56549104D02*
X7619047Y-56691961D01*
X7619047Y-56691961D02*
X7523809Y-56787200D01*
X7523809Y-56787200D02*
X7380952Y-56834819D01*
X7380952Y-56834819D02*
X7285714Y-56834819D01*
X8095238Y-55930057D02*
X8142857Y-55882438D01*
X8142857Y-55882438D02*
X8238095Y-55834819D01*
X8238095Y-55834819D02*
X8476190Y-55834819D01*
X8476190Y-55834819D02*
X8571428Y-55882438D01*
X8571428Y-55882438D02*
X8619047Y-55930057D01*
X8619047Y-55930057D02*
X8666666Y-56025295D01*
X8666666Y-56025295D02*
X8666666Y-56120533D01*
X8666666Y-56120533D02*
X8619047Y-56263390D01*
X8619047Y-56263390D02*
X8047619Y-56834819D01*
X8047619Y-56834819D02*
X8666666Y-56834819D01*
X29833333Y-30429580D02*
X29785714Y-30477200D01*
X29785714Y-30477200D02*
X29642857Y-30524819D01*
X29642857Y-30524819D02*
X29547619Y-30524819D01*
X29547619Y-30524819D02*
X29404762Y-30477200D01*
X29404762Y-30477200D02*
X29309524Y-30381961D01*
X29309524Y-30381961D02*
X29261905Y-30286723D01*
X29261905Y-30286723D02*
X29214286Y-30096247D01*
X29214286Y-30096247D02*
X29214286Y-29953390D01*
X29214286Y-29953390D02*
X29261905Y-29762914D01*
X29261905Y-29762914D02*
X29309524Y-29667676D01*
X29309524Y-29667676D02*
X29404762Y-29572438D01*
X29404762Y-29572438D02*
X29547619Y-29524819D01*
X29547619Y-29524819D02*
X29642857Y-29524819D01*
X29642857Y-29524819D02*
X29785714Y-29572438D01*
X29785714Y-29572438D02*
X29833333Y-29620057D01*
X30738095Y-29524819D02*
X30261905Y-29524819D01*
X30261905Y-29524819D02*
X30214286Y-30001009D01*
X30214286Y-30001009D02*
X30261905Y-29953390D01*
X30261905Y-29953390D02*
X30357143Y-29905771D01*
X30357143Y-29905771D02*
X30595238Y-29905771D01*
X30595238Y-29905771D02*
X30690476Y-29953390D01*
X30690476Y-29953390D02*
X30738095Y-30001009D01*
X30738095Y-30001009D02*
X30785714Y-30096247D01*
X30785714Y-30096247D02*
X30785714Y-30334342D01*
X30785714Y-30334342D02*
X30738095Y-30429580D01*
X30738095Y-30429580D02*
X30690476Y-30477200D01*
X30690476Y-30477200D02*
X30595238Y-30524819D01*
X30595238Y-30524819D02*
X30357143Y-30524819D01*
X30357143Y-30524819D02*
X30261905Y-30477200D01*
X30261905Y-30477200D02*
X30214286Y-30429580D01*
X35929580Y-38166666D02*
X35977200Y-38214285D01*
X35977200Y-38214285D02*
X36024819Y-38357142D01*
X36024819Y-38357142D02*
X36024819Y-38452380D01*
X36024819Y-38452380D02*
X35977200Y-38595237D01*
X35977200Y-38595237D02*
X35881961Y-38690475D01*
X35881961Y-38690475D02*
X35786723Y-38738094D01*
X35786723Y-38738094D02*
X35596247Y-38785713D01*
X35596247Y-38785713D02*
X35453390Y-38785713D01*
X35453390Y-38785713D02*
X35262914Y-38738094D01*
X35262914Y-38738094D02*
X35167676Y-38690475D01*
X35167676Y-38690475D02*
X35072438Y-38595237D01*
X35072438Y-38595237D02*
X35024819Y-38452380D01*
X35024819Y-38452380D02*
X35024819Y-38357142D01*
X35024819Y-38357142D02*
X35072438Y-38214285D01*
X35072438Y-38214285D02*
X35120057Y-38166666D01*
X35024819Y-37309523D02*
X35024819Y-37499999D01*
X35024819Y-37499999D02*
X35072438Y-37595237D01*
X35072438Y-37595237D02*
X35120057Y-37642856D01*
X35120057Y-37642856D02*
X35262914Y-37738094D01*
X35262914Y-37738094D02*
X35453390Y-37785713D01*
X35453390Y-37785713D02*
X35834342Y-37785713D01*
X35834342Y-37785713D02*
X35929580Y-37738094D01*
X35929580Y-37738094D02*
X35977200Y-37690475D01*
X35977200Y-37690475D02*
X36024819Y-37595237D01*
X36024819Y-37595237D02*
X36024819Y-37404761D01*
X36024819Y-37404761D02*
X35977200Y-37309523D01*
X35977200Y-37309523D02*
X35929580Y-37261904D01*
X35929580Y-37261904D02*
X35834342Y-37214285D01*
X35834342Y-37214285D02*
X35596247Y-37214285D01*
X35596247Y-37214285D02*
X35501009Y-37261904D01*
X35501009Y-37261904D02*
X35453390Y-37309523D01*
X35453390Y-37309523D02*
X35405771Y-37404761D01*
X35405771Y-37404761D02*
X35405771Y-37595237D01*
X35405771Y-37595237D02*
X35453390Y-37690475D01*
X35453390Y-37690475D02*
X35501009Y-37738094D01*
X35501009Y-37738094D02*
X35596247Y-37785713D01*
X35024819Y-68166666D02*
X34548628Y-68499999D01*
X35024819Y-68738094D02*
X34024819Y-68738094D01*
X34024819Y-68738094D02*
X34024819Y-68357142D01*
X34024819Y-68357142D02*
X34072438Y-68261904D01*
X34072438Y-68261904D02*
X34120057Y-68214285D01*
X34120057Y-68214285D02*
X34215295Y-68166666D01*
X34215295Y-68166666D02*
X34358152Y-68166666D01*
X34358152Y-68166666D02*
X34453390Y-68214285D01*
X34453390Y-68214285D02*
X34501009Y-68261904D01*
X34501009Y-68261904D02*
X34548628Y-68357142D01*
X34548628Y-68357142D02*
X34548628Y-68738094D01*
X34358152Y-67309523D02*
X35024819Y-67309523D01*
X33977200Y-67547618D02*
X34691485Y-67785713D01*
X34691485Y-67785713D02*
X34691485Y-67166666D01*
X29166666Y-45001009D02*
X28833333Y-45001009D01*
X28833333Y-45524819D02*
X28833333Y-44524819D01*
X28833333Y-44524819D02*
X29309523Y-44524819D01*
X30023809Y-45001009D02*
X30166666Y-45048628D01*
X30166666Y-45048628D02*
X30214285Y-45096247D01*
X30214285Y-45096247D02*
X30261904Y-45191485D01*
X30261904Y-45191485D02*
X30261904Y-45334342D01*
X30261904Y-45334342D02*
X30214285Y-45429580D01*
X30214285Y-45429580D02*
X30166666Y-45477200D01*
X30166666Y-45477200D02*
X30071428Y-45524819D01*
X30071428Y-45524819D02*
X29690476Y-45524819D01*
X29690476Y-45524819D02*
X29690476Y-44524819D01*
X29690476Y-44524819D02*
X30023809Y-44524819D01*
X30023809Y-44524819D02*
X30119047Y-44572438D01*
X30119047Y-44572438D02*
X30166666Y-44620057D01*
X30166666Y-44620057D02*
X30214285Y-44715295D01*
X30214285Y-44715295D02*
X30214285Y-44810533D01*
X30214285Y-44810533D02*
X30166666Y-44905771D01*
X30166666Y-44905771D02*
X30119047Y-44953390D01*
X30119047Y-44953390D02*
X30023809Y-45001009D01*
X30023809Y-45001009D02*
X29690476Y-45001009D01*
X31214285Y-45524819D02*
X30642857Y-45524819D01*
X30928571Y-45524819D02*
X30928571Y-44524819D01*
X30928571Y-44524819D02*
X30833333Y-44667676D01*
X30833333Y-44667676D02*
X30738095Y-44762914D01*
X30738095Y-44762914D02*
X30642857Y-44810533D01*
X19833333Y-66679580D02*
X19785714Y-66727200D01*
X19785714Y-66727200D02*
X19642857Y-66774819D01*
X19642857Y-66774819D02*
X19547619Y-66774819D01*
X19547619Y-66774819D02*
X19404762Y-66727200D01*
X19404762Y-66727200D02*
X19309524Y-66631961D01*
X19309524Y-66631961D02*
X19261905Y-66536723D01*
X19261905Y-66536723D02*
X19214286Y-66346247D01*
X19214286Y-66346247D02*
X19214286Y-66203390D01*
X19214286Y-66203390D02*
X19261905Y-66012914D01*
X19261905Y-66012914D02*
X19309524Y-65917676D01*
X19309524Y-65917676D02*
X19404762Y-65822438D01*
X19404762Y-65822438D02*
X19547619Y-65774819D01*
X19547619Y-65774819D02*
X19642857Y-65774819D01*
X19642857Y-65774819D02*
X19785714Y-65822438D01*
X19785714Y-65822438D02*
X19833333Y-65870057D01*
X20785714Y-66774819D02*
X20214286Y-66774819D01*
X20500000Y-66774819D02*
X20500000Y-65774819D01*
X20500000Y-65774819D02*
X20404762Y-65917676D01*
X20404762Y-65917676D02*
X20309524Y-66012914D01*
X20309524Y-66012914D02*
X20214286Y-66060533D01*
X19238095Y-804819D02*
X19238095Y195180D01*
X19238095Y-281009D02*
X19809523Y-281009D01*
X19809523Y-804819D02*
X19809523Y195180D01*
X20809523Y-804819D02*
X20238095Y-804819D01*
X20523809Y-804819D02*
X20523809Y195180D01*
X20523809Y195180D02*
X20428571Y52323D01*
X20428571Y52323D02*
X20333333Y-42914D01*
X20333333Y-42914D02*
X20238095Y-90533D01*
X47238095Y-72804819D02*
X47238095Y-71804819D01*
X47238095Y-72281009D02*
X47809523Y-72281009D01*
X47809523Y-72804819D02*
X47809523Y-71804819D01*
X48714285Y-72138152D02*
X48714285Y-72804819D01*
X48476190Y-71757200D02*
X48238095Y-72471485D01*
X48238095Y-72471485D02*
X48857142Y-72471485D01*
X23024819Y-68166666D02*
X22548628Y-68499999D01*
X23024819Y-68738094D02*
X22024819Y-68738094D01*
X22024819Y-68738094D02*
X22024819Y-68357142D01*
X22024819Y-68357142D02*
X22072438Y-68261904D01*
X22072438Y-68261904D02*
X22120057Y-68214285D01*
X22120057Y-68214285D02*
X22215295Y-68166666D01*
X22215295Y-68166666D02*
X22358152Y-68166666D01*
X22358152Y-68166666D02*
X22453390Y-68214285D01*
X22453390Y-68214285D02*
X22501009Y-68261904D01*
X22501009Y-68261904D02*
X22548628Y-68357142D01*
X22548628Y-68357142D02*
X22548628Y-68738094D01*
X22024819Y-67833332D02*
X22024819Y-67214285D01*
X22024819Y-67214285D02*
X22405771Y-67547618D01*
X22405771Y-67547618D02*
X22405771Y-67404761D01*
X22405771Y-67404761D02*
X22453390Y-67309523D01*
X22453390Y-67309523D02*
X22501009Y-67261904D01*
X22501009Y-67261904D02*
X22596247Y-67214285D01*
X22596247Y-67214285D02*
X22834342Y-67214285D01*
X22834342Y-67214285D02*
X22929580Y-67261904D01*
X22929580Y-67261904D02*
X22977200Y-67309523D01*
X22977200Y-67309523D02*
X23024819Y-67404761D01*
X23024819Y-67404761D02*
X23024819Y-67690475D01*
X23024819Y-67690475D02*
X22977200Y-67785713D01*
X22977200Y-67785713D02*
X22929580Y-67833332D01*
X37833333Y-15024819D02*
X37500000Y-14548628D01*
X37261905Y-15024819D02*
X37261905Y-14024819D01*
X37261905Y-14024819D02*
X37642857Y-14024819D01*
X37642857Y-14024819D02*
X37738095Y-14072438D01*
X37738095Y-14072438D02*
X37785714Y-14120057D01*
X37785714Y-14120057D02*
X37833333Y-14215295D01*
X37833333Y-14215295D02*
X37833333Y-14358152D01*
X37833333Y-14358152D02*
X37785714Y-14453390D01*
X37785714Y-14453390D02*
X37738095Y-14501009D01*
X37738095Y-14501009D02*
X37642857Y-14548628D01*
X37642857Y-14548628D02*
X37261905Y-14548628D01*
X38404762Y-14453390D02*
X38309524Y-14405771D01*
X38309524Y-14405771D02*
X38261905Y-14358152D01*
X38261905Y-14358152D02*
X38214286Y-14262914D01*
X38214286Y-14262914D02*
X38214286Y-14215295D01*
X38214286Y-14215295D02*
X38261905Y-14120057D01*
X38261905Y-14120057D02*
X38309524Y-14072438D01*
X38309524Y-14072438D02*
X38404762Y-14024819D01*
X38404762Y-14024819D02*
X38595238Y-14024819D01*
X38595238Y-14024819D02*
X38690476Y-14072438D01*
X38690476Y-14072438D02*
X38738095Y-14120057D01*
X38738095Y-14120057D02*
X38785714Y-14215295D01*
X38785714Y-14215295D02*
X38785714Y-14262914D01*
X38785714Y-14262914D02*
X38738095Y-14358152D01*
X38738095Y-14358152D02*
X38690476Y-14405771D01*
X38690476Y-14405771D02*
X38595238Y-14453390D01*
X38595238Y-14453390D02*
X38404762Y-14453390D01*
X38404762Y-14453390D02*
X38309524Y-14501009D01*
X38309524Y-14501009D02*
X38261905Y-14548628D01*
X38261905Y-14548628D02*
X38214286Y-14643866D01*
X38214286Y-14643866D02*
X38214286Y-14834342D01*
X38214286Y-14834342D02*
X38261905Y-14929580D01*
X38261905Y-14929580D02*
X38309524Y-14977200D01*
X38309524Y-14977200D02*
X38404762Y-15024819D01*
X38404762Y-15024819D02*
X38595238Y-15024819D01*
X38595238Y-15024819D02*
X38690476Y-14977200D01*
X38690476Y-14977200D02*
X38738095Y-14929580D01*
X38738095Y-14929580D02*
X38785714Y-14834342D01*
X38785714Y-14834342D02*
X38785714Y-14643866D01*
X38785714Y-14643866D02*
X38738095Y-14548628D01*
X38738095Y-14548628D02*
X38690476Y-14501009D01*
X38690476Y-14501009D02*
X38595238Y-14453390D01*
X17833333Y-58929580D02*
X17785714Y-58977200D01*
X17785714Y-58977200D02*
X17642857Y-59024819D01*
X17642857Y-59024819D02*
X17547619Y-59024819D01*
X17547619Y-59024819D02*
X17404762Y-58977200D01*
X17404762Y-58977200D02*
X17309524Y-58881961D01*
X17309524Y-58881961D02*
X17261905Y-58786723D01*
X17261905Y-58786723D02*
X17214286Y-58596247D01*
X17214286Y-58596247D02*
X17214286Y-58453390D01*
X17214286Y-58453390D02*
X17261905Y-58262914D01*
X17261905Y-58262914D02*
X17309524Y-58167676D01*
X17309524Y-58167676D02*
X17404762Y-58072438D01*
X17404762Y-58072438D02*
X17547619Y-58024819D01*
X17547619Y-58024819D02*
X17642857Y-58024819D01*
X17642857Y-58024819D02*
X17785714Y-58072438D01*
X17785714Y-58072438D02*
X17833333Y-58120057D01*
X18166667Y-58024819D02*
X18785714Y-58024819D01*
X18785714Y-58024819D02*
X18452381Y-58405771D01*
X18452381Y-58405771D02*
X18595238Y-58405771D01*
X18595238Y-58405771D02*
X18690476Y-58453390D01*
X18690476Y-58453390D02*
X18738095Y-58501009D01*
X18738095Y-58501009D02*
X18785714Y-58596247D01*
X18785714Y-58596247D02*
X18785714Y-58834342D01*
X18785714Y-58834342D02*
X18738095Y-58929580D01*
X18738095Y-58929580D02*
X18690476Y-58977200D01*
X18690476Y-58977200D02*
X18595238Y-59024819D01*
X18595238Y-59024819D02*
X18309524Y-59024819D01*
X18309524Y-59024819D02*
X18214286Y-58977200D01*
X18214286Y-58977200D02*
X18166667Y-58929580D01*
X25833333Y-45429580D02*
X25785714Y-45477200D01*
X25785714Y-45477200D02*
X25642857Y-45524819D01*
X25642857Y-45524819D02*
X25547619Y-45524819D01*
X25547619Y-45524819D02*
X25404762Y-45477200D01*
X25404762Y-45477200D02*
X25309524Y-45381961D01*
X25309524Y-45381961D02*
X25261905Y-45286723D01*
X25261905Y-45286723D02*
X25214286Y-45096247D01*
X25214286Y-45096247D02*
X25214286Y-44953390D01*
X25214286Y-44953390D02*
X25261905Y-44762914D01*
X25261905Y-44762914D02*
X25309524Y-44667676D01*
X25309524Y-44667676D02*
X25404762Y-44572438D01*
X25404762Y-44572438D02*
X25547619Y-44524819D01*
X25547619Y-44524819D02*
X25642857Y-44524819D01*
X25642857Y-44524819D02*
X25785714Y-44572438D01*
X25785714Y-44572438D02*
X25833333Y-44620057D01*
X26309524Y-45524819D02*
X26500000Y-45524819D01*
X26500000Y-45524819D02*
X26595238Y-45477200D01*
X26595238Y-45477200D02*
X26642857Y-45429580D01*
X26642857Y-45429580D02*
X26738095Y-45286723D01*
X26738095Y-45286723D02*
X26785714Y-45096247D01*
X26785714Y-45096247D02*
X26785714Y-44715295D01*
X26785714Y-44715295D02*
X26738095Y-44620057D01*
X26738095Y-44620057D02*
X26690476Y-44572438D01*
X26690476Y-44572438D02*
X26595238Y-44524819D01*
X26595238Y-44524819D02*
X26404762Y-44524819D01*
X26404762Y-44524819D02*
X26309524Y-44572438D01*
X26309524Y-44572438D02*
X26261905Y-44620057D01*
X26261905Y-44620057D02*
X26214286Y-44715295D01*
X26214286Y-44715295D02*
X26214286Y-44953390D01*
X26214286Y-44953390D02*
X26261905Y-45048628D01*
X26261905Y-45048628D02*
X26309524Y-45096247D01*
X26309524Y-45096247D02*
X26404762Y-45143866D01*
X26404762Y-45143866D02*
X26595238Y-45143866D01*
X26595238Y-45143866D02*
X26690476Y-45096247D01*
X26690476Y-45096247D02*
X26738095Y-45048628D01*
X26738095Y-45048628D02*
X26785714Y-44953390D01*
X37024819Y-71666666D02*
X36548628Y-71999999D01*
X37024819Y-72238094D02*
X36024819Y-72238094D01*
X36024819Y-72238094D02*
X36024819Y-71857142D01*
X36024819Y-71857142D02*
X36072438Y-71761904D01*
X36072438Y-71761904D02*
X36120057Y-71714285D01*
X36120057Y-71714285D02*
X36215295Y-71666666D01*
X36215295Y-71666666D02*
X36358152Y-71666666D01*
X36358152Y-71666666D02*
X36453390Y-71714285D01*
X36453390Y-71714285D02*
X36501009Y-71761904D01*
X36501009Y-71761904D02*
X36548628Y-71857142D01*
X36548628Y-71857142D02*
X36548628Y-72238094D01*
X36120057Y-71285713D02*
X36072438Y-71238094D01*
X36072438Y-71238094D02*
X36024819Y-71142856D01*
X36024819Y-71142856D02*
X36024819Y-70904761D01*
X36024819Y-70904761D02*
X36072438Y-70809523D01*
X36072438Y-70809523D02*
X36120057Y-70761904D01*
X36120057Y-70761904D02*
X36215295Y-70714285D01*
X36215295Y-70714285D02*
X36310533Y-70714285D01*
X36310533Y-70714285D02*
X36453390Y-70761904D01*
X36453390Y-70761904D02*
X37024819Y-71333332D01*
X37024819Y-71333332D02*
X37024819Y-70714285D01*
X14524819Y-38642857D02*
X14048628Y-38976190D01*
X14524819Y-39214285D02*
X13524819Y-39214285D01*
X13524819Y-39214285D02*
X13524819Y-38833333D01*
X13524819Y-38833333D02*
X13572438Y-38738095D01*
X13572438Y-38738095D02*
X13620057Y-38690476D01*
X13620057Y-38690476D02*
X13715295Y-38642857D01*
X13715295Y-38642857D02*
X13858152Y-38642857D01*
X13858152Y-38642857D02*
X13953390Y-38690476D01*
X13953390Y-38690476D02*
X14001009Y-38738095D01*
X14001009Y-38738095D02*
X14048628Y-38833333D01*
X14048628Y-38833333D02*
X14048628Y-39214285D01*
X14524819Y-37690476D02*
X14524819Y-38261904D01*
X14524819Y-37976190D02*
X13524819Y-37976190D01*
X13524819Y-37976190D02*
X13667676Y-38071428D01*
X13667676Y-38071428D02*
X13762914Y-38166666D01*
X13762914Y-38166666D02*
X13810533Y-38261904D01*
X13524819Y-37071428D02*
X13524819Y-36976190D01*
X13524819Y-36976190D02*
X13572438Y-36880952D01*
X13572438Y-36880952D02*
X13620057Y-36833333D01*
X13620057Y-36833333D02*
X13715295Y-36785714D01*
X13715295Y-36785714D02*
X13905771Y-36738095D01*
X13905771Y-36738095D02*
X14143866Y-36738095D01*
X14143866Y-36738095D02*
X14334342Y-36785714D01*
X14334342Y-36785714D02*
X14429580Y-36833333D01*
X14429580Y-36833333D02*
X14477200Y-36880952D01*
X14477200Y-36880952D02*
X14524819Y-36976190D01*
X14524819Y-36976190D02*
X14524819Y-37071428D01*
X14524819Y-37071428D02*
X14477200Y-37166666D01*
X14477200Y-37166666D02*
X14429580Y-37214285D01*
X14429580Y-37214285D02*
X14334342Y-37261904D01*
X14334342Y-37261904D02*
X14143866Y-37309523D01*
X14143866Y-37309523D02*
X13905771Y-37309523D01*
X13905771Y-37309523D02*
X13715295Y-37261904D01*
X13715295Y-37261904D02*
X13620057Y-37214285D01*
X13620057Y-37214285D02*
X13572438Y-37166666D01*
X13572438Y-37166666D02*
X13524819Y-37071428D01*
X16666667Y-22657200D02*
X16809524Y-22704819D01*
X16809524Y-22704819D02*
X17047619Y-22704819D01*
X17047619Y-22704819D02*
X17142857Y-22657200D01*
X17142857Y-22657200D02*
X17190476Y-22609580D01*
X17190476Y-22609580D02*
X17238095Y-22514342D01*
X17238095Y-22514342D02*
X17238095Y-22419104D01*
X17238095Y-22419104D02*
X17190476Y-22323866D01*
X17190476Y-22323866D02*
X17142857Y-22276247D01*
X17142857Y-22276247D02*
X17047619Y-22228628D01*
X17047619Y-22228628D02*
X16857143Y-22181009D01*
X16857143Y-22181009D02*
X16761905Y-22133390D01*
X16761905Y-22133390D02*
X16714286Y-22085771D01*
X16714286Y-22085771D02*
X16666667Y-21990533D01*
X16666667Y-21990533D02*
X16666667Y-21895295D01*
X16666667Y-21895295D02*
X16714286Y-21800057D01*
X16714286Y-21800057D02*
X16761905Y-21752438D01*
X16761905Y-21752438D02*
X16857143Y-21704819D01*
X16857143Y-21704819D02*
X17095238Y-21704819D01*
X17095238Y-21704819D02*
X17238095Y-21752438D01*
X17571429Y-21704819D02*
X17809524Y-22704819D01*
X17809524Y-22704819D02*
X18000000Y-21990533D01*
X18000000Y-21990533D02*
X18190476Y-22704819D01*
X18190476Y-22704819D02*
X18428572Y-21704819D01*
X18761905Y-21800057D02*
X18809524Y-21752438D01*
X18809524Y-21752438D02*
X18904762Y-21704819D01*
X18904762Y-21704819D02*
X19142857Y-21704819D01*
X19142857Y-21704819D02*
X19238095Y-21752438D01*
X19238095Y-21752438D02*
X19285714Y-21800057D01*
X19285714Y-21800057D02*
X19333333Y-21895295D01*
X19333333Y-21895295D02*
X19333333Y-21990533D01*
X19333333Y-21990533D02*
X19285714Y-22133390D01*
X19285714Y-22133390D02*
X18714286Y-22704819D01*
X18714286Y-22704819D02*
X19333333Y-22704819D01*
X21833333Y-29024819D02*
X21500000Y-28548628D01*
X21261905Y-29024819D02*
X21261905Y-28024819D01*
X21261905Y-28024819D02*
X21642857Y-28024819D01*
X21642857Y-28024819D02*
X21738095Y-28072438D01*
X21738095Y-28072438D02*
X21785714Y-28120057D01*
X21785714Y-28120057D02*
X21833333Y-28215295D01*
X21833333Y-28215295D02*
X21833333Y-28358152D01*
X21833333Y-28358152D02*
X21785714Y-28453390D01*
X21785714Y-28453390D02*
X21738095Y-28501009D01*
X21738095Y-28501009D02*
X21642857Y-28548628D01*
X21642857Y-28548628D02*
X21261905Y-28548628D01*
X22166667Y-28024819D02*
X22833333Y-28024819D01*
X22833333Y-28024819D02*
X22404762Y-29024819D01*
X51666666Y-55834819D02*
X51666666Y-56549104D01*
X51666666Y-56549104D02*
X51619047Y-56691961D01*
X51619047Y-56691961D02*
X51523809Y-56787200D01*
X51523809Y-56787200D02*
X51380952Y-56834819D01*
X51380952Y-56834819D02*
X51285714Y-56834819D01*
X52047619Y-55834819D02*
X52666666Y-55834819D01*
X52666666Y-55834819D02*
X52333333Y-56215771D01*
X52333333Y-56215771D02*
X52476190Y-56215771D01*
X52476190Y-56215771D02*
X52571428Y-56263390D01*
X52571428Y-56263390D02*
X52619047Y-56311009D01*
X52619047Y-56311009D02*
X52666666Y-56406247D01*
X52666666Y-56406247D02*
X52666666Y-56644342D01*
X52666666Y-56644342D02*
X52619047Y-56739580D01*
X52619047Y-56739580D02*
X52571428Y-56787200D01*
X52571428Y-56787200D02*
X52476190Y-56834819D01*
X52476190Y-56834819D02*
X52190476Y-56834819D01*
X52190476Y-56834819D02*
X52095238Y-56787200D01*
X52095238Y-56787200D02*
X52047619Y-56739580D01*
%TO.C,R5*%
D12*
X37762742Y-52477500D02*
X38237258Y-52477500D01*
X37762742Y-53522500D02*
X38237258Y-53522500D01*
%TO.C,R1*%
X21477500Y-71737258D02*
X21477500Y-71262742D01*
X22522500Y-71737258D02*
X22522500Y-71262742D01*
%TO.C,R6*%
X42262742Y-52477500D02*
X42737258Y-52477500D01*
X42262742Y-53522500D02*
X42737258Y-53522500D01*
%TO.C,SW1*%
X15250000Y-17000000D02*
X15250000Y-19000000D01*
X16300000Y-15700000D02*
X16750000Y-15250000D01*
X16300000Y-20300000D02*
X16750000Y-20750000D01*
X16750000Y-15250000D02*
X19250000Y-15250000D01*
X16750000Y-20750000D02*
X19250000Y-20750000D01*
X19700000Y-15700000D02*
X19250000Y-15250000D01*
X19700000Y-20300000D02*
X19250000Y-20750000D01*
X20750000Y-17000000D02*
X20750000Y-19000000D01*
%TO.C,U2*%
X12440000Y-62090000D02*
X12490000Y-62090000D01*
X12440000Y-63910000D02*
X12440000Y-62090000D01*
X12490000Y-63910000D02*
X12440000Y-63910000D01*
X13610000Y-62090000D02*
X14390000Y-62090000D01*
X15510000Y-62090000D02*
X15560000Y-62090000D01*
X15560000Y-62090000D02*
X15560000Y-63910000D01*
X15560000Y-63910000D02*
X15510000Y-63910000D01*
X12490000Y-64450000D02*
X12160000Y-64690000D01*
X12160000Y-64210000D01*
X12490000Y-64450000D01*
G36*
X12490000Y-64450000D02*
G01*
X12160000Y-64690000D01*
X12160000Y-64210000D01*
X12490000Y-64450000D01*
G37*
%TO.C,U1*%
X26390000Y-34390000D02*
X26840000Y-34390000D01*
X26390000Y-34840000D02*
X26390000Y-34390000D01*
X26390000Y-41610000D02*
X26390000Y-41160000D01*
X26840000Y-41610000D02*
X26390000Y-41610000D01*
X33160000Y-34390000D02*
X33610000Y-34390000D01*
X33610000Y-34390000D02*
X33610000Y-34840000D01*
X33610000Y-41160000D02*
X33610000Y-41610000D01*
X33610000Y-41610000D02*
X33160000Y-41610000D01*
X25750000Y-34840000D02*
X25410000Y-34370000D01*
X26090000Y-34370000D01*
X25750000Y-34840000D01*
G36*
X25750000Y-34840000D02*
G01*
X25410000Y-34370000D01*
X26090000Y-34370000D01*
X25750000Y-34840000D01*
G37*
%TO.C,C2*%
X9859420Y-67490000D02*
X10140580Y-67490000D01*
X9859420Y-68510000D02*
X10140580Y-68510000D01*
%TO.C,C15*%
X37859420Y-49490000D02*
X38140580Y-49490000D01*
X37859420Y-50510000D02*
X38140580Y-50510000D01*
%TO.C,C4*%
X22238748Y-59265000D02*
X22761252Y-59265000D01*
X22238748Y-60735000D02*
X22761252Y-60735000D01*
%TO.C,C10*%
X25859420Y-43990000D02*
X26140580Y-43990000D01*
X25859420Y-45010000D02*
X26140580Y-45010000D01*
%TO.C,Y1*%
X17290000Y-40060000D02*
X20710000Y-40060000D01*
X20710000Y-40060000D02*
X20710000Y-35940000D01*
%TO.C,R9*%
X37762742Y-18477500D02*
X38237258Y-18477500D01*
X37762742Y-19522500D02*
X38237258Y-19522500D01*
%TO.C,J4*%
X22620000Y-13380000D02*
X22620000Y-12000000D01*
X24000000Y-13380000D02*
X22620000Y-13380000D01*
X25270000Y-10620000D02*
X35540000Y-10620000D01*
X25270000Y-13380000D02*
X25270000Y-10620000D01*
X25270000Y-13380000D02*
X35540000Y-13380000D01*
X35540000Y-13380000D02*
X35540000Y-10620000D01*
%TO.C,C14*%
X18859420Y-50990000D02*
X19140580Y-50990000D01*
X18859420Y-52010000D02*
X19140580Y-52010000D01*
%TO.C,C11*%
X18859420Y-33490000D02*
X19140580Y-33490000D01*
X18859420Y-34510000D02*
X19140580Y-34510000D01*
%TO.C,D2*%
X41515000Y-18265000D02*
X41515000Y-19735000D01*
X41515000Y-19735000D02*
X43800000Y-19735000D01*
X43800000Y-18265000D02*
X41515000Y-18265000D01*
%TO.C,Y2*%
X18125000Y-46175000D02*
X18125000Y-44825000D01*
X19875000Y-46175000D02*
X19875000Y-44825000D01*
%TO.C,C12*%
X18859420Y-40990000D02*
X19140580Y-40990000D01*
X18859420Y-42010000D02*
X19140580Y-42010000D01*
%TO.C,C13*%
X18859420Y-48490000D02*
X19140580Y-48490000D01*
X18859420Y-49510000D02*
X19140580Y-49510000D01*
%TO.C,C8*%
X33859420Y-45990000D02*
X34140580Y-45990000D01*
X33859420Y-47010000D02*
X34140580Y-47010000D01*
%TO.C,J1*%
X25300000Y-75100000D02*
X25300000Y-77100000D01*
X25300000Y-79000000D02*
X25300000Y-80900000D01*
X25300000Y-80900000D02*
X34700000Y-80900000D01*
X34700000Y-75100000D02*
X34700000Y-77100000D01*
X34700000Y-79000000D02*
X34700000Y-80900000D01*
%TO.C,D1*%
X41515000Y-15265000D02*
X41515000Y-16735000D01*
X41515000Y-16735000D02*
X43800000Y-16735000D01*
X43800000Y-15265000D02*
X41515000Y-15265000D01*
%TO.C,C7*%
X29859420Y-43990000D02*
X30140580Y-43990000D01*
X29859420Y-45010000D02*
X30140580Y-45010000D01*
%TO.C,J2*%
X6620000Y-52730000D02*
X6620000Y-4360000D01*
X9380000Y-4360000D02*
X6620000Y-4360000D01*
X9380000Y-52730000D02*
X6620000Y-52730000D01*
X9380000Y-52730000D02*
X9380000Y-4360000D01*
X9380000Y-54000000D02*
X9380000Y-55380000D01*
X9380000Y-55380000D02*
X8000000Y-55380000D01*
%TO.C,C5*%
X29859420Y-30990000D02*
X30140580Y-30990000D01*
X29859420Y-32010000D02*
X30140580Y-32010000D01*
%TO.C,C6*%
X36490000Y-38140580D02*
X36490000Y-37859420D01*
X37510000Y-38140580D02*
X37510000Y-37859420D01*
%TO.C,R4*%
X35477500Y-68237258D02*
X35477500Y-67762742D01*
X36522500Y-68237258D02*
X36522500Y-67762742D01*
%TO.C,FB1*%
X29837221Y-45990000D02*
X30162779Y-45990000D01*
X29837221Y-47010000D02*
X30162779Y-47010000D01*
%TO.C,C1*%
X19738748Y-67265000D02*
X20261252Y-67265000D01*
X19738748Y-68735000D02*
X20261252Y-68735000D01*
%TO.C,R3*%
X23477500Y-68237258D02*
X23477500Y-67762742D01*
X24522500Y-68237258D02*
X24522500Y-67762742D01*
%TO.C,R8*%
X37762742Y-15477500D02*
X38237258Y-15477500D01*
X37762742Y-16522500D02*
X38237258Y-16522500D01*
%TO.C,C3*%
X17859420Y-59490000D02*
X18140580Y-59490000D01*
X17859420Y-60510000D02*
X18140580Y-60510000D01*
%TO.C,C9*%
X25859420Y-45990000D02*
X26140580Y-45990000D01*
X25859420Y-47010000D02*
X26140580Y-47010000D01*
%TO.C,R2*%
X37477500Y-71737258D02*
X37477500Y-71262742D01*
X38522500Y-71737258D02*
X38522500Y-71262742D01*
%TO.C,R10*%
X14977500Y-38237258D02*
X14977500Y-37762742D01*
X16022500Y-38237258D02*
X16022500Y-37762742D01*
%TO.C,SW2*%
X15250000Y-25000000D02*
X15250000Y-27000000D01*
X16300000Y-23700000D02*
X16750000Y-23250000D01*
X16300000Y-28300000D02*
X16750000Y-28750000D01*
X16750000Y-23250000D02*
X19250000Y-23250000D01*
X16750000Y-28750000D02*
X19250000Y-28750000D01*
X19700000Y-23700000D02*
X19250000Y-23250000D01*
X19700000Y-28300000D02*
X19250000Y-28750000D01*
X20750000Y-25000000D02*
X20750000Y-27000000D01*
%TO.C,R7*%
X21762742Y-29477500D02*
X22237258Y-29477500D01*
X21762742Y-30522500D02*
X22237258Y-30522500D01*
%TO.C,J3*%
X50620000Y-52730000D02*
X50620000Y-4360000D01*
X53380000Y-4360000D02*
X50620000Y-4360000D01*
X53380000Y-52730000D02*
X50620000Y-52730000D01*
X53380000Y-52730000D02*
X53380000Y-4360000D01*
X53380000Y-54000000D02*
X53380000Y-55380000D01*
X53380000Y-55380000D02*
X52000000Y-55380000D01*
%TD*%
%LPC*%
D15*
%TO.C,R5*%
X37175000Y-53000000D03*
X38825000Y-53000000D03*
%TD*%
D16*
%TO.C,R1*%
X22000000Y-72325000D03*
X22000000Y-70675000D03*
%TD*%
D15*
%TO.C,R6*%
X41675000Y-53000000D03*
X43325000Y-53000000D03*
%TD*%
D17*
%TO.C,SW1*%
X14850000Y-16100000D03*
X21150000Y-16100000D03*
X14850000Y-19900000D03*
X21150000Y-19900000D03*
%TD*%
D18*
%TO.C,U2*%
X13050000Y-64137500D03*
X14000000Y-64137500D03*
X14950000Y-64137500D03*
X14950000Y-61862500D03*
X13050000Y-61862500D03*
%TD*%
D19*
%TO.C,U1*%
X25837500Y-35250000D03*
X25837500Y-35750000D03*
X25837500Y-36250000D03*
X25837500Y-36750000D03*
X25837500Y-37250000D03*
X25837500Y-37750000D03*
X25837500Y-38250000D03*
X25837500Y-38750000D03*
X25837500Y-39250000D03*
X25837500Y-39750000D03*
X25837500Y-40250000D03*
X25837500Y-40750000D03*
D20*
X27250000Y-42162500D03*
X27750000Y-42162500D03*
X28250000Y-42162500D03*
X28750000Y-42162500D03*
X29250000Y-42162500D03*
X29750000Y-42162500D03*
X30250000Y-42162500D03*
X30750000Y-42162500D03*
X31250000Y-42162500D03*
X31750000Y-42162500D03*
X32250000Y-42162500D03*
X32750000Y-42162500D03*
D19*
X34162500Y-40750000D03*
X34162500Y-40250000D03*
X34162500Y-39750000D03*
X34162500Y-39250000D03*
X34162500Y-38750000D03*
X34162500Y-38250000D03*
X34162500Y-37750000D03*
X34162500Y-37250000D03*
X34162500Y-36750000D03*
X34162500Y-36250000D03*
X34162500Y-35750000D03*
X34162500Y-35250000D03*
D20*
X32750000Y-33837500D03*
X32250000Y-33837500D03*
X31750000Y-33837500D03*
X31250000Y-33837500D03*
X30750000Y-33837500D03*
X30250000Y-33837500D03*
X29750000Y-33837500D03*
X29250000Y-33837500D03*
X28750000Y-33837500D03*
X28250000Y-33837500D03*
X27750000Y-33837500D03*
X27250000Y-33837500D03*
%TD*%
D21*
%TO.C,C2*%
X9225000Y-68000000D03*
X10775000Y-68000000D03*
%TD*%
%TO.C,C15*%
X37225000Y-50000000D03*
X38775000Y-50000000D03*
%TD*%
D22*
%TO.C,C4*%
X21550000Y-60000000D03*
X23450000Y-60000000D03*
%TD*%
D23*
%TO.C,H2*%
X40000000Y-4000000D03*
%TD*%
D21*
%TO.C,C10*%
X25225000Y-44500000D03*
X26775000Y-44500000D03*
%TD*%
D24*
%TO.C,Y1*%
X19850000Y-39100000D03*
X19850000Y-36900000D03*
X18150000Y-36900000D03*
X18150000Y-39100000D03*
%TD*%
D15*
%TO.C,R9*%
X37175000Y-19000000D03*
X38825000Y-19000000D03*
%TD*%
D25*
%TO.C,J4*%
X24000000Y-12000000D03*
D26*
X26540000Y-12000000D03*
X29080000Y-12000000D03*
X31620000Y-12000000D03*
X34160000Y-12000000D03*
%TD*%
D21*
%TO.C,C14*%
X18225000Y-51500000D03*
X19775000Y-51500000D03*
%TD*%
%TO.C,C11*%
X18225000Y-34000000D03*
X19775000Y-34000000D03*
%TD*%
D27*
%TO.C,D2*%
X42212500Y-19000000D03*
X43787500Y-19000000D03*
%TD*%
D23*
%TO.C,H3*%
X12000000Y-76000000D03*
%TD*%
D28*
%TO.C,Y2*%
X19000000Y-44250000D03*
X19000000Y-46750000D03*
%TD*%
D21*
%TO.C,C12*%
X18225000Y-41500000D03*
X19775000Y-41500000D03*
%TD*%
%TO.C,C13*%
X18225000Y-49000000D03*
X19775000Y-49000000D03*
%TD*%
%TO.C,C8*%
X33225000Y-46500000D03*
X34775000Y-46500000D03*
%TD*%
D29*
%TO.C,J1*%
X27110000Y-74400000D03*
X32890000Y-74400000D03*
D30*
X26750000Y-72955000D03*
X27550000Y-72955000D03*
D31*
X28750000Y-72955000D03*
X29750000Y-72955000D03*
X30250000Y-72955000D03*
X31250000Y-72955000D03*
D30*
X32450000Y-72955000D03*
X33250000Y-72955000D03*
X33250000Y-72955000D03*
X32450000Y-72955000D03*
D31*
X31750000Y-72955000D03*
X30750000Y-72955000D03*
X29250000Y-72955000D03*
X28250000Y-72955000D03*
D30*
X27550000Y-72955000D03*
X26750000Y-72955000D03*
D32*
X25680000Y-73870000D03*
D33*
X25680000Y-78050000D03*
D32*
X34320000Y-73870000D03*
D33*
X34320000Y-78050000D03*
%TD*%
D27*
%TO.C,D1*%
X42212500Y-16000000D03*
X43787500Y-16000000D03*
%TD*%
D21*
%TO.C,C7*%
X29225000Y-44500000D03*
X30775000Y-44500000D03*
%TD*%
D25*
%TO.C,J2*%
X8000000Y-54000000D03*
D26*
X8000000Y-51460000D03*
X8000000Y-48920000D03*
X8000000Y-46380000D03*
X8000000Y-43840000D03*
X8000000Y-41300000D03*
X8000000Y-38760000D03*
X8000000Y-36220000D03*
X8000000Y-33680000D03*
X8000000Y-31140000D03*
X8000000Y-28600000D03*
X8000000Y-26060000D03*
X8000000Y-23520000D03*
X8000000Y-20980000D03*
X8000000Y-18440000D03*
X8000000Y-15900000D03*
X8000000Y-13360000D03*
X8000000Y-10820000D03*
X8000000Y-8280000D03*
X8000000Y-5740000D03*
%TD*%
D21*
%TO.C,C5*%
X29225000Y-31500000D03*
X30775000Y-31500000D03*
%TD*%
D34*
%TO.C,C6*%
X37000000Y-38775000D03*
X37000000Y-37225000D03*
%TD*%
D16*
%TO.C,R4*%
X36000000Y-68825000D03*
X36000000Y-67175000D03*
%TD*%
D27*
%TO.C,FB1*%
X29212500Y-46500000D03*
X30787500Y-46500000D03*
%TD*%
D22*
%TO.C,C1*%
X19050000Y-68000000D03*
X20950000Y-68000000D03*
%TD*%
D23*
%TO.C,H1*%
X20000000Y-4000000D03*
%TD*%
%TO.C,H4*%
X48000000Y-76000000D03*
%TD*%
D16*
%TO.C,R3*%
X24000000Y-68825000D03*
X24000000Y-67175000D03*
%TD*%
D15*
%TO.C,R8*%
X37175000Y-16000000D03*
X38825000Y-16000000D03*
%TD*%
D21*
%TO.C,C3*%
X17225000Y-60000000D03*
X18775000Y-60000000D03*
%TD*%
%TO.C,C9*%
X25225000Y-46500000D03*
X26775000Y-46500000D03*
%TD*%
D16*
%TO.C,R2*%
X38000000Y-72325000D03*
X38000000Y-70675000D03*
%TD*%
%TO.C,R10*%
X15500000Y-38825000D03*
X15500000Y-37175000D03*
%TD*%
D17*
%TO.C,SW2*%
X14850000Y-24100000D03*
X21150000Y-24100000D03*
X14850000Y-27900000D03*
X21150000Y-27900000D03*
%TD*%
D15*
%TO.C,R7*%
X21175000Y-30000000D03*
X22825000Y-30000000D03*
%TD*%
D25*
%TO.C,J3*%
X52000000Y-54000000D03*
D26*
X52000000Y-51460000D03*
X52000000Y-48920000D03*
X52000000Y-46380000D03*
X52000000Y-43840000D03*
X52000000Y-41300000D03*
X52000000Y-38760000D03*
X52000000Y-36220000D03*
X52000000Y-33680000D03*
X52000000Y-31140000D03*
X52000000Y-28600000D03*
X52000000Y-26060000D03*
X52000000Y-23520000D03*
X52000000Y-20980000D03*
X52000000Y-18440000D03*
X52000000Y-15900000D03*
X52000000Y-13360000D03*
X52000000Y-10820000D03*
X52000000Y-8280000D03*
X52000000Y-5740000D03*
%TD*%
%LPD*%
M02*
