M48
; DRILL file KiCad 10.0.3 date 2026-09-07T16:49:23
; FORMAT={-:-/ absolute / metric / decimal}
; #@! TF.CreationDate,2026-09-07T16:49:23-07:00
; #@! TF.GenerationSoftware,Kicad,Pcbnew,10.0.3
; #@! TF.FileFunction,Plated,1,2,PTH
FMAT,2
METRIC
; #@! TA.AperFunction,Plated,PTH,ComponentDrill
T1C0.600
; #@! TA.AperFunction,Plated,PTH,ComponentDrill
T2C1.000
%
G90
G05
T2
X8.0Y-5.74
X8.0Y-8.28
X8.0Y-10.82
X8.0Y-13.36
X8.0Y-15.9
X8.0Y-18.44
X8.0Y-20.98
X8.0Y-23.52
X8.0Y-26.06
X8.0Y-28.6
X8.0Y-31.14
X8.0Y-33.68
X8.0Y-36.22
X8.0Y-38.76
X8.0Y-41.3
X8.0Y-43.84
X8.0Y-46.38
X8.0Y-48.92
X8.0Y-51.46
X8.0Y-54.0
X24.0Y-12.0
X26.54Y-12.0
X29.08Y-12.0
X31.62Y-12.0
X34.16Y-12.0
X52.0Y-5.74
X52.0Y-8.28
X52.0Y-10.82
X52.0Y-13.36
X52.0Y-15.9
X52.0Y-18.44
X52.0Y-20.98
X52.0Y-23.52
X52.0Y-26.06
X52.0Y-28.6
X52.0Y-31.14
X52.0Y-33.68
X52.0Y-36.22
X52.0Y-38.76
X52.0Y-41.3
X52.0Y-43.84
X52.0Y-46.38
X52.0Y-48.92
X52.0Y-51.46
X52.0Y-54.0
T1
X25.68Y-73.32G85X25.68Y-74.42
G05
X25.68Y-77.75G85X25.68Y-78.35
G05
X34.32Y-73.32G85X34.32Y-74.42
G05
X34.32Y-77.75G85X34.32Y-78.35
G05
M30
