%TF.GenerationSoftware,KiCad,Pcbnew,10.0.3*%
%TF.CreationDate,2026-09-07T20:48:42-07:00*%
%TF.ProjectId,stm32breakout,73746d33-3262-4726-9561-6b6f75742e6b,rev?*%
%TF.SameCoordinates,Original*%
%TF.FileFunction,Legend,Top*%
%TF.FilePolarity,Positive*%
%FSLAX46Y46*%
G04 Gerber Fmt 4.6, Leading zero omitted, Abs format (unit mm)*
G04 Created by KiCad (PCBNEW 10.0.3) date 2026-09-07 20:48:42*
%MOMM*%
%LPD*%
G01*
G04 APERTURE LIST*
G04 Aperture macros list*
%AMRoundRect*
0 Rectangle with rounded corners*
0 $1 Rounding radius*
0 $2 $3 $4 $5 $6 $7 $8 $9 X,Y pos of 4 corners*
0 Add a 4 corners polygon primitive as box body*
4,1,4,$2,$3,$4,$5,$6,$7,$8,$9,$2,$3,0*
0 Add four circle primitives for the rounded corners*
1,1,$1+$1,$2,$3*
1,1,$1+$1,$4,$5*
1,1,$1+$1,$6,$7*
1,1,$1+$1,$8,$9*
0 Add four rect primitives between the rounded corners*
20,1,$1+$1,$2,$3,$4,$5,0*
20,1,$1+$1,$4,$5,$6,$7,0*
20,1,$1+$1,$6,$7,$8,$9,0*
20,1,$1+$1,$8,$9,$2,$3,0*%
G04 Aperture macros list end*
%ADD10C,0.120000*%
%ADD11C,0.150000*%
%ADD12C,0.180000*%
%ADD13RoundRect,0.225000X-0.225000X-0.250000X0.225000X-0.250000X0.225000X0.250000X-0.225000X0.250000X0*%
%ADD14C,2.700000*%
%ADD15RoundRect,0.218750X-0.218750X-0.256250X0.218750X-0.256250X0.218750X0.256250X-0.218750X0.256250X0*%
%ADD16RoundRect,0.250000X0.350000X-0.450000X0.350000X0.450000X-0.350000X0.450000X-0.350000X-0.450000X0*%
%ADD17RoundRect,0.225000X0.250000X-0.225000X0.250000X0.225000X-0.250000X0.225000X-0.250000X-0.225000X0*%
%ADD18RoundRect,0.250000X-0.250000X-0.475000X0.250000X-0.475000X0.250000X0.475000X-0.250000X0.475000X0*%
%ADD19RoundRect,0.200000X-0.200000X-0.275000X0.200000X-0.275000X0.200000X0.275000X-0.200000X0.275000X0*%
%ADD20RoundRect,0.225000X0.225000X0.250000X-0.225000X0.250000X-0.225000X-0.250000X0.225000X-0.250000X0*%
%ADD21RoundRect,0.200000X0.275000X-0.200000X0.275000X0.200000X-0.275000X0.200000X-0.275000X-0.200000X0*%
%ADD22R,1.700000X1.700000*%
%ADD23C,1.700000*%
%ADD24RoundRect,0.218750X0.218750X0.256250X-0.218750X0.256250X-0.218750X-0.256250X0.218750X-0.256250X0*%
%ADD25RoundRect,0.150000X0.150000X-0.512500X0.150000X0.512500X-0.150000X0.512500X-0.150000X-0.512500X0*%
%ADD26C,0.650000*%
%ADD27RoundRect,0.150000X-0.150000X-0.575000X0.150000X-0.575000X0.150000X0.575000X-0.150000X0.575000X0*%
%ADD28RoundRect,0.075000X-0.075000X-0.650000X0.075000X-0.650000X0.075000X0.650000X-0.075000X0.650000X0*%
%ADD29O,1.000000X2.100000*%
%ADD30O,1.000000X1.600000*%
%ADD31R,1.700000X1.000000*%
%ADD32RoundRect,0.075000X-0.662500X-0.075000X0.662500X-0.075000X0.662500X0.075000X-0.662500X0.075000X0*%
%ADD33RoundRect,0.075000X-0.075000X-0.662500X0.075000X-0.662500X0.075000X0.662500X-0.075000X0.662500X0*%
%ADD34R,1.800000X1.000000*%
G04 APERTURE END LIST*
D10*
X10028571Y-20103855D02*
X10028571Y-19303855D01*
X10028571Y-19303855D02*
X10333333Y-19303855D01*
X10333333Y-19303855D02*
X10409523Y-19341950D01*
X10409523Y-19341950D02*
X10447618Y-19380045D01*
X10447618Y-19380045D02*
X10485714Y-19456236D01*
X10485714Y-19456236D02*
X10485714Y-19570521D01*
X10485714Y-19570521D02*
X10447618Y-19646712D01*
X10447618Y-19646712D02*
X10409523Y-19684807D01*
X10409523Y-19684807D02*
X10333333Y-19722902D01*
X10333333Y-19722902D02*
X10028571Y-19722902D01*
X11285714Y-20027664D02*
X11247618Y-20065760D01*
X11247618Y-20065760D02*
X11133333Y-20103855D01*
X11133333Y-20103855D02*
X11057142Y-20103855D01*
X11057142Y-20103855D02*
X10942856Y-20065760D01*
X10942856Y-20065760D02*
X10866666Y-19989569D01*
X10866666Y-19989569D02*
X10828571Y-19913379D01*
X10828571Y-19913379D02*
X10790475Y-19760998D01*
X10790475Y-19760998D02*
X10790475Y-19646712D01*
X10790475Y-19646712D02*
X10828571Y-19494331D01*
X10828571Y-19494331D02*
X10866666Y-19418140D01*
X10866666Y-19418140D02*
X10942856Y-19341950D01*
X10942856Y-19341950D02*
X11057142Y-19303855D01*
X11057142Y-19303855D02*
X11133333Y-19303855D01*
X11133333Y-19303855D02*
X11247618Y-19341950D01*
X11247618Y-19341950D02*
X11285714Y-19380045D01*
X12047618Y-20103855D02*
X11590475Y-20103855D01*
X11819047Y-20103855D02*
X11819047Y-19303855D01*
X11819047Y-19303855D02*
X11742856Y-19418140D01*
X11742856Y-19418140D02*
X11666666Y-19494331D01*
X11666666Y-19494331D02*
X11590475Y-19532426D01*
X12771428Y-19303855D02*
X12390476Y-19303855D01*
X12390476Y-19303855D02*
X12352380Y-19684807D01*
X12352380Y-19684807D02*
X12390476Y-19646712D01*
X12390476Y-19646712D02*
X12466666Y-19608617D01*
X12466666Y-19608617D02*
X12657142Y-19608617D01*
X12657142Y-19608617D02*
X12733333Y-19646712D01*
X12733333Y-19646712D02*
X12771428Y-19684807D01*
X12771428Y-19684807D02*
X12809523Y-19760998D01*
X12809523Y-19760998D02*
X12809523Y-19951474D01*
X12809523Y-19951474D02*
X12771428Y-20027664D01*
X12771428Y-20027664D02*
X12733333Y-20065760D01*
X12733333Y-20065760D02*
X12657142Y-20103855D01*
X12657142Y-20103855D02*
X12466666Y-20103855D01*
X12466666Y-20103855D02*
X12390476Y-20065760D01*
X12390476Y-20065760D02*
X12352380Y-20027664D01*
X10028571Y-22643855D02*
X10028571Y-21843855D01*
X10028571Y-21843855D02*
X10333333Y-21843855D01*
X10333333Y-21843855D02*
X10409523Y-21881950D01*
X10409523Y-21881950D02*
X10447618Y-21920045D01*
X10447618Y-21920045D02*
X10485714Y-21996236D01*
X10485714Y-21996236D02*
X10485714Y-22110521D01*
X10485714Y-22110521D02*
X10447618Y-22186712D01*
X10447618Y-22186712D02*
X10409523Y-22224807D01*
X10409523Y-22224807D02*
X10333333Y-22262902D01*
X10333333Y-22262902D02*
X10028571Y-22262902D01*
X11285714Y-22567664D02*
X11247618Y-22605760D01*
X11247618Y-22605760D02*
X11133333Y-22643855D01*
X11133333Y-22643855D02*
X11057142Y-22643855D01*
X11057142Y-22643855D02*
X10942856Y-22605760D01*
X10942856Y-22605760D02*
X10866666Y-22529569D01*
X10866666Y-22529569D02*
X10828571Y-22453379D01*
X10828571Y-22453379D02*
X10790475Y-22300998D01*
X10790475Y-22300998D02*
X10790475Y-22186712D01*
X10790475Y-22186712D02*
X10828571Y-22034331D01*
X10828571Y-22034331D02*
X10866666Y-21958140D01*
X10866666Y-21958140D02*
X10942856Y-21881950D01*
X10942856Y-21881950D02*
X11057142Y-21843855D01*
X11057142Y-21843855D02*
X11133333Y-21843855D01*
X11133333Y-21843855D02*
X11247618Y-21881950D01*
X11247618Y-21881950D02*
X11285714Y-21920045D01*
X12047618Y-22643855D02*
X11590475Y-22643855D01*
X11819047Y-22643855D02*
X11819047Y-21843855D01*
X11819047Y-21843855D02*
X11742856Y-21958140D01*
X11742856Y-21958140D02*
X11666666Y-22034331D01*
X11666666Y-22034331D02*
X11590475Y-22072426D01*
X12733333Y-22110521D02*
X12733333Y-22643855D01*
X12542857Y-21805760D02*
X12352380Y-22377188D01*
X12352380Y-22377188D02*
X12847619Y-22377188D01*
X10028571Y-25183855D02*
X10028571Y-24383855D01*
X10028571Y-24383855D02*
X10333333Y-24383855D01*
X10333333Y-24383855D02*
X10409523Y-24421950D01*
X10409523Y-24421950D02*
X10447618Y-24460045D01*
X10447618Y-24460045D02*
X10485714Y-24536236D01*
X10485714Y-24536236D02*
X10485714Y-24650521D01*
X10485714Y-24650521D02*
X10447618Y-24726712D01*
X10447618Y-24726712D02*
X10409523Y-24764807D01*
X10409523Y-24764807D02*
X10333333Y-24802902D01*
X10333333Y-24802902D02*
X10028571Y-24802902D01*
X11285714Y-25107664D02*
X11247618Y-25145760D01*
X11247618Y-25145760D02*
X11133333Y-25183855D01*
X11133333Y-25183855D02*
X11057142Y-25183855D01*
X11057142Y-25183855D02*
X10942856Y-25145760D01*
X10942856Y-25145760D02*
X10866666Y-25069569D01*
X10866666Y-25069569D02*
X10828571Y-24993379D01*
X10828571Y-24993379D02*
X10790475Y-24840998D01*
X10790475Y-24840998D02*
X10790475Y-24726712D01*
X10790475Y-24726712D02*
X10828571Y-24574331D01*
X10828571Y-24574331D02*
X10866666Y-24498140D01*
X10866666Y-24498140D02*
X10942856Y-24421950D01*
X10942856Y-24421950D02*
X11057142Y-24383855D01*
X11057142Y-24383855D02*
X11133333Y-24383855D01*
X11133333Y-24383855D02*
X11247618Y-24421950D01*
X11247618Y-24421950D02*
X11285714Y-24460045D01*
X12047618Y-25183855D02*
X11590475Y-25183855D01*
X11819047Y-25183855D02*
X11819047Y-24383855D01*
X11819047Y-24383855D02*
X11742856Y-24498140D01*
X11742856Y-24498140D02*
X11666666Y-24574331D01*
X11666666Y-24574331D02*
X11590475Y-24612426D01*
X12314285Y-24383855D02*
X12809523Y-24383855D01*
X12809523Y-24383855D02*
X12542857Y-24688617D01*
X12542857Y-24688617D02*
X12657142Y-24688617D01*
X12657142Y-24688617D02*
X12733333Y-24726712D01*
X12733333Y-24726712D02*
X12771428Y-24764807D01*
X12771428Y-24764807D02*
X12809523Y-24840998D01*
X12809523Y-24840998D02*
X12809523Y-25031474D01*
X12809523Y-25031474D02*
X12771428Y-25107664D01*
X12771428Y-25107664D02*
X12733333Y-25145760D01*
X12733333Y-25145760D02*
X12657142Y-25183855D01*
X12657142Y-25183855D02*
X12428571Y-25183855D01*
X12428571Y-25183855D02*
X12352380Y-25145760D01*
X12352380Y-25145760D02*
X12314285Y-25107664D01*
X10028571Y-27723855D02*
X10028571Y-26923855D01*
X10028571Y-26923855D02*
X10333333Y-26923855D01*
X10333333Y-26923855D02*
X10409523Y-26961950D01*
X10409523Y-26961950D02*
X10447618Y-27000045D01*
X10447618Y-27000045D02*
X10485714Y-27076236D01*
X10485714Y-27076236D02*
X10485714Y-27190521D01*
X10485714Y-27190521D02*
X10447618Y-27266712D01*
X10447618Y-27266712D02*
X10409523Y-27304807D01*
X10409523Y-27304807D02*
X10333333Y-27342902D01*
X10333333Y-27342902D02*
X10028571Y-27342902D01*
X11095237Y-27304807D02*
X11209523Y-27342902D01*
X11209523Y-27342902D02*
X11247618Y-27380998D01*
X11247618Y-27380998D02*
X11285714Y-27457188D01*
X11285714Y-27457188D02*
X11285714Y-27571474D01*
X11285714Y-27571474D02*
X11247618Y-27647664D01*
X11247618Y-27647664D02*
X11209523Y-27685760D01*
X11209523Y-27685760D02*
X11133333Y-27723855D01*
X11133333Y-27723855D02*
X10828571Y-27723855D01*
X10828571Y-27723855D02*
X10828571Y-26923855D01*
X10828571Y-26923855D02*
X11095237Y-26923855D01*
X11095237Y-26923855D02*
X11171428Y-26961950D01*
X11171428Y-26961950D02*
X11209523Y-27000045D01*
X11209523Y-27000045D02*
X11247618Y-27076236D01*
X11247618Y-27076236D02*
X11247618Y-27152426D01*
X11247618Y-27152426D02*
X11209523Y-27228617D01*
X11209523Y-27228617D02*
X11171428Y-27266712D01*
X11171428Y-27266712D02*
X11095237Y-27304807D01*
X11095237Y-27304807D02*
X10828571Y-27304807D01*
X12047618Y-27723855D02*
X11590475Y-27723855D01*
X11819047Y-27723855D02*
X11819047Y-26923855D01*
X11819047Y-26923855D02*
X11742856Y-27038140D01*
X11742856Y-27038140D02*
X11666666Y-27114331D01*
X11666666Y-27114331D02*
X11590475Y-27152426D01*
X12809523Y-27723855D02*
X12352380Y-27723855D01*
X12580952Y-27723855D02*
X12580952Y-26923855D01*
X12580952Y-26923855D02*
X12504761Y-27038140D01*
X12504761Y-27038140D02*
X12428571Y-27114331D01*
X12428571Y-27114331D02*
X12352380Y-27152426D01*
X10028571Y-30263855D02*
X10028571Y-29463855D01*
X10028571Y-29463855D02*
X10333333Y-29463855D01*
X10333333Y-29463855D02*
X10409523Y-29501950D01*
X10409523Y-29501950D02*
X10447618Y-29540045D01*
X10447618Y-29540045D02*
X10485714Y-29616236D01*
X10485714Y-29616236D02*
X10485714Y-29730521D01*
X10485714Y-29730521D02*
X10447618Y-29806712D01*
X10447618Y-29806712D02*
X10409523Y-29844807D01*
X10409523Y-29844807D02*
X10333333Y-29882902D01*
X10333333Y-29882902D02*
X10028571Y-29882902D01*
X11095237Y-29844807D02*
X11209523Y-29882902D01*
X11209523Y-29882902D02*
X11247618Y-29920998D01*
X11247618Y-29920998D02*
X11285714Y-29997188D01*
X11285714Y-29997188D02*
X11285714Y-30111474D01*
X11285714Y-30111474D02*
X11247618Y-30187664D01*
X11247618Y-30187664D02*
X11209523Y-30225760D01*
X11209523Y-30225760D02*
X11133333Y-30263855D01*
X11133333Y-30263855D02*
X10828571Y-30263855D01*
X10828571Y-30263855D02*
X10828571Y-29463855D01*
X10828571Y-29463855D02*
X11095237Y-29463855D01*
X11095237Y-29463855D02*
X11171428Y-29501950D01*
X11171428Y-29501950D02*
X11209523Y-29540045D01*
X11209523Y-29540045D02*
X11247618Y-29616236D01*
X11247618Y-29616236D02*
X11247618Y-29692426D01*
X11247618Y-29692426D02*
X11209523Y-29768617D01*
X11209523Y-29768617D02*
X11171428Y-29806712D01*
X11171428Y-29806712D02*
X11095237Y-29844807D01*
X11095237Y-29844807D02*
X10828571Y-29844807D01*
X12047618Y-30263855D02*
X11590475Y-30263855D01*
X11819047Y-30263855D02*
X11819047Y-29463855D01*
X11819047Y-29463855D02*
X11742856Y-29578140D01*
X11742856Y-29578140D02*
X11666666Y-29654331D01*
X11666666Y-29654331D02*
X11590475Y-29692426D01*
X12542857Y-29463855D02*
X12619047Y-29463855D01*
X12619047Y-29463855D02*
X12695238Y-29501950D01*
X12695238Y-29501950D02*
X12733333Y-29540045D01*
X12733333Y-29540045D02*
X12771428Y-29616236D01*
X12771428Y-29616236D02*
X12809523Y-29768617D01*
X12809523Y-29768617D02*
X12809523Y-29959093D01*
X12809523Y-29959093D02*
X12771428Y-30111474D01*
X12771428Y-30111474D02*
X12733333Y-30187664D01*
X12733333Y-30187664D02*
X12695238Y-30225760D01*
X12695238Y-30225760D02*
X12619047Y-30263855D01*
X12619047Y-30263855D02*
X12542857Y-30263855D01*
X12542857Y-30263855D02*
X12466666Y-30225760D01*
X12466666Y-30225760D02*
X12428571Y-30187664D01*
X12428571Y-30187664D02*
X12390476Y-30111474D01*
X12390476Y-30111474D02*
X12352380Y-29959093D01*
X12352380Y-29959093D02*
X12352380Y-29768617D01*
X12352380Y-29768617D02*
X12390476Y-29616236D01*
X12390476Y-29616236D02*
X12428571Y-29540045D01*
X12428571Y-29540045D02*
X12466666Y-29501950D01*
X12466666Y-29501950D02*
X12542857Y-29463855D01*
X10409524Y-32803854D02*
X10409524Y-32003854D01*
X10409524Y-32003854D02*
X10714286Y-32003854D01*
X10714286Y-32003854D02*
X10790476Y-32041949D01*
X10790476Y-32041949D02*
X10828571Y-32080044D01*
X10828571Y-32080044D02*
X10866667Y-32156235D01*
X10866667Y-32156235D02*
X10866667Y-32270520D01*
X10866667Y-32270520D02*
X10828571Y-32346711D01*
X10828571Y-32346711D02*
X10790476Y-32384806D01*
X10790476Y-32384806D02*
X10714286Y-32422901D01*
X10714286Y-32422901D02*
X10409524Y-32422901D01*
X11476190Y-32384806D02*
X11590476Y-32422901D01*
X11590476Y-32422901D02*
X11628571Y-32460997D01*
X11628571Y-32460997D02*
X11666667Y-32537187D01*
X11666667Y-32537187D02*
X11666667Y-32651473D01*
X11666667Y-32651473D02*
X11628571Y-32727663D01*
X11628571Y-32727663D02*
X11590476Y-32765759D01*
X11590476Y-32765759D02*
X11514286Y-32803854D01*
X11514286Y-32803854D02*
X11209524Y-32803854D01*
X11209524Y-32803854D02*
X11209524Y-32003854D01*
X11209524Y-32003854D02*
X11476190Y-32003854D01*
X11476190Y-32003854D02*
X11552381Y-32041949D01*
X11552381Y-32041949D02*
X11590476Y-32080044D01*
X11590476Y-32080044D02*
X11628571Y-32156235D01*
X11628571Y-32156235D02*
X11628571Y-32232425D01*
X11628571Y-32232425D02*
X11590476Y-32308616D01*
X11590476Y-32308616D02*
X11552381Y-32346711D01*
X11552381Y-32346711D02*
X11476190Y-32384806D01*
X11476190Y-32384806D02*
X11209524Y-32384806D01*
X11971428Y-32080044D02*
X12009524Y-32041949D01*
X12009524Y-32041949D02*
X12085714Y-32003854D01*
X12085714Y-32003854D02*
X12276190Y-32003854D01*
X12276190Y-32003854D02*
X12352381Y-32041949D01*
X12352381Y-32041949D02*
X12390476Y-32080044D01*
X12390476Y-32080044D02*
X12428571Y-32156235D01*
X12428571Y-32156235D02*
X12428571Y-32232425D01*
X12428571Y-32232425D02*
X12390476Y-32346711D01*
X12390476Y-32346711D02*
X11933333Y-32803854D01*
X11933333Y-32803854D02*
X12428571Y-32803854D01*
X10409524Y-35343855D02*
X10409524Y-34543855D01*
X10409524Y-34543855D02*
X10714286Y-34543855D01*
X10714286Y-34543855D02*
X10790476Y-34581950D01*
X10790476Y-34581950D02*
X10828571Y-34620045D01*
X10828571Y-34620045D02*
X10866667Y-34696236D01*
X10866667Y-34696236D02*
X10866667Y-34810521D01*
X10866667Y-34810521D02*
X10828571Y-34886712D01*
X10828571Y-34886712D02*
X10790476Y-34924807D01*
X10790476Y-34924807D02*
X10714286Y-34962902D01*
X10714286Y-34962902D02*
X10409524Y-34962902D01*
X11476190Y-34924807D02*
X11590476Y-34962902D01*
X11590476Y-34962902D02*
X11628571Y-35000998D01*
X11628571Y-35000998D02*
X11666667Y-35077188D01*
X11666667Y-35077188D02*
X11666667Y-35191474D01*
X11666667Y-35191474D02*
X11628571Y-35267664D01*
X11628571Y-35267664D02*
X11590476Y-35305760D01*
X11590476Y-35305760D02*
X11514286Y-35343855D01*
X11514286Y-35343855D02*
X11209524Y-35343855D01*
X11209524Y-35343855D02*
X11209524Y-34543855D01*
X11209524Y-34543855D02*
X11476190Y-34543855D01*
X11476190Y-34543855D02*
X11552381Y-34581950D01*
X11552381Y-34581950D02*
X11590476Y-34620045D01*
X11590476Y-34620045D02*
X11628571Y-34696236D01*
X11628571Y-34696236D02*
X11628571Y-34772426D01*
X11628571Y-34772426D02*
X11590476Y-34848617D01*
X11590476Y-34848617D02*
X11552381Y-34886712D01*
X11552381Y-34886712D02*
X11476190Y-34924807D01*
X11476190Y-34924807D02*
X11209524Y-34924807D01*
X12428571Y-35343855D02*
X11971428Y-35343855D01*
X12200000Y-35343855D02*
X12200000Y-34543855D01*
X12200000Y-34543855D02*
X12123809Y-34658140D01*
X12123809Y-34658140D02*
X12047619Y-34734331D01*
X12047619Y-34734331D02*
X11971428Y-34772426D01*
X10409524Y-37883855D02*
X10409524Y-37083855D01*
X10409524Y-37083855D02*
X10714286Y-37083855D01*
X10714286Y-37083855D02*
X10790476Y-37121950D01*
X10790476Y-37121950D02*
X10828571Y-37160045D01*
X10828571Y-37160045D02*
X10866667Y-37236236D01*
X10866667Y-37236236D02*
X10866667Y-37350521D01*
X10866667Y-37350521D02*
X10828571Y-37426712D01*
X10828571Y-37426712D02*
X10790476Y-37464807D01*
X10790476Y-37464807D02*
X10714286Y-37502902D01*
X10714286Y-37502902D02*
X10409524Y-37502902D01*
X11476190Y-37464807D02*
X11590476Y-37502902D01*
X11590476Y-37502902D02*
X11628571Y-37540998D01*
X11628571Y-37540998D02*
X11666667Y-37617188D01*
X11666667Y-37617188D02*
X11666667Y-37731474D01*
X11666667Y-37731474D02*
X11628571Y-37807664D01*
X11628571Y-37807664D02*
X11590476Y-37845760D01*
X11590476Y-37845760D02*
X11514286Y-37883855D01*
X11514286Y-37883855D02*
X11209524Y-37883855D01*
X11209524Y-37883855D02*
X11209524Y-37083855D01*
X11209524Y-37083855D02*
X11476190Y-37083855D01*
X11476190Y-37083855D02*
X11552381Y-37121950D01*
X11552381Y-37121950D02*
X11590476Y-37160045D01*
X11590476Y-37160045D02*
X11628571Y-37236236D01*
X11628571Y-37236236D02*
X11628571Y-37312426D01*
X11628571Y-37312426D02*
X11590476Y-37388617D01*
X11590476Y-37388617D02*
X11552381Y-37426712D01*
X11552381Y-37426712D02*
X11476190Y-37464807D01*
X11476190Y-37464807D02*
X11209524Y-37464807D01*
X12161905Y-37083855D02*
X12238095Y-37083855D01*
X12238095Y-37083855D02*
X12314286Y-37121950D01*
X12314286Y-37121950D02*
X12352381Y-37160045D01*
X12352381Y-37160045D02*
X12390476Y-37236236D01*
X12390476Y-37236236D02*
X12428571Y-37388617D01*
X12428571Y-37388617D02*
X12428571Y-37579093D01*
X12428571Y-37579093D02*
X12390476Y-37731474D01*
X12390476Y-37731474D02*
X12352381Y-37807664D01*
X12352381Y-37807664D02*
X12314286Y-37845760D01*
X12314286Y-37845760D02*
X12238095Y-37883855D01*
X12238095Y-37883855D02*
X12161905Y-37883855D01*
X12161905Y-37883855D02*
X12085714Y-37845760D01*
X12085714Y-37845760D02*
X12047619Y-37807664D01*
X12047619Y-37807664D02*
X12009524Y-37731474D01*
X12009524Y-37731474D02*
X11971428Y-37579093D01*
X11971428Y-37579093D02*
X11971428Y-37388617D01*
X11971428Y-37388617D02*
X12009524Y-37236236D01*
X12009524Y-37236236D02*
X12047619Y-37160045D01*
X12047619Y-37160045D02*
X12085714Y-37121950D01*
X12085714Y-37121950D02*
X12161905Y-37083855D01*
X10466667Y-40423855D02*
X10466667Y-39623855D01*
X10466667Y-39623855D02*
X10771429Y-39623855D01*
X10771429Y-39623855D02*
X10847619Y-39661950D01*
X10847619Y-39661950D02*
X10885714Y-39700045D01*
X10885714Y-39700045D02*
X10923810Y-39776236D01*
X10923810Y-39776236D02*
X10923810Y-39890521D01*
X10923810Y-39890521D02*
X10885714Y-39966712D01*
X10885714Y-39966712D02*
X10847619Y-40004807D01*
X10847619Y-40004807D02*
X10771429Y-40042902D01*
X10771429Y-40042902D02*
X10466667Y-40042902D01*
X11228571Y-40195283D02*
X11609524Y-40195283D01*
X11152381Y-40423855D02*
X11419048Y-39623855D01*
X11419048Y-39623855D02*
X11685714Y-40423855D01*
X11876190Y-39623855D02*
X12409524Y-39623855D01*
X12409524Y-39623855D02*
X12066666Y-40423855D01*
X10466667Y-42963855D02*
X10466667Y-42163855D01*
X10466667Y-42163855D02*
X10771429Y-42163855D01*
X10771429Y-42163855D02*
X10847619Y-42201950D01*
X10847619Y-42201950D02*
X10885714Y-42240045D01*
X10885714Y-42240045D02*
X10923810Y-42316236D01*
X10923810Y-42316236D02*
X10923810Y-42430521D01*
X10923810Y-42430521D02*
X10885714Y-42506712D01*
X10885714Y-42506712D02*
X10847619Y-42544807D01*
X10847619Y-42544807D02*
X10771429Y-42582902D01*
X10771429Y-42582902D02*
X10466667Y-42582902D01*
X11228571Y-42735283D02*
X11609524Y-42735283D01*
X11152381Y-42963855D02*
X11419048Y-42163855D01*
X11419048Y-42163855D02*
X11685714Y-42963855D01*
X12295238Y-42163855D02*
X12142857Y-42163855D01*
X12142857Y-42163855D02*
X12066666Y-42201950D01*
X12066666Y-42201950D02*
X12028571Y-42240045D01*
X12028571Y-42240045D02*
X11952381Y-42354331D01*
X11952381Y-42354331D02*
X11914285Y-42506712D01*
X11914285Y-42506712D02*
X11914285Y-42811474D01*
X11914285Y-42811474D02*
X11952381Y-42887664D01*
X11952381Y-42887664D02*
X11990476Y-42925760D01*
X11990476Y-42925760D02*
X12066666Y-42963855D01*
X12066666Y-42963855D02*
X12219047Y-42963855D01*
X12219047Y-42963855D02*
X12295238Y-42925760D01*
X12295238Y-42925760D02*
X12333333Y-42887664D01*
X12333333Y-42887664D02*
X12371428Y-42811474D01*
X12371428Y-42811474D02*
X12371428Y-42620998D01*
X12371428Y-42620998D02*
X12333333Y-42544807D01*
X12333333Y-42544807D02*
X12295238Y-42506712D01*
X12295238Y-42506712D02*
X12219047Y-42468617D01*
X12219047Y-42468617D02*
X12066666Y-42468617D01*
X12066666Y-42468617D02*
X11990476Y-42506712D01*
X11990476Y-42506712D02*
X11952381Y-42544807D01*
X11952381Y-42544807D02*
X11914285Y-42620998D01*
X10466667Y-45503855D02*
X10466667Y-44703855D01*
X10466667Y-44703855D02*
X10771429Y-44703855D01*
X10771429Y-44703855D02*
X10847619Y-44741950D01*
X10847619Y-44741950D02*
X10885714Y-44780045D01*
X10885714Y-44780045D02*
X10923810Y-44856236D01*
X10923810Y-44856236D02*
X10923810Y-44970521D01*
X10923810Y-44970521D02*
X10885714Y-45046712D01*
X10885714Y-45046712D02*
X10847619Y-45084807D01*
X10847619Y-45084807D02*
X10771429Y-45122902D01*
X10771429Y-45122902D02*
X10466667Y-45122902D01*
X11228571Y-45275283D02*
X11609524Y-45275283D01*
X11152381Y-45503855D02*
X11419048Y-44703855D01*
X11419048Y-44703855D02*
X11685714Y-45503855D01*
X12333333Y-44703855D02*
X11952381Y-44703855D01*
X11952381Y-44703855D02*
X11914285Y-45084807D01*
X11914285Y-45084807D02*
X11952381Y-45046712D01*
X11952381Y-45046712D02*
X12028571Y-45008617D01*
X12028571Y-45008617D02*
X12219047Y-45008617D01*
X12219047Y-45008617D02*
X12295238Y-45046712D01*
X12295238Y-45046712D02*
X12333333Y-45084807D01*
X12333333Y-45084807D02*
X12371428Y-45160998D01*
X12371428Y-45160998D02*
X12371428Y-45351474D01*
X12371428Y-45351474D02*
X12333333Y-45427664D01*
X12333333Y-45427664D02*
X12295238Y-45465760D01*
X12295238Y-45465760D02*
X12219047Y-45503855D01*
X12219047Y-45503855D02*
X12028571Y-45503855D01*
X12028571Y-45503855D02*
X11952381Y-45465760D01*
X11952381Y-45465760D02*
X11914285Y-45427664D01*
X10466667Y-48043855D02*
X10466667Y-47243855D01*
X10466667Y-47243855D02*
X10771429Y-47243855D01*
X10771429Y-47243855D02*
X10847619Y-47281950D01*
X10847619Y-47281950D02*
X10885714Y-47320045D01*
X10885714Y-47320045D02*
X10923810Y-47396236D01*
X10923810Y-47396236D02*
X10923810Y-47510521D01*
X10923810Y-47510521D02*
X10885714Y-47586712D01*
X10885714Y-47586712D02*
X10847619Y-47624807D01*
X10847619Y-47624807D02*
X10771429Y-47662902D01*
X10771429Y-47662902D02*
X10466667Y-47662902D01*
X11228571Y-47815283D02*
X11609524Y-47815283D01*
X11152381Y-48043855D02*
X11419048Y-47243855D01*
X11419048Y-47243855D02*
X11685714Y-48043855D01*
X12295238Y-47510521D02*
X12295238Y-48043855D01*
X12104762Y-47205760D02*
X11914285Y-47777188D01*
X11914285Y-47777188D02*
X12409524Y-47777188D01*
X10466667Y-50583855D02*
X10466667Y-49783855D01*
X10466667Y-49783855D02*
X10771429Y-49783855D01*
X10771429Y-49783855D02*
X10847619Y-49821950D01*
X10847619Y-49821950D02*
X10885714Y-49860045D01*
X10885714Y-49860045D02*
X10923810Y-49936236D01*
X10923810Y-49936236D02*
X10923810Y-50050521D01*
X10923810Y-50050521D02*
X10885714Y-50126712D01*
X10885714Y-50126712D02*
X10847619Y-50164807D01*
X10847619Y-50164807D02*
X10771429Y-50202902D01*
X10771429Y-50202902D02*
X10466667Y-50202902D01*
X11228571Y-50355283D02*
X11609524Y-50355283D01*
X11152381Y-50583855D02*
X11419048Y-49783855D01*
X11419048Y-49783855D02*
X11685714Y-50583855D01*
X11876190Y-49783855D02*
X12371428Y-49783855D01*
X12371428Y-49783855D02*
X12104762Y-50088617D01*
X12104762Y-50088617D02*
X12219047Y-50088617D01*
X12219047Y-50088617D02*
X12295238Y-50126712D01*
X12295238Y-50126712D02*
X12333333Y-50164807D01*
X12333333Y-50164807D02*
X12371428Y-50240998D01*
X12371428Y-50240998D02*
X12371428Y-50431474D01*
X12371428Y-50431474D02*
X12333333Y-50507664D01*
X12333333Y-50507664D02*
X12295238Y-50545760D01*
X12295238Y-50545760D02*
X12219047Y-50583855D01*
X12219047Y-50583855D02*
X11990476Y-50583855D01*
X11990476Y-50583855D02*
X11914285Y-50545760D01*
X11914285Y-50545760D02*
X11876190Y-50507664D01*
X10466667Y-53123855D02*
X10466667Y-52323855D01*
X10466667Y-52323855D02*
X10771429Y-52323855D01*
X10771429Y-52323855D02*
X10847619Y-52361950D01*
X10847619Y-52361950D02*
X10885714Y-52400045D01*
X10885714Y-52400045D02*
X10923810Y-52476236D01*
X10923810Y-52476236D02*
X10923810Y-52590521D01*
X10923810Y-52590521D02*
X10885714Y-52666712D01*
X10885714Y-52666712D02*
X10847619Y-52704807D01*
X10847619Y-52704807D02*
X10771429Y-52742902D01*
X10771429Y-52742902D02*
X10466667Y-52742902D01*
X11228571Y-52895283D02*
X11609524Y-52895283D01*
X11152381Y-53123855D02*
X11419048Y-52323855D01*
X11419048Y-52323855D02*
X11685714Y-53123855D01*
X11914285Y-52400045D02*
X11952381Y-52361950D01*
X11952381Y-52361950D02*
X12028571Y-52323855D01*
X12028571Y-52323855D02*
X12219047Y-52323855D01*
X12219047Y-52323855D02*
X12295238Y-52361950D01*
X12295238Y-52361950D02*
X12333333Y-52400045D01*
X12333333Y-52400045D02*
X12371428Y-52476236D01*
X12371428Y-52476236D02*
X12371428Y-52552426D01*
X12371428Y-52552426D02*
X12333333Y-52666712D01*
X12333333Y-52666712D02*
X11876190Y-53123855D01*
X11876190Y-53123855D02*
X12371428Y-53123855D01*
X10466667Y-55663855D02*
X10466667Y-54863855D01*
X10466667Y-54863855D02*
X10771429Y-54863855D01*
X10771429Y-54863855D02*
X10847619Y-54901950D01*
X10847619Y-54901950D02*
X10885714Y-54940045D01*
X10885714Y-54940045D02*
X10923810Y-55016236D01*
X10923810Y-55016236D02*
X10923810Y-55130521D01*
X10923810Y-55130521D02*
X10885714Y-55206712D01*
X10885714Y-55206712D02*
X10847619Y-55244807D01*
X10847619Y-55244807D02*
X10771429Y-55282902D01*
X10771429Y-55282902D02*
X10466667Y-55282902D01*
X11228571Y-55435283D02*
X11609524Y-55435283D01*
X11152381Y-55663855D02*
X11419048Y-54863855D01*
X11419048Y-54863855D02*
X11685714Y-55663855D01*
X12371428Y-55663855D02*
X11914285Y-55663855D01*
X12142857Y-55663855D02*
X12142857Y-54863855D01*
X12142857Y-54863855D02*
X12066666Y-54978140D01*
X12066666Y-54978140D02*
X11990476Y-55054331D01*
X11990476Y-55054331D02*
X11914285Y-55092426D01*
X10466667Y-58203855D02*
X10466667Y-57403855D01*
X10466667Y-57403855D02*
X10771429Y-57403855D01*
X10771429Y-57403855D02*
X10847619Y-57441950D01*
X10847619Y-57441950D02*
X10885714Y-57480045D01*
X10885714Y-57480045D02*
X10923810Y-57556236D01*
X10923810Y-57556236D02*
X10923810Y-57670521D01*
X10923810Y-57670521D02*
X10885714Y-57746712D01*
X10885714Y-57746712D02*
X10847619Y-57784807D01*
X10847619Y-57784807D02*
X10771429Y-57822902D01*
X10771429Y-57822902D02*
X10466667Y-57822902D01*
X11228571Y-57975283D02*
X11609524Y-57975283D01*
X11152381Y-58203855D02*
X11419048Y-57403855D01*
X11419048Y-57403855D02*
X11685714Y-58203855D01*
X12104762Y-57403855D02*
X12180952Y-57403855D01*
X12180952Y-57403855D02*
X12257143Y-57441950D01*
X12257143Y-57441950D02*
X12295238Y-57480045D01*
X12295238Y-57480045D02*
X12333333Y-57556236D01*
X12333333Y-57556236D02*
X12371428Y-57708617D01*
X12371428Y-57708617D02*
X12371428Y-57899093D01*
X12371428Y-57899093D02*
X12333333Y-58051474D01*
X12333333Y-58051474D02*
X12295238Y-58127664D01*
X12295238Y-58127664D02*
X12257143Y-58165760D01*
X12257143Y-58165760D02*
X12180952Y-58203855D01*
X12180952Y-58203855D02*
X12104762Y-58203855D01*
X12104762Y-58203855D02*
X12028571Y-58165760D01*
X12028571Y-58165760D02*
X11990476Y-58127664D01*
X11990476Y-58127664D02*
X11952381Y-58051474D01*
X11952381Y-58051474D02*
X11914285Y-57899093D01*
X11914285Y-57899093D02*
X11914285Y-57708617D01*
X11914285Y-57708617D02*
X11952381Y-57556236D01*
X11952381Y-57556236D02*
X11990476Y-57480045D01*
X11990476Y-57480045D02*
X12028571Y-57441950D01*
X12028571Y-57441950D02*
X12104762Y-57403855D01*
X10085714Y-60743855D02*
X10085714Y-59943855D01*
X10085714Y-59943855D02*
X10542857Y-60743855D01*
X10542857Y-60743855D02*
X10542857Y-59943855D01*
X11380952Y-60743855D02*
X11114285Y-60362902D01*
X10923809Y-60743855D02*
X10923809Y-59943855D01*
X10923809Y-59943855D02*
X11228571Y-59943855D01*
X11228571Y-59943855D02*
X11304761Y-59981950D01*
X11304761Y-59981950D02*
X11342856Y-60020045D01*
X11342856Y-60020045D02*
X11380952Y-60096236D01*
X11380952Y-60096236D02*
X11380952Y-60210521D01*
X11380952Y-60210521D02*
X11342856Y-60286712D01*
X11342856Y-60286712D02*
X11304761Y-60324807D01*
X11304761Y-60324807D02*
X11228571Y-60362902D01*
X11228571Y-60362902D02*
X10923809Y-60362902D01*
X11685713Y-60705760D02*
X11799999Y-60743855D01*
X11799999Y-60743855D02*
X11990475Y-60743855D01*
X11990475Y-60743855D02*
X12066666Y-60705760D01*
X12066666Y-60705760D02*
X12104761Y-60667664D01*
X12104761Y-60667664D02*
X12142856Y-60591474D01*
X12142856Y-60591474D02*
X12142856Y-60515283D01*
X12142856Y-60515283D02*
X12104761Y-60439093D01*
X12104761Y-60439093D02*
X12066666Y-60400998D01*
X12066666Y-60400998D02*
X11990475Y-60362902D01*
X11990475Y-60362902D02*
X11838094Y-60324807D01*
X11838094Y-60324807D02*
X11761904Y-60286712D01*
X11761904Y-60286712D02*
X11723809Y-60248617D01*
X11723809Y-60248617D02*
X11685713Y-60172426D01*
X11685713Y-60172426D02*
X11685713Y-60096236D01*
X11685713Y-60096236D02*
X11723809Y-60020045D01*
X11723809Y-60020045D02*
X11761904Y-59981950D01*
X11761904Y-59981950D02*
X11838094Y-59943855D01*
X11838094Y-59943855D02*
X12028571Y-59943855D01*
X12028571Y-59943855D02*
X12142856Y-59981950D01*
X12371428Y-59943855D02*
X12828571Y-59943855D01*
X12599999Y-60743855D02*
X12599999Y-59943855D01*
X10790476Y-62521950D02*
X10714286Y-62483855D01*
X10714286Y-62483855D02*
X10600000Y-62483855D01*
X10600000Y-62483855D02*
X10485714Y-62521950D01*
X10485714Y-62521950D02*
X10409524Y-62598140D01*
X10409524Y-62598140D02*
X10371429Y-62674331D01*
X10371429Y-62674331D02*
X10333333Y-62826712D01*
X10333333Y-62826712D02*
X10333333Y-62940998D01*
X10333333Y-62940998D02*
X10371429Y-63093379D01*
X10371429Y-63093379D02*
X10409524Y-63169569D01*
X10409524Y-63169569D02*
X10485714Y-63245760D01*
X10485714Y-63245760D02*
X10600000Y-63283855D01*
X10600000Y-63283855D02*
X10676191Y-63283855D01*
X10676191Y-63283855D02*
X10790476Y-63245760D01*
X10790476Y-63245760D02*
X10828572Y-63207664D01*
X10828572Y-63207664D02*
X10828572Y-62940998D01*
X10828572Y-62940998D02*
X10676191Y-62940998D01*
X11171429Y-63283855D02*
X11171429Y-62483855D01*
X11171429Y-62483855D02*
X11628572Y-63283855D01*
X11628572Y-63283855D02*
X11628572Y-62483855D01*
X12009524Y-63283855D02*
X12009524Y-62483855D01*
X12009524Y-62483855D02*
X12200000Y-62483855D01*
X12200000Y-62483855D02*
X12314286Y-62521950D01*
X12314286Y-62521950D02*
X12390476Y-62598140D01*
X12390476Y-62598140D02*
X12428571Y-62674331D01*
X12428571Y-62674331D02*
X12466667Y-62826712D01*
X12466667Y-62826712D02*
X12466667Y-62940998D01*
X12466667Y-62940998D02*
X12428571Y-63093379D01*
X12428571Y-63093379D02*
X12390476Y-63169569D01*
X12390476Y-63169569D02*
X12314286Y-63245760D01*
X12314286Y-63245760D02*
X12200000Y-63283855D01*
X12200000Y-63283855D02*
X12009524Y-63283855D01*
X10409523Y-65023854D02*
X10904761Y-65023854D01*
X10904761Y-65023854D02*
X10638095Y-65328616D01*
X10638095Y-65328616D02*
X10752380Y-65328616D01*
X10752380Y-65328616D02*
X10828571Y-65366711D01*
X10828571Y-65366711D02*
X10866666Y-65404806D01*
X10866666Y-65404806D02*
X10904761Y-65480997D01*
X10904761Y-65480997D02*
X10904761Y-65671473D01*
X10904761Y-65671473D02*
X10866666Y-65747663D01*
X10866666Y-65747663D02*
X10828571Y-65785759D01*
X10828571Y-65785759D02*
X10752380Y-65823854D01*
X10752380Y-65823854D02*
X10523809Y-65823854D01*
X10523809Y-65823854D02*
X10447618Y-65785759D01*
X10447618Y-65785759D02*
X10409523Y-65747663D01*
X11133333Y-65023854D02*
X11400000Y-65823854D01*
X11400000Y-65823854D02*
X11666666Y-65023854D01*
X11857142Y-65023854D02*
X12352380Y-65023854D01*
X12352380Y-65023854D02*
X12085714Y-65328616D01*
X12085714Y-65328616D02*
X12199999Y-65328616D01*
X12199999Y-65328616D02*
X12276190Y-65366711D01*
X12276190Y-65366711D02*
X12314285Y-65404806D01*
X12314285Y-65404806D02*
X12352380Y-65480997D01*
X12352380Y-65480997D02*
X12352380Y-65671473D01*
X12352380Y-65671473D02*
X12314285Y-65747663D01*
X12314285Y-65747663D02*
X12276190Y-65785759D01*
X12276190Y-65785759D02*
X12199999Y-65823854D01*
X12199999Y-65823854D02*
X11971428Y-65823854D01*
X11971428Y-65823854D02*
X11895237Y-65785759D01*
X11895237Y-65785759D02*
X11857142Y-65747663D01*
X11247619Y-67563855D02*
X10866667Y-67563855D01*
X10866667Y-67563855D02*
X10828571Y-67944807D01*
X10828571Y-67944807D02*
X10866667Y-67906712D01*
X10866667Y-67906712D02*
X10942857Y-67868617D01*
X10942857Y-67868617D02*
X11133333Y-67868617D01*
X11133333Y-67868617D02*
X11209524Y-67906712D01*
X11209524Y-67906712D02*
X11247619Y-67944807D01*
X11247619Y-67944807D02*
X11285714Y-68020998D01*
X11285714Y-68020998D02*
X11285714Y-68211474D01*
X11285714Y-68211474D02*
X11247619Y-68287664D01*
X11247619Y-68287664D02*
X11209524Y-68325760D01*
X11209524Y-68325760D02*
X11133333Y-68363855D01*
X11133333Y-68363855D02*
X10942857Y-68363855D01*
X10942857Y-68363855D02*
X10866667Y-68325760D01*
X10866667Y-68325760D02*
X10828571Y-68287664D01*
X11514286Y-67563855D02*
X11780953Y-68363855D01*
X11780953Y-68363855D02*
X12047619Y-67563855D01*
X15561905Y-13563855D02*
X15295238Y-13182902D01*
X15104762Y-13563855D02*
X15104762Y-12763855D01*
X15104762Y-12763855D02*
X15409524Y-12763855D01*
X15409524Y-12763855D02*
X15485714Y-12801950D01*
X15485714Y-12801950D02*
X15523809Y-12840045D01*
X15523809Y-12840045D02*
X15561905Y-12916236D01*
X15561905Y-12916236D02*
X15561905Y-13030521D01*
X15561905Y-13030521D02*
X15523809Y-13106712D01*
X15523809Y-13106712D02*
X15485714Y-13144807D01*
X15485714Y-13144807D02*
X15409524Y-13182902D01*
X15409524Y-13182902D02*
X15104762Y-13182902D01*
X15866666Y-13525760D02*
X15980952Y-13563855D01*
X15980952Y-13563855D02*
X16171428Y-13563855D01*
X16171428Y-13563855D02*
X16247619Y-13525760D01*
X16247619Y-13525760D02*
X16285714Y-13487664D01*
X16285714Y-13487664D02*
X16323809Y-13411474D01*
X16323809Y-13411474D02*
X16323809Y-13335283D01*
X16323809Y-13335283D02*
X16285714Y-13259093D01*
X16285714Y-13259093D02*
X16247619Y-13220998D01*
X16247619Y-13220998D02*
X16171428Y-13182902D01*
X16171428Y-13182902D02*
X16019047Y-13144807D01*
X16019047Y-13144807D02*
X15942857Y-13106712D01*
X15942857Y-13106712D02*
X15904762Y-13068617D01*
X15904762Y-13068617D02*
X15866666Y-12992426D01*
X15866666Y-12992426D02*
X15866666Y-12916236D01*
X15866666Y-12916236D02*
X15904762Y-12840045D01*
X15904762Y-12840045D02*
X15942857Y-12801950D01*
X15942857Y-12801950D02*
X16019047Y-12763855D01*
X16019047Y-12763855D02*
X16209524Y-12763855D01*
X16209524Y-12763855D02*
X16323809Y-12801950D01*
X16552381Y-12763855D02*
X17009524Y-12763855D01*
X16780952Y-13563855D02*
X16780952Y-12763855D01*
X26914285Y-13144807D02*
X27028571Y-13182902D01*
X27028571Y-13182902D02*
X27066666Y-13220998D01*
X27066666Y-13220998D02*
X27104762Y-13297188D01*
X27104762Y-13297188D02*
X27104762Y-13411474D01*
X27104762Y-13411474D02*
X27066666Y-13487664D01*
X27066666Y-13487664D02*
X27028571Y-13525760D01*
X27028571Y-13525760D02*
X26952381Y-13563855D01*
X26952381Y-13563855D02*
X26647619Y-13563855D01*
X26647619Y-13563855D02*
X26647619Y-12763855D01*
X26647619Y-12763855D02*
X26914285Y-12763855D01*
X26914285Y-12763855D02*
X26990476Y-12801950D01*
X26990476Y-12801950D02*
X27028571Y-12840045D01*
X27028571Y-12840045D02*
X27066666Y-12916236D01*
X27066666Y-12916236D02*
X27066666Y-12992426D01*
X27066666Y-12992426D02*
X27028571Y-13068617D01*
X27028571Y-13068617D02*
X26990476Y-13106712D01*
X26990476Y-13106712D02*
X26914285Y-13144807D01*
X26914285Y-13144807D02*
X26647619Y-13144807D01*
X27600000Y-12763855D02*
X27752381Y-12763855D01*
X27752381Y-12763855D02*
X27828571Y-12801950D01*
X27828571Y-12801950D02*
X27904762Y-12878140D01*
X27904762Y-12878140D02*
X27942857Y-13030521D01*
X27942857Y-13030521D02*
X27942857Y-13297188D01*
X27942857Y-13297188D02*
X27904762Y-13449569D01*
X27904762Y-13449569D02*
X27828571Y-13525760D01*
X27828571Y-13525760D02*
X27752381Y-13563855D01*
X27752381Y-13563855D02*
X27600000Y-13563855D01*
X27600000Y-13563855D02*
X27523809Y-13525760D01*
X27523809Y-13525760D02*
X27447619Y-13449569D01*
X27447619Y-13449569D02*
X27409523Y-13297188D01*
X27409523Y-13297188D02*
X27409523Y-13030521D01*
X27409523Y-13030521D02*
X27447619Y-12878140D01*
X27447619Y-12878140D02*
X27523809Y-12801950D01*
X27523809Y-12801950D02*
X27600000Y-12763855D01*
X28438095Y-12763855D02*
X28590476Y-12763855D01*
X28590476Y-12763855D02*
X28666666Y-12801950D01*
X28666666Y-12801950D02*
X28742857Y-12878140D01*
X28742857Y-12878140D02*
X28780952Y-13030521D01*
X28780952Y-13030521D02*
X28780952Y-13297188D01*
X28780952Y-13297188D02*
X28742857Y-13449569D01*
X28742857Y-13449569D02*
X28666666Y-13525760D01*
X28666666Y-13525760D02*
X28590476Y-13563855D01*
X28590476Y-13563855D02*
X28438095Y-13563855D01*
X28438095Y-13563855D02*
X28361904Y-13525760D01*
X28361904Y-13525760D02*
X28285714Y-13449569D01*
X28285714Y-13449569D02*
X28247618Y-13297188D01*
X28247618Y-13297188D02*
X28247618Y-13030521D01*
X28247618Y-13030521D02*
X28285714Y-12878140D01*
X28285714Y-12878140D02*
X28361904Y-12801950D01*
X28361904Y-12801950D02*
X28438095Y-12763855D01*
X29009523Y-12763855D02*
X29466666Y-12763855D01*
X29238094Y-13563855D02*
X29238094Y-12763855D01*
X38914285Y-12325760D02*
X39028571Y-12363855D01*
X39028571Y-12363855D02*
X39219047Y-12363855D01*
X39219047Y-12363855D02*
X39295238Y-12325760D01*
X39295238Y-12325760D02*
X39333333Y-12287664D01*
X39333333Y-12287664D02*
X39371428Y-12211474D01*
X39371428Y-12211474D02*
X39371428Y-12135283D01*
X39371428Y-12135283D02*
X39333333Y-12059093D01*
X39333333Y-12059093D02*
X39295238Y-12020998D01*
X39295238Y-12020998D02*
X39219047Y-11982902D01*
X39219047Y-11982902D02*
X39066666Y-11944807D01*
X39066666Y-11944807D02*
X38990476Y-11906712D01*
X38990476Y-11906712D02*
X38952381Y-11868617D01*
X38952381Y-11868617D02*
X38914285Y-11792426D01*
X38914285Y-11792426D02*
X38914285Y-11716236D01*
X38914285Y-11716236D02*
X38952381Y-11640045D01*
X38952381Y-11640045D02*
X38990476Y-11601950D01*
X38990476Y-11601950D02*
X39066666Y-11563855D01*
X39066666Y-11563855D02*
X39257143Y-11563855D01*
X39257143Y-11563855D02*
X39371428Y-11601950D01*
X39638095Y-11563855D02*
X39828571Y-12363855D01*
X39828571Y-12363855D02*
X39980952Y-11792426D01*
X39980952Y-11792426D02*
X40133333Y-12363855D01*
X40133333Y-12363855D02*
X40323810Y-11563855D01*
X40628572Y-12363855D02*
X40628572Y-11563855D01*
X40628572Y-11563855D02*
X40819048Y-11563855D01*
X40819048Y-11563855D02*
X40933334Y-11601950D01*
X40933334Y-11601950D02*
X41009524Y-11678140D01*
X41009524Y-11678140D02*
X41047619Y-11754331D01*
X41047619Y-11754331D02*
X41085715Y-11906712D01*
X41085715Y-11906712D02*
X41085715Y-12020998D01*
X41085715Y-12020998D02*
X41047619Y-12173379D01*
X41047619Y-12173379D02*
X41009524Y-12249569D01*
X41009524Y-12249569D02*
X40933334Y-12325760D01*
X40933334Y-12325760D02*
X40819048Y-12363855D01*
X40819048Y-12363855D02*
X40628572Y-12363855D01*
X37066667Y-69563855D02*
X37066667Y-70211474D01*
X37066667Y-70211474D02*
X37104762Y-70287664D01*
X37104762Y-70287664D02*
X37142857Y-70325760D01*
X37142857Y-70325760D02*
X37219048Y-70363855D01*
X37219048Y-70363855D02*
X37371429Y-70363855D01*
X37371429Y-70363855D02*
X37447619Y-70325760D01*
X37447619Y-70325760D02*
X37485714Y-70287664D01*
X37485714Y-70287664D02*
X37523810Y-70211474D01*
X37523810Y-70211474D02*
X37523810Y-69563855D01*
X37866666Y-70325760D02*
X37980952Y-70363855D01*
X37980952Y-70363855D02*
X38171428Y-70363855D01*
X38171428Y-70363855D02*
X38247619Y-70325760D01*
X38247619Y-70325760D02*
X38285714Y-70287664D01*
X38285714Y-70287664D02*
X38323809Y-70211474D01*
X38323809Y-70211474D02*
X38323809Y-70135283D01*
X38323809Y-70135283D02*
X38285714Y-70059093D01*
X38285714Y-70059093D02*
X38247619Y-70020998D01*
X38247619Y-70020998D02*
X38171428Y-69982902D01*
X38171428Y-69982902D02*
X38019047Y-69944807D01*
X38019047Y-69944807D02*
X37942857Y-69906712D01*
X37942857Y-69906712D02*
X37904762Y-69868617D01*
X37904762Y-69868617D02*
X37866666Y-69792426D01*
X37866666Y-69792426D02*
X37866666Y-69716236D01*
X37866666Y-69716236D02*
X37904762Y-69640045D01*
X37904762Y-69640045D02*
X37942857Y-69601950D01*
X37942857Y-69601950D02*
X38019047Y-69563855D01*
X38019047Y-69563855D02*
X38209524Y-69563855D01*
X38209524Y-69563855D02*
X38323809Y-69601950D01*
X38933333Y-69944807D02*
X39047619Y-69982902D01*
X39047619Y-69982902D02*
X39085714Y-70020998D01*
X39085714Y-70020998D02*
X39123810Y-70097188D01*
X39123810Y-70097188D02*
X39123810Y-70211474D01*
X39123810Y-70211474D02*
X39085714Y-70287664D01*
X39085714Y-70287664D02*
X39047619Y-70325760D01*
X39047619Y-70325760D02*
X38971429Y-70363855D01*
X38971429Y-70363855D02*
X38666667Y-70363855D01*
X38666667Y-70363855D02*
X38666667Y-69563855D01*
X38666667Y-69563855D02*
X38933333Y-69563855D01*
X38933333Y-69563855D02*
X39009524Y-69601950D01*
X39009524Y-69601950D02*
X39047619Y-69640045D01*
X39047619Y-69640045D02*
X39085714Y-69716236D01*
X39085714Y-69716236D02*
X39085714Y-69792426D01*
X39085714Y-69792426D02*
X39047619Y-69868617D01*
X39047619Y-69868617D02*
X39009524Y-69906712D01*
X39009524Y-69906712D02*
X38933333Y-69944807D01*
X38933333Y-69944807D02*
X38666667Y-69944807D01*
X39466667Y-70059093D02*
X40076191Y-70059093D01*
X40914286Y-70287664D02*
X40876190Y-70325760D01*
X40876190Y-70325760D02*
X40761905Y-70363855D01*
X40761905Y-70363855D02*
X40685714Y-70363855D01*
X40685714Y-70363855D02*
X40571428Y-70325760D01*
X40571428Y-70325760D02*
X40495238Y-70249569D01*
X40495238Y-70249569D02*
X40457143Y-70173379D01*
X40457143Y-70173379D02*
X40419047Y-70020998D01*
X40419047Y-70020998D02*
X40419047Y-69906712D01*
X40419047Y-69906712D02*
X40457143Y-69754331D01*
X40457143Y-69754331D02*
X40495238Y-69678140D01*
X40495238Y-69678140D02*
X40571428Y-69601950D01*
X40571428Y-69601950D02*
X40685714Y-69563855D01*
X40685714Y-69563855D02*
X40761905Y-69563855D01*
X40761905Y-69563855D02*
X40876190Y-69601950D01*
X40876190Y-69601950D02*
X40914286Y-69640045D01*
X42247619Y-69563855D02*
X41866667Y-69563855D01*
X41866667Y-69563855D02*
X41828571Y-69944807D01*
X41828571Y-69944807D02*
X41866667Y-69906712D01*
X41866667Y-69906712D02*
X41942857Y-69868617D01*
X41942857Y-69868617D02*
X42133333Y-69868617D01*
X42133333Y-69868617D02*
X42209524Y-69906712D01*
X42209524Y-69906712D02*
X42247619Y-69944807D01*
X42247619Y-69944807D02*
X42285714Y-70020998D01*
X42285714Y-70020998D02*
X42285714Y-70211474D01*
X42285714Y-70211474D02*
X42247619Y-70287664D01*
X42247619Y-70287664D02*
X42209524Y-70325760D01*
X42209524Y-70325760D02*
X42133333Y-70363855D01*
X42133333Y-70363855D02*
X41942857Y-70363855D01*
X41942857Y-70363855D02*
X41866667Y-70325760D01*
X41866667Y-70325760D02*
X41828571Y-70287664D01*
X42514286Y-69563855D02*
X42780953Y-70363855D01*
X42780953Y-70363855D02*
X43047619Y-69563855D01*
X67990476Y-19341950D02*
X67914286Y-19303855D01*
X67914286Y-19303855D02*
X67800000Y-19303855D01*
X67800000Y-19303855D02*
X67685714Y-19341950D01*
X67685714Y-19341950D02*
X67609524Y-19418140D01*
X67609524Y-19418140D02*
X67571429Y-19494331D01*
X67571429Y-19494331D02*
X67533333Y-19646712D01*
X67533333Y-19646712D02*
X67533333Y-19760998D01*
X67533333Y-19760998D02*
X67571429Y-19913379D01*
X67571429Y-19913379D02*
X67609524Y-19989569D01*
X67609524Y-19989569D02*
X67685714Y-20065760D01*
X67685714Y-20065760D02*
X67800000Y-20103855D01*
X67800000Y-20103855D02*
X67876191Y-20103855D01*
X67876191Y-20103855D02*
X67990476Y-20065760D01*
X67990476Y-20065760D02*
X68028572Y-20027664D01*
X68028572Y-20027664D02*
X68028572Y-19760998D01*
X68028572Y-19760998D02*
X67876191Y-19760998D01*
X68371429Y-20103855D02*
X68371429Y-19303855D01*
X68371429Y-19303855D02*
X68828572Y-20103855D01*
X68828572Y-20103855D02*
X68828572Y-19303855D01*
X69209524Y-20103855D02*
X69209524Y-19303855D01*
X69209524Y-19303855D02*
X69400000Y-19303855D01*
X69400000Y-19303855D02*
X69514286Y-19341950D01*
X69514286Y-19341950D02*
X69590476Y-19418140D01*
X69590476Y-19418140D02*
X69628571Y-19494331D01*
X69628571Y-19494331D02*
X69666667Y-19646712D01*
X69666667Y-19646712D02*
X69666667Y-19760998D01*
X69666667Y-19760998D02*
X69628571Y-19913379D01*
X69628571Y-19913379D02*
X69590476Y-19989569D01*
X69590476Y-19989569D02*
X69514286Y-20065760D01*
X69514286Y-20065760D02*
X69400000Y-20103855D01*
X69400000Y-20103855D02*
X69209524Y-20103855D01*
X67609523Y-21843855D02*
X68104761Y-21843855D01*
X68104761Y-21843855D02*
X67838095Y-22148617D01*
X67838095Y-22148617D02*
X67952380Y-22148617D01*
X67952380Y-22148617D02*
X68028571Y-22186712D01*
X68028571Y-22186712D02*
X68066666Y-22224807D01*
X68066666Y-22224807D02*
X68104761Y-22300998D01*
X68104761Y-22300998D02*
X68104761Y-22491474D01*
X68104761Y-22491474D02*
X68066666Y-22567664D01*
X68066666Y-22567664D02*
X68028571Y-22605760D01*
X68028571Y-22605760D02*
X67952380Y-22643855D01*
X67952380Y-22643855D02*
X67723809Y-22643855D01*
X67723809Y-22643855D02*
X67647618Y-22605760D01*
X67647618Y-22605760D02*
X67609523Y-22567664D01*
X68333333Y-21843855D02*
X68600000Y-22643855D01*
X68600000Y-22643855D02*
X68866666Y-21843855D01*
X69057142Y-21843855D02*
X69552380Y-21843855D01*
X69552380Y-21843855D02*
X69285714Y-22148617D01*
X69285714Y-22148617D02*
X69399999Y-22148617D01*
X69399999Y-22148617D02*
X69476190Y-22186712D01*
X69476190Y-22186712D02*
X69514285Y-22224807D01*
X69514285Y-22224807D02*
X69552380Y-22300998D01*
X69552380Y-22300998D02*
X69552380Y-22491474D01*
X69552380Y-22491474D02*
X69514285Y-22567664D01*
X69514285Y-22567664D02*
X69476190Y-22605760D01*
X69476190Y-22605760D02*
X69399999Y-22643855D01*
X69399999Y-22643855D02*
X69171428Y-22643855D01*
X69171428Y-22643855D02*
X69095237Y-22605760D01*
X69095237Y-22605760D02*
X69057142Y-22567664D01*
X67133333Y-24764807D02*
X67247619Y-24802902D01*
X67247619Y-24802902D02*
X67285714Y-24840998D01*
X67285714Y-24840998D02*
X67323810Y-24917188D01*
X67323810Y-24917188D02*
X67323810Y-25031474D01*
X67323810Y-25031474D02*
X67285714Y-25107664D01*
X67285714Y-25107664D02*
X67247619Y-25145760D01*
X67247619Y-25145760D02*
X67171429Y-25183855D01*
X67171429Y-25183855D02*
X66866667Y-25183855D01*
X66866667Y-25183855D02*
X66866667Y-24383855D01*
X66866667Y-24383855D02*
X67133333Y-24383855D01*
X67133333Y-24383855D02*
X67209524Y-24421950D01*
X67209524Y-24421950D02*
X67247619Y-24460045D01*
X67247619Y-24460045D02*
X67285714Y-24536236D01*
X67285714Y-24536236D02*
X67285714Y-24612426D01*
X67285714Y-24612426D02*
X67247619Y-24688617D01*
X67247619Y-24688617D02*
X67209524Y-24726712D01*
X67209524Y-24726712D02*
X67133333Y-24764807D01*
X67133333Y-24764807D02*
X66866667Y-24764807D01*
X67819048Y-24383855D02*
X67971429Y-24383855D01*
X67971429Y-24383855D02*
X68047619Y-24421950D01*
X68047619Y-24421950D02*
X68123810Y-24498140D01*
X68123810Y-24498140D02*
X68161905Y-24650521D01*
X68161905Y-24650521D02*
X68161905Y-24917188D01*
X68161905Y-24917188D02*
X68123810Y-25069569D01*
X68123810Y-25069569D02*
X68047619Y-25145760D01*
X68047619Y-25145760D02*
X67971429Y-25183855D01*
X67971429Y-25183855D02*
X67819048Y-25183855D01*
X67819048Y-25183855D02*
X67742857Y-25145760D01*
X67742857Y-25145760D02*
X67666667Y-25069569D01*
X67666667Y-25069569D02*
X67628571Y-24917188D01*
X67628571Y-24917188D02*
X67628571Y-24650521D01*
X67628571Y-24650521D02*
X67666667Y-24498140D01*
X67666667Y-24498140D02*
X67742857Y-24421950D01*
X67742857Y-24421950D02*
X67819048Y-24383855D01*
X68657143Y-24383855D02*
X68809524Y-24383855D01*
X68809524Y-24383855D02*
X68885714Y-24421950D01*
X68885714Y-24421950D02*
X68961905Y-24498140D01*
X68961905Y-24498140D02*
X69000000Y-24650521D01*
X69000000Y-24650521D02*
X69000000Y-24917188D01*
X69000000Y-24917188D02*
X68961905Y-25069569D01*
X68961905Y-25069569D02*
X68885714Y-25145760D01*
X68885714Y-25145760D02*
X68809524Y-25183855D01*
X68809524Y-25183855D02*
X68657143Y-25183855D01*
X68657143Y-25183855D02*
X68580952Y-25145760D01*
X68580952Y-25145760D02*
X68504762Y-25069569D01*
X68504762Y-25069569D02*
X68466666Y-24917188D01*
X68466666Y-24917188D02*
X68466666Y-24650521D01*
X68466666Y-24650521D02*
X68504762Y-24498140D01*
X68504762Y-24498140D02*
X68580952Y-24421950D01*
X68580952Y-24421950D02*
X68657143Y-24383855D01*
X69228571Y-24383855D02*
X69685714Y-24383855D01*
X69457142Y-25183855D02*
X69457142Y-24383855D01*
X70104762Y-24383855D02*
X70180952Y-24383855D01*
X70180952Y-24383855D02*
X70257143Y-24421950D01*
X70257143Y-24421950D02*
X70295238Y-24460045D01*
X70295238Y-24460045D02*
X70333333Y-24536236D01*
X70333333Y-24536236D02*
X70371428Y-24688617D01*
X70371428Y-24688617D02*
X70371428Y-24879093D01*
X70371428Y-24879093D02*
X70333333Y-25031474D01*
X70333333Y-25031474D02*
X70295238Y-25107664D01*
X70295238Y-25107664D02*
X70257143Y-25145760D01*
X70257143Y-25145760D02*
X70180952Y-25183855D01*
X70180952Y-25183855D02*
X70104762Y-25183855D01*
X70104762Y-25183855D02*
X70028571Y-25145760D01*
X70028571Y-25145760D02*
X69990476Y-25107664D01*
X69990476Y-25107664D02*
X69952381Y-25031474D01*
X69952381Y-25031474D02*
X69914285Y-24879093D01*
X69914285Y-24879093D02*
X69914285Y-24688617D01*
X69914285Y-24688617D02*
X69952381Y-24536236D01*
X69952381Y-24536236D02*
X69990476Y-24460045D01*
X69990476Y-24460045D02*
X70028571Y-24421950D01*
X70028571Y-24421950D02*
X70104762Y-24383855D01*
X67228571Y-27723855D02*
X67228571Y-26923855D01*
X67228571Y-26923855D02*
X67533333Y-26923855D01*
X67533333Y-26923855D02*
X67609523Y-26961950D01*
X67609523Y-26961950D02*
X67647618Y-27000045D01*
X67647618Y-27000045D02*
X67685714Y-27076236D01*
X67685714Y-27076236D02*
X67685714Y-27190521D01*
X67685714Y-27190521D02*
X67647618Y-27266712D01*
X67647618Y-27266712D02*
X67609523Y-27304807D01*
X67609523Y-27304807D02*
X67533333Y-27342902D01*
X67533333Y-27342902D02*
X67228571Y-27342902D01*
X68295237Y-27304807D02*
X68409523Y-27342902D01*
X68409523Y-27342902D02*
X68447618Y-27380998D01*
X68447618Y-27380998D02*
X68485714Y-27457188D01*
X68485714Y-27457188D02*
X68485714Y-27571474D01*
X68485714Y-27571474D02*
X68447618Y-27647664D01*
X68447618Y-27647664D02*
X68409523Y-27685760D01*
X68409523Y-27685760D02*
X68333333Y-27723855D01*
X68333333Y-27723855D02*
X68028571Y-27723855D01*
X68028571Y-27723855D02*
X68028571Y-26923855D01*
X68028571Y-26923855D02*
X68295237Y-26923855D01*
X68295237Y-26923855D02*
X68371428Y-26961950D01*
X68371428Y-26961950D02*
X68409523Y-27000045D01*
X68409523Y-27000045D02*
X68447618Y-27076236D01*
X68447618Y-27076236D02*
X68447618Y-27152426D01*
X68447618Y-27152426D02*
X68409523Y-27228617D01*
X68409523Y-27228617D02*
X68371428Y-27266712D01*
X68371428Y-27266712D02*
X68295237Y-27304807D01*
X68295237Y-27304807D02*
X68028571Y-27304807D01*
X69247618Y-27723855D02*
X68790475Y-27723855D01*
X69019047Y-27723855D02*
X69019047Y-26923855D01*
X69019047Y-26923855D02*
X68942856Y-27038140D01*
X68942856Y-27038140D02*
X68866666Y-27114331D01*
X68866666Y-27114331D02*
X68790475Y-27152426D01*
X69971428Y-26923855D02*
X69590476Y-26923855D01*
X69590476Y-26923855D02*
X69552380Y-27304807D01*
X69552380Y-27304807D02*
X69590476Y-27266712D01*
X69590476Y-27266712D02*
X69666666Y-27228617D01*
X69666666Y-27228617D02*
X69857142Y-27228617D01*
X69857142Y-27228617D02*
X69933333Y-27266712D01*
X69933333Y-27266712D02*
X69971428Y-27304807D01*
X69971428Y-27304807D02*
X70009523Y-27380998D01*
X70009523Y-27380998D02*
X70009523Y-27571474D01*
X70009523Y-27571474D02*
X69971428Y-27647664D01*
X69971428Y-27647664D02*
X69933333Y-27685760D01*
X69933333Y-27685760D02*
X69857142Y-27723855D01*
X69857142Y-27723855D02*
X69666666Y-27723855D01*
X69666666Y-27723855D02*
X69590476Y-27685760D01*
X69590476Y-27685760D02*
X69552380Y-27647664D01*
X67228571Y-30263855D02*
X67228571Y-29463855D01*
X67228571Y-29463855D02*
X67533333Y-29463855D01*
X67533333Y-29463855D02*
X67609523Y-29501950D01*
X67609523Y-29501950D02*
X67647618Y-29540045D01*
X67647618Y-29540045D02*
X67685714Y-29616236D01*
X67685714Y-29616236D02*
X67685714Y-29730521D01*
X67685714Y-29730521D02*
X67647618Y-29806712D01*
X67647618Y-29806712D02*
X67609523Y-29844807D01*
X67609523Y-29844807D02*
X67533333Y-29882902D01*
X67533333Y-29882902D02*
X67228571Y-29882902D01*
X68295237Y-29844807D02*
X68409523Y-29882902D01*
X68409523Y-29882902D02*
X68447618Y-29920998D01*
X68447618Y-29920998D02*
X68485714Y-29997188D01*
X68485714Y-29997188D02*
X68485714Y-30111474D01*
X68485714Y-30111474D02*
X68447618Y-30187664D01*
X68447618Y-30187664D02*
X68409523Y-30225760D01*
X68409523Y-30225760D02*
X68333333Y-30263855D01*
X68333333Y-30263855D02*
X68028571Y-30263855D01*
X68028571Y-30263855D02*
X68028571Y-29463855D01*
X68028571Y-29463855D02*
X68295237Y-29463855D01*
X68295237Y-29463855D02*
X68371428Y-29501950D01*
X68371428Y-29501950D02*
X68409523Y-29540045D01*
X68409523Y-29540045D02*
X68447618Y-29616236D01*
X68447618Y-29616236D02*
X68447618Y-29692426D01*
X68447618Y-29692426D02*
X68409523Y-29768617D01*
X68409523Y-29768617D02*
X68371428Y-29806712D01*
X68371428Y-29806712D02*
X68295237Y-29844807D01*
X68295237Y-29844807D02*
X68028571Y-29844807D01*
X69247618Y-30263855D02*
X68790475Y-30263855D01*
X69019047Y-30263855D02*
X69019047Y-29463855D01*
X69019047Y-29463855D02*
X68942856Y-29578140D01*
X68942856Y-29578140D02*
X68866666Y-29654331D01*
X68866666Y-29654331D02*
X68790475Y-29692426D01*
X69933333Y-29730521D02*
X69933333Y-30263855D01*
X69742857Y-29425760D02*
X69552380Y-29997188D01*
X69552380Y-29997188D02*
X70047619Y-29997188D01*
X67228571Y-32803854D02*
X67228571Y-32003854D01*
X67228571Y-32003854D02*
X67533333Y-32003854D01*
X67533333Y-32003854D02*
X67609523Y-32041949D01*
X67609523Y-32041949D02*
X67647618Y-32080044D01*
X67647618Y-32080044D02*
X67685714Y-32156235D01*
X67685714Y-32156235D02*
X67685714Y-32270520D01*
X67685714Y-32270520D02*
X67647618Y-32346711D01*
X67647618Y-32346711D02*
X67609523Y-32384806D01*
X67609523Y-32384806D02*
X67533333Y-32422901D01*
X67533333Y-32422901D02*
X67228571Y-32422901D01*
X68295237Y-32384806D02*
X68409523Y-32422901D01*
X68409523Y-32422901D02*
X68447618Y-32460997D01*
X68447618Y-32460997D02*
X68485714Y-32537187D01*
X68485714Y-32537187D02*
X68485714Y-32651473D01*
X68485714Y-32651473D02*
X68447618Y-32727663D01*
X68447618Y-32727663D02*
X68409523Y-32765759D01*
X68409523Y-32765759D02*
X68333333Y-32803854D01*
X68333333Y-32803854D02*
X68028571Y-32803854D01*
X68028571Y-32803854D02*
X68028571Y-32003854D01*
X68028571Y-32003854D02*
X68295237Y-32003854D01*
X68295237Y-32003854D02*
X68371428Y-32041949D01*
X68371428Y-32041949D02*
X68409523Y-32080044D01*
X68409523Y-32080044D02*
X68447618Y-32156235D01*
X68447618Y-32156235D02*
X68447618Y-32232425D01*
X68447618Y-32232425D02*
X68409523Y-32308616D01*
X68409523Y-32308616D02*
X68371428Y-32346711D01*
X68371428Y-32346711D02*
X68295237Y-32384806D01*
X68295237Y-32384806D02*
X68028571Y-32384806D01*
X69247618Y-32803854D02*
X68790475Y-32803854D01*
X69019047Y-32803854D02*
X69019047Y-32003854D01*
X69019047Y-32003854D02*
X68942856Y-32118139D01*
X68942856Y-32118139D02*
X68866666Y-32194330D01*
X68866666Y-32194330D02*
X68790475Y-32232425D01*
X69514285Y-32003854D02*
X70009523Y-32003854D01*
X70009523Y-32003854D02*
X69742857Y-32308616D01*
X69742857Y-32308616D02*
X69857142Y-32308616D01*
X69857142Y-32308616D02*
X69933333Y-32346711D01*
X69933333Y-32346711D02*
X69971428Y-32384806D01*
X69971428Y-32384806D02*
X70009523Y-32460997D01*
X70009523Y-32460997D02*
X70009523Y-32651473D01*
X70009523Y-32651473D02*
X69971428Y-32727663D01*
X69971428Y-32727663D02*
X69933333Y-32765759D01*
X69933333Y-32765759D02*
X69857142Y-32803854D01*
X69857142Y-32803854D02*
X69628571Y-32803854D01*
X69628571Y-32803854D02*
X69552380Y-32765759D01*
X69552380Y-32765759D02*
X69514285Y-32727663D01*
X67228571Y-35343855D02*
X67228571Y-34543855D01*
X67228571Y-34543855D02*
X67533333Y-34543855D01*
X67533333Y-34543855D02*
X67609523Y-34581950D01*
X67609523Y-34581950D02*
X67647618Y-34620045D01*
X67647618Y-34620045D02*
X67685714Y-34696236D01*
X67685714Y-34696236D02*
X67685714Y-34810521D01*
X67685714Y-34810521D02*
X67647618Y-34886712D01*
X67647618Y-34886712D02*
X67609523Y-34924807D01*
X67609523Y-34924807D02*
X67533333Y-34962902D01*
X67533333Y-34962902D02*
X67228571Y-34962902D01*
X68295237Y-34924807D02*
X68409523Y-34962902D01*
X68409523Y-34962902D02*
X68447618Y-35000998D01*
X68447618Y-35000998D02*
X68485714Y-35077188D01*
X68485714Y-35077188D02*
X68485714Y-35191474D01*
X68485714Y-35191474D02*
X68447618Y-35267664D01*
X68447618Y-35267664D02*
X68409523Y-35305760D01*
X68409523Y-35305760D02*
X68333333Y-35343855D01*
X68333333Y-35343855D02*
X68028571Y-35343855D01*
X68028571Y-35343855D02*
X68028571Y-34543855D01*
X68028571Y-34543855D02*
X68295237Y-34543855D01*
X68295237Y-34543855D02*
X68371428Y-34581950D01*
X68371428Y-34581950D02*
X68409523Y-34620045D01*
X68409523Y-34620045D02*
X68447618Y-34696236D01*
X68447618Y-34696236D02*
X68447618Y-34772426D01*
X68447618Y-34772426D02*
X68409523Y-34848617D01*
X68409523Y-34848617D02*
X68371428Y-34886712D01*
X68371428Y-34886712D02*
X68295237Y-34924807D01*
X68295237Y-34924807D02*
X68028571Y-34924807D01*
X69247618Y-35343855D02*
X68790475Y-35343855D01*
X69019047Y-35343855D02*
X69019047Y-34543855D01*
X69019047Y-34543855D02*
X68942856Y-34658140D01*
X68942856Y-34658140D02*
X68866666Y-34734331D01*
X68866666Y-34734331D02*
X68790475Y-34772426D01*
X69552380Y-34620045D02*
X69590476Y-34581950D01*
X69590476Y-34581950D02*
X69666666Y-34543855D01*
X69666666Y-34543855D02*
X69857142Y-34543855D01*
X69857142Y-34543855D02*
X69933333Y-34581950D01*
X69933333Y-34581950D02*
X69971428Y-34620045D01*
X69971428Y-34620045D02*
X70009523Y-34696236D01*
X70009523Y-34696236D02*
X70009523Y-34772426D01*
X70009523Y-34772426D02*
X69971428Y-34886712D01*
X69971428Y-34886712D02*
X69514285Y-35343855D01*
X69514285Y-35343855D02*
X70009523Y-35343855D01*
X67609524Y-37883855D02*
X67609524Y-37083855D01*
X67609524Y-37083855D02*
X67914286Y-37083855D01*
X67914286Y-37083855D02*
X67990476Y-37121950D01*
X67990476Y-37121950D02*
X68028571Y-37160045D01*
X68028571Y-37160045D02*
X68066667Y-37236236D01*
X68066667Y-37236236D02*
X68066667Y-37350521D01*
X68066667Y-37350521D02*
X68028571Y-37426712D01*
X68028571Y-37426712D02*
X67990476Y-37464807D01*
X67990476Y-37464807D02*
X67914286Y-37502902D01*
X67914286Y-37502902D02*
X67609524Y-37502902D01*
X68676190Y-37464807D02*
X68790476Y-37502902D01*
X68790476Y-37502902D02*
X68828571Y-37540998D01*
X68828571Y-37540998D02*
X68866667Y-37617188D01*
X68866667Y-37617188D02*
X68866667Y-37731474D01*
X68866667Y-37731474D02*
X68828571Y-37807664D01*
X68828571Y-37807664D02*
X68790476Y-37845760D01*
X68790476Y-37845760D02*
X68714286Y-37883855D01*
X68714286Y-37883855D02*
X68409524Y-37883855D01*
X68409524Y-37883855D02*
X68409524Y-37083855D01*
X68409524Y-37083855D02*
X68676190Y-37083855D01*
X68676190Y-37083855D02*
X68752381Y-37121950D01*
X68752381Y-37121950D02*
X68790476Y-37160045D01*
X68790476Y-37160045D02*
X68828571Y-37236236D01*
X68828571Y-37236236D02*
X68828571Y-37312426D01*
X68828571Y-37312426D02*
X68790476Y-37388617D01*
X68790476Y-37388617D02*
X68752381Y-37426712D01*
X68752381Y-37426712D02*
X68676190Y-37464807D01*
X68676190Y-37464807D02*
X68409524Y-37464807D01*
X69247619Y-37883855D02*
X69400000Y-37883855D01*
X69400000Y-37883855D02*
X69476190Y-37845760D01*
X69476190Y-37845760D02*
X69514286Y-37807664D01*
X69514286Y-37807664D02*
X69590476Y-37693379D01*
X69590476Y-37693379D02*
X69628571Y-37540998D01*
X69628571Y-37540998D02*
X69628571Y-37236236D01*
X69628571Y-37236236D02*
X69590476Y-37160045D01*
X69590476Y-37160045D02*
X69552381Y-37121950D01*
X69552381Y-37121950D02*
X69476190Y-37083855D01*
X69476190Y-37083855D02*
X69323809Y-37083855D01*
X69323809Y-37083855D02*
X69247619Y-37121950D01*
X69247619Y-37121950D02*
X69209524Y-37160045D01*
X69209524Y-37160045D02*
X69171428Y-37236236D01*
X69171428Y-37236236D02*
X69171428Y-37426712D01*
X69171428Y-37426712D02*
X69209524Y-37502902D01*
X69209524Y-37502902D02*
X69247619Y-37540998D01*
X69247619Y-37540998D02*
X69323809Y-37579093D01*
X69323809Y-37579093D02*
X69476190Y-37579093D01*
X69476190Y-37579093D02*
X69552381Y-37540998D01*
X69552381Y-37540998D02*
X69590476Y-37502902D01*
X69590476Y-37502902D02*
X69628571Y-37426712D01*
X67609524Y-40423855D02*
X67609524Y-39623855D01*
X67609524Y-39623855D02*
X67914286Y-39623855D01*
X67914286Y-39623855D02*
X67990476Y-39661950D01*
X67990476Y-39661950D02*
X68028571Y-39700045D01*
X68028571Y-39700045D02*
X68066667Y-39776236D01*
X68066667Y-39776236D02*
X68066667Y-39890521D01*
X68066667Y-39890521D02*
X68028571Y-39966712D01*
X68028571Y-39966712D02*
X67990476Y-40004807D01*
X67990476Y-40004807D02*
X67914286Y-40042902D01*
X67914286Y-40042902D02*
X67609524Y-40042902D01*
X68676190Y-40004807D02*
X68790476Y-40042902D01*
X68790476Y-40042902D02*
X68828571Y-40080998D01*
X68828571Y-40080998D02*
X68866667Y-40157188D01*
X68866667Y-40157188D02*
X68866667Y-40271474D01*
X68866667Y-40271474D02*
X68828571Y-40347664D01*
X68828571Y-40347664D02*
X68790476Y-40385760D01*
X68790476Y-40385760D02*
X68714286Y-40423855D01*
X68714286Y-40423855D02*
X68409524Y-40423855D01*
X68409524Y-40423855D02*
X68409524Y-39623855D01*
X68409524Y-39623855D02*
X68676190Y-39623855D01*
X68676190Y-39623855D02*
X68752381Y-39661950D01*
X68752381Y-39661950D02*
X68790476Y-39700045D01*
X68790476Y-39700045D02*
X68828571Y-39776236D01*
X68828571Y-39776236D02*
X68828571Y-39852426D01*
X68828571Y-39852426D02*
X68790476Y-39928617D01*
X68790476Y-39928617D02*
X68752381Y-39966712D01*
X68752381Y-39966712D02*
X68676190Y-40004807D01*
X68676190Y-40004807D02*
X68409524Y-40004807D01*
X69323809Y-39966712D02*
X69247619Y-39928617D01*
X69247619Y-39928617D02*
X69209524Y-39890521D01*
X69209524Y-39890521D02*
X69171428Y-39814331D01*
X69171428Y-39814331D02*
X69171428Y-39776236D01*
X69171428Y-39776236D02*
X69209524Y-39700045D01*
X69209524Y-39700045D02*
X69247619Y-39661950D01*
X69247619Y-39661950D02*
X69323809Y-39623855D01*
X69323809Y-39623855D02*
X69476190Y-39623855D01*
X69476190Y-39623855D02*
X69552381Y-39661950D01*
X69552381Y-39661950D02*
X69590476Y-39700045D01*
X69590476Y-39700045D02*
X69628571Y-39776236D01*
X69628571Y-39776236D02*
X69628571Y-39814331D01*
X69628571Y-39814331D02*
X69590476Y-39890521D01*
X69590476Y-39890521D02*
X69552381Y-39928617D01*
X69552381Y-39928617D02*
X69476190Y-39966712D01*
X69476190Y-39966712D02*
X69323809Y-39966712D01*
X69323809Y-39966712D02*
X69247619Y-40004807D01*
X69247619Y-40004807D02*
X69209524Y-40042902D01*
X69209524Y-40042902D02*
X69171428Y-40119093D01*
X69171428Y-40119093D02*
X69171428Y-40271474D01*
X69171428Y-40271474D02*
X69209524Y-40347664D01*
X69209524Y-40347664D02*
X69247619Y-40385760D01*
X69247619Y-40385760D02*
X69323809Y-40423855D01*
X69323809Y-40423855D02*
X69476190Y-40423855D01*
X69476190Y-40423855D02*
X69552381Y-40385760D01*
X69552381Y-40385760D02*
X69590476Y-40347664D01*
X69590476Y-40347664D02*
X69628571Y-40271474D01*
X69628571Y-40271474D02*
X69628571Y-40119093D01*
X69628571Y-40119093D02*
X69590476Y-40042902D01*
X69590476Y-40042902D02*
X69552381Y-40004807D01*
X69552381Y-40004807D02*
X69476190Y-39966712D01*
X67609524Y-42963855D02*
X67609524Y-42163855D01*
X67609524Y-42163855D02*
X67914286Y-42163855D01*
X67914286Y-42163855D02*
X67990476Y-42201950D01*
X67990476Y-42201950D02*
X68028571Y-42240045D01*
X68028571Y-42240045D02*
X68066667Y-42316236D01*
X68066667Y-42316236D02*
X68066667Y-42430521D01*
X68066667Y-42430521D02*
X68028571Y-42506712D01*
X68028571Y-42506712D02*
X67990476Y-42544807D01*
X67990476Y-42544807D02*
X67914286Y-42582902D01*
X67914286Y-42582902D02*
X67609524Y-42582902D01*
X68676190Y-42544807D02*
X68790476Y-42582902D01*
X68790476Y-42582902D02*
X68828571Y-42620998D01*
X68828571Y-42620998D02*
X68866667Y-42697188D01*
X68866667Y-42697188D02*
X68866667Y-42811474D01*
X68866667Y-42811474D02*
X68828571Y-42887664D01*
X68828571Y-42887664D02*
X68790476Y-42925760D01*
X68790476Y-42925760D02*
X68714286Y-42963855D01*
X68714286Y-42963855D02*
X68409524Y-42963855D01*
X68409524Y-42963855D02*
X68409524Y-42163855D01*
X68409524Y-42163855D02*
X68676190Y-42163855D01*
X68676190Y-42163855D02*
X68752381Y-42201950D01*
X68752381Y-42201950D02*
X68790476Y-42240045D01*
X68790476Y-42240045D02*
X68828571Y-42316236D01*
X68828571Y-42316236D02*
X68828571Y-42392426D01*
X68828571Y-42392426D02*
X68790476Y-42468617D01*
X68790476Y-42468617D02*
X68752381Y-42506712D01*
X68752381Y-42506712D02*
X68676190Y-42544807D01*
X68676190Y-42544807D02*
X68409524Y-42544807D01*
X69133333Y-42163855D02*
X69666667Y-42163855D01*
X69666667Y-42163855D02*
X69323809Y-42963855D01*
X67609524Y-45503855D02*
X67609524Y-44703855D01*
X67609524Y-44703855D02*
X67914286Y-44703855D01*
X67914286Y-44703855D02*
X67990476Y-44741950D01*
X67990476Y-44741950D02*
X68028571Y-44780045D01*
X68028571Y-44780045D02*
X68066667Y-44856236D01*
X68066667Y-44856236D02*
X68066667Y-44970521D01*
X68066667Y-44970521D02*
X68028571Y-45046712D01*
X68028571Y-45046712D02*
X67990476Y-45084807D01*
X67990476Y-45084807D02*
X67914286Y-45122902D01*
X67914286Y-45122902D02*
X67609524Y-45122902D01*
X68676190Y-45084807D02*
X68790476Y-45122902D01*
X68790476Y-45122902D02*
X68828571Y-45160998D01*
X68828571Y-45160998D02*
X68866667Y-45237188D01*
X68866667Y-45237188D02*
X68866667Y-45351474D01*
X68866667Y-45351474D02*
X68828571Y-45427664D01*
X68828571Y-45427664D02*
X68790476Y-45465760D01*
X68790476Y-45465760D02*
X68714286Y-45503855D01*
X68714286Y-45503855D02*
X68409524Y-45503855D01*
X68409524Y-45503855D02*
X68409524Y-44703855D01*
X68409524Y-44703855D02*
X68676190Y-44703855D01*
X68676190Y-44703855D02*
X68752381Y-44741950D01*
X68752381Y-44741950D02*
X68790476Y-44780045D01*
X68790476Y-44780045D02*
X68828571Y-44856236D01*
X68828571Y-44856236D02*
X68828571Y-44932426D01*
X68828571Y-44932426D02*
X68790476Y-45008617D01*
X68790476Y-45008617D02*
X68752381Y-45046712D01*
X68752381Y-45046712D02*
X68676190Y-45084807D01*
X68676190Y-45084807D02*
X68409524Y-45084807D01*
X69552381Y-44703855D02*
X69400000Y-44703855D01*
X69400000Y-44703855D02*
X69323809Y-44741950D01*
X69323809Y-44741950D02*
X69285714Y-44780045D01*
X69285714Y-44780045D02*
X69209524Y-44894331D01*
X69209524Y-44894331D02*
X69171428Y-45046712D01*
X69171428Y-45046712D02*
X69171428Y-45351474D01*
X69171428Y-45351474D02*
X69209524Y-45427664D01*
X69209524Y-45427664D02*
X69247619Y-45465760D01*
X69247619Y-45465760D02*
X69323809Y-45503855D01*
X69323809Y-45503855D02*
X69476190Y-45503855D01*
X69476190Y-45503855D02*
X69552381Y-45465760D01*
X69552381Y-45465760D02*
X69590476Y-45427664D01*
X69590476Y-45427664D02*
X69628571Y-45351474D01*
X69628571Y-45351474D02*
X69628571Y-45160998D01*
X69628571Y-45160998D02*
X69590476Y-45084807D01*
X69590476Y-45084807D02*
X69552381Y-45046712D01*
X69552381Y-45046712D02*
X69476190Y-45008617D01*
X69476190Y-45008617D02*
X69323809Y-45008617D01*
X69323809Y-45008617D02*
X69247619Y-45046712D01*
X69247619Y-45046712D02*
X69209524Y-45084807D01*
X69209524Y-45084807D02*
X69171428Y-45160998D01*
X67609524Y-48043855D02*
X67609524Y-47243855D01*
X67609524Y-47243855D02*
X67914286Y-47243855D01*
X67914286Y-47243855D02*
X67990476Y-47281950D01*
X67990476Y-47281950D02*
X68028571Y-47320045D01*
X68028571Y-47320045D02*
X68066667Y-47396236D01*
X68066667Y-47396236D02*
X68066667Y-47510521D01*
X68066667Y-47510521D02*
X68028571Y-47586712D01*
X68028571Y-47586712D02*
X67990476Y-47624807D01*
X67990476Y-47624807D02*
X67914286Y-47662902D01*
X67914286Y-47662902D02*
X67609524Y-47662902D01*
X68676190Y-47624807D02*
X68790476Y-47662902D01*
X68790476Y-47662902D02*
X68828571Y-47700998D01*
X68828571Y-47700998D02*
X68866667Y-47777188D01*
X68866667Y-47777188D02*
X68866667Y-47891474D01*
X68866667Y-47891474D02*
X68828571Y-47967664D01*
X68828571Y-47967664D02*
X68790476Y-48005760D01*
X68790476Y-48005760D02*
X68714286Y-48043855D01*
X68714286Y-48043855D02*
X68409524Y-48043855D01*
X68409524Y-48043855D02*
X68409524Y-47243855D01*
X68409524Y-47243855D02*
X68676190Y-47243855D01*
X68676190Y-47243855D02*
X68752381Y-47281950D01*
X68752381Y-47281950D02*
X68790476Y-47320045D01*
X68790476Y-47320045D02*
X68828571Y-47396236D01*
X68828571Y-47396236D02*
X68828571Y-47472426D01*
X68828571Y-47472426D02*
X68790476Y-47548617D01*
X68790476Y-47548617D02*
X68752381Y-47586712D01*
X68752381Y-47586712D02*
X68676190Y-47624807D01*
X68676190Y-47624807D02*
X68409524Y-47624807D01*
X69590476Y-47243855D02*
X69209524Y-47243855D01*
X69209524Y-47243855D02*
X69171428Y-47624807D01*
X69171428Y-47624807D02*
X69209524Y-47586712D01*
X69209524Y-47586712D02*
X69285714Y-47548617D01*
X69285714Y-47548617D02*
X69476190Y-47548617D01*
X69476190Y-47548617D02*
X69552381Y-47586712D01*
X69552381Y-47586712D02*
X69590476Y-47624807D01*
X69590476Y-47624807D02*
X69628571Y-47700998D01*
X69628571Y-47700998D02*
X69628571Y-47891474D01*
X69628571Y-47891474D02*
X69590476Y-47967664D01*
X69590476Y-47967664D02*
X69552381Y-48005760D01*
X69552381Y-48005760D02*
X69476190Y-48043855D01*
X69476190Y-48043855D02*
X69285714Y-48043855D01*
X69285714Y-48043855D02*
X69209524Y-48005760D01*
X69209524Y-48005760D02*
X69171428Y-47967664D01*
X67609524Y-50583855D02*
X67609524Y-49783855D01*
X67609524Y-49783855D02*
X67914286Y-49783855D01*
X67914286Y-49783855D02*
X67990476Y-49821950D01*
X67990476Y-49821950D02*
X68028571Y-49860045D01*
X68028571Y-49860045D02*
X68066667Y-49936236D01*
X68066667Y-49936236D02*
X68066667Y-50050521D01*
X68066667Y-50050521D02*
X68028571Y-50126712D01*
X68028571Y-50126712D02*
X67990476Y-50164807D01*
X67990476Y-50164807D02*
X67914286Y-50202902D01*
X67914286Y-50202902D02*
X67609524Y-50202902D01*
X68676190Y-50164807D02*
X68790476Y-50202902D01*
X68790476Y-50202902D02*
X68828571Y-50240998D01*
X68828571Y-50240998D02*
X68866667Y-50317188D01*
X68866667Y-50317188D02*
X68866667Y-50431474D01*
X68866667Y-50431474D02*
X68828571Y-50507664D01*
X68828571Y-50507664D02*
X68790476Y-50545760D01*
X68790476Y-50545760D02*
X68714286Y-50583855D01*
X68714286Y-50583855D02*
X68409524Y-50583855D01*
X68409524Y-50583855D02*
X68409524Y-49783855D01*
X68409524Y-49783855D02*
X68676190Y-49783855D01*
X68676190Y-49783855D02*
X68752381Y-49821950D01*
X68752381Y-49821950D02*
X68790476Y-49860045D01*
X68790476Y-49860045D02*
X68828571Y-49936236D01*
X68828571Y-49936236D02*
X68828571Y-50012426D01*
X68828571Y-50012426D02*
X68790476Y-50088617D01*
X68790476Y-50088617D02*
X68752381Y-50126712D01*
X68752381Y-50126712D02*
X68676190Y-50164807D01*
X68676190Y-50164807D02*
X68409524Y-50164807D01*
X69552381Y-50050521D02*
X69552381Y-50583855D01*
X69361905Y-49745760D02*
X69171428Y-50317188D01*
X69171428Y-50317188D02*
X69666667Y-50317188D01*
X67609524Y-53123855D02*
X67609524Y-52323855D01*
X67609524Y-52323855D02*
X67914286Y-52323855D01*
X67914286Y-52323855D02*
X67990476Y-52361950D01*
X67990476Y-52361950D02*
X68028571Y-52400045D01*
X68028571Y-52400045D02*
X68066667Y-52476236D01*
X68066667Y-52476236D02*
X68066667Y-52590521D01*
X68066667Y-52590521D02*
X68028571Y-52666712D01*
X68028571Y-52666712D02*
X67990476Y-52704807D01*
X67990476Y-52704807D02*
X67914286Y-52742902D01*
X67914286Y-52742902D02*
X67609524Y-52742902D01*
X68676190Y-52704807D02*
X68790476Y-52742902D01*
X68790476Y-52742902D02*
X68828571Y-52780998D01*
X68828571Y-52780998D02*
X68866667Y-52857188D01*
X68866667Y-52857188D02*
X68866667Y-52971474D01*
X68866667Y-52971474D02*
X68828571Y-53047664D01*
X68828571Y-53047664D02*
X68790476Y-53085760D01*
X68790476Y-53085760D02*
X68714286Y-53123855D01*
X68714286Y-53123855D02*
X68409524Y-53123855D01*
X68409524Y-53123855D02*
X68409524Y-52323855D01*
X68409524Y-52323855D02*
X68676190Y-52323855D01*
X68676190Y-52323855D02*
X68752381Y-52361950D01*
X68752381Y-52361950D02*
X68790476Y-52400045D01*
X68790476Y-52400045D02*
X68828571Y-52476236D01*
X68828571Y-52476236D02*
X68828571Y-52552426D01*
X68828571Y-52552426D02*
X68790476Y-52628617D01*
X68790476Y-52628617D02*
X68752381Y-52666712D01*
X68752381Y-52666712D02*
X68676190Y-52704807D01*
X68676190Y-52704807D02*
X68409524Y-52704807D01*
X69133333Y-52323855D02*
X69628571Y-52323855D01*
X69628571Y-52323855D02*
X69361905Y-52628617D01*
X69361905Y-52628617D02*
X69476190Y-52628617D01*
X69476190Y-52628617D02*
X69552381Y-52666712D01*
X69552381Y-52666712D02*
X69590476Y-52704807D01*
X69590476Y-52704807D02*
X69628571Y-52780998D01*
X69628571Y-52780998D02*
X69628571Y-52971474D01*
X69628571Y-52971474D02*
X69590476Y-53047664D01*
X69590476Y-53047664D02*
X69552381Y-53085760D01*
X69552381Y-53085760D02*
X69476190Y-53123855D01*
X69476190Y-53123855D02*
X69247619Y-53123855D01*
X69247619Y-53123855D02*
X69171428Y-53085760D01*
X69171428Y-53085760D02*
X69133333Y-53047664D01*
X67285714Y-55663855D02*
X67285714Y-54863855D01*
X67285714Y-54863855D02*
X67590476Y-54863855D01*
X67590476Y-54863855D02*
X67666666Y-54901950D01*
X67666666Y-54901950D02*
X67704761Y-54940045D01*
X67704761Y-54940045D02*
X67742857Y-55016236D01*
X67742857Y-55016236D02*
X67742857Y-55130521D01*
X67742857Y-55130521D02*
X67704761Y-55206712D01*
X67704761Y-55206712D02*
X67666666Y-55244807D01*
X67666666Y-55244807D02*
X67590476Y-55282902D01*
X67590476Y-55282902D02*
X67285714Y-55282902D01*
X68047618Y-55435283D02*
X68428571Y-55435283D01*
X67971428Y-55663855D02*
X68238095Y-54863855D01*
X68238095Y-54863855D02*
X68504761Y-55663855D01*
X69190475Y-55663855D02*
X68733332Y-55663855D01*
X68961904Y-55663855D02*
X68961904Y-54863855D01*
X68961904Y-54863855D02*
X68885713Y-54978140D01*
X68885713Y-54978140D02*
X68809523Y-55054331D01*
X68809523Y-55054331D02*
X68733332Y-55092426D01*
X69914285Y-54863855D02*
X69533333Y-54863855D01*
X69533333Y-54863855D02*
X69495237Y-55244807D01*
X69495237Y-55244807D02*
X69533333Y-55206712D01*
X69533333Y-55206712D02*
X69609523Y-55168617D01*
X69609523Y-55168617D02*
X69799999Y-55168617D01*
X69799999Y-55168617D02*
X69876190Y-55206712D01*
X69876190Y-55206712D02*
X69914285Y-55244807D01*
X69914285Y-55244807D02*
X69952380Y-55320998D01*
X69952380Y-55320998D02*
X69952380Y-55511474D01*
X69952380Y-55511474D02*
X69914285Y-55587664D01*
X69914285Y-55587664D02*
X69876190Y-55625760D01*
X69876190Y-55625760D02*
X69799999Y-55663855D01*
X69799999Y-55663855D02*
X69609523Y-55663855D01*
X69609523Y-55663855D02*
X69533333Y-55625760D01*
X69533333Y-55625760D02*
X69495237Y-55587664D01*
X67285714Y-58203855D02*
X67285714Y-57403855D01*
X67285714Y-57403855D02*
X67590476Y-57403855D01*
X67590476Y-57403855D02*
X67666666Y-57441950D01*
X67666666Y-57441950D02*
X67704761Y-57480045D01*
X67704761Y-57480045D02*
X67742857Y-57556236D01*
X67742857Y-57556236D02*
X67742857Y-57670521D01*
X67742857Y-57670521D02*
X67704761Y-57746712D01*
X67704761Y-57746712D02*
X67666666Y-57784807D01*
X67666666Y-57784807D02*
X67590476Y-57822902D01*
X67590476Y-57822902D02*
X67285714Y-57822902D01*
X68047618Y-57975283D02*
X68428571Y-57975283D01*
X67971428Y-58203855D02*
X68238095Y-57403855D01*
X68238095Y-57403855D02*
X68504761Y-58203855D01*
X69190475Y-58203855D02*
X68733332Y-58203855D01*
X68961904Y-58203855D02*
X68961904Y-57403855D01*
X68961904Y-57403855D02*
X68885713Y-57518140D01*
X68885713Y-57518140D02*
X68809523Y-57594331D01*
X68809523Y-57594331D02*
X68733332Y-57632426D01*
X69495237Y-57480045D02*
X69533333Y-57441950D01*
X69533333Y-57441950D02*
X69609523Y-57403855D01*
X69609523Y-57403855D02*
X69799999Y-57403855D01*
X69799999Y-57403855D02*
X69876190Y-57441950D01*
X69876190Y-57441950D02*
X69914285Y-57480045D01*
X69914285Y-57480045D02*
X69952380Y-57556236D01*
X69952380Y-57556236D02*
X69952380Y-57632426D01*
X69952380Y-57632426D02*
X69914285Y-57746712D01*
X69914285Y-57746712D02*
X69457142Y-58203855D01*
X69457142Y-58203855D02*
X69952380Y-58203855D01*
X67285714Y-60743855D02*
X67285714Y-59943855D01*
X67285714Y-59943855D02*
X67590476Y-59943855D01*
X67590476Y-59943855D02*
X67666666Y-59981950D01*
X67666666Y-59981950D02*
X67704761Y-60020045D01*
X67704761Y-60020045D02*
X67742857Y-60096236D01*
X67742857Y-60096236D02*
X67742857Y-60210521D01*
X67742857Y-60210521D02*
X67704761Y-60286712D01*
X67704761Y-60286712D02*
X67666666Y-60324807D01*
X67666666Y-60324807D02*
X67590476Y-60362902D01*
X67590476Y-60362902D02*
X67285714Y-60362902D01*
X68047618Y-60515283D02*
X68428571Y-60515283D01*
X67971428Y-60743855D02*
X68238095Y-59943855D01*
X68238095Y-59943855D02*
X68504761Y-60743855D01*
X69190475Y-60743855D02*
X68733332Y-60743855D01*
X68961904Y-60743855D02*
X68961904Y-59943855D01*
X68961904Y-59943855D02*
X68885713Y-60058140D01*
X68885713Y-60058140D02*
X68809523Y-60134331D01*
X68809523Y-60134331D02*
X68733332Y-60172426D01*
X69952380Y-60743855D02*
X69495237Y-60743855D01*
X69723809Y-60743855D02*
X69723809Y-59943855D01*
X69723809Y-59943855D02*
X69647618Y-60058140D01*
X69647618Y-60058140D02*
X69571428Y-60134331D01*
X69571428Y-60134331D02*
X69495237Y-60172426D01*
X67285714Y-63283855D02*
X67285714Y-62483855D01*
X67285714Y-62483855D02*
X67590476Y-62483855D01*
X67590476Y-62483855D02*
X67666666Y-62521950D01*
X67666666Y-62521950D02*
X67704761Y-62560045D01*
X67704761Y-62560045D02*
X67742857Y-62636236D01*
X67742857Y-62636236D02*
X67742857Y-62750521D01*
X67742857Y-62750521D02*
X67704761Y-62826712D01*
X67704761Y-62826712D02*
X67666666Y-62864807D01*
X67666666Y-62864807D02*
X67590476Y-62902902D01*
X67590476Y-62902902D02*
X67285714Y-62902902D01*
X68047618Y-63055283D02*
X68428571Y-63055283D01*
X67971428Y-63283855D02*
X68238095Y-62483855D01*
X68238095Y-62483855D02*
X68504761Y-63283855D01*
X69190475Y-63283855D02*
X68733332Y-63283855D01*
X68961904Y-63283855D02*
X68961904Y-62483855D01*
X68961904Y-62483855D02*
X68885713Y-62598140D01*
X68885713Y-62598140D02*
X68809523Y-62674331D01*
X68809523Y-62674331D02*
X68733332Y-62712426D01*
X69685714Y-62483855D02*
X69761904Y-62483855D01*
X69761904Y-62483855D02*
X69838095Y-62521950D01*
X69838095Y-62521950D02*
X69876190Y-62560045D01*
X69876190Y-62560045D02*
X69914285Y-62636236D01*
X69914285Y-62636236D02*
X69952380Y-62788617D01*
X69952380Y-62788617D02*
X69952380Y-62979093D01*
X69952380Y-62979093D02*
X69914285Y-63131474D01*
X69914285Y-63131474D02*
X69876190Y-63207664D01*
X69876190Y-63207664D02*
X69838095Y-63245760D01*
X69838095Y-63245760D02*
X69761904Y-63283855D01*
X69761904Y-63283855D02*
X69685714Y-63283855D01*
X69685714Y-63283855D02*
X69609523Y-63245760D01*
X69609523Y-63245760D02*
X69571428Y-63207664D01*
X69571428Y-63207664D02*
X69533333Y-63131474D01*
X69533333Y-63131474D02*
X69495237Y-62979093D01*
X69495237Y-62979093D02*
X69495237Y-62788617D01*
X69495237Y-62788617D02*
X69533333Y-62636236D01*
X69533333Y-62636236D02*
X69571428Y-62560045D01*
X69571428Y-62560045D02*
X69609523Y-62521950D01*
X69609523Y-62521950D02*
X69685714Y-62483855D01*
X67666667Y-65823854D02*
X67666667Y-65023854D01*
X67666667Y-65023854D02*
X67971429Y-65023854D01*
X67971429Y-65023854D02*
X68047619Y-65061949D01*
X68047619Y-65061949D02*
X68085714Y-65100044D01*
X68085714Y-65100044D02*
X68123810Y-65176235D01*
X68123810Y-65176235D02*
X68123810Y-65290520D01*
X68123810Y-65290520D02*
X68085714Y-65366711D01*
X68085714Y-65366711D02*
X68047619Y-65404806D01*
X68047619Y-65404806D02*
X67971429Y-65442901D01*
X67971429Y-65442901D02*
X67666667Y-65442901D01*
X68428571Y-65595282D02*
X68809524Y-65595282D01*
X68352381Y-65823854D02*
X68619048Y-65023854D01*
X68619048Y-65023854D02*
X68885714Y-65823854D01*
X69190476Y-65823854D02*
X69342857Y-65823854D01*
X69342857Y-65823854D02*
X69419047Y-65785759D01*
X69419047Y-65785759D02*
X69457143Y-65747663D01*
X69457143Y-65747663D02*
X69533333Y-65633378D01*
X69533333Y-65633378D02*
X69571428Y-65480997D01*
X69571428Y-65480997D02*
X69571428Y-65176235D01*
X69571428Y-65176235D02*
X69533333Y-65100044D01*
X69533333Y-65100044D02*
X69495238Y-65061949D01*
X69495238Y-65061949D02*
X69419047Y-65023854D01*
X69419047Y-65023854D02*
X69266666Y-65023854D01*
X69266666Y-65023854D02*
X69190476Y-65061949D01*
X69190476Y-65061949D02*
X69152381Y-65100044D01*
X69152381Y-65100044D02*
X69114285Y-65176235D01*
X69114285Y-65176235D02*
X69114285Y-65366711D01*
X69114285Y-65366711D02*
X69152381Y-65442901D01*
X69152381Y-65442901D02*
X69190476Y-65480997D01*
X69190476Y-65480997D02*
X69266666Y-65519092D01*
X69266666Y-65519092D02*
X69419047Y-65519092D01*
X69419047Y-65519092D02*
X69495238Y-65480997D01*
X69495238Y-65480997D02*
X69533333Y-65442901D01*
X69533333Y-65442901D02*
X69571428Y-65366711D01*
X67666667Y-68363855D02*
X67666667Y-67563855D01*
X67666667Y-67563855D02*
X67971429Y-67563855D01*
X67971429Y-67563855D02*
X68047619Y-67601950D01*
X68047619Y-67601950D02*
X68085714Y-67640045D01*
X68085714Y-67640045D02*
X68123810Y-67716236D01*
X68123810Y-67716236D02*
X68123810Y-67830521D01*
X68123810Y-67830521D02*
X68085714Y-67906712D01*
X68085714Y-67906712D02*
X68047619Y-67944807D01*
X68047619Y-67944807D02*
X67971429Y-67982902D01*
X67971429Y-67982902D02*
X67666667Y-67982902D01*
X68428571Y-68135283D02*
X68809524Y-68135283D01*
X68352381Y-68363855D02*
X68619048Y-67563855D01*
X68619048Y-67563855D02*
X68885714Y-68363855D01*
X69266666Y-67906712D02*
X69190476Y-67868617D01*
X69190476Y-67868617D02*
X69152381Y-67830521D01*
X69152381Y-67830521D02*
X69114285Y-67754331D01*
X69114285Y-67754331D02*
X69114285Y-67716236D01*
X69114285Y-67716236D02*
X69152381Y-67640045D01*
X69152381Y-67640045D02*
X69190476Y-67601950D01*
X69190476Y-67601950D02*
X69266666Y-67563855D01*
X69266666Y-67563855D02*
X69419047Y-67563855D01*
X69419047Y-67563855D02*
X69495238Y-67601950D01*
X69495238Y-67601950D02*
X69533333Y-67640045D01*
X69533333Y-67640045D02*
X69571428Y-67716236D01*
X69571428Y-67716236D02*
X69571428Y-67754331D01*
X69571428Y-67754331D02*
X69533333Y-67830521D01*
X69533333Y-67830521D02*
X69495238Y-67868617D01*
X69495238Y-67868617D02*
X69419047Y-67906712D01*
X69419047Y-67906712D02*
X69266666Y-67906712D01*
X69266666Y-67906712D02*
X69190476Y-67944807D01*
X69190476Y-67944807D02*
X69152381Y-67982902D01*
X69152381Y-67982902D02*
X69114285Y-68059093D01*
X69114285Y-68059093D02*
X69114285Y-68211474D01*
X69114285Y-68211474D02*
X69152381Y-68287664D01*
X69152381Y-68287664D02*
X69190476Y-68325760D01*
X69190476Y-68325760D02*
X69266666Y-68363855D01*
X69266666Y-68363855D02*
X69419047Y-68363855D01*
X69419047Y-68363855D02*
X69495238Y-68325760D01*
X69495238Y-68325760D02*
X69533333Y-68287664D01*
X69533333Y-68287664D02*
X69571428Y-68211474D01*
X69571428Y-68211474D02*
X69571428Y-68059093D01*
X69571428Y-68059093D02*
X69533333Y-67982902D01*
X69533333Y-67982902D02*
X69495238Y-67944807D01*
X69495238Y-67944807D02*
X69419047Y-67906712D01*
D11*
X36761904Y-19931009D02*
X36904761Y-19978628D01*
X36904761Y-19978628D02*
X36952380Y-20026247D01*
X36952380Y-20026247D02*
X36999999Y-20121485D01*
X36999999Y-20121485D02*
X36999999Y-20264342D01*
X36999999Y-20264342D02*
X36952380Y-20359580D01*
X36952380Y-20359580D02*
X36904761Y-20407200D01*
X36904761Y-20407200D02*
X36809523Y-20454819D01*
X36809523Y-20454819D02*
X36428571Y-20454819D01*
X36428571Y-20454819D02*
X36428571Y-19454819D01*
X36428571Y-19454819D02*
X36761904Y-19454819D01*
X36761904Y-19454819D02*
X36857142Y-19502438D01*
X36857142Y-19502438D02*
X36904761Y-19550057D01*
X36904761Y-19550057D02*
X36952380Y-19645295D01*
X36952380Y-19645295D02*
X36952380Y-19740533D01*
X36952380Y-19740533D02*
X36904761Y-19835771D01*
X36904761Y-19835771D02*
X36857142Y-19883390D01*
X36857142Y-19883390D02*
X36761904Y-19931009D01*
X36761904Y-19931009D02*
X36428571Y-19931009D01*
X37999999Y-20454819D02*
X37666666Y-19978628D01*
X37428571Y-20454819D02*
X37428571Y-19454819D01*
X37428571Y-19454819D02*
X37809523Y-19454819D01*
X37809523Y-19454819D02*
X37904761Y-19502438D01*
X37904761Y-19502438D02*
X37952380Y-19550057D01*
X37952380Y-19550057D02*
X37999999Y-19645295D01*
X37999999Y-19645295D02*
X37999999Y-19788152D01*
X37999999Y-19788152D02*
X37952380Y-19883390D01*
X37952380Y-19883390D02*
X37904761Y-19931009D01*
X37904761Y-19931009D02*
X37809523Y-19978628D01*
X37809523Y-19978628D02*
X37428571Y-19978628D01*
X38428571Y-19931009D02*
X38761904Y-19931009D01*
X38904761Y-20454819D02*
X38428571Y-20454819D01*
X38428571Y-20454819D02*
X38428571Y-19454819D01*
X38428571Y-19454819D02*
X38904761Y-19454819D01*
X39285714Y-20169104D02*
X39761904Y-20169104D01*
X39190476Y-20454819D02*
X39523809Y-19454819D01*
X39523809Y-19454819D02*
X39857142Y-20454819D01*
X40190476Y-20454819D02*
X40190476Y-19454819D01*
X40761904Y-20454819D02*
X40333333Y-19883390D01*
X40761904Y-19454819D02*
X40190476Y-20026247D01*
X41380952Y-19454819D02*
X41571428Y-19454819D01*
X41571428Y-19454819D02*
X41666666Y-19502438D01*
X41666666Y-19502438D02*
X41761904Y-19597676D01*
X41761904Y-19597676D02*
X41809523Y-19788152D01*
X41809523Y-19788152D02*
X41809523Y-20121485D01*
X41809523Y-20121485D02*
X41761904Y-20311961D01*
X41761904Y-20311961D02*
X41666666Y-20407200D01*
X41666666Y-20407200D02*
X41571428Y-20454819D01*
X41571428Y-20454819D02*
X41380952Y-20454819D01*
X41380952Y-20454819D02*
X41285714Y-20407200D01*
X41285714Y-20407200D02*
X41190476Y-20311961D01*
X41190476Y-20311961D02*
X41142857Y-20121485D01*
X41142857Y-20121485D02*
X41142857Y-19788152D01*
X41142857Y-19788152D02*
X41190476Y-19597676D01*
X41190476Y-19597676D02*
X41285714Y-19502438D01*
X41285714Y-19502438D02*
X41380952Y-19454819D01*
X42238095Y-19454819D02*
X42238095Y-20264342D01*
X42238095Y-20264342D02*
X42285714Y-20359580D01*
X42285714Y-20359580D02*
X42333333Y-20407200D01*
X42333333Y-20407200D02*
X42428571Y-20454819D01*
X42428571Y-20454819D02*
X42619047Y-20454819D01*
X42619047Y-20454819D02*
X42714285Y-20407200D01*
X42714285Y-20407200D02*
X42761904Y-20359580D01*
X42761904Y-20359580D02*
X42809523Y-20264342D01*
X42809523Y-20264342D02*
X42809523Y-19454819D01*
X43142857Y-19454819D02*
X43714285Y-19454819D01*
X43428571Y-20454819D02*
X43428571Y-19454819D01*
D12*
X32942857Y-22488640D02*
X33114286Y-22545782D01*
X33114286Y-22545782D02*
X33400000Y-22545782D01*
X33400000Y-22545782D02*
X33514286Y-22488640D01*
X33514286Y-22488640D02*
X33571428Y-22431497D01*
X33571428Y-22431497D02*
X33628571Y-22317211D01*
X33628571Y-22317211D02*
X33628571Y-22202925D01*
X33628571Y-22202925D02*
X33571428Y-22088640D01*
X33571428Y-22088640D02*
X33514286Y-22031497D01*
X33514286Y-22031497D02*
X33400000Y-21974354D01*
X33400000Y-21974354D02*
X33171428Y-21917211D01*
X33171428Y-21917211D02*
X33057143Y-21860068D01*
X33057143Y-21860068D02*
X33000000Y-21802925D01*
X33000000Y-21802925D02*
X32942857Y-21688640D01*
X32942857Y-21688640D02*
X32942857Y-21574354D01*
X32942857Y-21574354D02*
X33000000Y-21460068D01*
X33000000Y-21460068D02*
X33057143Y-21402925D01*
X33057143Y-21402925D02*
X33171428Y-21345782D01*
X33171428Y-21345782D02*
X33457143Y-21345782D01*
X33457143Y-21345782D02*
X33628571Y-21402925D01*
X33971428Y-21345782D02*
X34657143Y-21345782D01*
X34314285Y-22545782D02*
X34314285Y-21345782D01*
X35057143Y-22545782D02*
X35057143Y-21345782D01*
X35057143Y-21345782D02*
X35457143Y-22202925D01*
X35457143Y-22202925D02*
X35857143Y-21345782D01*
X35857143Y-21345782D02*
X35857143Y-22545782D01*
X36314286Y-21345782D02*
X37057143Y-21345782D01*
X37057143Y-21345782D02*
X36657143Y-21802925D01*
X36657143Y-21802925D02*
X36828572Y-21802925D01*
X36828572Y-21802925D02*
X36942858Y-21860068D01*
X36942858Y-21860068D02*
X37000000Y-21917211D01*
X37000000Y-21917211D02*
X37057143Y-22031497D01*
X37057143Y-22031497D02*
X37057143Y-22317211D01*
X37057143Y-22317211D02*
X37000000Y-22431497D01*
X37000000Y-22431497D02*
X36942858Y-22488640D01*
X36942858Y-22488640D02*
X36828572Y-22545782D01*
X36828572Y-22545782D02*
X36485715Y-22545782D01*
X36485715Y-22545782D02*
X36371429Y-22488640D01*
X36371429Y-22488640D02*
X36314286Y-22431497D01*
X37514286Y-21460068D02*
X37571429Y-21402925D01*
X37571429Y-21402925D02*
X37685715Y-21345782D01*
X37685715Y-21345782D02*
X37971429Y-21345782D01*
X37971429Y-21345782D02*
X38085715Y-21402925D01*
X38085715Y-21402925D02*
X38142857Y-21460068D01*
X38142857Y-21460068D02*
X38200000Y-21574354D01*
X38200000Y-21574354D02*
X38200000Y-21688640D01*
X38200000Y-21688640D02*
X38142857Y-21860068D01*
X38142857Y-21860068D02*
X37457143Y-22545782D01*
X37457143Y-22545782D02*
X38200000Y-22545782D01*
X39114286Y-21917211D02*
X38714286Y-21917211D01*
X38714286Y-22545782D02*
X38714286Y-21345782D01*
X38714286Y-21345782D02*
X39285714Y-21345782D01*
X40371428Y-22545782D02*
X39685714Y-22545782D01*
X40028571Y-22545782D02*
X40028571Y-21345782D01*
X40028571Y-21345782D02*
X39914285Y-21517211D01*
X39914285Y-21517211D02*
X39800000Y-21631497D01*
X39800000Y-21631497D02*
X39685714Y-21688640D01*
X41114285Y-21345782D02*
X41228571Y-21345782D01*
X41228571Y-21345782D02*
X41342857Y-21402925D01*
X41342857Y-21402925D02*
X41400000Y-21460068D01*
X41400000Y-21460068D02*
X41457142Y-21574354D01*
X41457142Y-21574354D02*
X41514285Y-21802925D01*
X41514285Y-21802925D02*
X41514285Y-22088640D01*
X41514285Y-22088640D02*
X41457142Y-22317211D01*
X41457142Y-22317211D02*
X41400000Y-22431497D01*
X41400000Y-22431497D02*
X41342857Y-22488640D01*
X41342857Y-22488640D02*
X41228571Y-22545782D01*
X41228571Y-22545782D02*
X41114285Y-22545782D01*
X41114285Y-22545782D02*
X41000000Y-22488640D01*
X41000000Y-22488640D02*
X40942857Y-22431497D01*
X40942857Y-22431497D02*
X40885714Y-22317211D01*
X40885714Y-22317211D02*
X40828571Y-22088640D01*
X40828571Y-22088640D02*
X40828571Y-21802925D01*
X40828571Y-21802925D02*
X40885714Y-21574354D01*
X40885714Y-21574354D02*
X40942857Y-21460068D01*
X40942857Y-21460068D02*
X41000000Y-21402925D01*
X41000000Y-21402925D02*
X41114285Y-21345782D01*
X41914285Y-21345782D02*
X42657142Y-21345782D01*
X42657142Y-21345782D02*
X42257142Y-21802925D01*
X42257142Y-21802925D02*
X42428571Y-21802925D01*
X42428571Y-21802925D02*
X42542857Y-21860068D01*
X42542857Y-21860068D02*
X42599999Y-21917211D01*
X42599999Y-21917211D02*
X42657142Y-22031497D01*
X42657142Y-22031497D02*
X42657142Y-22317211D01*
X42657142Y-22317211D02*
X42599999Y-22431497D01*
X42599999Y-22431497D02*
X42542857Y-22488640D01*
X42542857Y-22488640D02*
X42428571Y-22545782D01*
X42428571Y-22545782D02*
X42085714Y-22545782D01*
X42085714Y-22545782D02*
X41971428Y-22488640D01*
X41971428Y-22488640D02*
X41914285Y-22431497D01*
X43857142Y-22431497D02*
X43799999Y-22488640D01*
X43799999Y-22488640D02*
X43628571Y-22545782D01*
X43628571Y-22545782D02*
X43514285Y-22545782D01*
X43514285Y-22545782D02*
X43342856Y-22488640D01*
X43342856Y-22488640D02*
X43228571Y-22374354D01*
X43228571Y-22374354D02*
X43171428Y-22260068D01*
X43171428Y-22260068D02*
X43114285Y-22031497D01*
X43114285Y-22031497D02*
X43114285Y-21860068D01*
X43114285Y-21860068D02*
X43171428Y-21631497D01*
X43171428Y-21631497D02*
X43228571Y-21517211D01*
X43228571Y-21517211D02*
X43342856Y-21402925D01*
X43342856Y-21402925D02*
X43514285Y-21345782D01*
X43514285Y-21345782D02*
X43628571Y-21345782D01*
X43628571Y-21345782D02*
X43799999Y-21402925D01*
X43799999Y-21402925D02*
X43857142Y-21460068D01*
X44542856Y-21860068D02*
X44428571Y-21802925D01*
X44428571Y-21802925D02*
X44371428Y-21745782D01*
X44371428Y-21745782D02*
X44314285Y-21631497D01*
X44314285Y-21631497D02*
X44314285Y-21574354D01*
X44314285Y-21574354D02*
X44371428Y-21460068D01*
X44371428Y-21460068D02*
X44428571Y-21402925D01*
X44428571Y-21402925D02*
X44542856Y-21345782D01*
X44542856Y-21345782D02*
X44771428Y-21345782D01*
X44771428Y-21345782D02*
X44885714Y-21402925D01*
X44885714Y-21402925D02*
X44942856Y-21460068D01*
X44942856Y-21460068D02*
X44999999Y-21574354D01*
X44999999Y-21574354D02*
X44999999Y-21631497D01*
X44999999Y-21631497D02*
X44942856Y-21745782D01*
X44942856Y-21745782D02*
X44885714Y-21802925D01*
X44885714Y-21802925D02*
X44771428Y-21860068D01*
X44771428Y-21860068D02*
X44542856Y-21860068D01*
X44542856Y-21860068D02*
X44428571Y-21917211D01*
X44428571Y-21917211D02*
X44371428Y-21974354D01*
X44371428Y-21974354D02*
X44314285Y-22088640D01*
X44314285Y-22088640D02*
X44314285Y-22317211D01*
X44314285Y-22317211D02*
X44371428Y-22431497D01*
X44371428Y-22431497D02*
X44428571Y-22488640D01*
X44428571Y-22488640D02*
X44542856Y-22545782D01*
X44542856Y-22545782D02*
X44771428Y-22545782D01*
X44771428Y-22545782D02*
X44885714Y-22488640D01*
X44885714Y-22488640D02*
X44942856Y-22431497D01*
X44942856Y-22431497D02*
X44999999Y-22317211D01*
X44999999Y-22317211D02*
X44999999Y-22088640D01*
X44999999Y-22088640D02*
X44942856Y-21974354D01*
X44942856Y-21974354D02*
X44885714Y-21917211D01*
X44885714Y-21917211D02*
X44771428Y-21860068D01*
X45342856Y-21345782D02*
X46028571Y-21345782D01*
X45685713Y-22545782D02*
X45685713Y-21345782D01*
X46942857Y-21345782D02*
X46714285Y-21345782D01*
X46714285Y-21345782D02*
X46599999Y-21402925D01*
X46599999Y-21402925D02*
X46542857Y-21460068D01*
X46542857Y-21460068D02*
X46428571Y-21631497D01*
X46428571Y-21631497D02*
X46371428Y-21860068D01*
X46371428Y-21860068D02*
X46371428Y-22317211D01*
X46371428Y-22317211D02*
X46428571Y-22431497D01*
X46428571Y-22431497D02*
X46485714Y-22488640D01*
X46485714Y-22488640D02*
X46599999Y-22545782D01*
X46599999Y-22545782D02*
X46828571Y-22545782D01*
X46828571Y-22545782D02*
X46942857Y-22488640D01*
X46942857Y-22488640D02*
X46999999Y-22431497D01*
X46999999Y-22431497D02*
X47057142Y-22317211D01*
X47057142Y-22317211D02*
X47057142Y-22031497D01*
X47057142Y-22031497D02*
X46999999Y-21917211D01*
X46999999Y-21917211D02*
X46942857Y-21860068D01*
X46942857Y-21860068D02*
X46828571Y-21802925D01*
X46828571Y-21802925D02*
X46599999Y-21802925D01*
X46599999Y-21802925D02*
X46485714Y-21860068D01*
X46485714Y-21860068D02*
X46428571Y-21917211D01*
X46428571Y-21917211D02*
X46371428Y-22031497D01*
D11*
X15833333Y-78929580D02*
X15785714Y-78977200D01*
X15785714Y-78977200D02*
X15642857Y-79024819D01*
X15642857Y-79024819D02*
X15547619Y-79024819D01*
X15547619Y-79024819D02*
X15404762Y-78977200D01*
X15404762Y-78977200D02*
X15309524Y-78881961D01*
X15309524Y-78881961D02*
X15261905Y-78786723D01*
X15261905Y-78786723D02*
X15214286Y-78596247D01*
X15214286Y-78596247D02*
X15214286Y-78453390D01*
X15214286Y-78453390D02*
X15261905Y-78262914D01*
X15261905Y-78262914D02*
X15309524Y-78167676D01*
X15309524Y-78167676D02*
X15404762Y-78072438D01*
X15404762Y-78072438D02*
X15547619Y-78024819D01*
X15547619Y-78024819D02*
X15642857Y-78024819D01*
X15642857Y-78024819D02*
X15785714Y-78072438D01*
X15785714Y-78072438D02*
X15833333Y-78120057D01*
X16214286Y-78120057D02*
X16261905Y-78072438D01*
X16261905Y-78072438D02*
X16357143Y-78024819D01*
X16357143Y-78024819D02*
X16595238Y-78024819D01*
X16595238Y-78024819D02*
X16690476Y-78072438D01*
X16690476Y-78072438D02*
X16738095Y-78120057D01*
X16738095Y-78120057D02*
X16785714Y-78215295D01*
X16785714Y-78215295D02*
X16785714Y-78310533D01*
X16785714Y-78310533D02*
X16738095Y-78453390D01*
X16738095Y-78453390D02*
X16166667Y-79024819D01*
X16166667Y-79024819D02*
X16785714Y-79024819D01*
X3238095Y-82804819D02*
X3238095Y-81804819D01*
X3238095Y-82281009D02*
X3809523Y-82281009D01*
X3809523Y-82804819D02*
X3809523Y-81804819D01*
X4190476Y-81804819D02*
X4809523Y-81804819D01*
X4809523Y-81804819D02*
X4476190Y-82185771D01*
X4476190Y-82185771D02*
X4619047Y-82185771D01*
X4619047Y-82185771D02*
X4714285Y-82233390D01*
X4714285Y-82233390D02*
X4761904Y-82281009D01*
X4761904Y-82281009D02*
X4809523Y-82376247D01*
X4809523Y-82376247D02*
X4809523Y-82614342D01*
X4809523Y-82614342D02*
X4761904Y-82709580D01*
X4761904Y-82709580D02*
X4714285Y-82757200D01*
X4714285Y-82757200D02*
X4619047Y-82804819D01*
X4619047Y-82804819D02*
X4333333Y-82804819D01*
X4333333Y-82804819D02*
X4238095Y-82757200D01*
X4238095Y-82757200D02*
X4190476Y-82709580D01*
X20261905Y-18524819D02*
X20261905Y-17524819D01*
X20261905Y-17524819D02*
X20500000Y-17524819D01*
X20500000Y-17524819D02*
X20642857Y-17572438D01*
X20642857Y-17572438D02*
X20738095Y-17667676D01*
X20738095Y-17667676D02*
X20785714Y-17762914D01*
X20785714Y-17762914D02*
X20833333Y-17953390D01*
X20833333Y-17953390D02*
X20833333Y-18096247D01*
X20833333Y-18096247D02*
X20785714Y-18286723D01*
X20785714Y-18286723D02*
X20738095Y-18381961D01*
X20738095Y-18381961D02*
X20642857Y-18477200D01*
X20642857Y-18477200D02*
X20500000Y-18524819D01*
X20500000Y-18524819D02*
X20261905Y-18524819D01*
X21214286Y-17620057D02*
X21261905Y-17572438D01*
X21261905Y-17572438D02*
X21357143Y-17524819D01*
X21357143Y-17524819D02*
X21595238Y-17524819D01*
X21595238Y-17524819D02*
X21690476Y-17572438D01*
X21690476Y-17572438D02*
X21738095Y-17620057D01*
X21738095Y-17620057D02*
X21785714Y-17715295D01*
X21785714Y-17715295D02*
X21785714Y-17810533D01*
X21785714Y-17810533D02*
X21738095Y-17953390D01*
X21738095Y-17953390D02*
X21166667Y-18524819D01*
X21166667Y-18524819D02*
X21785714Y-18524819D01*
X25528628Y-29976190D02*
X26004819Y-29976190D01*
X25004819Y-30309523D02*
X25528628Y-29976190D01*
X25528628Y-29976190D02*
X25004819Y-29642857D01*
X26004819Y-28785714D02*
X26004819Y-29357142D01*
X26004819Y-29071428D02*
X25004819Y-29071428D01*
X25004819Y-29071428D02*
X25147676Y-29166666D01*
X25147676Y-29166666D02*
X25242914Y-29261904D01*
X25242914Y-29261904D02*
X25290533Y-29357142D01*
X46529580Y-52966666D02*
X46577200Y-53014285D01*
X46577200Y-53014285D02*
X46624819Y-53157142D01*
X46624819Y-53157142D02*
X46624819Y-53252380D01*
X46624819Y-53252380D02*
X46577200Y-53395237D01*
X46577200Y-53395237D02*
X46481961Y-53490475D01*
X46481961Y-53490475D02*
X46386723Y-53538094D01*
X46386723Y-53538094D02*
X46196247Y-53585713D01*
X46196247Y-53585713D02*
X46053390Y-53585713D01*
X46053390Y-53585713D02*
X45862914Y-53538094D01*
X45862914Y-53538094D02*
X45767676Y-53490475D01*
X45767676Y-53490475D02*
X45672438Y-53395237D01*
X45672438Y-53395237D02*
X45624819Y-53252380D01*
X45624819Y-53252380D02*
X45624819Y-53157142D01*
X45624819Y-53157142D02*
X45672438Y-53014285D01*
X45672438Y-53014285D02*
X45720057Y-52966666D01*
X45624819Y-52109523D02*
X45624819Y-52299999D01*
X45624819Y-52299999D02*
X45672438Y-52395237D01*
X45672438Y-52395237D02*
X45720057Y-52442856D01*
X45720057Y-52442856D02*
X45862914Y-52538094D01*
X45862914Y-52538094D02*
X46053390Y-52585713D01*
X46053390Y-52585713D02*
X46434342Y-52585713D01*
X46434342Y-52585713D02*
X46529580Y-52538094D01*
X46529580Y-52538094D02*
X46577200Y-52490475D01*
X46577200Y-52490475D02*
X46624819Y-52395237D01*
X46624819Y-52395237D02*
X46624819Y-52204761D01*
X46624819Y-52204761D02*
X46577200Y-52109523D01*
X46577200Y-52109523D02*
X46529580Y-52061904D01*
X46529580Y-52061904D02*
X46434342Y-52014285D01*
X46434342Y-52014285D02*
X46196247Y-52014285D01*
X46196247Y-52014285D02*
X46101009Y-52061904D01*
X46101009Y-52061904D02*
X46053390Y-52109523D01*
X46053390Y-52109523D02*
X46005771Y-52204761D01*
X46005771Y-52204761D02*
X46005771Y-52395237D01*
X46005771Y-52395237D02*
X46053390Y-52490475D01*
X46053390Y-52490475D02*
X46101009Y-52538094D01*
X46101009Y-52538094D02*
X46196247Y-52585713D01*
X30833333Y-69679580D02*
X30785714Y-69727200D01*
X30785714Y-69727200D02*
X30642857Y-69774819D01*
X30642857Y-69774819D02*
X30547619Y-69774819D01*
X30547619Y-69774819D02*
X30404762Y-69727200D01*
X30404762Y-69727200D02*
X30309524Y-69631961D01*
X30309524Y-69631961D02*
X30261905Y-69536723D01*
X30261905Y-69536723D02*
X30214286Y-69346247D01*
X30214286Y-69346247D02*
X30214286Y-69203390D01*
X30214286Y-69203390D02*
X30261905Y-69012914D01*
X30261905Y-69012914D02*
X30309524Y-68917676D01*
X30309524Y-68917676D02*
X30404762Y-68822438D01*
X30404762Y-68822438D02*
X30547619Y-68774819D01*
X30547619Y-68774819D02*
X30642857Y-68774819D01*
X30642857Y-68774819D02*
X30785714Y-68822438D01*
X30785714Y-68822438D02*
X30833333Y-68870057D01*
X31690476Y-69108152D02*
X31690476Y-69774819D01*
X31452381Y-68727200D02*
X31214286Y-69441485D01*
X31214286Y-69441485D02*
X31833333Y-69441485D01*
X50157142Y-37529580D02*
X50109523Y-37577200D01*
X50109523Y-37577200D02*
X49966666Y-37624819D01*
X49966666Y-37624819D02*
X49871428Y-37624819D01*
X49871428Y-37624819D02*
X49728571Y-37577200D01*
X49728571Y-37577200D02*
X49633333Y-37481961D01*
X49633333Y-37481961D02*
X49585714Y-37386723D01*
X49585714Y-37386723D02*
X49538095Y-37196247D01*
X49538095Y-37196247D02*
X49538095Y-37053390D01*
X49538095Y-37053390D02*
X49585714Y-36862914D01*
X49585714Y-36862914D02*
X49633333Y-36767676D01*
X49633333Y-36767676D02*
X49728571Y-36672438D01*
X49728571Y-36672438D02*
X49871428Y-36624819D01*
X49871428Y-36624819D02*
X49966666Y-36624819D01*
X49966666Y-36624819D02*
X50109523Y-36672438D01*
X50109523Y-36672438D02*
X50157142Y-36720057D01*
X51109523Y-37624819D02*
X50538095Y-37624819D01*
X50823809Y-37624819D02*
X50823809Y-36624819D01*
X50823809Y-36624819D02*
X50728571Y-36767676D01*
X50728571Y-36767676D02*
X50633333Y-36862914D01*
X50633333Y-36862914D02*
X50538095Y-36910533D01*
X52014285Y-36624819D02*
X51538095Y-36624819D01*
X51538095Y-36624819D02*
X51490476Y-37101009D01*
X51490476Y-37101009D02*
X51538095Y-37053390D01*
X51538095Y-37053390D02*
X51633333Y-37005771D01*
X51633333Y-37005771D02*
X51871428Y-37005771D01*
X51871428Y-37005771D02*
X51966666Y-37053390D01*
X51966666Y-37053390D02*
X52014285Y-37101009D01*
X52014285Y-37101009D02*
X52061904Y-37196247D01*
X52061904Y-37196247D02*
X52061904Y-37434342D01*
X52061904Y-37434342D02*
X52014285Y-37529580D01*
X52014285Y-37529580D02*
X51966666Y-37577200D01*
X51966666Y-37577200D02*
X51871428Y-37624819D01*
X51871428Y-37624819D02*
X51633333Y-37624819D01*
X51633333Y-37624819D02*
X51538095Y-37577200D01*
X51538095Y-37577200D02*
X51490476Y-37529580D01*
X15833333Y-15024819D02*
X15500000Y-14548628D01*
X15261905Y-15024819D02*
X15261905Y-14024819D01*
X15261905Y-14024819D02*
X15642857Y-14024819D01*
X15642857Y-14024819D02*
X15738095Y-14072438D01*
X15738095Y-14072438D02*
X15785714Y-14120057D01*
X15785714Y-14120057D02*
X15833333Y-14215295D01*
X15833333Y-14215295D02*
X15833333Y-14358152D01*
X15833333Y-14358152D02*
X15785714Y-14453390D01*
X15785714Y-14453390D02*
X15738095Y-14501009D01*
X15738095Y-14501009D02*
X15642857Y-14548628D01*
X15642857Y-14548628D02*
X15261905Y-14548628D01*
X16404762Y-14453390D02*
X16309524Y-14405771D01*
X16309524Y-14405771D02*
X16261905Y-14358152D01*
X16261905Y-14358152D02*
X16214286Y-14262914D01*
X16214286Y-14262914D02*
X16214286Y-14215295D01*
X16214286Y-14215295D02*
X16261905Y-14120057D01*
X16261905Y-14120057D02*
X16309524Y-14072438D01*
X16309524Y-14072438D02*
X16404762Y-14024819D01*
X16404762Y-14024819D02*
X16595238Y-14024819D01*
X16595238Y-14024819D02*
X16690476Y-14072438D01*
X16690476Y-14072438D02*
X16738095Y-14120057D01*
X16738095Y-14120057D02*
X16785714Y-14215295D01*
X16785714Y-14215295D02*
X16785714Y-14262914D01*
X16785714Y-14262914D02*
X16738095Y-14358152D01*
X16738095Y-14358152D02*
X16690476Y-14405771D01*
X16690476Y-14405771D02*
X16595238Y-14453390D01*
X16595238Y-14453390D02*
X16404762Y-14453390D01*
X16404762Y-14453390D02*
X16309524Y-14501009D01*
X16309524Y-14501009D02*
X16261905Y-14548628D01*
X16261905Y-14548628D02*
X16214286Y-14643866D01*
X16214286Y-14643866D02*
X16214286Y-14834342D01*
X16214286Y-14834342D02*
X16261905Y-14929580D01*
X16261905Y-14929580D02*
X16309524Y-14977200D01*
X16309524Y-14977200D02*
X16404762Y-15024819D01*
X16404762Y-15024819D02*
X16595238Y-15024819D01*
X16595238Y-15024819D02*
X16690476Y-14977200D01*
X16690476Y-14977200D02*
X16738095Y-14929580D01*
X16738095Y-14929580D02*
X16785714Y-14834342D01*
X16785714Y-14834342D02*
X16785714Y-14643866D01*
X16785714Y-14643866D02*
X16738095Y-14548628D01*
X16738095Y-14548628D02*
X16690476Y-14501009D01*
X16690476Y-14501009D02*
X16595238Y-14453390D01*
X34857142Y-51729580D02*
X34809523Y-51777200D01*
X34809523Y-51777200D02*
X34666666Y-51824819D01*
X34666666Y-51824819D02*
X34571428Y-51824819D01*
X34571428Y-51824819D02*
X34428571Y-51777200D01*
X34428571Y-51777200D02*
X34333333Y-51681961D01*
X34333333Y-51681961D02*
X34285714Y-51586723D01*
X34285714Y-51586723D02*
X34238095Y-51396247D01*
X34238095Y-51396247D02*
X34238095Y-51253390D01*
X34238095Y-51253390D02*
X34285714Y-51062914D01*
X34285714Y-51062914D02*
X34333333Y-50967676D01*
X34333333Y-50967676D02*
X34428571Y-50872438D01*
X34428571Y-50872438D02*
X34571428Y-50824819D01*
X34571428Y-50824819D02*
X34666666Y-50824819D01*
X34666666Y-50824819D02*
X34809523Y-50872438D01*
X34809523Y-50872438D02*
X34857142Y-50920057D01*
X35809523Y-51824819D02*
X35238095Y-51824819D01*
X35523809Y-51824819D02*
X35523809Y-50824819D01*
X35523809Y-50824819D02*
X35428571Y-50967676D01*
X35428571Y-50967676D02*
X35333333Y-51062914D01*
X35333333Y-51062914D02*
X35238095Y-51110533D01*
X36428571Y-50824819D02*
X36523809Y-50824819D01*
X36523809Y-50824819D02*
X36619047Y-50872438D01*
X36619047Y-50872438D02*
X36666666Y-50920057D01*
X36666666Y-50920057D02*
X36714285Y-51015295D01*
X36714285Y-51015295D02*
X36761904Y-51205771D01*
X36761904Y-51205771D02*
X36761904Y-51443866D01*
X36761904Y-51443866D02*
X36714285Y-51634342D01*
X36714285Y-51634342D02*
X36666666Y-51729580D01*
X36666666Y-51729580D02*
X36619047Y-51777200D01*
X36619047Y-51777200D02*
X36523809Y-51824819D01*
X36523809Y-51824819D02*
X36428571Y-51824819D01*
X36428571Y-51824819D02*
X36333333Y-51777200D01*
X36333333Y-51777200D02*
X36285714Y-51729580D01*
X36285714Y-51729580D02*
X36238095Y-51634342D01*
X36238095Y-51634342D02*
X36190476Y-51443866D01*
X36190476Y-51443866D02*
X36190476Y-51205771D01*
X36190476Y-51205771D02*
X36238095Y-51015295D01*
X36238095Y-51015295D02*
X36285714Y-50920057D01*
X36285714Y-50920057D02*
X36333333Y-50872438D01*
X36333333Y-50872438D02*
X36428571Y-50824819D01*
X15833333Y-18524819D02*
X15500000Y-18048628D01*
X15261905Y-18524819D02*
X15261905Y-17524819D01*
X15261905Y-17524819D02*
X15642857Y-17524819D01*
X15642857Y-17524819D02*
X15738095Y-17572438D01*
X15738095Y-17572438D02*
X15785714Y-17620057D01*
X15785714Y-17620057D02*
X15833333Y-17715295D01*
X15833333Y-17715295D02*
X15833333Y-17858152D01*
X15833333Y-17858152D02*
X15785714Y-17953390D01*
X15785714Y-17953390D02*
X15738095Y-18001009D01*
X15738095Y-18001009D02*
X15642857Y-18048628D01*
X15642857Y-18048628D02*
X15261905Y-18048628D01*
X16309524Y-18524819D02*
X16500000Y-18524819D01*
X16500000Y-18524819D02*
X16595238Y-18477200D01*
X16595238Y-18477200D02*
X16642857Y-18429580D01*
X16642857Y-18429580D02*
X16738095Y-18286723D01*
X16738095Y-18286723D02*
X16785714Y-18096247D01*
X16785714Y-18096247D02*
X16785714Y-17715295D01*
X16785714Y-17715295D02*
X16738095Y-17620057D01*
X16738095Y-17620057D02*
X16690476Y-17572438D01*
X16690476Y-17572438D02*
X16595238Y-17524819D01*
X16595238Y-17524819D02*
X16404762Y-17524819D01*
X16404762Y-17524819D02*
X16309524Y-17572438D01*
X16309524Y-17572438D02*
X16261905Y-17620057D01*
X16261905Y-17620057D02*
X16214286Y-17715295D01*
X16214286Y-17715295D02*
X16214286Y-17953390D01*
X16214286Y-17953390D02*
X16261905Y-18048628D01*
X16261905Y-18048628D02*
X16309524Y-18096247D01*
X16309524Y-18096247D02*
X16404762Y-18143866D01*
X16404762Y-18143866D02*
X16595238Y-18143866D01*
X16595238Y-18143866D02*
X16690476Y-18096247D01*
X16690476Y-18096247D02*
X16738095Y-18048628D01*
X16738095Y-18048628D02*
X16785714Y-17953390D01*
X3238095Y-804819D02*
X3238095Y195180D01*
X3238095Y-281009D02*
X3809523Y-281009D01*
X3809523Y-804819D02*
X3809523Y195180D01*
X4809523Y-804819D02*
X4238095Y-804819D01*
X4523809Y-804819D02*
X4523809Y195180D01*
X4523809Y195180D02*
X4428571Y52323D01*
X4428571Y52323D02*
X4333333Y-42914D01*
X4333333Y-42914D02*
X4238095Y-90533D01*
X23833333Y-52789580D02*
X23785714Y-52837200D01*
X23785714Y-52837200D02*
X23642857Y-52884819D01*
X23642857Y-52884819D02*
X23547619Y-52884819D01*
X23547619Y-52884819D02*
X23404762Y-52837200D01*
X23404762Y-52837200D02*
X23309524Y-52741961D01*
X23309524Y-52741961D02*
X23261905Y-52646723D01*
X23261905Y-52646723D02*
X23214286Y-52456247D01*
X23214286Y-52456247D02*
X23214286Y-52313390D01*
X23214286Y-52313390D02*
X23261905Y-52122914D01*
X23261905Y-52122914D02*
X23309524Y-52027676D01*
X23309524Y-52027676D02*
X23404762Y-51932438D01*
X23404762Y-51932438D02*
X23547619Y-51884819D01*
X23547619Y-51884819D02*
X23642857Y-51884819D01*
X23642857Y-51884819D02*
X23785714Y-51932438D01*
X23785714Y-51932438D02*
X23833333Y-51980057D01*
X24404762Y-52313390D02*
X24309524Y-52265771D01*
X24309524Y-52265771D02*
X24261905Y-52218152D01*
X24261905Y-52218152D02*
X24214286Y-52122914D01*
X24214286Y-52122914D02*
X24214286Y-52075295D01*
X24214286Y-52075295D02*
X24261905Y-51980057D01*
X24261905Y-51980057D02*
X24309524Y-51932438D01*
X24309524Y-51932438D02*
X24404762Y-51884819D01*
X24404762Y-51884819D02*
X24595238Y-51884819D01*
X24595238Y-51884819D02*
X24690476Y-51932438D01*
X24690476Y-51932438D02*
X24738095Y-51980057D01*
X24738095Y-51980057D02*
X24785714Y-52075295D01*
X24785714Y-52075295D02*
X24785714Y-52122914D01*
X24785714Y-52122914D02*
X24738095Y-52218152D01*
X24738095Y-52218152D02*
X24690476Y-52265771D01*
X24690476Y-52265771D02*
X24595238Y-52313390D01*
X24595238Y-52313390D02*
X24404762Y-52313390D01*
X24404762Y-52313390D02*
X24309524Y-52361009D01*
X24309524Y-52361009D02*
X24261905Y-52408628D01*
X24261905Y-52408628D02*
X24214286Y-52503866D01*
X24214286Y-52503866D02*
X24214286Y-52694342D01*
X24214286Y-52694342D02*
X24261905Y-52789580D01*
X24261905Y-52789580D02*
X24309524Y-52837200D01*
X24309524Y-52837200D02*
X24404762Y-52884819D01*
X24404762Y-52884819D02*
X24595238Y-52884819D01*
X24595238Y-52884819D02*
X24690476Y-52837200D01*
X24690476Y-52837200D02*
X24738095Y-52789580D01*
X24738095Y-52789580D02*
X24785714Y-52694342D01*
X24785714Y-52694342D02*
X24785714Y-52503866D01*
X24785714Y-52503866D02*
X24738095Y-52408628D01*
X24738095Y-52408628D02*
X24690476Y-52361009D01*
X24690476Y-52361009D02*
X24595238Y-52313390D01*
X30957142Y-28429580D02*
X30909523Y-28477200D01*
X30909523Y-28477200D02*
X30766666Y-28524819D01*
X30766666Y-28524819D02*
X30671428Y-28524819D01*
X30671428Y-28524819D02*
X30528571Y-28477200D01*
X30528571Y-28477200D02*
X30433333Y-28381961D01*
X30433333Y-28381961D02*
X30385714Y-28286723D01*
X30385714Y-28286723D02*
X30338095Y-28096247D01*
X30338095Y-28096247D02*
X30338095Y-27953390D01*
X30338095Y-27953390D02*
X30385714Y-27762914D01*
X30385714Y-27762914D02*
X30433333Y-27667676D01*
X30433333Y-27667676D02*
X30528571Y-27572438D01*
X30528571Y-27572438D02*
X30671428Y-27524819D01*
X30671428Y-27524819D02*
X30766666Y-27524819D01*
X30766666Y-27524819D02*
X30909523Y-27572438D01*
X30909523Y-27572438D02*
X30957142Y-27620057D01*
X31909523Y-28524819D02*
X31338095Y-28524819D01*
X31623809Y-28524819D02*
X31623809Y-27524819D01*
X31623809Y-27524819D02*
X31528571Y-27667676D01*
X31528571Y-27667676D02*
X31433333Y-27762914D01*
X31433333Y-27762914D02*
X31338095Y-27810533D01*
X32290476Y-27620057D02*
X32338095Y-27572438D01*
X32338095Y-27572438D02*
X32433333Y-27524819D01*
X32433333Y-27524819D02*
X32671428Y-27524819D01*
X32671428Y-27524819D02*
X32766666Y-27572438D01*
X32766666Y-27572438D02*
X32814285Y-27620057D01*
X32814285Y-27620057D02*
X32861904Y-27715295D01*
X32861904Y-27715295D02*
X32861904Y-27810533D01*
X32861904Y-27810533D02*
X32814285Y-27953390D01*
X32814285Y-27953390D02*
X32242857Y-28524819D01*
X32242857Y-28524819D02*
X32861904Y-28524819D01*
X32233333Y-33224819D02*
X31900000Y-32748628D01*
X31661905Y-33224819D02*
X31661905Y-32224819D01*
X31661905Y-32224819D02*
X32042857Y-32224819D01*
X32042857Y-32224819D02*
X32138095Y-32272438D01*
X32138095Y-32272438D02*
X32185714Y-32320057D01*
X32185714Y-32320057D02*
X32233333Y-32415295D01*
X32233333Y-32415295D02*
X32233333Y-32558152D01*
X32233333Y-32558152D02*
X32185714Y-32653390D01*
X32185714Y-32653390D02*
X32138095Y-32701009D01*
X32138095Y-32701009D02*
X32042857Y-32748628D01*
X32042857Y-32748628D02*
X31661905Y-32748628D01*
X33090476Y-32224819D02*
X32900000Y-32224819D01*
X32900000Y-32224819D02*
X32804762Y-32272438D01*
X32804762Y-32272438D02*
X32757143Y-32320057D01*
X32757143Y-32320057D02*
X32661905Y-32462914D01*
X32661905Y-32462914D02*
X32614286Y-32653390D01*
X32614286Y-32653390D02*
X32614286Y-33034342D01*
X32614286Y-33034342D02*
X32661905Y-33129580D01*
X32661905Y-33129580D02*
X32709524Y-33177200D01*
X32709524Y-33177200D02*
X32804762Y-33224819D01*
X32804762Y-33224819D02*
X32995238Y-33224819D01*
X32995238Y-33224819D02*
X33090476Y-33177200D01*
X33090476Y-33177200D02*
X33138095Y-33129580D01*
X33138095Y-33129580D02*
X33185714Y-33034342D01*
X33185714Y-33034342D02*
X33185714Y-32796247D01*
X33185714Y-32796247D02*
X33138095Y-32701009D01*
X33138095Y-32701009D02*
X33090476Y-32653390D01*
X33090476Y-32653390D02*
X32995238Y-32605771D01*
X32995238Y-32605771D02*
X32804762Y-32605771D01*
X32804762Y-32605771D02*
X32709524Y-32653390D01*
X32709524Y-32653390D02*
X32661905Y-32701009D01*
X32661905Y-32701009D02*
X32614286Y-32796247D01*
X33024819Y-80166666D02*
X32548628Y-80499999D01*
X33024819Y-80738094D02*
X32024819Y-80738094D01*
X32024819Y-80738094D02*
X32024819Y-80357142D01*
X32024819Y-80357142D02*
X32072438Y-80261904D01*
X32072438Y-80261904D02*
X32120057Y-80214285D01*
X32120057Y-80214285D02*
X32215295Y-80166666D01*
X32215295Y-80166666D02*
X32358152Y-80166666D01*
X32358152Y-80166666D02*
X32453390Y-80214285D01*
X32453390Y-80214285D02*
X32501009Y-80261904D01*
X32501009Y-80261904D02*
X32548628Y-80357142D01*
X32548628Y-80357142D02*
X32548628Y-80738094D01*
X32024819Y-79833332D02*
X32024819Y-79214285D01*
X32024819Y-79214285D02*
X32405771Y-79547618D01*
X32405771Y-79547618D02*
X32405771Y-79404761D01*
X32405771Y-79404761D02*
X32453390Y-79309523D01*
X32453390Y-79309523D02*
X32501009Y-79261904D01*
X32501009Y-79261904D02*
X32596247Y-79214285D01*
X32596247Y-79214285D02*
X32834342Y-79214285D01*
X32834342Y-79214285D02*
X32929580Y-79261904D01*
X32929580Y-79261904D02*
X32977200Y-79309523D01*
X32977200Y-79309523D02*
X33024819Y-79404761D01*
X33024819Y-79404761D02*
X33024819Y-79690475D01*
X33024819Y-79690475D02*
X32977200Y-79785713D01*
X32977200Y-79785713D02*
X32929580Y-79833332D01*
X71666666Y-69834819D02*
X71666666Y-70549104D01*
X71666666Y-70549104D02*
X71619047Y-70691961D01*
X71619047Y-70691961D02*
X71523809Y-70787200D01*
X71523809Y-70787200D02*
X71380952Y-70834819D01*
X71380952Y-70834819D02*
X71285714Y-70834819D01*
X72047619Y-69834819D02*
X72666666Y-69834819D01*
X72666666Y-69834819D02*
X72333333Y-70215771D01*
X72333333Y-70215771D02*
X72476190Y-70215771D01*
X72476190Y-70215771D02*
X72571428Y-70263390D01*
X72571428Y-70263390D02*
X72619047Y-70311009D01*
X72619047Y-70311009D02*
X72666666Y-70406247D01*
X72666666Y-70406247D02*
X72666666Y-70644342D01*
X72666666Y-70644342D02*
X72619047Y-70739580D01*
X72619047Y-70739580D02*
X72571428Y-70787200D01*
X72571428Y-70787200D02*
X72476190Y-70834819D01*
X72476190Y-70834819D02*
X72190476Y-70834819D01*
X72190476Y-70834819D02*
X72095238Y-70787200D01*
X72095238Y-70787200D02*
X72047619Y-70739580D01*
X31024819Y-83666666D02*
X30548628Y-83999999D01*
X31024819Y-84238094D02*
X30024819Y-84238094D01*
X30024819Y-84238094D02*
X30024819Y-83857142D01*
X30024819Y-83857142D02*
X30072438Y-83761904D01*
X30072438Y-83761904D02*
X30120057Y-83714285D01*
X30120057Y-83714285D02*
X30215295Y-83666666D01*
X30215295Y-83666666D02*
X30358152Y-83666666D01*
X30358152Y-83666666D02*
X30453390Y-83714285D01*
X30453390Y-83714285D02*
X30501009Y-83761904D01*
X30501009Y-83761904D02*
X30548628Y-83857142D01*
X30548628Y-83857142D02*
X30548628Y-84238094D01*
X31024819Y-82714285D02*
X31024819Y-83285713D01*
X31024819Y-82999999D02*
X30024819Y-82999999D01*
X30024819Y-82999999D02*
X30167676Y-83095237D01*
X30167676Y-83095237D02*
X30262914Y-83190475D01*
X30262914Y-83190475D02*
X30310533Y-83285713D01*
X32233333Y-36129580D02*
X32185714Y-36177200D01*
X32185714Y-36177200D02*
X32042857Y-36224819D01*
X32042857Y-36224819D02*
X31947619Y-36224819D01*
X31947619Y-36224819D02*
X31804762Y-36177200D01*
X31804762Y-36177200D02*
X31709524Y-36081961D01*
X31709524Y-36081961D02*
X31661905Y-35986723D01*
X31661905Y-35986723D02*
X31614286Y-35796247D01*
X31614286Y-35796247D02*
X31614286Y-35653390D01*
X31614286Y-35653390D02*
X31661905Y-35462914D01*
X31661905Y-35462914D02*
X31709524Y-35367676D01*
X31709524Y-35367676D02*
X31804762Y-35272438D01*
X31804762Y-35272438D02*
X31947619Y-35224819D01*
X31947619Y-35224819D02*
X32042857Y-35224819D01*
X32042857Y-35224819D02*
X32185714Y-35272438D01*
X32185714Y-35272438D02*
X32233333Y-35320057D01*
X33138095Y-35224819D02*
X32661905Y-35224819D01*
X32661905Y-35224819D02*
X32614286Y-35701009D01*
X32614286Y-35701009D02*
X32661905Y-35653390D01*
X32661905Y-35653390D02*
X32757143Y-35605771D01*
X32757143Y-35605771D02*
X32995238Y-35605771D01*
X32995238Y-35605771D02*
X33090476Y-35653390D01*
X33090476Y-35653390D02*
X33138095Y-35701009D01*
X33138095Y-35701009D02*
X33185714Y-35796247D01*
X33185714Y-35796247D02*
X33185714Y-36034342D01*
X33185714Y-36034342D02*
X33138095Y-36129580D01*
X33138095Y-36129580D02*
X33090476Y-36177200D01*
X33090476Y-36177200D02*
X32995238Y-36224819D01*
X32995238Y-36224819D02*
X32757143Y-36224819D01*
X32757143Y-36224819D02*
X32661905Y-36177200D01*
X32661905Y-36177200D02*
X32614286Y-36129580D01*
X75238095Y-82804819D02*
X75238095Y-81804819D01*
X75238095Y-82281009D02*
X75809523Y-82281009D01*
X75809523Y-82804819D02*
X75809523Y-81804819D01*
X76714285Y-82138152D02*
X76714285Y-82804819D01*
X76476190Y-81757200D02*
X76238095Y-82471485D01*
X76238095Y-82471485D02*
X76857142Y-82471485D01*
X32233333Y-51729580D02*
X32185714Y-51777200D01*
X32185714Y-51777200D02*
X32042857Y-51824819D01*
X32042857Y-51824819D02*
X31947619Y-51824819D01*
X31947619Y-51824819D02*
X31804762Y-51777200D01*
X31804762Y-51777200D02*
X31709524Y-51681961D01*
X31709524Y-51681961D02*
X31661905Y-51586723D01*
X31661905Y-51586723D02*
X31614286Y-51396247D01*
X31614286Y-51396247D02*
X31614286Y-51253390D01*
X31614286Y-51253390D02*
X31661905Y-51062914D01*
X31661905Y-51062914D02*
X31709524Y-50967676D01*
X31709524Y-50967676D02*
X31804762Y-50872438D01*
X31804762Y-50872438D02*
X31947619Y-50824819D01*
X31947619Y-50824819D02*
X32042857Y-50824819D01*
X32042857Y-50824819D02*
X32185714Y-50872438D01*
X32185714Y-50872438D02*
X32233333Y-50920057D01*
X32566667Y-50824819D02*
X33233333Y-50824819D01*
X33233333Y-50824819D02*
X32804762Y-51824819D01*
X55357142Y-25929580D02*
X55309523Y-25977200D01*
X55309523Y-25977200D02*
X55166666Y-26024819D01*
X55166666Y-26024819D02*
X55071428Y-26024819D01*
X55071428Y-26024819D02*
X54928571Y-25977200D01*
X54928571Y-25977200D02*
X54833333Y-25881961D01*
X54833333Y-25881961D02*
X54785714Y-25786723D01*
X54785714Y-25786723D02*
X54738095Y-25596247D01*
X54738095Y-25596247D02*
X54738095Y-25453390D01*
X54738095Y-25453390D02*
X54785714Y-25262914D01*
X54785714Y-25262914D02*
X54833333Y-25167676D01*
X54833333Y-25167676D02*
X54928571Y-25072438D01*
X54928571Y-25072438D02*
X55071428Y-25024819D01*
X55071428Y-25024819D02*
X55166666Y-25024819D01*
X55166666Y-25024819D02*
X55309523Y-25072438D01*
X55309523Y-25072438D02*
X55357142Y-25120057D01*
X56309523Y-26024819D02*
X55738095Y-26024819D01*
X56023809Y-26024819D02*
X56023809Y-25024819D01*
X56023809Y-25024819D02*
X55928571Y-25167676D01*
X55928571Y-25167676D02*
X55833333Y-25262914D01*
X55833333Y-25262914D02*
X55738095Y-25310533D01*
X57166666Y-25358152D02*
X57166666Y-26024819D01*
X56928571Y-24977200D02*
X56690476Y-25691485D01*
X56690476Y-25691485D02*
X57309523Y-25691485D01*
X26666666Y-52361009D02*
X26333333Y-52361009D01*
X26333333Y-52884819D02*
X26333333Y-51884819D01*
X26333333Y-51884819D02*
X26809523Y-51884819D01*
X27523809Y-52361009D02*
X27666666Y-52408628D01*
X27666666Y-52408628D02*
X27714285Y-52456247D01*
X27714285Y-52456247D02*
X27761904Y-52551485D01*
X27761904Y-52551485D02*
X27761904Y-52694342D01*
X27761904Y-52694342D02*
X27714285Y-52789580D01*
X27714285Y-52789580D02*
X27666666Y-52837200D01*
X27666666Y-52837200D02*
X27571428Y-52884819D01*
X27571428Y-52884819D02*
X27190476Y-52884819D01*
X27190476Y-52884819D02*
X27190476Y-51884819D01*
X27190476Y-51884819D02*
X27523809Y-51884819D01*
X27523809Y-51884819D02*
X27619047Y-51932438D01*
X27619047Y-51932438D02*
X27666666Y-51980057D01*
X27666666Y-51980057D02*
X27714285Y-52075295D01*
X27714285Y-52075295D02*
X27714285Y-52170533D01*
X27714285Y-52170533D02*
X27666666Y-52265771D01*
X27666666Y-52265771D02*
X27619047Y-52313390D01*
X27619047Y-52313390D02*
X27523809Y-52361009D01*
X27523809Y-52361009D02*
X27190476Y-52361009D01*
X28714285Y-52884819D02*
X28142857Y-52884819D01*
X28428571Y-52884819D02*
X28428571Y-51884819D01*
X28428571Y-51884819D02*
X28333333Y-52027676D01*
X28333333Y-52027676D02*
X28238095Y-52122914D01*
X28238095Y-52122914D02*
X28142857Y-52170533D01*
X47433333Y-37424819D02*
X47100000Y-36948628D01*
X46861905Y-37424819D02*
X46861905Y-36424819D01*
X46861905Y-36424819D02*
X47242857Y-36424819D01*
X47242857Y-36424819D02*
X47338095Y-36472438D01*
X47338095Y-36472438D02*
X47385714Y-36520057D01*
X47385714Y-36520057D02*
X47433333Y-36615295D01*
X47433333Y-36615295D02*
X47433333Y-36758152D01*
X47433333Y-36758152D02*
X47385714Y-36853390D01*
X47385714Y-36853390D02*
X47338095Y-36901009D01*
X47338095Y-36901009D02*
X47242857Y-36948628D01*
X47242857Y-36948628D02*
X46861905Y-36948628D01*
X48338095Y-36424819D02*
X47861905Y-36424819D01*
X47861905Y-36424819D02*
X47814286Y-36901009D01*
X47814286Y-36901009D02*
X47861905Y-36853390D01*
X47861905Y-36853390D02*
X47957143Y-36805771D01*
X47957143Y-36805771D02*
X48195238Y-36805771D01*
X48195238Y-36805771D02*
X48290476Y-36853390D01*
X48290476Y-36853390D02*
X48338095Y-36901009D01*
X48338095Y-36901009D02*
X48385714Y-36996247D01*
X48385714Y-36996247D02*
X48385714Y-37234342D01*
X48385714Y-37234342D02*
X48338095Y-37329580D01*
X48338095Y-37329580D02*
X48290476Y-37377200D01*
X48290476Y-37377200D02*
X48195238Y-37424819D01*
X48195238Y-37424819D02*
X47957143Y-37424819D01*
X47957143Y-37424819D02*
X47861905Y-37377200D01*
X47861905Y-37377200D02*
X47814286Y-37329580D01*
X19054819Y-74761904D02*
X19864342Y-74761904D01*
X19864342Y-74761904D02*
X19959580Y-74714285D01*
X19959580Y-74714285D02*
X20007200Y-74666666D01*
X20007200Y-74666666D02*
X20054819Y-74571428D01*
X20054819Y-74571428D02*
X20054819Y-74380952D01*
X20054819Y-74380952D02*
X20007200Y-74285714D01*
X20007200Y-74285714D02*
X19959580Y-74238095D01*
X19959580Y-74238095D02*
X19864342Y-74190476D01*
X19864342Y-74190476D02*
X19054819Y-74190476D01*
X19150057Y-73761904D02*
X19102438Y-73714285D01*
X19102438Y-73714285D02*
X19054819Y-73619047D01*
X19054819Y-73619047D02*
X19054819Y-73380952D01*
X19054819Y-73380952D02*
X19102438Y-73285714D01*
X19102438Y-73285714D02*
X19150057Y-73238095D01*
X19150057Y-73238095D02*
X19245295Y-73190476D01*
X19245295Y-73190476D02*
X19340533Y-73190476D01*
X19340533Y-73190476D02*
X19483390Y-73238095D01*
X19483390Y-73238095D02*
X20054819Y-73809523D01*
X20054819Y-73809523D02*
X20054819Y-73190476D01*
X45024819Y-80166666D02*
X44548628Y-80499999D01*
X45024819Y-80738094D02*
X44024819Y-80738094D01*
X44024819Y-80738094D02*
X44024819Y-80357142D01*
X44024819Y-80357142D02*
X44072438Y-80261904D01*
X44072438Y-80261904D02*
X44120057Y-80214285D01*
X44120057Y-80214285D02*
X44215295Y-80166666D01*
X44215295Y-80166666D02*
X44358152Y-80166666D01*
X44358152Y-80166666D02*
X44453390Y-80214285D01*
X44453390Y-80214285D02*
X44501009Y-80261904D01*
X44501009Y-80261904D02*
X44548628Y-80357142D01*
X44548628Y-80357142D02*
X44548628Y-80738094D01*
X44358152Y-79309523D02*
X45024819Y-79309523D01*
X43977200Y-79547618D02*
X44691485Y-79785713D01*
X44691485Y-79785713D02*
X44691485Y-79166666D01*
X75238095Y-804819D02*
X75238095Y195180D01*
X75238095Y-281009D02*
X75809523Y-281009D01*
X75809523Y-804819D02*
X75809523Y195180D01*
X76238095Y99942D02*
X76285714Y147561D01*
X76285714Y147561D02*
X76380952Y195180D01*
X76380952Y195180D02*
X76619047Y195180D01*
X76619047Y195180D02*
X76714285Y147561D01*
X76714285Y147561D02*
X76761904Y99942D01*
X76761904Y99942D02*
X76809523Y4704D01*
X76809523Y4704D02*
X76809523Y-90533D01*
X76809523Y-90533D02*
X76761904Y-233390D01*
X76761904Y-233390D02*
X76190476Y-804819D01*
X76190476Y-804819D02*
X76809523Y-804819D01*
X27024819Y-26142857D02*
X26548628Y-26476190D01*
X27024819Y-26714285D02*
X26024819Y-26714285D01*
X26024819Y-26714285D02*
X26024819Y-26333333D01*
X26024819Y-26333333D02*
X26072438Y-26238095D01*
X26072438Y-26238095D02*
X26120057Y-26190476D01*
X26120057Y-26190476D02*
X26215295Y-26142857D01*
X26215295Y-26142857D02*
X26358152Y-26142857D01*
X26358152Y-26142857D02*
X26453390Y-26190476D01*
X26453390Y-26190476D02*
X26501009Y-26238095D01*
X26501009Y-26238095D02*
X26548628Y-26333333D01*
X26548628Y-26333333D02*
X26548628Y-26714285D01*
X27024819Y-25190476D02*
X27024819Y-25761904D01*
X27024819Y-25476190D02*
X26024819Y-25476190D01*
X26024819Y-25476190D02*
X26167676Y-25571428D01*
X26167676Y-25571428D02*
X26262914Y-25666666D01*
X26262914Y-25666666D02*
X26310533Y-25761904D01*
X26024819Y-24571428D02*
X26024819Y-24476190D01*
X26024819Y-24476190D02*
X26072438Y-24380952D01*
X26072438Y-24380952D02*
X26120057Y-24333333D01*
X26120057Y-24333333D02*
X26215295Y-24285714D01*
X26215295Y-24285714D02*
X26405771Y-24238095D01*
X26405771Y-24238095D02*
X26643866Y-24238095D01*
X26643866Y-24238095D02*
X26834342Y-24285714D01*
X26834342Y-24285714D02*
X26929580Y-24333333D01*
X26929580Y-24333333D02*
X26977200Y-24380952D01*
X26977200Y-24380952D02*
X27024819Y-24476190D01*
X27024819Y-24476190D02*
X27024819Y-24571428D01*
X27024819Y-24571428D02*
X26977200Y-24666666D01*
X26977200Y-24666666D02*
X26929580Y-24714285D01*
X26929580Y-24714285D02*
X26834342Y-24761904D01*
X26834342Y-24761904D02*
X26643866Y-24809523D01*
X26643866Y-24809523D02*
X26405771Y-24809523D01*
X26405771Y-24809523D02*
X26215295Y-24761904D01*
X26215295Y-24761904D02*
X26120057Y-24714285D01*
X26120057Y-24714285D02*
X26072438Y-24666666D01*
X26072438Y-24666666D02*
X26024819Y-24571428D01*
X39666666Y-80809819D02*
X39666666Y-81524104D01*
X39666666Y-81524104D02*
X39619047Y-81666961D01*
X39619047Y-81666961D02*
X39523809Y-81762200D01*
X39523809Y-81762200D02*
X39380952Y-81809819D01*
X39380952Y-81809819D02*
X39285714Y-81809819D01*
X40666666Y-81809819D02*
X40095238Y-81809819D01*
X40380952Y-81809819D02*
X40380952Y-80809819D01*
X40380952Y-80809819D02*
X40285714Y-80952676D01*
X40285714Y-80952676D02*
X40190476Y-81047914D01*
X40190476Y-81047914D02*
X40095238Y-81095533D01*
X25833333Y-69929580D02*
X25785714Y-69977200D01*
X25785714Y-69977200D02*
X25642857Y-70024819D01*
X25642857Y-70024819D02*
X25547619Y-70024819D01*
X25547619Y-70024819D02*
X25404762Y-69977200D01*
X25404762Y-69977200D02*
X25309524Y-69881961D01*
X25309524Y-69881961D02*
X25261905Y-69786723D01*
X25261905Y-69786723D02*
X25214286Y-69596247D01*
X25214286Y-69596247D02*
X25214286Y-69453390D01*
X25214286Y-69453390D02*
X25261905Y-69262914D01*
X25261905Y-69262914D02*
X25309524Y-69167676D01*
X25309524Y-69167676D02*
X25404762Y-69072438D01*
X25404762Y-69072438D02*
X25547619Y-69024819D01*
X25547619Y-69024819D02*
X25642857Y-69024819D01*
X25642857Y-69024819D02*
X25785714Y-69072438D01*
X25785714Y-69072438D02*
X25833333Y-69120057D01*
X26166667Y-69024819D02*
X26785714Y-69024819D01*
X26785714Y-69024819D02*
X26452381Y-69405771D01*
X26452381Y-69405771D02*
X26595238Y-69405771D01*
X26595238Y-69405771D02*
X26690476Y-69453390D01*
X26690476Y-69453390D02*
X26738095Y-69501009D01*
X26738095Y-69501009D02*
X26785714Y-69596247D01*
X26785714Y-69596247D02*
X26785714Y-69834342D01*
X26785714Y-69834342D02*
X26738095Y-69929580D01*
X26738095Y-69929580D02*
X26690476Y-69977200D01*
X26690476Y-69977200D02*
X26595238Y-70024819D01*
X26595238Y-70024819D02*
X26309524Y-70024819D01*
X26309524Y-70024819D02*
X26214286Y-69977200D01*
X26214286Y-69977200D02*
X26166667Y-69929580D01*
X23833333Y-46929580D02*
X23785714Y-46977200D01*
X23785714Y-46977200D02*
X23642857Y-47024819D01*
X23642857Y-47024819D02*
X23547619Y-47024819D01*
X23547619Y-47024819D02*
X23404762Y-46977200D01*
X23404762Y-46977200D02*
X23309524Y-46881961D01*
X23309524Y-46881961D02*
X23261905Y-46786723D01*
X23261905Y-46786723D02*
X23214286Y-46596247D01*
X23214286Y-46596247D02*
X23214286Y-46453390D01*
X23214286Y-46453390D02*
X23261905Y-46262914D01*
X23261905Y-46262914D02*
X23309524Y-46167676D01*
X23309524Y-46167676D02*
X23404762Y-46072438D01*
X23404762Y-46072438D02*
X23547619Y-46024819D01*
X23547619Y-46024819D02*
X23642857Y-46024819D01*
X23642857Y-46024819D02*
X23785714Y-46072438D01*
X23785714Y-46072438D02*
X23833333Y-46120057D01*
X24309524Y-47024819D02*
X24500000Y-47024819D01*
X24500000Y-47024819D02*
X24595238Y-46977200D01*
X24595238Y-46977200D02*
X24642857Y-46929580D01*
X24642857Y-46929580D02*
X24738095Y-46786723D01*
X24738095Y-46786723D02*
X24785714Y-46596247D01*
X24785714Y-46596247D02*
X24785714Y-46215295D01*
X24785714Y-46215295D02*
X24738095Y-46120057D01*
X24738095Y-46120057D02*
X24690476Y-46072438D01*
X24690476Y-46072438D02*
X24595238Y-46024819D01*
X24595238Y-46024819D02*
X24404762Y-46024819D01*
X24404762Y-46024819D02*
X24309524Y-46072438D01*
X24309524Y-46072438D02*
X24261905Y-46120057D01*
X24261905Y-46120057D02*
X24214286Y-46215295D01*
X24214286Y-46215295D02*
X24214286Y-46453390D01*
X24214286Y-46453390D02*
X24261905Y-46548628D01*
X24261905Y-46548628D02*
X24309524Y-46596247D01*
X24309524Y-46596247D02*
X24404762Y-46643866D01*
X24404762Y-46643866D02*
X24595238Y-46643866D01*
X24595238Y-46643866D02*
X24690476Y-46596247D01*
X24690476Y-46596247D02*
X24738095Y-46548628D01*
X24738095Y-46548628D02*
X24785714Y-46453390D01*
X23757142Y-28429580D02*
X23709523Y-28477200D01*
X23709523Y-28477200D02*
X23566666Y-28524819D01*
X23566666Y-28524819D02*
X23471428Y-28524819D01*
X23471428Y-28524819D02*
X23328571Y-28477200D01*
X23328571Y-28477200D02*
X23233333Y-28381961D01*
X23233333Y-28381961D02*
X23185714Y-28286723D01*
X23185714Y-28286723D02*
X23138095Y-28096247D01*
X23138095Y-28096247D02*
X23138095Y-27953390D01*
X23138095Y-27953390D02*
X23185714Y-27762914D01*
X23185714Y-27762914D02*
X23233333Y-27667676D01*
X23233333Y-27667676D02*
X23328571Y-27572438D01*
X23328571Y-27572438D02*
X23471428Y-27524819D01*
X23471428Y-27524819D02*
X23566666Y-27524819D01*
X23566666Y-27524819D02*
X23709523Y-27572438D01*
X23709523Y-27572438D02*
X23757142Y-27620057D01*
X24709523Y-28524819D02*
X24138095Y-28524819D01*
X24423809Y-28524819D02*
X24423809Y-27524819D01*
X24423809Y-27524819D02*
X24328571Y-27667676D01*
X24328571Y-27667676D02*
X24233333Y-27762914D01*
X24233333Y-27762914D02*
X24138095Y-27810533D01*
X25661904Y-28524819D02*
X25090476Y-28524819D01*
X25376190Y-28524819D02*
X25376190Y-27524819D01*
X25376190Y-27524819D02*
X25280952Y-27667676D01*
X25280952Y-27667676D02*
X25185714Y-27762914D01*
X25185714Y-27762914D02*
X25090476Y-27810533D01*
X26666667Y-6657200D02*
X26809524Y-6704819D01*
X26809524Y-6704819D02*
X27047619Y-6704819D01*
X27047619Y-6704819D02*
X27142857Y-6657200D01*
X27142857Y-6657200D02*
X27190476Y-6609580D01*
X27190476Y-6609580D02*
X27238095Y-6514342D01*
X27238095Y-6514342D02*
X27238095Y-6419104D01*
X27238095Y-6419104D02*
X27190476Y-6323866D01*
X27190476Y-6323866D02*
X27142857Y-6276247D01*
X27142857Y-6276247D02*
X27047619Y-6228628D01*
X27047619Y-6228628D02*
X26857143Y-6181009D01*
X26857143Y-6181009D02*
X26761905Y-6133390D01*
X26761905Y-6133390D02*
X26714286Y-6085771D01*
X26714286Y-6085771D02*
X26666667Y-5990533D01*
X26666667Y-5990533D02*
X26666667Y-5895295D01*
X26666667Y-5895295D02*
X26714286Y-5800057D01*
X26714286Y-5800057D02*
X26761905Y-5752438D01*
X26761905Y-5752438D02*
X26857143Y-5704819D01*
X26857143Y-5704819D02*
X27095238Y-5704819D01*
X27095238Y-5704819D02*
X27238095Y-5752438D01*
X27571429Y-5704819D02*
X27809524Y-6704819D01*
X27809524Y-6704819D02*
X28000000Y-5990533D01*
X28000000Y-5990533D02*
X28190476Y-6704819D01*
X28190476Y-6704819D02*
X28428572Y-5704819D01*
X28761905Y-5800057D02*
X28809524Y-5752438D01*
X28809524Y-5752438D02*
X28904762Y-5704819D01*
X28904762Y-5704819D02*
X29142857Y-5704819D01*
X29142857Y-5704819D02*
X29238095Y-5752438D01*
X29238095Y-5752438D02*
X29285714Y-5800057D01*
X29285714Y-5800057D02*
X29333333Y-5895295D01*
X29333333Y-5895295D02*
X29333333Y-5990533D01*
X29333333Y-5990533D02*
X29285714Y-6133390D01*
X29285714Y-6133390D02*
X28714286Y-6704819D01*
X28714286Y-6704819D02*
X29333333Y-6704819D01*
X47433333Y-54824819D02*
X47100000Y-54348628D01*
X46861905Y-54824819D02*
X46861905Y-53824819D01*
X46861905Y-53824819D02*
X47242857Y-53824819D01*
X47242857Y-53824819D02*
X47338095Y-53872438D01*
X47338095Y-53872438D02*
X47385714Y-53920057D01*
X47385714Y-53920057D02*
X47433333Y-54015295D01*
X47433333Y-54015295D02*
X47433333Y-54158152D01*
X47433333Y-54158152D02*
X47385714Y-54253390D01*
X47385714Y-54253390D02*
X47338095Y-54301009D01*
X47338095Y-54301009D02*
X47242857Y-54348628D01*
X47242857Y-54348628D02*
X46861905Y-54348628D01*
X47766667Y-53824819D02*
X48433333Y-53824819D01*
X48433333Y-53824819D02*
X48004762Y-54824819D01*
X55357142Y-19929580D02*
X55309523Y-19977200D01*
X55309523Y-19977200D02*
X55166666Y-20024819D01*
X55166666Y-20024819D02*
X55071428Y-20024819D01*
X55071428Y-20024819D02*
X54928571Y-19977200D01*
X54928571Y-19977200D02*
X54833333Y-19881961D01*
X54833333Y-19881961D02*
X54785714Y-19786723D01*
X54785714Y-19786723D02*
X54738095Y-19596247D01*
X54738095Y-19596247D02*
X54738095Y-19453390D01*
X54738095Y-19453390D02*
X54785714Y-19262914D01*
X54785714Y-19262914D02*
X54833333Y-19167676D01*
X54833333Y-19167676D02*
X54928571Y-19072438D01*
X54928571Y-19072438D02*
X55071428Y-19024819D01*
X55071428Y-19024819D02*
X55166666Y-19024819D01*
X55166666Y-19024819D02*
X55309523Y-19072438D01*
X55309523Y-19072438D02*
X55357142Y-19120057D01*
X56309523Y-20024819D02*
X55738095Y-20024819D01*
X56023809Y-20024819D02*
X56023809Y-19024819D01*
X56023809Y-19024819D02*
X55928571Y-19167676D01*
X55928571Y-19167676D02*
X55833333Y-19262914D01*
X55833333Y-19262914D02*
X55738095Y-19310533D01*
X56642857Y-19024819D02*
X57261904Y-19024819D01*
X57261904Y-19024819D02*
X56928571Y-19405771D01*
X56928571Y-19405771D02*
X57071428Y-19405771D01*
X57071428Y-19405771D02*
X57166666Y-19453390D01*
X57166666Y-19453390D02*
X57214285Y-19501009D01*
X57214285Y-19501009D02*
X57261904Y-19596247D01*
X57261904Y-19596247D02*
X57261904Y-19834342D01*
X57261904Y-19834342D02*
X57214285Y-19929580D01*
X57214285Y-19929580D02*
X57166666Y-19977200D01*
X57166666Y-19977200D02*
X57071428Y-20024819D01*
X57071428Y-20024819D02*
X56785714Y-20024819D01*
X56785714Y-20024819D02*
X56690476Y-19977200D01*
X56690476Y-19977200D02*
X56642857Y-19929580D01*
X7666666Y-69834819D02*
X7666666Y-70549104D01*
X7666666Y-70549104D02*
X7619047Y-70691961D01*
X7619047Y-70691961D02*
X7523809Y-70787200D01*
X7523809Y-70787200D02*
X7380952Y-70834819D01*
X7380952Y-70834819D02*
X7285714Y-70834819D01*
X8095238Y-69930057D02*
X8142857Y-69882438D01*
X8142857Y-69882438D02*
X8238095Y-69834819D01*
X8238095Y-69834819D02*
X8476190Y-69834819D01*
X8476190Y-69834819D02*
X8571428Y-69882438D01*
X8571428Y-69882438D02*
X8619047Y-69930057D01*
X8619047Y-69930057D02*
X8666666Y-70025295D01*
X8666666Y-70025295D02*
X8666666Y-70120533D01*
X8666666Y-70120533D02*
X8619047Y-70263390D01*
X8619047Y-70263390D02*
X8047619Y-70834819D01*
X8047619Y-70834819D02*
X8666666Y-70834819D01*
X39238095Y-38604819D02*
X39238095Y-39414342D01*
X39238095Y-39414342D02*
X39285714Y-39509580D01*
X39285714Y-39509580D02*
X39333333Y-39557200D01*
X39333333Y-39557200D02*
X39428571Y-39604819D01*
X39428571Y-39604819D02*
X39619047Y-39604819D01*
X39619047Y-39604819D02*
X39714285Y-39557200D01*
X39714285Y-39557200D02*
X39761904Y-39509580D01*
X39761904Y-39509580D02*
X39809523Y-39414342D01*
X39809523Y-39414342D02*
X39809523Y-38604819D01*
X40809523Y-39604819D02*
X40238095Y-39604819D01*
X40523809Y-39604819D02*
X40523809Y-38604819D01*
X40523809Y-38604819D02*
X40428571Y-38747676D01*
X40428571Y-38747676D02*
X40333333Y-38842914D01*
X40333333Y-38842914D02*
X40238095Y-38890533D01*
X17833333Y-75679580D02*
X17785714Y-75727200D01*
X17785714Y-75727200D02*
X17642857Y-75774819D01*
X17642857Y-75774819D02*
X17547619Y-75774819D01*
X17547619Y-75774819D02*
X17404762Y-75727200D01*
X17404762Y-75727200D02*
X17309524Y-75631961D01*
X17309524Y-75631961D02*
X17261905Y-75536723D01*
X17261905Y-75536723D02*
X17214286Y-75346247D01*
X17214286Y-75346247D02*
X17214286Y-75203390D01*
X17214286Y-75203390D02*
X17261905Y-75012914D01*
X17261905Y-75012914D02*
X17309524Y-74917676D01*
X17309524Y-74917676D02*
X17404762Y-74822438D01*
X17404762Y-74822438D02*
X17547619Y-74774819D01*
X17547619Y-74774819D02*
X17642857Y-74774819D01*
X17642857Y-74774819D02*
X17785714Y-74822438D01*
X17785714Y-74822438D02*
X17833333Y-74870057D01*
X18785714Y-75774819D02*
X18214286Y-75774819D01*
X18500000Y-75774819D02*
X18500000Y-74774819D01*
X18500000Y-74774819D02*
X18404762Y-74917676D01*
X18404762Y-74917676D02*
X18309524Y-75012914D01*
X18309524Y-75012914D02*
X18214286Y-75060533D01*
X49978628Y-24476190D02*
X50454819Y-24476190D01*
X49454819Y-24809523D02*
X49978628Y-24476190D01*
X49978628Y-24476190D02*
X49454819Y-24142857D01*
X49550057Y-23857142D02*
X49502438Y-23809523D01*
X49502438Y-23809523D02*
X49454819Y-23714285D01*
X49454819Y-23714285D02*
X49454819Y-23476190D01*
X49454819Y-23476190D02*
X49502438Y-23380952D01*
X49502438Y-23380952D02*
X49550057Y-23333333D01*
X49550057Y-23333333D02*
X49645295Y-23285714D01*
X49645295Y-23285714D02*
X49740533Y-23285714D01*
X49740533Y-23285714D02*
X49883390Y-23333333D01*
X49883390Y-23333333D02*
X50454819Y-23904761D01*
X50454819Y-23904761D02*
X50454819Y-23285714D01*
X37074819Y-8333333D02*
X37789104Y-8333333D01*
X37789104Y-8333333D02*
X37931961Y-8380952D01*
X37931961Y-8380952D02*
X38027200Y-8476190D01*
X38027200Y-8476190D02*
X38074819Y-8619047D01*
X38074819Y-8619047D02*
X38074819Y-8714285D01*
X37408152Y-7428571D02*
X38074819Y-7428571D01*
X37027200Y-7666666D02*
X37741485Y-7904761D01*
X37741485Y-7904761D02*
X37741485Y-7285714D01*
X14666667Y-6657200D02*
X14809524Y-6704819D01*
X14809524Y-6704819D02*
X15047619Y-6704819D01*
X15047619Y-6704819D02*
X15142857Y-6657200D01*
X15142857Y-6657200D02*
X15190476Y-6609580D01*
X15190476Y-6609580D02*
X15238095Y-6514342D01*
X15238095Y-6514342D02*
X15238095Y-6419104D01*
X15238095Y-6419104D02*
X15190476Y-6323866D01*
X15190476Y-6323866D02*
X15142857Y-6276247D01*
X15142857Y-6276247D02*
X15047619Y-6228628D01*
X15047619Y-6228628D02*
X14857143Y-6181009D01*
X14857143Y-6181009D02*
X14761905Y-6133390D01*
X14761905Y-6133390D02*
X14714286Y-6085771D01*
X14714286Y-6085771D02*
X14666667Y-5990533D01*
X14666667Y-5990533D02*
X14666667Y-5895295D01*
X14666667Y-5895295D02*
X14714286Y-5800057D01*
X14714286Y-5800057D02*
X14761905Y-5752438D01*
X14761905Y-5752438D02*
X14857143Y-5704819D01*
X14857143Y-5704819D02*
X15095238Y-5704819D01*
X15095238Y-5704819D02*
X15238095Y-5752438D01*
X15571429Y-5704819D02*
X15809524Y-6704819D01*
X15809524Y-6704819D02*
X16000000Y-5990533D01*
X16000000Y-5990533D02*
X16190476Y-6704819D01*
X16190476Y-6704819D02*
X16428572Y-5704819D01*
X17333333Y-6704819D02*
X16761905Y-6704819D01*
X17047619Y-6704819D02*
X17047619Y-5704819D01*
X17047619Y-5704819D02*
X16952381Y-5847676D01*
X16952381Y-5847676D02*
X16857143Y-5942914D01*
X16857143Y-5942914D02*
X16761905Y-5990533D01*
X47024819Y-83666666D02*
X46548628Y-83999999D01*
X47024819Y-84238094D02*
X46024819Y-84238094D01*
X46024819Y-84238094D02*
X46024819Y-83857142D01*
X46024819Y-83857142D02*
X46072438Y-83761904D01*
X46072438Y-83761904D02*
X46120057Y-83714285D01*
X46120057Y-83714285D02*
X46215295Y-83666666D01*
X46215295Y-83666666D02*
X46358152Y-83666666D01*
X46358152Y-83666666D02*
X46453390Y-83714285D01*
X46453390Y-83714285D02*
X46501009Y-83761904D01*
X46501009Y-83761904D02*
X46548628Y-83857142D01*
X46548628Y-83857142D02*
X46548628Y-84238094D01*
X46120057Y-83285713D02*
X46072438Y-83238094D01*
X46072438Y-83238094D02*
X46024819Y-83142856D01*
X46024819Y-83142856D02*
X46024819Y-82904761D01*
X46024819Y-82904761D02*
X46072438Y-82809523D01*
X46072438Y-82809523D02*
X46120057Y-82761904D01*
X46120057Y-82761904D02*
X46215295Y-82714285D01*
X46215295Y-82714285D02*
X46310533Y-82714285D01*
X46310533Y-82714285D02*
X46453390Y-82761904D01*
X46453390Y-82761904D02*
X47024819Y-83333332D01*
X47024819Y-83333332D02*
X47024819Y-82714285D01*
X20261905Y-15024819D02*
X20261905Y-14024819D01*
X20261905Y-14024819D02*
X20500000Y-14024819D01*
X20500000Y-14024819D02*
X20642857Y-14072438D01*
X20642857Y-14072438D02*
X20738095Y-14167676D01*
X20738095Y-14167676D02*
X20785714Y-14262914D01*
X20785714Y-14262914D02*
X20833333Y-14453390D01*
X20833333Y-14453390D02*
X20833333Y-14596247D01*
X20833333Y-14596247D02*
X20785714Y-14786723D01*
X20785714Y-14786723D02*
X20738095Y-14881961D01*
X20738095Y-14881961D02*
X20642857Y-14977200D01*
X20642857Y-14977200D02*
X20500000Y-15024819D01*
X20500000Y-15024819D02*
X20261905Y-15024819D01*
X21785714Y-15024819D02*
X21214286Y-15024819D01*
X21500000Y-15024819D02*
X21500000Y-14024819D01*
X21500000Y-14024819D02*
X21404762Y-14167676D01*
X21404762Y-14167676D02*
X21309524Y-14262914D01*
X21309524Y-14262914D02*
X21214286Y-14310533D01*
%TO.C,C2*%
D10*
X15859420Y-79490000D02*
X16140580Y-79490000D01*
X15859420Y-80510000D02*
X16140580Y-80510000D01*
%TO.C,D2*%
X19515000Y-18765000D02*
X19515000Y-20235000D01*
X19515000Y-20235000D02*
X21800000Y-20235000D01*
X21800000Y-18765000D02*
X19515000Y-18765000D01*
%TO.C,Y1*%
X26290000Y-31560000D02*
X29710000Y-31560000D01*
X29710000Y-31560000D02*
X29710000Y-27440000D01*
%TO.C,C6*%
X47090000Y-52940580D02*
X47090000Y-52659420D01*
X48110000Y-52940580D02*
X48110000Y-52659420D01*
%TO.C,C4*%
X30738748Y-70265000D02*
X31261252Y-70265000D01*
X30738748Y-71735000D02*
X31261252Y-71735000D01*
%TO.C,C15*%
X50659420Y-38090000D02*
X50940580Y-38090000D01*
X50659420Y-39110000D02*
X50940580Y-39110000D01*
%TO.C,R8*%
X15762742Y-15477500D02*
X16237258Y-15477500D01*
X15762742Y-16522500D02*
X16237258Y-16522500D01*
%TO.C,C10*%
X35359420Y-52290000D02*
X35640580Y-52290000D01*
X35359420Y-53310000D02*
X35640580Y-53310000D01*
%TO.C,R9*%
X15762742Y-18977500D02*
X16237258Y-18977500D01*
X15762742Y-20022500D02*
X16237258Y-20022500D01*
%TO.C,C8*%
X24140580Y-50490000D02*
X23859420Y-50490000D01*
X24140580Y-51510000D02*
X23859420Y-51510000D01*
%TO.C,C12*%
X31459420Y-28990000D02*
X31740580Y-28990000D01*
X31459420Y-30010000D02*
X31740580Y-30010000D01*
%TO.C,R6*%
X32162742Y-33677500D02*
X32637258Y-33677500D01*
X32162742Y-34722500D02*
X32637258Y-34722500D01*
%TO.C,R3*%
X33477500Y-80237258D02*
X33477500Y-79762742D01*
X34522500Y-80237258D02*
X34522500Y-79762742D01*
%TO.C,J3*%
X70620000Y-66730000D02*
X70620000Y-18360000D01*
X73380000Y-18360000D02*
X70620000Y-18360000D01*
X73380000Y-66730000D02*
X70620000Y-66730000D01*
X73380000Y-66730000D02*
X73380000Y-18360000D01*
X73380000Y-68000000D02*
X73380000Y-69380000D01*
X73380000Y-69380000D02*
X72000000Y-69380000D01*
%TO.C,R1*%
X31477500Y-83737258D02*
X31477500Y-83262742D01*
X32522500Y-83737258D02*
X32522500Y-83262742D01*
%TO.C,C5*%
X32259420Y-36690000D02*
X32540580Y-36690000D01*
X32259420Y-37710000D02*
X32540580Y-37710000D01*
%TO.C,C7*%
X32259420Y-52290000D02*
X32540580Y-52290000D01*
X32259420Y-53310000D02*
X32540580Y-53310000D01*
%TO.C,C14*%
X55859420Y-26490000D02*
X56140580Y-26490000D01*
X55859420Y-27510000D02*
X56140580Y-27510000D01*
%TO.C,FB1*%
X27662779Y-50490000D02*
X27337221Y-50490000D01*
X27662779Y-51510000D02*
X27337221Y-51510000D01*
%TO.C,R5*%
X47362742Y-37877500D02*
X47837258Y-37877500D01*
X47362742Y-38922500D02*
X47837258Y-38922500D01*
%TO.C,U2*%
X20440000Y-73090000D02*
X20490000Y-73090000D01*
X20440000Y-74910000D02*
X20440000Y-73090000D01*
X20490000Y-74910000D02*
X20440000Y-74910000D01*
X21610000Y-73090000D02*
X22390000Y-73090000D01*
X23510000Y-73090000D02*
X23560000Y-73090000D01*
X23560000Y-73090000D02*
X23560000Y-74910000D01*
X23560000Y-74910000D02*
X23510000Y-74910000D01*
X20490000Y-75450000D02*
X20160000Y-75690000D01*
X20160000Y-75210000D01*
X20490000Y-75450000D01*
G36*
X20490000Y-75450000D02*
G01*
X20160000Y-75690000D01*
X20160000Y-75210000D01*
X20490000Y-75450000D01*
G37*
%TO.C,R4*%
X45477500Y-80237258D02*
X45477500Y-79762742D01*
X46522500Y-80237258D02*
X46522500Y-79762742D01*
%TO.C,R10*%
X27477500Y-25737258D02*
X27477500Y-25262742D01*
X28522500Y-25737258D02*
X28522500Y-25262742D01*
%TO.C,J1*%
X35300000Y-85100000D02*
X35300000Y-87100000D01*
X35300000Y-89000000D02*
X35300000Y-90900000D01*
X35300000Y-90900000D02*
X44700000Y-90900000D01*
X44700000Y-85100000D02*
X44700000Y-87100000D01*
X44700000Y-89000000D02*
X44700000Y-90900000D01*
%TO.C,C3*%
X25859420Y-70490000D02*
X26140580Y-70490000D01*
X25859420Y-71510000D02*
X26140580Y-71510000D01*
%TO.C,C9*%
X23859420Y-47490000D02*
X24140580Y-47490000D01*
X23859420Y-48510000D02*
X24140580Y-48510000D01*
%TO.C,C11*%
X24259420Y-28990000D02*
X24540580Y-28990000D01*
X24259420Y-30010000D02*
X24540580Y-30010000D01*
%TO.C,SW2*%
X25250000Y-9000000D02*
X25250000Y-11000000D01*
X26300000Y-7700000D02*
X26750000Y-7250000D01*
X26300000Y-12300000D02*
X26750000Y-12750000D01*
X26750000Y-7250000D02*
X29250000Y-7250000D01*
X26750000Y-12750000D02*
X29250000Y-12750000D01*
X29700000Y-7700000D02*
X29250000Y-7250000D01*
X29700000Y-12300000D02*
X29250000Y-12750000D01*
X30750000Y-9000000D02*
X30750000Y-11000000D01*
%TO.C,R7*%
X47362742Y-55277500D02*
X47837258Y-55277500D01*
X47362742Y-56322500D02*
X47837258Y-56322500D01*
%TO.C,C13*%
X55859420Y-20490000D02*
X56140580Y-20490000D01*
X55859420Y-21510000D02*
X56140580Y-21510000D01*
%TO.C,J2*%
X6620000Y-66730000D02*
X6620000Y-18360000D01*
X9380000Y-18360000D02*
X6620000Y-18360000D01*
X9380000Y-66730000D02*
X6620000Y-66730000D01*
X9380000Y-66730000D02*
X9380000Y-18360000D01*
X9380000Y-68000000D02*
X9380000Y-69380000D01*
X9380000Y-69380000D02*
X8000000Y-69380000D01*
%TO.C,U1*%
X36390000Y-41390000D02*
X36840000Y-41390000D01*
X36390000Y-41840000D02*
X36390000Y-41390000D01*
X36390000Y-48610000D02*
X36390000Y-48160000D01*
X36840000Y-48610000D02*
X36390000Y-48610000D01*
X43160000Y-41390000D02*
X43610000Y-41390000D01*
X43610000Y-41390000D02*
X43610000Y-41840000D01*
X43610000Y-48160000D02*
X43610000Y-48610000D01*
X43610000Y-48610000D02*
X43160000Y-48610000D01*
X35750000Y-41840000D02*
X35410000Y-41370000D01*
X36090000Y-41370000D01*
X35750000Y-41840000D01*
G36*
X35750000Y-41840000D02*
G01*
X35410000Y-41370000D01*
X36090000Y-41370000D01*
X35750000Y-41840000D01*
G37*
%TO.C,C1*%
X17738748Y-76265000D02*
X18261252Y-76265000D01*
X17738748Y-77735000D02*
X18261252Y-77735000D01*
%TO.C,Y2*%
X51125000Y-24675000D02*
X51125000Y-23325000D01*
X52875000Y-24675000D02*
X52875000Y-23325000D01*
%TO.C,J4*%
X38620000Y-9380000D02*
X38620000Y-8000000D01*
X40000000Y-9380000D02*
X38620000Y-9380000D01*
X41270000Y-6620000D02*
X51540000Y-6620000D01*
X41270000Y-9380000D02*
X41270000Y-6620000D01*
X41270000Y-9380000D02*
X51540000Y-9380000D01*
X51540000Y-9380000D02*
X51540000Y-6620000D01*
%TO.C,SW1*%
X13250000Y-9000000D02*
X13250000Y-11000000D01*
X14300000Y-7700000D02*
X14750000Y-7250000D01*
X14300000Y-12300000D02*
X14750000Y-12750000D01*
X14750000Y-7250000D02*
X17250000Y-7250000D01*
X14750000Y-12750000D02*
X17250000Y-12750000D01*
X17700000Y-7700000D02*
X17250000Y-7250000D01*
X17700000Y-12300000D02*
X17250000Y-12750000D01*
X18750000Y-9000000D02*
X18750000Y-11000000D01*
%TO.C,R2*%
X47477500Y-83737258D02*
X47477500Y-83262742D01*
X48522500Y-83737258D02*
X48522500Y-83262742D01*
%TO.C,D1*%
X19515000Y-15265000D02*
X19515000Y-16735000D01*
X19515000Y-16735000D02*
X21800000Y-16735000D01*
X21800000Y-15265000D02*
X19515000Y-15265000D01*
%TD*%
%LPC*%
D13*
%TO.C,C2*%
X15225000Y-80000000D03*
X16775000Y-80000000D03*
%TD*%
D14*
%TO.C,H3*%
X4000000Y-86000000D03*
%TD*%
D15*
%TO.C,D2*%
X20212500Y-19500000D03*
X21787500Y-19500000D03*
%TD*%
D16*
%TO.C,Y1*%
X28850000Y-30600000D03*
X28850000Y-28400000D03*
X27150000Y-28400000D03*
X27150000Y-30600000D03*
%TD*%
D17*
%TO.C,C6*%
X47600000Y-53575000D03*
X47600000Y-52025000D03*
%TD*%
D18*
%TO.C,C4*%
X30050000Y-71000000D03*
X31950000Y-71000000D03*
%TD*%
D13*
%TO.C,C15*%
X50025000Y-38600000D03*
X51575000Y-38600000D03*
%TD*%
D19*
%TO.C,R8*%
X15175000Y-16000000D03*
X16825000Y-16000000D03*
%TD*%
D13*
%TO.C,C10*%
X34725000Y-52800000D03*
X36275000Y-52800000D03*
%TD*%
D19*
%TO.C,R9*%
X15175000Y-19500000D03*
X16825000Y-19500000D03*
%TD*%
D14*
%TO.C,H1*%
X4000000Y-4000000D03*
%TD*%
D20*
%TO.C,C8*%
X24775000Y-51000000D03*
X23225000Y-51000000D03*
%TD*%
D13*
%TO.C,C12*%
X30825000Y-29500000D03*
X32375000Y-29500000D03*
%TD*%
D19*
%TO.C,R6*%
X31575000Y-34200000D03*
X33225000Y-34200000D03*
%TD*%
D21*
%TO.C,R3*%
X34000000Y-80825000D03*
X34000000Y-79175000D03*
%TD*%
D22*
%TO.C,J3*%
X72000000Y-68000000D03*
D23*
X72000000Y-65460000D03*
X72000000Y-62920000D03*
X72000000Y-60380000D03*
X72000000Y-57840000D03*
X72000000Y-55300000D03*
X72000000Y-52760000D03*
X72000000Y-50220000D03*
X72000000Y-47680000D03*
X72000000Y-45140000D03*
X72000000Y-42600000D03*
X72000000Y-40060000D03*
X72000000Y-37520000D03*
X72000000Y-34980000D03*
X72000000Y-32440000D03*
X72000000Y-29900000D03*
X72000000Y-27360000D03*
X72000000Y-24820000D03*
X72000000Y-22280000D03*
X72000000Y-19740000D03*
%TD*%
D21*
%TO.C,R1*%
X32000000Y-84325000D03*
X32000000Y-82675000D03*
%TD*%
D13*
%TO.C,C5*%
X31625000Y-37200000D03*
X33175000Y-37200000D03*
%TD*%
D14*
%TO.C,H4*%
X76000000Y-86000000D03*
%TD*%
D13*
%TO.C,C7*%
X31625000Y-52800000D03*
X33175000Y-52800000D03*
%TD*%
%TO.C,C14*%
X55225000Y-27000000D03*
X56775000Y-27000000D03*
%TD*%
D24*
%TO.C,FB1*%
X28287500Y-51000000D03*
X26712500Y-51000000D03*
%TD*%
D19*
%TO.C,R5*%
X46775000Y-38400000D03*
X48425000Y-38400000D03*
%TD*%
D25*
%TO.C,U2*%
X21050000Y-75137500D03*
X22000000Y-75137500D03*
X22950000Y-75137500D03*
X22950000Y-72862500D03*
X21050000Y-72862500D03*
%TD*%
D21*
%TO.C,R4*%
X46000000Y-80825000D03*
X46000000Y-79175000D03*
%TD*%
D14*
%TO.C,H2*%
X76000000Y-4000000D03*
%TD*%
D21*
%TO.C,R10*%
X28000000Y-26325000D03*
X28000000Y-24675000D03*
%TD*%
D26*
%TO.C,J1*%
X37110000Y-84400000D03*
X42890000Y-84400000D03*
D27*
X36750000Y-82955000D03*
X37550000Y-82955000D03*
D28*
X38750000Y-82955000D03*
X39750000Y-82955000D03*
X40250000Y-82955000D03*
X41250000Y-82955000D03*
D27*
X42450000Y-82955000D03*
X43250000Y-82955000D03*
X43250000Y-82955000D03*
X42450000Y-82955000D03*
D28*
X41750000Y-82955000D03*
X40750000Y-82955000D03*
X39250000Y-82955000D03*
X38250000Y-82955000D03*
D27*
X37550000Y-82955000D03*
X36750000Y-82955000D03*
D29*
X35680000Y-83870000D03*
D30*
X35680000Y-88050000D03*
D29*
X44320000Y-83870000D03*
D30*
X44320000Y-88050000D03*
%TD*%
D13*
%TO.C,C3*%
X25225000Y-71000000D03*
X26775000Y-71000000D03*
%TD*%
%TO.C,C9*%
X23225000Y-48000000D03*
X24775000Y-48000000D03*
%TD*%
%TO.C,C11*%
X23625000Y-29500000D03*
X25175000Y-29500000D03*
%TD*%
D31*
%TO.C,SW2*%
X24850000Y-8100000D03*
X31150000Y-8100000D03*
X24850000Y-11900000D03*
X31150000Y-11900000D03*
%TD*%
D19*
%TO.C,R7*%
X46775000Y-55800000D03*
X48425000Y-55800000D03*
%TD*%
D13*
%TO.C,C13*%
X55225000Y-21000000D03*
X56775000Y-21000000D03*
%TD*%
D22*
%TO.C,J2*%
X8000000Y-68000000D03*
D23*
X8000000Y-65460000D03*
X8000000Y-62920000D03*
X8000000Y-60380000D03*
X8000000Y-57840000D03*
X8000000Y-55300000D03*
X8000000Y-52760000D03*
X8000000Y-50220000D03*
X8000000Y-47680000D03*
X8000000Y-45140000D03*
X8000000Y-42600000D03*
X8000000Y-40060000D03*
X8000000Y-37520000D03*
X8000000Y-34980000D03*
X8000000Y-32440000D03*
X8000000Y-29900000D03*
X8000000Y-27360000D03*
X8000000Y-24820000D03*
X8000000Y-22280000D03*
X8000000Y-19740000D03*
%TD*%
D32*
%TO.C,U1*%
X35837500Y-42250000D03*
X35837500Y-42750000D03*
X35837500Y-43250000D03*
X35837500Y-43750000D03*
X35837500Y-44250000D03*
X35837500Y-44750000D03*
X35837500Y-45250000D03*
X35837500Y-45750000D03*
X35837500Y-46250000D03*
X35837500Y-46750000D03*
X35837500Y-47250000D03*
X35837500Y-47750000D03*
D33*
X37250000Y-49162500D03*
X37750000Y-49162500D03*
X38250000Y-49162500D03*
X38750000Y-49162500D03*
X39250000Y-49162500D03*
X39750000Y-49162500D03*
X40250000Y-49162500D03*
X40750000Y-49162500D03*
X41250000Y-49162500D03*
X41750000Y-49162500D03*
X42250000Y-49162500D03*
X42750000Y-49162500D03*
D32*
X44162500Y-47750000D03*
X44162500Y-47250000D03*
X44162500Y-46750000D03*
X44162500Y-46250000D03*
X44162500Y-45750000D03*
X44162500Y-45250000D03*
X44162500Y-44750000D03*
X44162500Y-44250000D03*
X44162500Y-43750000D03*
X44162500Y-43250000D03*
X44162500Y-42750000D03*
X44162500Y-42250000D03*
D33*
X42750000Y-40837500D03*
X42250000Y-40837500D03*
X41750000Y-40837500D03*
X41250000Y-40837500D03*
X40750000Y-40837500D03*
X40250000Y-40837500D03*
X39750000Y-40837500D03*
X39250000Y-40837500D03*
X38750000Y-40837500D03*
X38250000Y-40837500D03*
X37750000Y-40837500D03*
X37250000Y-40837500D03*
%TD*%
D18*
%TO.C,C1*%
X17050000Y-77000000D03*
X18950000Y-77000000D03*
%TD*%
D34*
%TO.C,Y2*%
X52000000Y-22750000D03*
X52000000Y-25250000D03*
%TD*%
D22*
%TO.C,J4*%
X40000000Y-8000000D03*
D23*
X42540000Y-8000000D03*
X45080000Y-8000000D03*
X47620000Y-8000000D03*
X50160000Y-8000000D03*
%TD*%
D31*
%TO.C,SW1*%
X12850000Y-8100000D03*
X19150000Y-8100000D03*
X12850000Y-11900000D03*
X19150000Y-11900000D03*
%TD*%
D21*
%TO.C,R2*%
X48000000Y-84325000D03*
X48000000Y-82675000D03*
%TD*%
D15*
%TO.C,D1*%
X20212500Y-16000000D03*
X21787500Y-16000000D03*
%TD*%
%LPD*%
M02*
