%TF.GenerationSoftware,KiCad,Pcbnew,10.0.3*%
%TF.CreationDate,2026-09-07T16:49:22-07:00*%
%TF.ProjectId,stm32breakout,73746d33-3262-4726-9561-6b6f75742e6b,rev?*%
%TF.SameCoordinates,Original*%
%TF.FileFunction,Copper,L2,Bot*%
%TF.FilePolarity,Positive*%
%FSLAX46Y46*%
G04 Gerber Fmt 4.6, Leading zero omitted, Abs format (unit mm)*
G04 Created by KiCad (PCBNEW 10.0.3) date 2026-09-07 16:49:22*
%MOMM*%
%LPD*%
G01*
G04 APERTURE LIST*
%TA.AperFunction,ComponentPad*%
%ADD10R,1.700000X1.700000*%
%TD*%
%TA.AperFunction,ComponentPad*%
%ADD11C,1.700000*%
%TD*%
%TA.AperFunction,ComponentPad*%
%ADD12O,1.000000X2.100000*%
%TD*%
%TA.AperFunction,ComponentPad*%
%ADD13O,1.000000X1.600000*%
%TD*%
G04 APERTURE END LIST*
D10*
%TO.P,J4,1*%
%TO.N,+3V3*%
X24000000Y-12000000D03*
D11*
%TO.P,J4,2*%
%TO.N,PA13*%
X26540000Y-12000000D03*
%TO.P,J4,3*%
%TO.N,PA14*%
X29080000Y-12000000D03*
%TO.P,J4,4*%
%TO.N,NRST*%
X31620000Y-12000000D03*
%TO.P,J4,5*%
%TO.N,GND*%
X34160000Y-12000000D03*
%TD*%
D12*
%TO.P,J1,SH*%
%TO.N,GND*%
X25680000Y-73870000D03*
D13*
X25680000Y-78050000D03*
D12*
X34320000Y-73870000D03*
D13*
X34320000Y-78050000D03*
%TD*%
D10*
%TO.P,J2,1*%
%TO.N,+5V*%
X8000000Y-54000000D03*
D11*
%TO.P,J2,2*%
%TO.N,+3V3*%
X8000000Y-51460000D03*
%TO.P,J2,3*%
%TO.N,GND*%
X8000000Y-48920000D03*
%TO.P,J2,4*%
%TO.N,NRST*%
X8000000Y-46380000D03*
%TO.P,J2,5*%
%TO.N,PA0*%
X8000000Y-43840000D03*
%TO.P,J2,6*%
%TO.N,PA1*%
X8000000Y-41300000D03*
%TO.P,J2,7*%
%TO.N,PA2*%
X8000000Y-38760000D03*
%TO.P,J2,8*%
%TO.N,PA3*%
X8000000Y-36220000D03*
%TO.P,J2,9*%
%TO.N,PA4*%
X8000000Y-33680000D03*
%TO.P,J2,10*%
%TO.N,PA5*%
X8000000Y-31140000D03*
%TO.P,J2,11*%
%TO.N,PA6*%
X8000000Y-28600000D03*
%TO.P,J2,12*%
%TO.N,PA7*%
X8000000Y-26060000D03*
%TO.P,J2,13*%
%TO.N,PB0*%
X8000000Y-23520000D03*
%TO.P,J2,14*%
%TO.N,PB1*%
X8000000Y-20980000D03*
%TO.P,J2,15*%
%TO.N,PB2*%
X8000000Y-18440000D03*
%TO.P,J2,16*%
%TO.N,PB10*%
X8000000Y-15900000D03*
%TO.P,J2,17*%
%TO.N,PB11*%
X8000000Y-13360000D03*
%TO.P,J2,18*%
%TO.N,PC13*%
X8000000Y-10820000D03*
%TO.P,J2,19*%
%TO.N,PC14*%
X8000000Y-8280000D03*
%TO.P,J2,20*%
%TO.N,PC15*%
X8000000Y-5740000D03*
%TD*%
D10*
%TO.P,J3,1*%
%TO.N,PA8*%
X52000000Y-54000000D03*
D11*
%TO.P,J3,2*%
%TO.N,PA9*%
X52000000Y-51460000D03*
%TO.P,J3,3*%
%TO.N,PA10*%
X52000000Y-48920000D03*
%TO.P,J3,4*%
%TO.N,PA11*%
X52000000Y-46380000D03*
%TO.P,J3,5*%
%TO.N,PA12*%
X52000000Y-43840000D03*
%TO.P,J3,6*%
%TO.N,PA15*%
X52000000Y-41300000D03*
%TO.P,J3,7*%
%TO.N,PB3*%
X52000000Y-38760000D03*
%TO.P,J3,8*%
%TO.N,PB4*%
X52000000Y-36220000D03*
%TO.P,J3,9*%
%TO.N,PB5*%
X52000000Y-33680000D03*
%TO.P,J3,10*%
%TO.N,PB6*%
X52000000Y-31140000D03*
%TO.P,J3,11*%
%TO.N,PB7*%
X52000000Y-28600000D03*
%TO.P,J3,12*%
%TO.N,PB8*%
X52000000Y-26060000D03*
%TO.P,J3,13*%
%TO.N,PB9*%
X52000000Y-23520000D03*
%TO.P,J3,14*%
%TO.N,PB12*%
X52000000Y-20980000D03*
%TO.P,J3,15*%
%TO.N,PB13*%
X52000000Y-18440000D03*
%TO.P,J3,16*%
%TO.N,PB14*%
X52000000Y-15900000D03*
%TO.P,J3,17*%
%TO.N,PB15*%
X52000000Y-13360000D03*
%TO.P,J3,18*%
%TO.N,BOOT0*%
X52000000Y-10820000D03*
%TO.P,J3,19*%
%TO.N,+3V3*%
X52000000Y-8280000D03*
%TO.P,J3,20*%
%TO.N,GND*%
X52000000Y-5740000D03*
%TD*%
%TA.AperFunction,Conductor*%
%TO.N,GND*%
G36*
X59559191Y-418907D02*
G01*
X59595155Y-468407D01*
X59600000Y-499000D01*
X59600000Y-79501000D01*
X59581093Y-79559191D01*
X59531593Y-79595155D01*
X59501000Y-79600000D01*
X499000Y-79600000D01*
X440809Y-79581093D01*
X404845Y-79531593D01*
X400000Y-79501000D01*
X400000Y-75874034D01*
X10399500Y-75874034D01*
X10399500Y-76125965D01*
X10438908Y-76374780D01*
X10438910Y-76374785D01*
X10516759Y-76614379D01*
X10631130Y-76838845D01*
X10779207Y-77042656D01*
X10957344Y-77220793D01*
X11161155Y-77368870D01*
X11385621Y-77483241D01*
X11625215Y-77561090D01*
X11625216Y-77561090D01*
X11625219Y-77561091D01*
X11874035Y-77600500D01*
X11874038Y-77600500D01*
X12125965Y-77600500D01*
X12374780Y-77561091D01*
X12374781Y-77561090D01*
X12374785Y-77561090D01*
X12614379Y-77483241D01*
X12838845Y-77368870D01*
X13042656Y-77220793D01*
X13220793Y-77042656D01*
X13368870Y-76838845D01*
X13483241Y-76614379D01*
X13561090Y-76374785D01*
X13600500Y-76125962D01*
X13600500Y-75874038D01*
X13600500Y-75874034D01*
X46399500Y-75874034D01*
X46399500Y-76125965D01*
X46438908Y-76374780D01*
X46438910Y-76374785D01*
X46516759Y-76614379D01*
X46631130Y-76838845D01*
X46779207Y-77042656D01*
X46957344Y-77220793D01*
X47161155Y-77368870D01*
X47385621Y-77483241D01*
X47625215Y-77561090D01*
X47625216Y-77561090D01*
X47625219Y-77561091D01*
X47874035Y-77600500D01*
X47874038Y-77600500D01*
X48125965Y-77600500D01*
X48374780Y-77561091D01*
X48374781Y-77561090D01*
X48374785Y-77561090D01*
X48614379Y-77483241D01*
X48838845Y-77368870D01*
X49042656Y-77220793D01*
X49220793Y-77042656D01*
X49368870Y-76838845D01*
X49483241Y-76614379D01*
X49561090Y-76374785D01*
X49600500Y-76125962D01*
X49600500Y-75874038D01*
X49600500Y-75874034D01*
X49561091Y-75625219D01*
X49561090Y-75625215D01*
X49483241Y-75385621D01*
X49368870Y-75161155D01*
X49220793Y-74957344D01*
X49042656Y-74779207D01*
X48838845Y-74631130D01*
X48838844Y-74631129D01*
X48838842Y-74631128D01*
X48614379Y-74516759D01*
X48374780Y-74438908D01*
X48125965Y-74399500D01*
X48125962Y-74399500D01*
X47874038Y-74399500D01*
X47874035Y-74399500D01*
X47625219Y-74438908D01*
X47385620Y-74516759D01*
X47161157Y-74631128D01*
X46957345Y-74779206D01*
X46779206Y-74957345D01*
X46631128Y-75161157D01*
X46516759Y-75385620D01*
X46438908Y-75625219D01*
X46399500Y-75874034D01*
X13600500Y-75874034D01*
X13561091Y-75625219D01*
X13561090Y-75625215D01*
X13483241Y-75385621D01*
X13368870Y-75161155D01*
X13220793Y-74957344D01*
X13042656Y-74779207D01*
X12838845Y-74631130D01*
X12838844Y-74631129D01*
X12838842Y-74631128D01*
X12614379Y-74516759D01*
X12374780Y-74438908D01*
X12227149Y-74415526D01*
X12125965Y-74399500D01*
X12125962Y-74399500D01*
X11874038Y-74399500D01*
X11874035Y-74399500D01*
X11625219Y-74438908D01*
X11385620Y-74516759D01*
X11161157Y-74631128D01*
X10957345Y-74779206D01*
X10779206Y-74957345D01*
X10631128Y-75161157D01*
X10516759Y-75385620D01*
X10438908Y-75625219D01*
X10399500Y-75874034D01*
X400000Y-75874034D01*
X400000Y-74324234D01*
X26534500Y-74324234D01*
X26534500Y-74475766D01*
X26545484Y-74516759D01*
X26573720Y-74622139D01*
X26649481Y-74753360D01*
X26649483Y-74753362D01*
X26649485Y-74753365D01*
X26756635Y-74860515D01*
X26756637Y-74860516D01*
X26756639Y-74860518D01*
X26887861Y-74936279D01*
X26887859Y-74936279D01*
X26887863Y-74936280D01*
X26887865Y-74936281D01*
X27034234Y-74975500D01*
X27034236Y-74975500D01*
X27185764Y-74975500D01*
X27185766Y-74975500D01*
X27332135Y-74936281D01*
X27332137Y-74936279D01*
X27332139Y-74936279D01*
X27463360Y-74860518D01*
X27463360Y-74860517D01*
X27463365Y-74860515D01*
X27570515Y-74753365D01*
X27646281Y-74622135D01*
X27685500Y-74475766D01*
X27685500Y-74324234D01*
X32314500Y-74324234D01*
X32314500Y-74475766D01*
X32325484Y-74516759D01*
X32353720Y-74622139D01*
X32429481Y-74753360D01*
X32429483Y-74753362D01*
X32429485Y-74753365D01*
X32536635Y-74860515D01*
X32536637Y-74860516D01*
X32536639Y-74860518D01*
X32667861Y-74936279D01*
X32667859Y-74936279D01*
X32667863Y-74936280D01*
X32667865Y-74936281D01*
X32814234Y-74975500D01*
X32814236Y-74975500D01*
X32965764Y-74975500D01*
X32965766Y-74975500D01*
X33112135Y-74936281D01*
X33112137Y-74936279D01*
X33112139Y-74936279D01*
X33243360Y-74860518D01*
X33243360Y-74860517D01*
X33243365Y-74860515D01*
X33350515Y-74753365D01*
X33426281Y-74622135D01*
X33465500Y-74475766D01*
X33465500Y-74324234D01*
X33426281Y-74177865D01*
X33426279Y-74177862D01*
X33426279Y-74177860D01*
X33350518Y-74046639D01*
X33350516Y-74046637D01*
X33350515Y-74046635D01*
X33243365Y-73939485D01*
X33243362Y-73939483D01*
X33243360Y-73939481D01*
X33112138Y-73863720D01*
X33112140Y-73863720D01*
X33055347Y-73848503D01*
X32965766Y-73824500D01*
X32814234Y-73824500D01*
X32724652Y-73848503D01*
X32667860Y-73863720D01*
X32536639Y-73939481D01*
X32429481Y-74046639D01*
X32353720Y-74177860D01*
X32353719Y-74177865D01*
X32314500Y-74324234D01*
X27685500Y-74324234D01*
X27646281Y-74177865D01*
X27646279Y-74177862D01*
X27646279Y-74177860D01*
X27570518Y-74046639D01*
X27570516Y-74046637D01*
X27570515Y-74046635D01*
X27463365Y-73939485D01*
X27463362Y-73939483D01*
X27463360Y-73939481D01*
X27332138Y-73863720D01*
X27332140Y-73863720D01*
X27275347Y-73848503D01*
X27185766Y-73824500D01*
X27034234Y-73824500D01*
X26944652Y-73848503D01*
X26887860Y-73863720D01*
X26756639Y-73939481D01*
X26649481Y-74046639D01*
X26573720Y-74177860D01*
X26573719Y-74177865D01*
X26534500Y-74324234D01*
X400000Y-74324234D01*
X400000Y-53130253D01*
X6949500Y-53130253D01*
X6949500Y-54869746D01*
X6949501Y-54869758D01*
X6961132Y-54928227D01*
X6961133Y-54928231D01*
X7005448Y-54994552D01*
X7071769Y-55038867D01*
X7116231Y-55047711D01*
X7130241Y-55050498D01*
X7130246Y-55050498D01*
X7130252Y-55050500D01*
X7130253Y-55050500D01*
X8869747Y-55050500D01*
X8869748Y-55050500D01*
X8928231Y-55038867D01*
X8994552Y-54994552D01*
X9038867Y-54928231D01*
X9050500Y-54869748D01*
X9050500Y-53130253D01*
X50949500Y-53130253D01*
X50949500Y-54869746D01*
X50949501Y-54869758D01*
X50961132Y-54928227D01*
X50961133Y-54928231D01*
X51005448Y-54994552D01*
X51071769Y-55038867D01*
X51116231Y-55047711D01*
X51130241Y-55050498D01*
X51130246Y-55050498D01*
X51130252Y-55050500D01*
X51130253Y-55050500D01*
X52869747Y-55050500D01*
X52869748Y-55050500D01*
X52928231Y-55038867D01*
X52994552Y-54994552D01*
X53038867Y-54928231D01*
X53050500Y-54869748D01*
X53050500Y-53130252D01*
X53038867Y-53071769D01*
X52994552Y-53005448D01*
X52994548Y-53005445D01*
X52928233Y-52961134D01*
X52928231Y-52961133D01*
X52928228Y-52961132D01*
X52928227Y-52961132D01*
X52869758Y-52949501D01*
X52869748Y-52949500D01*
X51130252Y-52949500D01*
X51130251Y-52949500D01*
X51130241Y-52949501D01*
X51071772Y-52961132D01*
X51071766Y-52961134D01*
X51005451Y-53005445D01*
X51005445Y-53005451D01*
X50961134Y-53071766D01*
X50961132Y-53071772D01*
X50949501Y-53130241D01*
X50949500Y-53130253D01*
X9050500Y-53130253D01*
X9050500Y-53130252D01*
X9038867Y-53071769D01*
X8994552Y-53005448D01*
X8994548Y-53005445D01*
X8928233Y-52961134D01*
X8928231Y-52961133D01*
X8928228Y-52961132D01*
X8928227Y-52961132D01*
X8869758Y-52949501D01*
X8869748Y-52949500D01*
X7130252Y-52949500D01*
X7130251Y-52949500D01*
X7130241Y-52949501D01*
X7071772Y-52961132D01*
X7071766Y-52961134D01*
X7005451Y-53005445D01*
X7005445Y-53005451D01*
X6961134Y-53071766D01*
X6961132Y-53071772D01*
X6949501Y-53130241D01*
X6949500Y-53130253D01*
X400000Y-53130253D01*
X400000Y-51356532D01*
X6949500Y-51356532D01*
X6949500Y-51563467D01*
X6989869Y-51766418D01*
X7069058Y-51957597D01*
X7069059Y-51957598D01*
X7184023Y-52129655D01*
X7330345Y-52275977D01*
X7502402Y-52390941D01*
X7693580Y-52470130D01*
X7896535Y-52510500D01*
X7896536Y-52510500D01*
X8103464Y-52510500D01*
X8103465Y-52510500D01*
X8306420Y-52470130D01*
X8497598Y-52390941D01*
X8669655Y-52275977D01*
X8815977Y-52129655D01*
X8930941Y-51957598D01*
X9010130Y-51766420D01*
X9050500Y-51563465D01*
X9050500Y-51356535D01*
X9050499Y-51356532D01*
X50949500Y-51356532D01*
X50949500Y-51563467D01*
X50989869Y-51766418D01*
X51069058Y-51957597D01*
X51069059Y-51957598D01*
X51184023Y-52129655D01*
X51330345Y-52275977D01*
X51502402Y-52390941D01*
X51693580Y-52470130D01*
X51896535Y-52510500D01*
X51896536Y-52510500D01*
X52103464Y-52510500D01*
X52103465Y-52510500D01*
X52306420Y-52470130D01*
X52497598Y-52390941D01*
X52669655Y-52275977D01*
X52815977Y-52129655D01*
X52930941Y-51957598D01*
X53010130Y-51766420D01*
X53050500Y-51563465D01*
X53050500Y-51356535D01*
X53010130Y-51153580D01*
X52930941Y-50962402D01*
X52815977Y-50790345D01*
X52669655Y-50644023D01*
X52497598Y-50529059D01*
X52497599Y-50529059D01*
X52497597Y-50529058D01*
X52306418Y-50449869D01*
X52103467Y-50409500D01*
X52103465Y-50409500D01*
X51896535Y-50409500D01*
X51896532Y-50409500D01*
X51693581Y-50449869D01*
X51502402Y-50529058D01*
X51330348Y-50644020D01*
X51184020Y-50790348D01*
X51069058Y-50962402D01*
X50989869Y-51153581D01*
X50949500Y-51356532D01*
X9050499Y-51356532D01*
X9010130Y-51153580D01*
X8930941Y-50962402D01*
X8815977Y-50790345D01*
X8669655Y-50644023D01*
X8497598Y-50529059D01*
X8497599Y-50529059D01*
X8497597Y-50529058D01*
X8306418Y-50449869D01*
X8103467Y-50409500D01*
X8103465Y-50409500D01*
X7896535Y-50409500D01*
X7896532Y-50409500D01*
X7693581Y-50449869D01*
X7502402Y-50529058D01*
X7330348Y-50644020D01*
X7184020Y-50790348D01*
X7069058Y-50962402D01*
X6989869Y-51153581D01*
X6949500Y-51356532D01*
X400000Y-51356532D01*
X400000Y-48816532D01*
X50949500Y-48816532D01*
X50949500Y-49023467D01*
X50989869Y-49226418D01*
X51069058Y-49417597D01*
X51069059Y-49417598D01*
X51184023Y-49589655D01*
X51330345Y-49735977D01*
X51502402Y-49850941D01*
X51693580Y-49930130D01*
X51896535Y-49970500D01*
X51896536Y-49970500D01*
X52103464Y-49970500D01*
X52103465Y-49970500D01*
X52306420Y-49930130D01*
X52497598Y-49850941D01*
X52669655Y-49735977D01*
X52815977Y-49589655D01*
X52930941Y-49417598D01*
X53010130Y-49226420D01*
X53050500Y-49023465D01*
X53050500Y-48816535D01*
X53010130Y-48613580D01*
X52930941Y-48422402D01*
X52815977Y-48250345D01*
X52669655Y-48104023D01*
X52497598Y-47989059D01*
X52497599Y-47989059D01*
X52497597Y-47989058D01*
X52306418Y-47909869D01*
X52103467Y-47869500D01*
X52103465Y-47869500D01*
X51896535Y-47869500D01*
X51896532Y-47869500D01*
X51693581Y-47909869D01*
X51502402Y-47989058D01*
X51330348Y-48104020D01*
X51184020Y-48250348D01*
X51069058Y-48422402D01*
X50989869Y-48613581D01*
X50949500Y-48816532D01*
X400000Y-48816532D01*
X400000Y-46276532D01*
X6949500Y-46276532D01*
X6949500Y-46483467D01*
X6989869Y-46686418D01*
X7069058Y-46877597D01*
X7069059Y-46877598D01*
X7184023Y-47049655D01*
X7330345Y-47195977D01*
X7502402Y-47310941D01*
X7693580Y-47390130D01*
X7896535Y-47430500D01*
X7896536Y-47430500D01*
X8103464Y-47430500D01*
X8103465Y-47430500D01*
X8306420Y-47390130D01*
X8497598Y-47310941D01*
X8669655Y-47195977D01*
X8815977Y-47049655D01*
X8930941Y-46877598D01*
X9010130Y-46686420D01*
X9050500Y-46483465D01*
X9050500Y-46276535D01*
X9050499Y-46276532D01*
X50949500Y-46276532D01*
X50949500Y-46483467D01*
X50989869Y-46686418D01*
X51069058Y-46877597D01*
X51069059Y-46877598D01*
X51184023Y-47049655D01*
X51330345Y-47195977D01*
X51502402Y-47310941D01*
X51693580Y-47390130D01*
X51896535Y-47430500D01*
X51896536Y-47430500D01*
X52103464Y-47430500D01*
X52103465Y-47430500D01*
X52306420Y-47390130D01*
X52497598Y-47310941D01*
X52669655Y-47195977D01*
X52815977Y-47049655D01*
X52930941Y-46877598D01*
X53010130Y-46686420D01*
X53050500Y-46483465D01*
X53050500Y-46276535D01*
X53010130Y-46073580D01*
X52930941Y-45882402D01*
X52815977Y-45710345D01*
X52669655Y-45564023D01*
X52497598Y-45449059D01*
X52497599Y-45449059D01*
X52497597Y-45449058D01*
X52306418Y-45369869D01*
X52103467Y-45329500D01*
X52103465Y-45329500D01*
X51896535Y-45329500D01*
X51896532Y-45329500D01*
X51693581Y-45369869D01*
X51502402Y-45449058D01*
X51330348Y-45564020D01*
X51184020Y-45710348D01*
X51069058Y-45882402D01*
X50989869Y-46073581D01*
X50949500Y-46276532D01*
X9050499Y-46276532D01*
X9010130Y-46073580D01*
X8930941Y-45882402D01*
X8815977Y-45710345D01*
X8669655Y-45564023D01*
X8497598Y-45449059D01*
X8497599Y-45449059D01*
X8497597Y-45449058D01*
X8306418Y-45369869D01*
X8103467Y-45329500D01*
X8103465Y-45329500D01*
X7896535Y-45329500D01*
X7896532Y-45329500D01*
X7693581Y-45369869D01*
X7502402Y-45449058D01*
X7330348Y-45564020D01*
X7184020Y-45710348D01*
X7069058Y-45882402D01*
X6989869Y-46073581D01*
X6949500Y-46276532D01*
X400000Y-46276532D01*
X400000Y-43736532D01*
X6949500Y-43736532D01*
X6949500Y-43943467D01*
X6989869Y-44146418D01*
X7069058Y-44337597D01*
X7069059Y-44337598D01*
X7184023Y-44509655D01*
X7330345Y-44655977D01*
X7502402Y-44770941D01*
X7693580Y-44850130D01*
X7896535Y-44890500D01*
X7896536Y-44890500D01*
X8103464Y-44890500D01*
X8103465Y-44890500D01*
X8306420Y-44850130D01*
X8497598Y-44770941D01*
X8669655Y-44655977D01*
X8815977Y-44509655D01*
X8930941Y-44337598D01*
X9010130Y-44146420D01*
X9050500Y-43943465D01*
X9050500Y-43736535D01*
X9050499Y-43736532D01*
X50949500Y-43736532D01*
X50949500Y-43943467D01*
X50989869Y-44146418D01*
X51069058Y-44337597D01*
X51069059Y-44337598D01*
X51184023Y-44509655D01*
X51330345Y-44655977D01*
X51502402Y-44770941D01*
X51693580Y-44850130D01*
X51896535Y-44890500D01*
X51896536Y-44890500D01*
X52103464Y-44890500D01*
X52103465Y-44890500D01*
X52306420Y-44850130D01*
X52497598Y-44770941D01*
X52669655Y-44655977D01*
X52815977Y-44509655D01*
X52930941Y-44337598D01*
X53010130Y-44146420D01*
X53050500Y-43943465D01*
X53050500Y-43736535D01*
X53010130Y-43533580D01*
X52930941Y-43342402D01*
X52815977Y-43170345D01*
X52669655Y-43024023D01*
X52497598Y-42909059D01*
X52497599Y-42909059D01*
X52497597Y-42909058D01*
X52306418Y-42829869D01*
X52103467Y-42789500D01*
X52103465Y-42789500D01*
X51896535Y-42789500D01*
X51896532Y-42789500D01*
X51693581Y-42829869D01*
X51502402Y-42909058D01*
X51330348Y-43024020D01*
X51184020Y-43170348D01*
X51069058Y-43342402D01*
X50989869Y-43533581D01*
X50949500Y-43736532D01*
X9050499Y-43736532D01*
X9010130Y-43533580D01*
X8930941Y-43342402D01*
X8815977Y-43170345D01*
X8669655Y-43024023D01*
X8497598Y-42909059D01*
X8497599Y-42909059D01*
X8497597Y-42909058D01*
X8306418Y-42829869D01*
X8103467Y-42789500D01*
X8103465Y-42789500D01*
X7896535Y-42789500D01*
X7896532Y-42789500D01*
X7693581Y-42829869D01*
X7502402Y-42909058D01*
X7330348Y-43024020D01*
X7184020Y-43170348D01*
X7069058Y-43342402D01*
X6989869Y-43533581D01*
X6949500Y-43736532D01*
X400000Y-43736532D01*
X400000Y-41196532D01*
X6949500Y-41196532D01*
X6949500Y-41403467D01*
X6989869Y-41606418D01*
X7069058Y-41797597D01*
X7069059Y-41797598D01*
X7184023Y-41969655D01*
X7330345Y-42115977D01*
X7502402Y-42230941D01*
X7693580Y-42310130D01*
X7896535Y-42350500D01*
X7896536Y-42350500D01*
X8103464Y-42350500D01*
X8103465Y-42350500D01*
X8306420Y-42310130D01*
X8497598Y-42230941D01*
X8669655Y-42115977D01*
X8815977Y-41969655D01*
X8930941Y-41797598D01*
X9010130Y-41606420D01*
X9050500Y-41403465D01*
X9050500Y-41196535D01*
X9050499Y-41196532D01*
X50949500Y-41196532D01*
X50949500Y-41403467D01*
X50989869Y-41606418D01*
X51069058Y-41797597D01*
X51069059Y-41797598D01*
X51184023Y-41969655D01*
X51330345Y-42115977D01*
X51502402Y-42230941D01*
X51693580Y-42310130D01*
X51896535Y-42350500D01*
X51896536Y-42350500D01*
X52103464Y-42350500D01*
X52103465Y-42350500D01*
X52306420Y-42310130D01*
X52497598Y-42230941D01*
X52669655Y-42115977D01*
X52815977Y-41969655D01*
X52930941Y-41797598D01*
X53010130Y-41606420D01*
X53050500Y-41403465D01*
X53050500Y-41196535D01*
X53010130Y-40993580D01*
X52930941Y-40802402D01*
X52815977Y-40630345D01*
X52669655Y-40484023D01*
X52497598Y-40369059D01*
X52497599Y-40369059D01*
X52497597Y-40369058D01*
X52306418Y-40289869D01*
X52103467Y-40249500D01*
X52103465Y-40249500D01*
X51896535Y-40249500D01*
X51896532Y-40249500D01*
X51693581Y-40289869D01*
X51502402Y-40369058D01*
X51330348Y-40484020D01*
X51184020Y-40630348D01*
X51069058Y-40802402D01*
X50989869Y-40993581D01*
X50949500Y-41196532D01*
X9050499Y-41196532D01*
X9010130Y-40993580D01*
X8930941Y-40802402D01*
X8815977Y-40630345D01*
X8669655Y-40484023D01*
X8497598Y-40369059D01*
X8497599Y-40369059D01*
X8497597Y-40369058D01*
X8306418Y-40289869D01*
X8103467Y-40249500D01*
X8103465Y-40249500D01*
X7896535Y-40249500D01*
X7896532Y-40249500D01*
X7693581Y-40289869D01*
X7502402Y-40369058D01*
X7330348Y-40484020D01*
X7184020Y-40630348D01*
X7069058Y-40802402D01*
X6989869Y-40993581D01*
X6949500Y-41196532D01*
X400000Y-41196532D01*
X400000Y-38656532D01*
X6949500Y-38656532D01*
X6949500Y-38863467D01*
X6989869Y-39066418D01*
X7069058Y-39257597D01*
X7069059Y-39257598D01*
X7184023Y-39429655D01*
X7330345Y-39575977D01*
X7502402Y-39690941D01*
X7693580Y-39770130D01*
X7896535Y-39810500D01*
X7896536Y-39810500D01*
X8103464Y-39810500D01*
X8103465Y-39810500D01*
X8306420Y-39770130D01*
X8497598Y-39690941D01*
X8669655Y-39575977D01*
X8815977Y-39429655D01*
X8930941Y-39257598D01*
X9010130Y-39066420D01*
X9050500Y-38863465D01*
X9050500Y-38656535D01*
X9050499Y-38656532D01*
X50949500Y-38656532D01*
X50949500Y-38863467D01*
X50989869Y-39066418D01*
X51069058Y-39257597D01*
X51069059Y-39257598D01*
X51184023Y-39429655D01*
X51330345Y-39575977D01*
X51502402Y-39690941D01*
X51693580Y-39770130D01*
X51896535Y-39810500D01*
X51896536Y-39810500D01*
X52103464Y-39810500D01*
X52103465Y-39810500D01*
X52306420Y-39770130D01*
X52497598Y-39690941D01*
X52669655Y-39575977D01*
X52815977Y-39429655D01*
X52930941Y-39257598D01*
X53010130Y-39066420D01*
X53050500Y-38863465D01*
X53050500Y-38656535D01*
X53010130Y-38453580D01*
X52930941Y-38262402D01*
X52815977Y-38090345D01*
X52669655Y-37944023D01*
X52497598Y-37829059D01*
X52497599Y-37829059D01*
X52497597Y-37829058D01*
X52306418Y-37749869D01*
X52103467Y-37709500D01*
X52103465Y-37709500D01*
X51896535Y-37709500D01*
X51896532Y-37709500D01*
X51693581Y-37749869D01*
X51502402Y-37829058D01*
X51330348Y-37944020D01*
X51184020Y-38090348D01*
X51069058Y-38262402D01*
X50989869Y-38453581D01*
X50949500Y-38656532D01*
X9050499Y-38656532D01*
X9010130Y-38453580D01*
X8930941Y-38262402D01*
X8815977Y-38090345D01*
X8669655Y-37944023D01*
X8497598Y-37829059D01*
X8497599Y-37829059D01*
X8497597Y-37829058D01*
X8306418Y-37749869D01*
X8103467Y-37709500D01*
X8103465Y-37709500D01*
X7896535Y-37709500D01*
X7896532Y-37709500D01*
X7693581Y-37749869D01*
X7502402Y-37829058D01*
X7330348Y-37944020D01*
X7184020Y-38090348D01*
X7069058Y-38262402D01*
X6989869Y-38453581D01*
X6949500Y-38656532D01*
X400000Y-38656532D01*
X400000Y-36116532D01*
X6949500Y-36116532D01*
X6949500Y-36323467D01*
X6989869Y-36526418D01*
X7069058Y-36717597D01*
X7069059Y-36717598D01*
X7184023Y-36889655D01*
X7330345Y-37035977D01*
X7502402Y-37150941D01*
X7693580Y-37230130D01*
X7896535Y-37270500D01*
X7896536Y-37270500D01*
X8103464Y-37270500D01*
X8103465Y-37270500D01*
X8306420Y-37230130D01*
X8497598Y-37150941D01*
X8669655Y-37035977D01*
X8815977Y-36889655D01*
X8930941Y-36717598D01*
X9010130Y-36526420D01*
X9050500Y-36323465D01*
X9050500Y-36116535D01*
X9050499Y-36116532D01*
X50949500Y-36116532D01*
X50949500Y-36323467D01*
X50989869Y-36526418D01*
X51069058Y-36717597D01*
X51069059Y-36717598D01*
X51184023Y-36889655D01*
X51330345Y-37035977D01*
X51502402Y-37150941D01*
X51693580Y-37230130D01*
X51896535Y-37270500D01*
X51896536Y-37270500D01*
X52103464Y-37270500D01*
X52103465Y-37270500D01*
X52306420Y-37230130D01*
X52497598Y-37150941D01*
X52669655Y-37035977D01*
X52815977Y-36889655D01*
X52930941Y-36717598D01*
X53010130Y-36526420D01*
X53050500Y-36323465D01*
X53050500Y-36116535D01*
X53010130Y-35913580D01*
X52930941Y-35722402D01*
X52815977Y-35550345D01*
X52669655Y-35404023D01*
X52497598Y-35289059D01*
X52497599Y-35289059D01*
X52497597Y-35289058D01*
X52306418Y-35209869D01*
X52103467Y-35169500D01*
X52103465Y-35169500D01*
X51896535Y-35169500D01*
X51896532Y-35169500D01*
X51693581Y-35209869D01*
X51502402Y-35289058D01*
X51330348Y-35404020D01*
X51184020Y-35550348D01*
X51069058Y-35722402D01*
X50989869Y-35913581D01*
X50949500Y-36116532D01*
X9050499Y-36116532D01*
X9010130Y-35913580D01*
X8930941Y-35722402D01*
X8815977Y-35550345D01*
X8669655Y-35404023D01*
X8497598Y-35289059D01*
X8497599Y-35289059D01*
X8497597Y-35289058D01*
X8306418Y-35209869D01*
X8103467Y-35169500D01*
X8103465Y-35169500D01*
X7896535Y-35169500D01*
X7896532Y-35169500D01*
X7693581Y-35209869D01*
X7502402Y-35289058D01*
X7330348Y-35404020D01*
X7184020Y-35550348D01*
X7069058Y-35722402D01*
X6989869Y-35913581D01*
X6949500Y-36116532D01*
X400000Y-36116532D01*
X400000Y-33576532D01*
X6949500Y-33576532D01*
X6949500Y-33783467D01*
X6989869Y-33986418D01*
X7069058Y-34177597D01*
X7069059Y-34177598D01*
X7184023Y-34349655D01*
X7330345Y-34495977D01*
X7502402Y-34610941D01*
X7693580Y-34690130D01*
X7896535Y-34730500D01*
X7896536Y-34730500D01*
X8103464Y-34730500D01*
X8103465Y-34730500D01*
X8306420Y-34690130D01*
X8497598Y-34610941D01*
X8669655Y-34495977D01*
X8815977Y-34349655D01*
X8930941Y-34177598D01*
X9010130Y-33986420D01*
X9050500Y-33783465D01*
X9050500Y-33576535D01*
X9050499Y-33576532D01*
X50949500Y-33576532D01*
X50949500Y-33783467D01*
X50989869Y-33986418D01*
X51069058Y-34177597D01*
X51069059Y-34177598D01*
X51184023Y-34349655D01*
X51330345Y-34495977D01*
X51502402Y-34610941D01*
X51693580Y-34690130D01*
X51896535Y-34730500D01*
X51896536Y-34730500D01*
X52103464Y-34730500D01*
X52103465Y-34730500D01*
X52306420Y-34690130D01*
X52497598Y-34610941D01*
X52669655Y-34495977D01*
X52815977Y-34349655D01*
X52930941Y-34177598D01*
X53010130Y-33986420D01*
X53050500Y-33783465D01*
X53050500Y-33576535D01*
X53010130Y-33373580D01*
X52930941Y-33182402D01*
X52815977Y-33010345D01*
X52669655Y-32864023D01*
X52497598Y-32749059D01*
X52497599Y-32749059D01*
X52497597Y-32749058D01*
X52306418Y-32669869D01*
X52103467Y-32629500D01*
X52103465Y-32629500D01*
X51896535Y-32629500D01*
X51896532Y-32629500D01*
X51693581Y-32669869D01*
X51502402Y-32749058D01*
X51330348Y-32864020D01*
X51184020Y-33010348D01*
X51069058Y-33182402D01*
X50989869Y-33373581D01*
X50949500Y-33576532D01*
X9050499Y-33576532D01*
X9010130Y-33373580D01*
X8930941Y-33182402D01*
X8815977Y-33010345D01*
X8669655Y-32864023D01*
X8497598Y-32749059D01*
X8497599Y-32749059D01*
X8497597Y-32749058D01*
X8306418Y-32669869D01*
X8103467Y-32629500D01*
X8103465Y-32629500D01*
X7896535Y-32629500D01*
X7896532Y-32629500D01*
X7693581Y-32669869D01*
X7502402Y-32749058D01*
X7330348Y-32864020D01*
X7184020Y-33010348D01*
X7069058Y-33182402D01*
X6989869Y-33373581D01*
X6949500Y-33576532D01*
X400000Y-33576532D01*
X400000Y-31036532D01*
X6949500Y-31036532D01*
X6949500Y-31243467D01*
X6989869Y-31446418D01*
X7069058Y-31637597D01*
X7069059Y-31637598D01*
X7184023Y-31809655D01*
X7330345Y-31955977D01*
X7502402Y-32070941D01*
X7693580Y-32150130D01*
X7896535Y-32190500D01*
X7896536Y-32190500D01*
X8103464Y-32190500D01*
X8103465Y-32190500D01*
X8306420Y-32150130D01*
X8497598Y-32070941D01*
X8669655Y-31955977D01*
X8815977Y-31809655D01*
X8930941Y-31637598D01*
X9010130Y-31446420D01*
X9050500Y-31243465D01*
X9050500Y-31036535D01*
X9050499Y-31036532D01*
X50949500Y-31036532D01*
X50949500Y-31243467D01*
X50989869Y-31446418D01*
X51069058Y-31637597D01*
X51069059Y-31637598D01*
X51184023Y-31809655D01*
X51330345Y-31955977D01*
X51502402Y-32070941D01*
X51693580Y-32150130D01*
X51896535Y-32190500D01*
X51896536Y-32190500D01*
X52103464Y-32190500D01*
X52103465Y-32190500D01*
X52306420Y-32150130D01*
X52497598Y-32070941D01*
X52669655Y-31955977D01*
X52815977Y-31809655D01*
X52930941Y-31637598D01*
X53010130Y-31446420D01*
X53050500Y-31243465D01*
X53050500Y-31036535D01*
X53010130Y-30833580D01*
X52930941Y-30642402D01*
X52815977Y-30470345D01*
X52669655Y-30324023D01*
X52497598Y-30209059D01*
X52497599Y-30209059D01*
X52497597Y-30209058D01*
X52306418Y-30129869D01*
X52103467Y-30089500D01*
X52103465Y-30089500D01*
X51896535Y-30089500D01*
X51896532Y-30089500D01*
X51693581Y-30129869D01*
X51502402Y-30209058D01*
X51330348Y-30324020D01*
X51184020Y-30470348D01*
X51069058Y-30642402D01*
X50989869Y-30833581D01*
X50949500Y-31036532D01*
X9050499Y-31036532D01*
X9010130Y-30833580D01*
X8930941Y-30642402D01*
X8815977Y-30470345D01*
X8669655Y-30324023D01*
X8497598Y-30209059D01*
X8497599Y-30209059D01*
X8497597Y-30209058D01*
X8306418Y-30129869D01*
X8103467Y-30089500D01*
X8103465Y-30089500D01*
X7896535Y-30089500D01*
X7896532Y-30089500D01*
X7693581Y-30129869D01*
X7502402Y-30209058D01*
X7330348Y-30324020D01*
X7184020Y-30470348D01*
X7069058Y-30642402D01*
X6989869Y-30833581D01*
X6949500Y-31036532D01*
X400000Y-31036532D01*
X400000Y-28496532D01*
X6949500Y-28496532D01*
X6949500Y-28703467D01*
X6989869Y-28906418D01*
X7069058Y-29097597D01*
X7069059Y-29097598D01*
X7184023Y-29269655D01*
X7330345Y-29415977D01*
X7502402Y-29530941D01*
X7693580Y-29610130D01*
X7896535Y-29650500D01*
X7896536Y-29650500D01*
X8103464Y-29650500D01*
X8103465Y-29650500D01*
X8306420Y-29610130D01*
X8497598Y-29530941D01*
X8669655Y-29415977D01*
X8815977Y-29269655D01*
X8930941Y-29097598D01*
X9010130Y-28906420D01*
X9050500Y-28703465D01*
X9050500Y-28496535D01*
X9050499Y-28496532D01*
X50949500Y-28496532D01*
X50949500Y-28703467D01*
X50989869Y-28906418D01*
X51069058Y-29097597D01*
X51069059Y-29097598D01*
X51184023Y-29269655D01*
X51330345Y-29415977D01*
X51502402Y-29530941D01*
X51693580Y-29610130D01*
X51896535Y-29650500D01*
X51896536Y-29650500D01*
X52103464Y-29650500D01*
X52103465Y-29650500D01*
X52306420Y-29610130D01*
X52497598Y-29530941D01*
X52669655Y-29415977D01*
X52815977Y-29269655D01*
X52930941Y-29097598D01*
X53010130Y-28906420D01*
X53050500Y-28703465D01*
X53050500Y-28496535D01*
X53010130Y-28293580D01*
X52930941Y-28102402D01*
X52815977Y-27930345D01*
X52669655Y-27784023D01*
X52497598Y-27669059D01*
X52497599Y-27669059D01*
X52497597Y-27669058D01*
X52306418Y-27589869D01*
X52103467Y-27549500D01*
X52103465Y-27549500D01*
X51896535Y-27549500D01*
X51896532Y-27549500D01*
X51693581Y-27589869D01*
X51502402Y-27669058D01*
X51330348Y-27784020D01*
X51184020Y-27930348D01*
X51069058Y-28102402D01*
X50989869Y-28293581D01*
X50949500Y-28496532D01*
X9050499Y-28496532D01*
X9010130Y-28293580D01*
X8930941Y-28102402D01*
X8815977Y-27930345D01*
X8669655Y-27784023D01*
X8497598Y-27669059D01*
X8497599Y-27669059D01*
X8497597Y-27669058D01*
X8306418Y-27589869D01*
X8103467Y-27549500D01*
X8103465Y-27549500D01*
X7896535Y-27549500D01*
X7896532Y-27549500D01*
X7693581Y-27589869D01*
X7502402Y-27669058D01*
X7330348Y-27784020D01*
X7184020Y-27930348D01*
X7069058Y-28102402D01*
X6989869Y-28293581D01*
X6949500Y-28496532D01*
X400000Y-28496532D01*
X400000Y-25956532D01*
X6949500Y-25956532D01*
X6949500Y-26163467D01*
X6989869Y-26366418D01*
X7069058Y-26557597D01*
X7069059Y-26557598D01*
X7184023Y-26729655D01*
X7330345Y-26875977D01*
X7502402Y-26990941D01*
X7693580Y-27070130D01*
X7896535Y-27110500D01*
X7896536Y-27110500D01*
X8103464Y-27110500D01*
X8103465Y-27110500D01*
X8306420Y-27070130D01*
X8497598Y-26990941D01*
X8669655Y-26875977D01*
X8815977Y-26729655D01*
X8930941Y-26557598D01*
X9010130Y-26366420D01*
X9050500Y-26163465D01*
X9050500Y-25956535D01*
X9050499Y-25956532D01*
X50949500Y-25956532D01*
X50949500Y-26163467D01*
X50989869Y-26366418D01*
X51069058Y-26557597D01*
X51069059Y-26557598D01*
X51184023Y-26729655D01*
X51330345Y-26875977D01*
X51502402Y-26990941D01*
X51693580Y-27070130D01*
X51896535Y-27110500D01*
X51896536Y-27110500D01*
X52103464Y-27110500D01*
X52103465Y-27110500D01*
X52306420Y-27070130D01*
X52497598Y-26990941D01*
X52669655Y-26875977D01*
X52815977Y-26729655D01*
X52930941Y-26557598D01*
X53010130Y-26366420D01*
X53050500Y-26163465D01*
X53050500Y-25956535D01*
X53010130Y-25753580D01*
X52930941Y-25562402D01*
X52815977Y-25390345D01*
X52669655Y-25244023D01*
X52497598Y-25129059D01*
X52497599Y-25129059D01*
X52497597Y-25129058D01*
X52306418Y-25049869D01*
X52103467Y-25009500D01*
X52103465Y-25009500D01*
X51896535Y-25009500D01*
X51896532Y-25009500D01*
X51693581Y-25049869D01*
X51502402Y-25129058D01*
X51330348Y-25244020D01*
X51184020Y-25390348D01*
X51069058Y-25562402D01*
X50989869Y-25753581D01*
X50949500Y-25956532D01*
X9050499Y-25956532D01*
X9010130Y-25753580D01*
X8930941Y-25562402D01*
X8815977Y-25390345D01*
X8669655Y-25244023D01*
X8497598Y-25129059D01*
X8497599Y-25129059D01*
X8497597Y-25129058D01*
X8306418Y-25049869D01*
X8103467Y-25009500D01*
X8103465Y-25009500D01*
X7896535Y-25009500D01*
X7896532Y-25009500D01*
X7693581Y-25049869D01*
X7502402Y-25129058D01*
X7330348Y-25244020D01*
X7184020Y-25390348D01*
X7069058Y-25562402D01*
X6989869Y-25753581D01*
X6949500Y-25956532D01*
X400000Y-25956532D01*
X400000Y-23416532D01*
X6949500Y-23416532D01*
X6949500Y-23623467D01*
X6989869Y-23826418D01*
X7069058Y-24017597D01*
X7069059Y-24017598D01*
X7184023Y-24189655D01*
X7330345Y-24335977D01*
X7502402Y-24450941D01*
X7693580Y-24530130D01*
X7896535Y-24570500D01*
X7896536Y-24570500D01*
X8103464Y-24570500D01*
X8103465Y-24570500D01*
X8306420Y-24530130D01*
X8497598Y-24450941D01*
X8669655Y-24335977D01*
X8815977Y-24189655D01*
X8930941Y-24017598D01*
X9010130Y-23826420D01*
X9050500Y-23623465D01*
X9050500Y-23416535D01*
X9050499Y-23416532D01*
X50949500Y-23416532D01*
X50949500Y-23623467D01*
X50989869Y-23826418D01*
X51069058Y-24017597D01*
X51069059Y-24017598D01*
X51184023Y-24189655D01*
X51330345Y-24335977D01*
X51502402Y-24450941D01*
X51693580Y-24530130D01*
X51896535Y-24570500D01*
X51896536Y-24570500D01*
X52103464Y-24570500D01*
X52103465Y-24570500D01*
X52306420Y-24530130D01*
X52497598Y-24450941D01*
X52669655Y-24335977D01*
X52815977Y-24189655D01*
X52930941Y-24017598D01*
X53010130Y-23826420D01*
X53050500Y-23623465D01*
X53050500Y-23416535D01*
X53010130Y-23213580D01*
X52930941Y-23022402D01*
X52815977Y-22850345D01*
X52669655Y-22704023D01*
X52497598Y-22589059D01*
X52497599Y-22589059D01*
X52497597Y-22589058D01*
X52306418Y-22509869D01*
X52103467Y-22469500D01*
X52103465Y-22469500D01*
X51896535Y-22469500D01*
X51896532Y-22469500D01*
X51693581Y-22509869D01*
X51502402Y-22589058D01*
X51330348Y-22704020D01*
X51184020Y-22850348D01*
X51069058Y-23022402D01*
X50989869Y-23213581D01*
X50949500Y-23416532D01*
X9050499Y-23416532D01*
X9010130Y-23213580D01*
X8930941Y-23022402D01*
X8815977Y-22850345D01*
X8669655Y-22704023D01*
X8497598Y-22589059D01*
X8497599Y-22589059D01*
X8497597Y-22589058D01*
X8306418Y-22509869D01*
X8103467Y-22469500D01*
X8103465Y-22469500D01*
X7896535Y-22469500D01*
X7896532Y-22469500D01*
X7693581Y-22509869D01*
X7502402Y-22589058D01*
X7330348Y-22704020D01*
X7184020Y-22850348D01*
X7069058Y-23022402D01*
X6989869Y-23213581D01*
X6949500Y-23416532D01*
X400000Y-23416532D01*
X400000Y-20876532D01*
X6949500Y-20876532D01*
X6949500Y-21083467D01*
X6989869Y-21286418D01*
X7069058Y-21477597D01*
X7069059Y-21477598D01*
X7184023Y-21649655D01*
X7330345Y-21795977D01*
X7502402Y-21910941D01*
X7693580Y-21990130D01*
X7896535Y-22030500D01*
X7896536Y-22030500D01*
X8103464Y-22030500D01*
X8103465Y-22030500D01*
X8306420Y-21990130D01*
X8497598Y-21910941D01*
X8669655Y-21795977D01*
X8815977Y-21649655D01*
X8930941Y-21477598D01*
X9010130Y-21286420D01*
X9050500Y-21083465D01*
X9050500Y-20876535D01*
X9050499Y-20876532D01*
X50949500Y-20876532D01*
X50949500Y-21083467D01*
X50989869Y-21286418D01*
X51069058Y-21477597D01*
X51069059Y-21477598D01*
X51184023Y-21649655D01*
X51330345Y-21795977D01*
X51502402Y-21910941D01*
X51693580Y-21990130D01*
X51896535Y-22030500D01*
X51896536Y-22030500D01*
X52103464Y-22030500D01*
X52103465Y-22030500D01*
X52306420Y-21990130D01*
X52497598Y-21910941D01*
X52669655Y-21795977D01*
X52815977Y-21649655D01*
X52930941Y-21477598D01*
X53010130Y-21286420D01*
X53050500Y-21083465D01*
X53050500Y-20876535D01*
X53010130Y-20673580D01*
X52930941Y-20482402D01*
X52815977Y-20310345D01*
X52669655Y-20164023D01*
X52497598Y-20049059D01*
X52497599Y-20049059D01*
X52497597Y-20049058D01*
X52306418Y-19969869D01*
X52103467Y-19929500D01*
X52103465Y-19929500D01*
X51896535Y-19929500D01*
X51896532Y-19929500D01*
X51693581Y-19969869D01*
X51502402Y-20049058D01*
X51330348Y-20164020D01*
X51184020Y-20310348D01*
X51069058Y-20482402D01*
X50989869Y-20673581D01*
X50949500Y-20876532D01*
X9050499Y-20876532D01*
X9010130Y-20673580D01*
X8930941Y-20482402D01*
X8815977Y-20310345D01*
X8669655Y-20164023D01*
X8497598Y-20049059D01*
X8497599Y-20049059D01*
X8497597Y-20049058D01*
X8306418Y-19969869D01*
X8103467Y-19929500D01*
X8103465Y-19929500D01*
X7896535Y-19929500D01*
X7896532Y-19929500D01*
X7693581Y-19969869D01*
X7502402Y-20049058D01*
X7330348Y-20164020D01*
X7184020Y-20310348D01*
X7069058Y-20482402D01*
X6989869Y-20673581D01*
X6949500Y-20876532D01*
X400000Y-20876532D01*
X400000Y-18336532D01*
X6949500Y-18336532D01*
X6949500Y-18543467D01*
X6989869Y-18746418D01*
X7069058Y-18937597D01*
X7069059Y-18937598D01*
X7184023Y-19109655D01*
X7330345Y-19255977D01*
X7502402Y-19370941D01*
X7693580Y-19450130D01*
X7896535Y-19490500D01*
X7896536Y-19490500D01*
X8103464Y-19490500D01*
X8103465Y-19490500D01*
X8306420Y-19450130D01*
X8497598Y-19370941D01*
X8669655Y-19255977D01*
X8815977Y-19109655D01*
X8930941Y-18937598D01*
X9010130Y-18746420D01*
X9050500Y-18543465D01*
X9050500Y-18336535D01*
X9050499Y-18336532D01*
X50949500Y-18336532D01*
X50949500Y-18543467D01*
X50989869Y-18746418D01*
X51069058Y-18937597D01*
X51069059Y-18937598D01*
X51184023Y-19109655D01*
X51330345Y-19255977D01*
X51502402Y-19370941D01*
X51693580Y-19450130D01*
X51896535Y-19490500D01*
X51896536Y-19490500D01*
X52103464Y-19490500D01*
X52103465Y-19490500D01*
X52306420Y-19450130D01*
X52497598Y-19370941D01*
X52669655Y-19255977D01*
X52815977Y-19109655D01*
X52930941Y-18937598D01*
X53010130Y-18746420D01*
X53050500Y-18543465D01*
X53050500Y-18336535D01*
X53010130Y-18133580D01*
X52930941Y-17942402D01*
X52815977Y-17770345D01*
X52669655Y-17624023D01*
X52497598Y-17509059D01*
X52497599Y-17509059D01*
X52497597Y-17509058D01*
X52306418Y-17429869D01*
X52103467Y-17389500D01*
X52103465Y-17389500D01*
X51896535Y-17389500D01*
X51896532Y-17389500D01*
X51693581Y-17429869D01*
X51502402Y-17509058D01*
X51330348Y-17624020D01*
X51184020Y-17770348D01*
X51069058Y-17942402D01*
X50989869Y-18133581D01*
X50949500Y-18336532D01*
X9050499Y-18336532D01*
X9010130Y-18133580D01*
X8930941Y-17942402D01*
X8815977Y-17770345D01*
X8669655Y-17624023D01*
X8497598Y-17509059D01*
X8497599Y-17509059D01*
X8497597Y-17509058D01*
X8306418Y-17429869D01*
X8103467Y-17389500D01*
X8103465Y-17389500D01*
X7896535Y-17389500D01*
X7896532Y-17389500D01*
X7693581Y-17429869D01*
X7502402Y-17509058D01*
X7330348Y-17624020D01*
X7184020Y-17770348D01*
X7069058Y-17942402D01*
X6989869Y-18133581D01*
X6949500Y-18336532D01*
X400000Y-18336532D01*
X400000Y-15796532D01*
X6949500Y-15796532D01*
X6949500Y-16003467D01*
X6989869Y-16206418D01*
X7069058Y-16397597D01*
X7069059Y-16397598D01*
X7184023Y-16569655D01*
X7330345Y-16715977D01*
X7502402Y-16830941D01*
X7693580Y-16910130D01*
X7896535Y-16950500D01*
X7896536Y-16950500D01*
X8103464Y-16950500D01*
X8103465Y-16950500D01*
X8306420Y-16910130D01*
X8497598Y-16830941D01*
X8669655Y-16715977D01*
X8815977Y-16569655D01*
X8930941Y-16397598D01*
X9010130Y-16206420D01*
X9050500Y-16003465D01*
X9050500Y-15796535D01*
X9050499Y-15796532D01*
X50949500Y-15796532D01*
X50949500Y-16003467D01*
X50989869Y-16206418D01*
X51069058Y-16397597D01*
X51069059Y-16397598D01*
X51184023Y-16569655D01*
X51330345Y-16715977D01*
X51502402Y-16830941D01*
X51693580Y-16910130D01*
X51896535Y-16950500D01*
X51896536Y-16950500D01*
X52103464Y-16950500D01*
X52103465Y-16950500D01*
X52306420Y-16910130D01*
X52497598Y-16830941D01*
X52669655Y-16715977D01*
X52815977Y-16569655D01*
X52930941Y-16397598D01*
X53010130Y-16206420D01*
X53050500Y-16003465D01*
X53050500Y-15796535D01*
X53010130Y-15593580D01*
X52930941Y-15402402D01*
X52815977Y-15230345D01*
X52669655Y-15084023D01*
X52497598Y-14969059D01*
X52497599Y-14969059D01*
X52497597Y-14969058D01*
X52306418Y-14889869D01*
X52103467Y-14849500D01*
X52103465Y-14849500D01*
X51896535Y-14849500D01*
X51896532Y-14849500D01*
X51693581Y-14889869D01*
X51502402Y-14969058D01*
X51330348Y-15084020D01*
X51184020Y-15230348D01*
X51069058Y-15402402D01*
X50989869Y-15593581D01*
X50949500Y-15796532D01*
X9050499Y-15796532D01*
X9010130Y-15593580D01*
X8930941Y-15402402D01*
X8815977Y-15230345D01*
X8669655Y-15084023D01*
X8497598Y-14969059D01*
X8497599Y-14969059D01*
X8497597Y-14969058D01*
X8306418Y-14889869D01*
X8103467Y-14849500D01*
X8103465Y-14849500D01*
X7896535Y-14849500D01*
X7896532Y-14849500D01*
X7693581Y-14889869D01*
X7502402Y-14969058D01*
X7330348Y-15084020D01*
X7184020Y-15230348D01*
X7069058Y-15402402D01*
X6989869Y-15593581D01*
X6949500Y-15796532D01*
X400000Y-15796532D01*
X400000Y-13256532D01*
X6949500Y-13256532D01*
X6949500Y-13463467D01*
X6989869Y-13666418D01*
X7069058Y-13857597D01*
X7069059Y-13857598D01*
X7184023Y-14029655D01*
X7330345Y-14175977D01*
X7502402Y-14290941D01*
X7693580Y-14370130D01*
X7896535Y-14410500D01*
X7896536Y-14410500D01*
X8103464Y-14410500D01*
X8103465Y-14410500D01*
X8306420Y-14370130D01*
X8497598Y-14290941D01*
X8669655Y-14175977D01*
X8815977Y-14029655D01*
X8930941Y-13857598D01*
X9010130Y-13666420D01*
X9050500Y-13463465D01*
X9050500Y-13256535D01*
X9050499Y-13256532D01*
X50949500Y-13256532D01*
X50949500Y-13463467D01*
X50989869Y-13666418D01*
X51069058Y-13857597D01*
X51069059Y-13857598D01*
X51184023Y-14029655D01*
X51330345Y-14175977D01*
X51502402Y-14290941D01*
X51693580Y-14370130D01*
X51896535Y-14410500D01*
X51896536Y-14410500D01*
X52103464Y-14410500D01*
X52103465Y-14410500D01*
X52306420Y-14370130D01*
X52497598Y-14290941D01*
X52669655Y-14175977D01*
X52815977Y-14029655D01*
X52930941Y-13857598D01*
X53010130Y-13666420D01*
X53050500Y-13463465D01*
X53050500Y-13256535D01*
X53010130Y-13053580D01*
X52930941Y-12862402D01*
X52815977Y-12690345D01*
X52669655Y-12544023D01*
X52600175Y-12497598D01*
X52497597Y-12429058D01*
X52306418Y-12349869D01*
X52103467Y-12309500D01*
X52103465Y-12309500D01*
X51896535Y-12309500D01*
X51896532Y-12309500D01*
X51693581Y-12349869D01*
X51502402Y-12429058D01*
X51330348Y-12544020D01*
X51184020Y-12690348D01*
X51069058Y-12862402D01*
X50989869Y-13053581D01*
X50949500Y-13256532D01*
X9050499Y-13256532D01*
X9010130Y-13053580D01*
X8930941Y-12862402D01*
X8815977Y-12690345D01*
X8669655Y-12544023D01*
X8600175Y-12497598D01*
X8497597Y-12429058D01*
X8306418Y-12349869D01*
X8103467Y-12309500D01*
X8103465Y-12309500D01*
X7896535Y-12309500D01*
X7896532Y-12309500D01*
X7693581Y-12349869D01*
X7502402Y-12429058D01*
X7330348Y-12544020D01*
X7184020Y-12690348D01*
X7069058Y-12862402D01*
X6989869Y-13053581D01*
X6949500Y-13256532D01*
X400000Y-13256532D01*
X400000Y-10716532D01*
X6949500Y-10716532D01*
X6949500Y-10923467D01*
X6989869Y-11126418D01*
X7069058Y-11317597D01*
X7069059Y-11317598D01*
X7184023Y-11489655D01*
X7330345Y-11635977D01*
X7502402Y-11750941D01*
X7693580Y-11830130D01*
X7896535Y-11870500D01*
X7896536Y-11870500D01*
X8103464Y-11870500D01*
X8103465Y-11870500D01*
X8306420Y-11830130D01*
X8497598Y-11750941D01*
X8669655Y-11635977D01*
X8815977Y-11489655D01*
X8930941Y-11317598D01*
X9008542Y-11130253D01*
X22949500Y-11130253D01*
X22949500Y-12869746D01*
X22949501Y-12869758D01*
X22961132Y-12928227D01*
X22961134Y-12928233D01*
X23005445Y-12994548D01*
X23005448Y-12994552D01*
X23071769Y-13038867D01*
X23116231Y-13047711D01*
X23130241Y-13050498D01*
X23130246Y-13050498D01*
X23130252Y-13050500D01*
X23130253Y-13050500D01*
X24869747Y-13050500D01*
X24869748Y-13050500D01*
X24928231Y-13038867D01*
X24994552Y-12994552D01*
X25038867Y-12928231D01*
X25050500Y-12869748D01*
X25050500Y-11896532D01*
X25489500Y-11896532D01*
X25489500Y-12103467D01*
X25529869Y-12306418D01*
X25609058Y-12497597D01*
X25609059Y-12497598D01*
X25724023Y-12669655D01*
X25870345Y-12815977D01*
X26042402Y-12930941D01*
X26233580Y-13010130D01*
X26436535Y-13050500D01*
X26436536Y-13050500D01*
X26643464Y-13050500D01*
X26643465Y-13050500D01*
X26846420Y-13010130D01*
X27037598Y-12930941D01*
X27209655Y-12815977D01*
X27355977Y-12669655D01*
X27470941Y-12497598D01*
X27550130Y-12306420D01*
X27590500Y-12103465D01*
X27590500Y-11896535D01*
X27590499Y-11896532D01*
X28029500Y-11896532D01*
X28029500Y-12103467D01*
X28069869Y-12306418D01*
X28149058Y-12497597D01*
X28149059Y-12497598D01*
X28264023Y-12669655D01*
X28410345Y-12815977D01*
X28582402Y-12930941D01*
X28773580Y-13010130D01*
X28976535Y-13050500D01*
X28976536Y-13050500D01*
X29183464Y-13050500D01*
X29183465Y-13050500D01*
X29386420Y-13010130D01*
X29577598Y-12930941D01*
X29749655Y-12815977D01*
X29895977Y-12669655D01*
X30010941Y-12497598D01*
X30090130Y-12306420D01*
X30130500Y-12103465D01*
X30130500Y-11896535D01*
X30130499Y-11896532D01*
X30569500Y-11896532D01*
X30569500Y-12103467D01*
X30609869Y-12306418D01*
X30689058Y-12497597D01*
X30689059Y-12497598D01*
X30804023Y-12669655D01*
X30950345Y-12815977D01*
X31122402Y-12930941D01*
X31313580Y-13010130D01*
X31516535Y-13050500D01*
X31516536Y-13050500D01*
X31723464Y-13050500D01*
X31723465Y-13050500D01*
X31926420Y-13010130D01*
X32117598Y-12930941D01*
X32289655Y-12815977D01*
X32435977Y-12669655D01*
X32550941Y-12497598D01*
X32630130Y-12306420D01*
X32670500Y-12103465D01*
X32670500Y-11896535D01*
X32630130Y-11693580D01*
X32550941Y-11502402D01*
X32435977Y-11330345D01*
X32289655Y-11184023D01*
X32209182Y-11130253D01*
X32117597Y-11069058D01*
X31926418Y-10989869D01*
X31723467Y-10949500D01*
X31723465Y-10949500D01*
X31516535Y-10949500D01*
X31516532Y-10949500D01*
X31313581Y-10989869D01*
X31122402Y-11069058D01*
X30950348Y-11184020D01*
X30804020Y-11330348D01*
X30689058Y-11502402D01*
X30609869Y-11693581D01*
X30569500Y-11896532D01*
X30130499Y-11896532D01*
X30090130Y-11693580D01*
X30010941Y-11502402D01*
X29895977Y-11330345D01*
X29749655Y-11184023D01*
X29669182Y-11130253D01*
X29577597Y-11069058D01*
X29386418Y-10989869D01*
X29183467Y-10949500D01*
X29183465Y-10949500D01*
X28976535Y-10949500D01*
X28976532Y-10949500D01*
X28773581Y-10989869D01*
X28582402Y-11069058D01*
X28410348Y-11184020D01*
X28264020Y-11330348D01*
X28149058Y-11502402D01*
X28069869Y-11693581D01*
X28029500Y-11896532D01*
X27590499Y-11896532D01*
X27550130Y-11693580D01*
X27470941Y-11502402D01*
X27355977Y-11330345D01*
X27209655Y-11184023D01*
X27129182Y-11130253D01*
X27037597Y-11069058D01*
X26846418Y-10989869D01*
X26643467Y-10949500D01*
X26643465Y-10949500D01*
X26436535Y-10949500D01*
X26436532Y-10949500D01*
X26233581Y-10989869D01*
X26042402Y-11069058D01*
X25870348Y-11184020D01*
X25724020Y-11330348D01*
X25609058Y-11502402D01*
X25529869Y-11693581D01*
X25489500Y-11896532D01*
X25050500Y-11896532D01*
X25050500Y-11130252D01*
X25049737Y-11126418D01*
X25045691Y-11106074D01*
X25038867Y-11071769D01*
X24994552Y-11005448D01*
X24994548Y-11005445D01*
X24928233Y-10961134D01*
X24928231Y-10961133D01*
X24928228Y-10961132D01*
X24928227Y-10961132D01*
X24869758Y-10949501D01*
X24869748Y-10949500D01*
X23130252Y-10949500D01*
X23130251Y-10949500D01*
X23130241Y-10949501D01*
X23071772Y-10961132D01*
X23071766Y-10961134D01*
X23005451Y-11005445D01*
X23005445Y-11005451D01*
X22961134Y-11071766D01*
X22961132Y-11071772D01*
X22949501Y-11130241D01*
X22949500Y-11130253D01*
X9008542Y-11130253D01*
X9010130Y-11126420D01*
X9050500Y-10923465D01*
X9050500Y-10716535D01*
X9050499Y-10716532D01*
X50949500Y-10716532D01*
X50949500Y-10923467D01*
X50989869Y-11126418D01*
X51069058Y-11317597D01*
X51069059Y-11317598D01*
X51184023Y-11489655D01*
X51330345Y-11635977D01*
X51502402Y-11750941D01*
X51693580Y-11830130D01*
X51896535Y-11870500D01*
X51896536Y-11870500D01*
X52103464Y-11870500D01*
X52103465Y-11870500D01*
X52306420Y-11830130D01*
X52497598Y-11750941D01*
X52669655Y-11635977D01*
X52815977Y-11489655D01*
X52930941Y-11317598D01*
X53010130Y-11126420D01*
X53050500Y-10923465D01*
X53050500Y-10716535D01*
X53010130Y-10513580D01*
X52930941Y-10322402D01*
X52815977Y-10150345D01*
X52669655Y-10004023D01*
X52497598Y-9889059D01*
X52497599Y-9889059D01*
X52497597Y-9889058D01*
X52306418Y-9809869D01*
X52103467Y-9769500D01*
X52103465Y-9769500D01*
X51896535Y-9769500D01*
X51896532Y-9769500D01*
X51693581Y-9809869D01*
X51502402Y-9889058D01*
X51330348Y-10004020D01*
X51184020Y-10150348D01*
X51069058Y-10322402D01*
X50989869Y-10513581D01*
X50949500Y-10716532D01*
X9050499Y-10716532D01*
X9010130Y-10513580D01*
X8930941Y-10322402D01*
X8815977Y-10150345D01*
X8669655Y-10004023D01*
X8497598Y-9889059D01*
X8497599Y-9889059D01*
X8497597Y-9889058D01*
X8306418Y-9809869D01*
X8103467Y-9769500D01*
X8103465Y-9769500D01*
X7896535Y-9769500D01*
X7896532Y-9769500D01*
X7693581Y-9809869D01*
X7502402Y-9889058D01*
X7330348Y-10004020D01*
X7184020Y-10150348D01*
X7069058Y-10322402D01*
X6989869Y-10513581D01*
X6949500Y-10716532D01*
X400000Y-10716532D01*
X400000Y-8176532D01*
X6949500Y-8176532D01*
X6949500Y-8383467D01*
X6989869Y-8586418D01*
X7069058Y-8777597D01*
X7069059Y-8777598D01*
X7184023Y-8949655D01*
X7330345Y-9095977D01*
X7502402Y-9210941D01*
X7693580Y-9290130D01*
X7896535Y-9330500D01*
X7896536Y-9330500D01*
X8103464Y-9330500D01*
X8103465Y-9330500D01*
X8306420Y-9290130D01*
X8497598Y-9210941D01*
X8669655Y-9095977D01*
X8815977Y-8949655D01*
X8930941Y-8777598D01*
X9010130Y-8586420D01*
X9050500Y-8383465D01*
X9050500Y-8176535D01*
X9050499Y-8176532D01*
X50949500Y-8176532D01*
X50949500Y-8383467D01*
X50989869Y-8586418D01*
X51069058Y-8777597D01*
X51069059Y-8777598D01*
X51184023Y-8949655D01*
X51330345Y-9095977D01*
X51502402Y-9210941D01*
X51693580Y-9290130D01*
X51896535Y-9330500D01*
X51896536Y-9330500D01*
X52103464Y-9330500D01*
X52103465Y-9330500D01*
X52306420Y-9290130D01*
X52497598Y-9210941D01*
X52669655Y-9095977D01*
X52815977Y-8949655D01*
X52930941Y-8777598D01*
X53010130Y-8586420D01*
X53050500Y-8383465D01*
X53050500Y-8176535D01*
X53010130Y-7973580D01*
X52930941Y-7782402D01*
X52815977Y-7610345D01*
X52669655Y-7464023D01*
X52497598Y-7349059D01*
X52497599Y-7349059D01*
X52497597Y-7349058D01*
X52306418Y-7269869D01*
X52103467Y-7229500D01*
X52103465Y-7229500D01*
X51896535Y-7229500D01*
X51896532Y-7229500D01*
X51693581Y-7269869D01*
X51502402Y-7349058D01*
X51330348Y-7464020D01*
X51184020Y-7610348D01*
X51069058Y-7782402D01*
X50989869Y-7973581D01*
X50949500Y-8176532D01*
X9050499Y-8176532D01*
X9010130Y-7973580D01*
X8930941Y-7782402D01*
X8815977Y-7610345D01*
X8669655Y-7464023D01*
X8497598Y-7349059D01*
X8497599Y-7349059D01*
X8497597Y-7349058D01*
X8306418Y-7269869D01*
X8103467Y-7229500D01*
X8103465Y-7229500D01*
X7896535Y-7229500D01*
X7896532Y-7229500D01*
X7693581Y-7269869D01*
X7502402Y-7349058D01*
X7330348Y-7464020D01*
X7184020Y-7610348D01*
X7069058Y-7782402D01*
X6989869Y-7973581D01*
X6949500Y-8176532D01*
X400000Y-8176532D01*
X400000Y-5636532D01*
X6949500Y-5636532D01*
X6949500Y-5843467D01*
X6989869Y-6046418D01*
X7069058Y-6237597D01*
X7069059Y-6237598D01*
X7184023Y-6409655D01*
X7330345Y-6555977D01*
X7502402Y-6670941D01*
X7693580Y-6750130D01*
X7896535Y-6790500D01*
X7896536Y-6790500D01*
X8103464Y-6790500D01*
X8103465Y-6790500D01*
X8306420Y-6750130D01*
X8497598Y-6670941D01*
X8669655Y-6555977D01*
X8815977Y-6409655D01*
X8930941Y-6237598D01*
X9010130Y-6046420D01*
X9050500Y-5843465D01*
X9050500Y-5636535D01*
X9010130Y-5433580D01*
X8930941Y-5242402D01*
X8815977Y-5070345D01*
X8669655Y-4924023D01*
X8669651Y-4924020D01*
X8497597Y-4809058D01*
X8306418Y-4729869D01*
X8103467Y-4689500D01*
X8103465Y-4689500D01*
X7896535Y-4689500D01*
X7896532Y-4689500D01*
X7693581Y-4729869D01*
X7502402Y-4809058D01*
X7330348Y-4924020D01*
X7184020Y-5070348D01*
X7069058Y-5242402D01*
X6989869Y-5433581D01*
X6949500Y-5636532D01*
X400000Y-5636532D01*
X400000Y-3874034D01*
X18399500Y-3874034D01*
X18399500Y-4125965D01*
X18438908Y-4374780D01*
X18516759Y-4614379D01*
X18615952Y-4809058D01*
X18631130Y-4838845D01*
X18779207Y-5042656D01*
X18957344Y-5220793D01*
X19161155Y-5368870D01*
X19385621Y-5483241D01*
X19625215Y-5561090D01*
X19625216Y-5561090D01*
X19625219Y-5561091D01*
X19874035Y-5600500D01*
X19874038Y-5600500D01*
X20125965Y-5600500D01*
X20374780Y-5561091D01*
X20374781Y-5561090D01*
X20374785Y-5561090D01*
X20614379Y-5483241D01*
X20838845Y-5368870D01*
X21042656Y-5220793D01*
X21220793Y-5042656D01*
X21368870Y-4838845D01*
X21483241Y-4614379D01*
X21561090Y-4374785D01*
X21600500Y-4125962D01*
X21600500Y-3874038D01*
X21600500Y-3874034D01*
X38399500Y-3874034D01*
X38399500Y-4125965D01*
X38438908Y-4374780D01*
X38516759Y-4614379D01*
X38615952Y-4809058D01*
X38631130Y-4838845D01*
X38779207Y-5042656D01*
X38957344Y-5220793D01*
X39161155Y-5368870D01*
X39385621Y-5483241D01*
X39625215Y-5561090D01*
X39625216Y-5561090D01*
X39625219Y-5561091D01*
X39874035Y-5600500D01*
X39874038Y-5600500D01*
X40125965Y-5600500D01*
X40374780Y-5561091D01*
X40374781Y-5561090D01*
X40374785Y-5561090D01*
X40614379Y-5483241D01*
X40838845Y-5368870D01*
X41042656Y-5220793D01*
X41220793Y-5042656D01*
X41368870Y-4838845D01*
X41483241Y-4614379D01*
X41561090Y-4374785D01*
X41600500Y-4125962D01*
X41600500Y-3874038D01*
X41600500Y-3874034D01*
X41561091Y-3625219D01*
X41561090Y-3625215D01*
X41483241Y-3385621D01*
X41368870Y-3161155D01*
X41220793Y-2957344D01*
X41042656Y-2779207D01*
X40838845Y-2631130D01*
X40838844Y-2631129D01*
X40838842Y-2631128D01*
X40614379Y-2516759D01*
X40374780Y-2438908D01*
X40125965Y-2399500D01*
X40125962Y-2399500D01*
X39874038Y-2399500D01*
X39874035Y-2399500D01*
X39625219Y-2438908D01*
X39385620Y-2516759D01*
X39161157Y-2631128D01*
X38957345Y-2779206D01*
X38779206Y-2957345D01*
X38631128Y-3161157D01*
X38516759Y-3385620D01*
X38438908Y-3625219D01*
X38399500Y-3874034D01*
X21600500Y-3874034D01*
X21561091Y-3625219D01*
X21561090Y-3625215D01*
X21483241Y-3385621D01*
X21368870Y-3161155D01*
X21220793Y-2957344D01*
X21042656Y-2779207D01*
X20838845Y-2631130D01*
X20838844Y-2631129D01*
X20838842Y-2631128D01*
X20614379Y-2516759D01*
X20374780Y-2438908D01*
X20125965Y-2399500D01*
X20125962Y-2399500D01*
X19874038Y-2399500D01*
X19874035Y-2399500D01*
X19625219Y-2438908D01*
X19385620Y-2516759D01*
X19161157Y-2631128D01*
X18957345Y-2779206D01*
X18779206Y-2957345D01*
X18631128Y-3161157D01*
X18516759Y-3385620D01*
X18438908Y-3625219D01*
X18399500Y-3874034D01*
X400000Y-3874034D01*
X400000Y-499000D01*
X418907Y-440809D01*
X468407Y-404845D01*
X499000Y-400000D01*
X59501000Y-400000D01*
X59559191Y-418907D01*
G37*
%TD.AperFunction*%
%TD*%
M02*
